<svg class="siteFooter__eye" version="1.1" id="Layer_1" xmlns="http://www.w3.org/2000/svg" xmlns:xlink="http://www.w3.org/1999/xlink" x="0px" y="0px"
	 viewBox="0 0 131 193" style="enable-background:new 0 0 131 193;" xml:space="preserve">
<g id="Symbols">
	<g id="footer_x2F_white-locations" transform="translate(-659.000000, -325.000000)">
		<g>
			<path d="M771.4,400.1c0.1,0.5,0.1,0.9,0.2,1.3c0.2,1.8,0.4,3.5,0.4,5.3c0.1,3.5,0.2,7,0.1,10.5c-0.1,3.5-0.3,7.1-0.5,10.6
				c-0.1,1.4-0.3,2.8-0.5,4.1c-0.6,3-1.2,6.1-1.9,9.1c-0.3,1.1-0.7,2.3-1.1,3.4c-0.3,0.9-0.7,1.7-1.2,2.6c-0.4,0.7-0.6,1.3-1.2,1.8
				c-0.4,0.3-0.8,0.6-1.4,0.7c-0.6,0.1-1.3,0.3-1.9,0.4c-0.7,0.2-1.3,0.1-1.9-0.3c-0.6-0.4-1.2-0.8-1.7-1.2
				c-0.6-0.5-0.8-1.2-0.9-1.9c0-0.3,0-0.7,0-1c0-0.3-0.1-0.5-0.5-0.6c-0.2,0-0.5,0-0.7-0.1c-1.1-0.1-1.9-0.6-2.4-1.4
				c-0.6-1-0.9-2-1-3.2c-0.4-3-0.4-6-0.2-8.9c0-0.4,0-0.9-0.1-1.4c-0.1,0.2-0.2,0.4-0.3,0.6c-0.8,1.4-1.7,2.8-2.5,4.2
				c-0.7,1.3-1.3,2.6-1,4.1c0.2,1.1,0.2,2.3,0.2,3.4c0.1,1.6,0.1,3.3,0.1,4.9c0,1.2,0,2.4-0.3,3.6c-0.1,0.5-0.3,1.1-0.9,1.2
				c-0.1,0-0.3,0.2-0.4,0.4c-0.4,0.7-1,1-1.8,1c-0.1,0-0.1,0-0.3,0.1c0,0.5,0,1-0.1,1.5c-0.2,1.2-0.2,2.3-0.2,3.5
				c0,1.5,0,3.1-0.3,4.6c-0.1,0.3,0,0.6,0,0.9c0,0.4,0.2,0.9,0.2,1.3c0,1.7,0.1,3.3,0,5c-0.1,1.8-0.5,3.6-0.8,5.3
				c-0.1,0.4-0.1,0.8-0.2,1.2c-0.1,0.5-0.2,1-0.4,1.5c-0.1,0.2-0.2,0.4-0.2,0.6c-0.1,0.9-0.5,1.7-1,2.4c-0.7,1-1.7,1.4-2.8,1.6
				c-0.6,0.1-1.2-0.2-1.5-0.8c-0.3-0.5-0.5-1-0.7-1.5c-0.1-0.2-0.1-0.3-0.2-0.5c-0.2,0-0.3,0.1-0.5,0.1c-0.9,0.2-1.4,0-1.8-0.8
				c-0.3-0.5-0.5-1.1-0.5-1.7c-0.1-1.7-0.2-3.5-0.3-5.2c-0.1-1.5-0.1-3.1-0.2-4.6c0-0.2,0-0.3-0.2-0.6c-0.2,0.3-0.3,0.5-0.5,0.8
				c-0.3,0.6-0.5,1.2-1,1.6c-0.1,0.1-0.1,0.3-0.1,0.4c0.3,1.3,0.3,2.7,0.3,4.1c0.1,1.7,0.2,3.4,0.3,5.1c0,0.6,0.2,1.2,0.3,1.8
				c0.1,1,0.2,2,0.3,3c0.1,1.5,0.3,3,0.4,4.6c0,0.2,0,0.3,0.1,0.5c0.5,1.9,0.6,3.8,0.7,5.7c0.1,2.7,0.1,5.4,0.2,8.1
				c0,1.2,0.2,2.4,0.3,3.6c0.1,1.8,0,3.5-0.2,5.3c-0.1,0.7-0.1,1.3-0.2,2c-0.2,1.3-1,2.2-1.9,3c-0.7,0.7-1.7,0.8-2.7,0.6
				c-1.3-0.3-2.3-1-2.8-2.3c-0.4-1-0.7-2-1.1-3c-0.1-0.2-0.1-0.3-0.1-0.6c-0.2,0-0.3,0-0.5,0c-1-0.1-1.7-0.6-2.2-1.4
				c-0.8-1.1-1-2.3-1.1-3.5c-0.2-2-0.4-3.9-0.6-5.8c-0.2-2.1-0.3-4.3-0.1-6.4c0-0.2,0-0.5,0-0.8c0.1-2.3,0.1-4.6,0.2-6.9
				c0-0.7,0.2-1.4,0.3-2.2c0.1-0.3,0.1-0.5-0.1-0.7c-1-1.1-1.6-2.3-2.1-3.6c-0.1-0.3-0.3-0.5-0.6-0.6c-0.9-0.4-1.6-0.9-1.7-2
				c-0.1-0.7-0.3-1.5-0.3-2.2c0-1.8,0.1-3.5,0.1-5.3c0-0.3,0.1-0.6,0.1-1c-1-0.9-1.6-2.1-2.3-3.4c-0.1,0.3-0.1,0.4-0.1,0.6
				c-0.1,4.4-0.5,8.8-1,13.2c-0.3,2.5-0.5,4.9-0.7,7.4c-0.2,2.3-0.6,4.6-1.4,6.8c-0.2,0.5-0.4,1-0.7,1.4c-0.5,0.7-1.1,1.1-2,0.9
				c-0.1,0-0.2,0-0.3,0c-0.1,0.2-0.2,0.5-0.2,0.7c-0.3,1.1-0.7,2.2-1.3,3.2c-0.9,1.5-2.2,2.3-3.8,2.6c-0.4,0.1-0.9,0.1-1.4,0
				c-1.6-0.4-2.9-1.2-3.9-2.5c-1-1.4-1.4-3-1.7-4.6c-0.5-2.1-0.4-4.3-0.2-6.5c0.2-1.9,0.5-3.8,0.8-5.7c0.1-0.7,0.3-1.3,0.5-2
				c0.7-2.3,1-4.6,1.5-6.9c0.2-1,0.4-2,0.7-3c0.2-0.9,0.3-1.8,0.3-2.8c0-3.3,0.1-6.5,0.1-9.8c0-2.6,0.4-5.2,0.8-7.8
				c0.1-0.8,0.3-1.5,0.4-2.3c0.1-1,0.4-2,0.8-3c0.1-0.2,0.2-0.4,0.3-0.6c0.4-0.4,0.4-0.8,0.3-1.3c-2-0.8-2.9-2.4-3.7-4.2
				c-0.5-1.1-0.8-2.3-1-3.5c-0.2-1.2-0.1-2.5-0.1-3.7c0.1-1.9,0.3-3.8,0.4-5.7c0-0.2,0-0.4-0.1-0.6c-1-1.6-2-3.2-3-4.8
				c-0.1-0.1-0.1-0.2-0.3-0.4c0,0.2-0.1,0.4-0.1,0.5c0,0.6,0.1,1.1,0.1,1.7c0.1,1.8,0.1,3.6,0.2,5.5c0,2.3,0,4.7-0.1,7
				c0,1.9-0.3,3.9-0.8,5.8c-0.2,0.8-0.5,1.5-0.9,2.2c-0.8,1.1-1.9,1.4-3.2,1c-0.1,0-0.2-0.1-0.3-0.1c-0.1,0.1-0.1,0.2-0.2,0.4
				c-0.4,1.1-1.1,1.9-2,2.7c-1.3,1.1-3,1.2-4.5,0.2c-0.4-0.3-0.8-0.7-1.2-1.1c-1.3-1.7-2-3.6-1.8-5.8c0.2-2,0.4-3.9,0.6-5.9
				c0.2-1.6,0.3-3.3,0.5-4.9c0.2-1.8,0.4-3.5,0.6-5.3c0.2-1.6,0.4-3.1,0.5-4.7c0.1-1.5,0.2-3,0.3-4.6c0.2-2.9,0-5.7-0.4-8.5
				c-0.2-1.4-0.2-2.8-0.3-4.2c-0.3-3.5-1.2-6.8-2.6-9.9c0-0.1-0.1-0.2-0.2-0.3c-0.2,0.1-0.3,0.1-0.5,0.2c-0.1,0-0.3,0.2-0.4,0.1
				c-0.6-0.2-1,0.1-1.5,0.3c-0.5,0.2-1,0.2-1.5,0c-1.6-0.6-2.7-1.7-2.9-3.5c-0.3-2.5-0.7-5-1-7.5c-0.1-1-0.1-2-0.2-3
				c0-1.5-0.4-2.9-0.8-4.3c-0.8-2.5-2-4.7-3.1-7.1c-0.1-0.1-0.1-0.3-0.3-0.4c-0.5-0.4-0.7-1-1-1.5c-1.1-2-2.2-4-3.5-5.9
				c-0.9-1.3-1.5-2.7-2.1-4.2c-0.3-0.7-0.5-1.4-0.7-2.1c-0.3-1.1-0.1-2.1,0.3-3.1c0.7-1.9,2-3.5,3.3-5c0.4-0.5,1.1-0.7,1.7-1.1
				c0.1-0.1,0.3-0.1,0.4-0.1c0.4,0.2,0.8,0,1.1-0.2c0.8-0.5,1.6-1,2.5-1.5c0.7-0.4,1.5-0.9,2.3-1.2c2.1-0.8,3.9-2,5.8-3.1
				c3.8-2.1,7.5-4.2,11.5-5.9c2.2-1,4.3-2,6.4-3.1c1.6-0.8,3.2-1.3,4.9-1.7c2-0.4,4.1-0.8,6.2-1.2c1.6-0.3,3.3-0.4,4.9-0.6
				c0.6-0.1,1.2,0,1.8,0.1c1.7,0.1,3.3,0.3,5,0.4c2.9,0.1,5.7,0.1,8.6,0.2c0.8,0,1.6,0.1,2.4,0.2c1.6,0.2,3.2,0.4,4.8,0.6
				c1.8,0.2,3.7,0.4,5.5,0.6c2.8,0.4,5.6,0.8,8.4,1.6c2.3,0.7,4.5,1.4,6.6,2.3c2.4,1.1,5,1.9,7.5,2.6c2.2,0.6,4.1,1.6,6,2.8
				c1.1,0.7,2.2,1.4,3.4,2.1c0.3,0.2,0.6,0.4,1,0.5c3.3,1.2,6.1,3.2,8.9,5.2c1.2,0.9,2.4,1.7,3.6,2.5c0.9,0.6,1.5,1.4,2,2.3
				c0.5,1,1,2,1.7,2.9c0.8,1,1.2,2.3,1.6,3.5c0.2,0.5,0.1,1-0.3,1.5c-0.1,0.1-0.2,0.2-0.2,0.3c-0.4,1.3-1.1,2.4-1.7,3.6
				c-0.8,1.7-1.6,3.3-2.3,5c-0.9,2.1-1.8,4.1-2.8,6.1c-0.8,1.6-1.7,3.2-2.2,5c-0.7,2.3-1.2,4.7-1.5,7.1c-0.4,2.8-0.8,5.5-1.2,8.3
				c0,0.2,0,0.5-0.1,0.7c-0.1,0.5-0.2,1-0.4,1.4c-0.3,0.5-0.5,1-0.6,1.6c-0.2,0.7-0.6,1.3-1.2,1.6c-0.3,0.2-0.6,0.4-0.9,0.6
				C773.4,399.9,772.6,400.4,771.4,400.1z M756.5,419.8c1.1,0.8,2.4,0.5,3.1-0.6c0.3-0.5,0.5-1.1,0.6-1.7c0.2-1.4,0.4-2.7,0.6-4.1
				c0.1-0.8,0.1-1.6,0.1-2.4c0.2-1.6,0.4-3.2,0.6-4.7c0-0.2,0-0.5,0.4-0.6c0,0.2,0.1,0.4,0.1,0.7c0,0.9-0.1,1.8-0.1,2.7
				c0,1.9,0.1,3.9,0.1,5.8c0,1.3,0,2.6-0.5,3.8c-0.1,0.2-0.1,0.4-0.1,0.6c0,1,0,2-0.1,2.9c-0.1,1.2-0.1,2.4-0.1,3.5
				c0.1,2.6,0,5.1-0.1,7.7c0,2.8,0.1,5.7,0.4,8.5c0.1,0.9,0.3,1.7,0.5,2.6c0.1,0.6,0.5,0.8,1.1,0.9c0.4,0.1,0.8-0.1,1.2-0.2
				c1-0.1,1.5-0.7,1.9-1.5c0.3-0.7,0.6-1.4,0.8-2.1c0.9-3.3,1.1-6.7,1.2-10.1c0.1-2,0.1-4.1,0-6.1c0-3.8-0.1-7.7-0.1-11.5
				c0-1.9,0-3.8,0-5.7c0-1.2,0-2.3,0.1-3.5c0.1-1.4,0.2-2.9,0.4-4.3c0.1-1.1,0.2-2.2,0.4-3.2c0.1-0.5,0.2-1.1,0-1.6
				c-0.5-1.4-0.1-2.7,0.3-4c0.1-0.2,0.2-0.5,0.6-0.5c0,0.2,0,0.4,0,0.6c-0.1,0.6-0.2,1.3-0.2,1.9c0.1,1,0.3,1.9,0.5,2.9
				c0.1,0.3,0.3,0.4,0.6,0.3c0.4-0.1,0.8-0.2,1.3-0.3c0.5-0.1,0.9-0.2,0.8-0.8c0-0.1,0.1-0.2,0.1-0.3c0.2-0.5,0.4-1,0.5-1.5
				c0.2-1.4,0.3-2.9,0.4-4.3c0.1-1.5,0.3-3.1,0.4-4.6c0.1-1,0.6-1.9,1.1-2.7c0.3-0.5,0.5-1,0.7-1.6c0.2-1,0.4-1.9,0.7-2.9
				c1-3.4,2.8-6.4,4.4-9.5c0.5-1,1.1-2,1.7-3.1c0.4-0.7,0.4-0.7-0.3-1.3c0,0-0.1-0.1-0.1-0.1c-1.1-0.9-2.3-1.7-3.4-2.6
				c-1.1-0.9-2.3-1.8-3.6-2.4c-0.8-0.4-1.6-0.8-2.4-1.2c-1.3-0.8-2.7-1.5-4-2.3c-1.2-0.7-2.3-1.6-3.4-2.4c-0.2-0.2-0.4-0.4-0.3-0.6
				c0.2-0.3,0.4-0.3,0.7-0.2c0.4,0.1,0.8,0.3,1.1,0.5c0.5,0.2,1,0.5,1.4,0.8c1.8,1.1,3.6,2.1,5.4,3.2c0.9,0.5,1.9,1,2.8,1.5
				c1.4,0.8,2.8,1.4,4.4,1.8c1,0.3,2,0.7,2.8,1.4c0.1,0.1,0.3,0.2,0.4,0.3c0.3-0.5,0.5-1,0.7-1.6c0.5-1.3,1.1-2.5,1.3-3.9
				c0.1-0.3,0-0.6-0.2-0.9c-0.4-0.7-0.8-1.4-1.2-2.1c-0.8-1.4-1.9-2.5-3.4-3.3c-0.6-0.3-1.2-0.8-1.8-1.2c-1.2-0.8-2.4-1.6-3.7-2.4
				c-1.6-1-3.1-2.1-4.5-3.2c-0.4-0.3-0.8-0.7-1.3-0.9c-2.8-1.4-5.5-2.9-8.3-4.2c-4.4-2-9-3.7-13.6-5c-3.3-0.9-6.6-1.7-10-2.2
				c-2.5-0.4-5.1-0.6-7.7-0.8c-2.2-0.2-4.3-0.2-6.5-0.3c-1,0-2.1,0-3.1,0.1c-1.9,0.1-3.8,0.2-5.7,0.4c-0.9,0.1-1.8,0.2-2.7,0.5
				c-2,0.7-4,0.9-6,1c-1.3,0-2.7,0.1-4,0.3c-1.1,0.1-2.3,0.3-3.1,1.2c-0.1,0.1-0.3,0.2-0.4,0.3c-0.5,0.3-0.9,0.4-1.4,0.1
				c-0.3-0.2-0.5-0.1-0.7,0c-0.3,0.2-0.6,0.3-0.8,0.4c-1.8,0.9-3.5,1.8-5.3,2.5c-2.2,1-4.5,1.8-6.7,2.7c-1.8,0.8-3.7,1.5-5.4,2.5
				c-3,1.5-5.9,3.2-8.8,4.8c-0.2,0.1-0.3,0.2-0.5,0.3c-0.7,0.5-1.3,1.1-2,1.6c-0.3,0.3-0.8,0.3-1.2,0.1c-0.4-0.2-0.7-0.1-1,0.2
				c-0.2,0.2-0.5,0.5-0.7,0.8c-0.3,0.7-0.9,1.3-1.4,1.9c-0.7,0.9-1.1,1.9-0.7,3.1c0,0.1,0,0.1,0,0.2c0,0.8,0.4,1.4,0.7,2.1
				c1,1.8,2,3.7,2.9,5.5c0.1,0.2,0.2,0.4,0.4,0.6c0.5-0.3,0.9-0.7,1.4-1c0.6-0.4,1.3-0.8,1.9-1.3c0.6-0.5,1.3-1,2-1.3
				c0.7-0.3,1.4-0.7,1.9-1.3c0.2-0.2,0.4-0.3,0.7-0.5c0.5-0.3,1-0.5,1.5-0.8c2-0.9,3.9-1.9,5.9-2.8c2-0.9,4.1-1.6,6.2-2.4
				c0.2-0.1,0.4-0.1,0.6-0.1c2.6-0.2,5.3-0.4,7.9-0.6c0.2,0,0.4,0,0.6,0c-0.1,0.2-0.3,0.2-0.4,0.3c-1.3,0.6-2.5,1.1-3.8,1.7
				c-1.3,0.6-2.5,1.1-3.8,1.7c-0.2,0.1-0.5,0.2-0.8,0.2c-0.9,0.1-1.8,0.4-2.6,0.9c-0.7,0.4-1.4,0.8-2.1,1.1c-4.2,1.6-8,3.9-11.9,6.2
				c-0.1,0.1-0.2,0.1-0.3,0.2c-0.9,0.8-1.9,1.5-2.8,2.3c-0.4,0.3-0.4,0.3-0.1,0.8c0.3,0.5,0.5,1,0.8,1.5c0.9,1.6,1.9,3.2,2.8,4.9
				c0.5,1,1.3,1.9,1.7,3c0.2,0.4,0.4,0.9,0.6,1.3c0.4,0.7,0.8,1.4,1.2,2.2c0.6,1.2,1.2,2.4,1.9,3.6c0.1,0.2,0.2,0.3,0,0.6
				c-0.1-0.1-0.3-0.2-0.4-0.3c-0.4-0.5-0.8-1-1.1-1.5c-0.9-1.3-1.8-2.7-2.7-4c-0.1-0.2-0.2-0.3-0.4-0.5c0,0.1-0.1,0.2-0.1,0.3
				c0,0.2,0,0.3,0.1,0.5c0.4,1.6,0.8,3.1,0.9,4.8c0.2,2.4,0.5,4.8,0.7,7.1c0.1,0.7,0.4,1.2,0.9,1.5c1,0.5,2.2-0.1,2.6-1.2
				c0.3-1,0.6-1.9,0.9-2.8c0.1,0,0.1,0,0.2,0c0.2,0.4,0.5,0.8,0.7,1.3c0.4,0.8,0.8,1.5,1.4,2.1c0.6,0.6,1,1.3,1.4,2
				c0.2,0.3,0.4,0.6,0.5,0.9c0.2,0.4,0.3,0.9,0.4,1.4c0.2,1.4,0.3,2.7,0.5,4.1c0.2,2.4,0.4,4.8,0.5,7.2c0.1,2,0,4,0.1,6
				c0,4.4,0,8.8-0.4,13.2c-0.2,2.2-0.3,4.5-0.4,6.7c-0.1,1.6-0.3,3.1-0.5,4.7c-0.2,2-0.5,3.9-0.4,5.9c0.1,1,0.3,1.9,1,2.7
				c0.8,1,2.5,0.9,3.3,0.1c0.6-0.6,0.9-1.4,1.2-2.1c0.4-1.3,0.6-2.7,0.7-4.1c0.1-2.5,0.2-4.9,0.3-7.4c0.1-1.5,0.1-2.9,0.1-4.4
				c0.1-1.9,0.3-3.7,0.5-5.6c0.3-2.7,0.6-5.4,0.9-8.1c0-0.4,0-0.8-0.2-1.1c-0.4-0.8-0.7-1.7-0.7-2.6c0-0.2-0.1-0.3-0.1-0.5
				c-0.2-0.7-0.4-1.3-0.5-2c-0.2-0.8-0.3-1.7-0.7-2.5c-0.5-0.9-0.8-1.8-1.2-2.7c-0.1-0.2-0.1-0.4-0.2-0.6c0.2,0.1,0.3,0.1,0.3,0.1
				c0.5,0.7,1.1,1.4,1.5,2.2c0.3,0.5,0.6,1.1,0.9,1.6c0.5,0.9,1.1,1.7,1.6,2.5c0.2,0.4,0.4,0.9,0.6,1.4c0.3,0.7,0.5,1.4,0.8,2.1
				c0.7,1.4,1.5,2.9,2.3,4.3c1.7,3.1,3.4,6.3,5,9.4c0.5,0.9,1.1,1.8,1.2,2.9c0.2,1.4,0.2,2.8-0.1,4.2c-0.4,1.7-0.6,3.5-0.4,5.2
				c0.1,0.6,0.2,1.2,0.4,1.7c0.2,0.5,0.6,0.9,1.1,1c0.7-0.8,1-1.8,1.2-2.8c0.3-1.5,0.7-3,1-4.4c0,0,0.1-0.1,0.1-0.1
				c0.3,0.1,0.3,0.4,0.3,0.7c0.1,1.1,0.1,2.3,0.3,3.4c0.2,1,0.1,2-0.3,2.9c-0.3,0.9-0.5,1.7-0.5,2.7c0,0.3,0,0.7,0,1
				c0,0.1-0.1,0.4-0.2,0.4c-0.5,0.2-0.4,0.7-0.5,1.1c0.6,0.3,0.6,0.8,0.6,1.3c0,0.3-0.1,0.5-0.1,0.8c-0.1,1.5-0.2,2.9-0.3,4.4
				c-0.2,2.3-0.4,4.7-0.6,7c-0.2,2-0.3,4.1-0.4,6.1c-0.2,2.6-0.3,5.2-0.6,7.8c-0.2,2-0.4,3.9-0.8,5.9c-0.6,3.3-1.4,6.5-1.6,9.8
				c-0.2,2.3-0.3,4.6-0.1,6.9c0.1,1.3,0.5,2.6,1.1,3.9c0.3,0.5,0.7,0.9,1.3,1.1c1.5,0.3,2.8-0.3,3.4-1.7c0.3-0.6,0.5-1.3,0.7-2
				c0.2-1.1,0.4-2.3,0.5-3.4c0.2-2.2,0.5-4.4,0.6-6.7c0.1-2-0.1-4.1-0.2-6.2c0-0.8,0-1.6,0-2.3c0.1-1.1,0.2-2.3,0.3-3.4
				c0.2-2.4,0.3-4.7,0.5-7.1c0.2-2.9,0.5-5.8,0.8-8.7c0.2-2.4,0.6-4.7,1.1-7c0.4-1.6,1-3.1,1.7-4.7c0.1,0.1,0.2,0.2,0.2,0.3
				c1.1,2,2.1,4,3.2,6c0.3,0.5,0.5,1,0.6,1.5c0.4,1.6,0.8,3.2,0.7,4.9c0,1.3,0.1,2.5,0.4,3.7c0.2,1.1,0.7,2.2,1.5,3
				c0.3,0.3,0.6,0.5,1.1,0.6c0.1-0.1,0.2-0.2,0.2-0.3c0-0.1,0.1-0.3,0.1-0.4c0.1-1.2,0.1-2.3-0.4-3.4c-0.2-0.4-0.3-0.9-0.3-1.4
				c0-0.4,0.1-0.7,0.5-0.9c0.4-0.2,0.7-0.1,1,0.1c0.5,0.3,0.8,0.7,0.9,1.3c0.1,0.5,0.2,0.9,0.3,1.4c0.1,0.6,0.1,1.1,0.3,1.7
				c0.2,0.8,0.2,1.6,0,2.4c-0.1,0.3-0.1,0.5,0.1,0.8c0.3,0.5,0.3,1.1,0,1.6c-0.2,0.3-0.2,0.6-0.2,0.9c0.1,0.8,0,1.6-0.1,2.4
				c-0.1,0.5-0.1,1-0.2,1.6c0,0.2,0,0.4,0.1,0.5c0.3,0.3,0.4,0.7,0.4,1.1c0,1.2,0.5,2.3,0.6,3.5c0,0.6,0.2,1.3,0.3,1.9
				c0.2,0.7,0.5,1.4,1,1.9c0.4,0.4,0.9,0.6,1.5,0.5c0.5,0,0.6-0.1,0.7-0.6c0.1-0.4,0.1-0.9,0.2-1.4c0.1-1.4,0.2-2.9,0.3-4.3
				c0-0.5-0.1-1-0.1-1.4c0-1.1,0-2.1,0.1-3.2c0-0.1,0.1-0.3,0.1-0.4c0,0,0.1,0,0.1,0c0.1,0.2,0.1,0.3,0.2,0.5
				c0.2,1.6,0.5,3.2,0.6,4.9c0.1,1.2,0.2,2.4-0.1,3.5c-0.2,0.8-0.4,1.5-0.4,2.3c-0.1,1.8-0.2,3.6-0.2,5.4c0,2.8,0.1,5.7,0.1,8.5
				c0,0.6,0.1,1.3,0.1,1.9c0,0.2,0,0.5-0.1,0.6c-0.2,0.2-0.2,0.4-0.1,0.6c0.5,2.3,0.6,4.7,0.7,7c0.1,1.8,0.3,3.5,1,5.1
				c0.4,1,1,1.9,1.7,2.8c0.5-0.3,1-0.5,1.4-0.8c0.3-0.2,0.6-0.4,0.7-0.7c0.2-0.7,0.5-1.3,0.4-2.1c-0.1-1.1-0.2-2.2-0.3-3.3
				c-0.2-2.7-0.5-5.4-0.4-8.1c0-0.3,0-0.6-0.1-0.9c-0.1-1-0.2-2.1-0.2-3.1c-0.1-1.9,0-3.8-0.1-5.7c-0.1-2-0.2-4-0.3-6
				c-0.1-2.3-0.2-4.6-0.3-7c0-1.7,0-3.4,0-5.1c0-0.2,0-0.5-0.1-0.7c-0.3-0.9-0.3-1.8-0.4-2.7c-0.1-1,0.2-1.8,0.8-2.4
				c0.5-0.5,0.8-1.2,1.1-1.8c0.2-0.4,0.4-0.7,0.6-1c0.7-1.2,1.4-2.4,1.8-3.7c0.2-0.5,0.5-0.9,0.7-1.3c0.2-0.3,0.4-0.6,0.5-1
				c0-0.7,0.3-1.4,0.7-2c0.5-0.9,1.2-1.8,1.6-2.8c0.4-0.9,1-1.7,1.4-2.6c0.1-0.2,0.2-0.3,0.5-0.1c-0.1,0.3-0.2,0.6-0.3,0.9
				c-0.2,0.6-0.4,1.2-0.6,1.9c-0.2,0.8-0.4,1.5-0.6,2.3c0,0.2-0.1,0.3-0.1,0.5c-0.1,0.6-0.3,1.2-0.4,1.9c-0.1,0.5-0.3,1-0.3,1.5
				c0.1,1.2,0.2,2.3,0.3,3.5c0.2,2.5,0.5,4.9,0.6,7.4c0.1,1.9,0.2,3.8,0.2,5.7c0,1.7,0.5,3.3,1,4.9c0.1,0.2,0.2,0.4,0.5,0.4
				c0.3,0,0.4-0.2,0.5-0.4c0.1-0.3,0.2-0.7,0.3-1c0.1-0.6,0.2-1.1,0.3-1.7c0.1-0.8,0.3-1.6,0.3-2.4c0.1-1.3,0.2-2.6,0.3-4
				c0.1-1,0.2-2.1,0.1-3.1c-0.1-1.6,0.4-3.2,0.4-4.8c0-0.1,0-0.2,0-0.3c0-0.4,0.1-0.7,0.1-1.1c0-3.1-0.1-6.2-0.1-9.2
				c0-1.7,0.1-3.4,0.1-5.1c0-0.3,0-0.6,0-1c0-0.3,0-0.6,0.5-0.8c0.1,0.2,0.3,0.5,0.3,0.7c0.2,0.6,0.4,1.2,0.6,1.7
				c0.3,0.7,0.6,1.5,0.9,2.2c0.2,0.3,0.4,0.6,0.8,0.7c0.1-0.4,0.2-0.7,0.3-1c0.2-1,0.3-2.1,0.2-3.1c0-2,0.1-4.1,0-6.1
				c0-1.1-0.2-2.2-0.3-3.3c-0.1-1.1-0.1-2.1,0.6-3c0.5-0.7,0.9-1.5,1.2-2.3c0.7-1.6,1.5-3.1,2.5-4.5c0.9-1.2,1.6-2.5,2.4-3.7
				c0.4-0.7,0.8-1.5,1.1-2.3c0.8-1.6,1.7-3.2,2.3-5c0.2-0.5,0.3-1,0.5-1.6c0.2-0.4,0.5-0.6,0.8-0.5c0.3,0.1,0.5,0.4,0.4,0.8
				c-0.1,0.4-0.2,0.8-0.3,1.1C757.3,418.2,756.9,419,756.5,419.8z"/>
			<path d="M745,389.9c0.4,0.8,0.7,1.5,1,2.1c0.1,0.2,0.3,0.4,0.2,0.8c0,0.2,0.1,0.5,0.1,0.7c0.3,1.5,0,3-0.1,4.6
				c0,1-0.2,1.9-0.6,2.8c0.3,0.3,0.8,0.5,0.5,1.1c-0.3,0.5-0.7,0.4-1.1,0.3c-0.1,0.3-0.3,0.5-0.4,0.8c-0.6,1.6-1.6,2.9-2.6,4.2
				c-0.7,0.9-1.5,1.7-2.3,2.6c-0.9,1-2,1.7-3.2,2.3c-0.4,0.2-0.8,0.4-1.2,0.6c-0.3,0.1-0.5,0.3-0.6,0.6c-0.1,0.3-0.4,0.4-0.7,0.4
				c-0.2,0-0.4,0-0.5,0c-0.5,0.2-1,0.5-1.6,0.8c0.3,0.3,0.8,0.6,0.5,1.1c-0.1,0.3-0.5,0.4-0.8,0.3c-0.4-0.2-0.5-0.4-0.4-1.1
				c-0.2,0-0.4,0.1-0.5,0.1c-0.7,0.2-1.5,0.4-2.2,0.5c-0.3,0.1-0.6,0.1-0.9,0.4c-0.2,0.2-0.5,0.2-0.7,0c-0.3-0.2-0.6-0.2-0.9-0.2
				c-0.9,0-1.7-0.1-2.6-0.2c-0.2,0.2-0.4,0.6-0.9,0.4c-0.4-0.1-0.5-0.5-0.5-0.9c-1.3-0.6-2.5-1.1-3.7-1.7c-1.1-0.5-2-1.2-2.9-2
				c-1.9-1.7-3.1-3.9-4.1-6.2c-0.1-0.3-0.3-0.5-0.5-0.8c-0.1-0.1-0.1-0.3-0.2-0.4c-0.1-0.4-0.1-0.8-0.2-1.2c-0.6-2.1-0.5-4.1,0-6.2
				c0.1-0.3,0.2-0.5,0.2-0.8c0-0.2,0.1-0.5,0-0.7c-0.1-0.3,0-0.5,0.2-0.7c0.1-0.1,0.3-0.3,0.4-0.4c0.4-1,1.1-1.9,1.8-2.7
				c0.1-0.1,0.2-0.2,0.3-0.5c-0.3,0.1-0.4,0.1-0.5,0.2c-1,0.5-1.9,0.9-2.9,1.4c-0.2,0.1-0.3,0.3-0.4,0.4c-0.2,0.5-0.4,0.5-0.9,0.4
				c-0.1,0-0.3,0-0.5,0c-0.5,0.3-0.9,0.6-1.4,0.9c0.3,0.3,0.7,0.6,0.4,1.1c-0.1,0.3-0.4,0.4-0.7,0.3c-0.4-0.1-0.5-0.5-0.6-0.9
				c-0.1,0-0.2,0-0.2,0c-1.9,1.1-3.8,2.1-5.4,3.7c-1.4,1.4-2.9,2.5-4.5,3.6c-0.5,0.3-0.8,0.4-1,0.2c-0.2-0.4,0.1-0.6,0.3-0.9
				c0.2-0.2,0.4-0.5,0.7-0.7c1.2-1.2,2.3-2.4,3.5-3.5c0.9-0.8,1.8-1.6,2.8-2.2c1.4-1,2.9-1.9,4.4-2.8c0.9-0.6,1.9-1,2.8-1.6
				c1.1-0.6,2.2-1.2,3.3-1.9c2.7-1.6,5.6-2.5,8.7-3.3c3.2-0.8,6.4-1,9.7-1.1c2.5-0.1,5,0,7.5,0.7c2.2,0.6,4.5,1,6.7,1.8
				c1.8,0.6,3.5,1.4,5.1,2.4c0.4,0.2,0.8,0.4,1.2,0.7c1.1,0.7,2.2,1.3,3.4,2c0.3,0.2,0.5,0.4,0.7,0.6c0.3,0.2,0.6,0.5,0.9,0.6
				c1.5,0.8,2.6,1.8,3.4,3.4c0.2,0.3,0.4,0.6,0.5,1c0.1,0.3,0.2,0.6,0,0.8c-0.3,0.2-0.5,0.2-0.8,0c-0.3-0.1-0.5-0.2-0.8-0.4
				c-0.1-0.1-0.3-0.1-0.3-0.3c-0.3-0.7-1-1.1-1.4-1.7c-0.1-0.1-0.3-0.2-0.4-0.3c-0.2-0.1-0.4-0.3-0.5-0.4c-0.1-0.4-0.4-0.6-0.7-0.7
				c-1.8-1-3.5-2-5.5-2.6c-0.5-0.2-1-0.5-1.6-0.6C747.5,390.8,746.4,390.2,745,389.9z M713.5,402.5c0,0.1,0.1,0.3,0.1,0.4
				c1.1,2.3,2.3,4.5,4.1,6.2c0.6,0.6,1.2,1.1,2,1.4c0.9,0.4,1.9,0.9,2.8,1.4c0.5,0.2,1,0.4,1.4,0.7c0.2,0.1,0.5,0.1,0.7,0
				c0.3-0.3,0.7-0.2,0.8,0.1c0.3,0.4,0.6,0.5,1,0.4c0.7,0,1.3-0.1,2-0.1c0.3,0,0.5-0.1,0.6-0.3c0.2-0.2,0.4-0.4,0.7-0.2
				c0.3,0.2,0.7,0.1,1,0c0.4-0.2,0.8-0.3,1.2-0.5c1.4-0.8,2.8-1.6,4.2-2.4c1.3-0.7,2.2-1.7,3-2.9c1.3-1.8,2.3-3.9,3.3-5.9
				c0.1-0.2,0.2-0.5,0.3-0.7c-0.3-0.7-0.3-0.7,0.2-1.3c0.1-0.1,0.2-0.2,0.2-0.4c0.1-0.9,0.1-1.8,0.1-2.7c-0.4-0.2-0.8-0.3-0.8-0.8
				c0-0.5,0.5-0.6,0.8-0.8c0-0.9-0.3-1.6-0.6-2.4c-0.4-0.8-0.8-1.7-1.2-2.5c-0.1-0.3-0.3-0.3-0.5-0.4c-1.1-0.3-2.2-0.5-3.3-0.7
				c-0.2-0.1-0.5-0.1-0.8-0.1c0,0.3-0.1,0.6,0,0.8c0.2,0.5,0.5,1,0.8,1.6c0.1-0.1,0.2-0.3,0.3-0.4c0.3-0.3,0.6-0.3,0.9-0.1
				c0.2,0.2,0.4,0.4,0.2,0.7c-0.1,0.3-0.4,0.5-0.8,0.4c-0.2,0-0.3-0.1-0.5-0.2c0.2,1.1,0.5,2.1,0.7,3.1c0,0.2,0.2,0.3,0.3,0.5
				c0.3,0.4,0.3,0.5,0.1,1c-0.1,0.2-0.2,0.3-0.2,0.5c0,0.9-0.1,1.7-0.1,2.6c0,0.2,0,0.4,0.2,0.5c0.4,0.4,0.4,0.7-0.1,1.1
				c-0.2,0.1-0.3,0.3-0.4,0.4c-0.6,1.8-1.7,3.4-2.8,4.9c-1.1,1.4-2.3,2.7-3.7,3.8c-1.1,0.9-2.2,1.5-3.6,1.8
				c-0.2,0.1-0.5,0.2-0.7,0.3c-0.2,0.1-0.5,0.2-0.6,0.2c-0.4-0.2-0.8-0.1-1.3-0.1c-0.6,0-1.3-0.1-1.9-0.2c-0.3,0-0.6-0.1-0.9,0.2
				c-0.4,0.4-1,0.1-1-0.5c0-0.1,0-0.3,0-0.4c-1.5-0.9-2.8-2-3.6-3.5c-0.1,0-0.2,0-0.2,0c-0.7-0.1-0.8-0.3-0.7-1c0-0.2,0-0.4,0-0.6
				c-0.8-2.1-1.1-4.2-0.4-6.4c0.1-0.3,0.1-0.6-0.2-0.8c-0.7-0.6-1-1.3-1.1-2.2c0-0.2-0.1-0.3-0.2-0.5c-0.7-0.6-0.6-1,0.3-1.3
				c0.1,0,0.1,0,0.2-0.1c0.5-1.5,1.8-2.1,2.8-2.8c-0.1-0.7-0.2-1.2-0.2-1.8c-0.7,0.2-1.5,0.3-2.2,0.5c0,1-0.2,1.1-1.3,0.9
				c-1.1,1.9-2.2,3.8-2.4,6.1c0.7-0.5,0.9-0.6,1.2-0.2c0.2,0.3,0.2,0.6,0,0.9c-0.1,0.1-0.3,0.2-0.4,0.2c-0.3-0.1-0.5-0.3-0.8-0.4
				c-0.2,1.3-0.1,2.6,0.2,3.8c0.8-0.2,1.1-0.1,1.2,0.4C714.5,401.9,714.3,402.2,713.5,402.5z"/>
			<path d="M735.8,415.7c0-0.4,0.1-0.9,0.6-1c0.5-0.1,0.7,0.3,0.8,0.7c2-0.4,3.9-0.8,5.8-1.6c-0.3-0.3-0.5-0.7-0.2-1.1
				c0.1-0.2,0.4-0.3,0.6-0.3c0.5,0,0.6,0.4,0.7,0.9c2.8-1.1,5.3-2.6,7.8-4.4c0-0.3-0.1-0.7,0.3-1c0.3-0.2,0.6,0,0.9,0.1
				c0.2-0.2,0.4-0.4,0.7-0.5c0.2-0.2,0.4-0.4,0.6-0.6c-0.3-0.7-0.3-0.9,0-1.2c0.3-0.2,0.6-0.2,1.1,0.2c0.6-0.4,1.2-0.8,1.8-1.2
				c-0.3-0.1-0.5-0.2-0.6-0.3c-0.1-0.2-0.2-0.4-0.2-0.6c0-0.3,0.4-0.5,0.7-0.5c0.4,0,0.5,0.4,0.6,0.9c0.2,0.1,0.5,0.2,0.6,0.4
				c0.1,0.2,0,0.5-0.1,0.8c-0.6,1.2-1.6,1.9-2.7,2.6c-1,0.6-2,1.3-3,1.9c-1.4,0.9-2.7,2-3.8,3.2c-0.2,0.2-0.5,0.2-0.8,0.4
				c-0.9,0.5-1.8,1.1-2.7,1.6c-2.1,1.2-4.3,2-6.5,2.9c-3.2,1.3-6.5,1.8-10,1.8c-2.7,0.1-5.3-0.2-7.9-0.8c-2.3-0.5-4.5-1-6.8-1.7
				c-0.9-0.3-1.8-0.7-2.7-1.2c-1.5-0.9-3-1.9-4.5-2.8c-0.4-0.3-0.9-0.5-1.3-0.9c-1.9-1.4-3.7-2.8-5.5-4.2c-0.8-0.6-1.6-1.4-2.3-2.1
				c-0.1-0.1-0.2-0.2-0.2-0.2c-0.1-0.2-0.1-0.4-0.1-0.6c0.2,0,0.4-0.1,0.6,0c0.2,0.1,0.4,0.2,0.6,0.4c0.3,0.2,0.6,0.5,1,0.7
				c0.1-0.5,0.2-0.9,0.7-0.9c0.3,0,0.5,0.1,0.6,0.4c0.2,0.5-0.2,0.7-0.7,0.9c0.6,0.4,1.1,0.8,1.6,1.1c1.1-0.5,1.4-0.3,1.3,0.9
				c0.6,0.3,1.1,1,1.9,1.1c0.1,0,0.2,0.2,0.3,0.3c0.3,0.3,0.5,0.6,0.9,0.8c1.4,0.9,2.8,1.6,4.4,2.1c0.1,0,0.2,0,0.4,0.1
				c0-0.4,0-0.9,0.5-1c0.3-0.1,0.5,0,0.7,0.2c0.2,0.2,0.2,0.4-0.1,1.1c0.3,0.1,0.6,0.2,0.8,0.2c1.5,0.2,2.9,0.6,4.3,1
				c0.3,0.1,0.6,0.1,0.9-0.1c0.3-0.2,0.6-0.1,0.9,0.2c0.1,0.2,0.3,0.4,0.5,0.4c3.2,0.7,6.3,1.3,9.6,1.2
				C731.3,416.6,733.5,416.2,735.8,415.7z"/>
			<path d="M726.6,377c0.8,0.1,1.6,0.2,2.5,0.3c1.8,0.2,3.5,0.4,5.3,0.4c2.1,0,4.1,0.2,6.1,0.6c0.6,0.1,1.2,0.3,1.8,0.5
				c0.4,0.2,0.8,0.5,1.1,0.7c0.3,0.3,0.4,0.6,0.2,1c-0.2,0.4-0.5,0.6-1,0.5c-0.2,0-0.5-0.1-0.7-0.2c-1.6-0.7-3.3-0.9-5-1.1
				c-1.3-0.1-2.7-0.3-4-0.5c-0.2,0-0.4-0.1-0.6-0.1c-2.7,0-5.3,0.3-7.9,1c-1,0.3-2,0.5-3,0.8c-2,0.5-3.9,1.3-5.7,2.3
				c-3.1,1.8-6.3,3.3-9.5,4.6c-1.4,0.6-2.8,1.3-4.1,2.2c-0.4,0.3-0.9,0.6-1.4,0.9c-0.1,0.1-0.3,0.2-0.4,0.2
				c-0.4,0.1-0.8-0.2-0.7-0.7c0.1-0.2,0.3-0.5,0.4-0.7c0.9-1,1.8-1.8,2.9-2.6c0.7-0.5,1.4-1.1,2.1-1.7c1.1-0.9,2.3-1.7,3.6-2.3
				c1.8-0.8,3.5-1.7,5.2-2.7c2.4-1.4,4.9-2.3,7.6-3C723.1,377.2,724.8,377.2,726.6,377z"/>
			<path d="M726,428.6c0.1,0.6,0.3,1.1,0.4,1.7c0.2,2.3,1,4.3,2.1,6.3c0.1,0.3,0.2,0.6,0.3,0.9c0.3,0.8,0.5,1.6,0.9,2.4
				c0.6,1.3,1,2.7,1.2,4.1c0.1,1.2-0.3,2.3-1.1,3.2c-0.2,0.2-0.5,0.4-0.8,0.5c-1.3,0.4-2.6,0.7-3.9,0.4c-1.1-0.2-2-0.9-2.6-1.8
				c-0.6-0.9-0.8-1.9-0.7-2.9c0.1-1.1,0.5-2.2,0.9-3.2c0.5-1.4,1-2.8,1.4-4.3c0.2-0.6,0.3-1.1,0.6-1.7c0.5-1.2,0.6-2.4,0.7-3.7
				c0-0.4,0.1-0.8,0.1-1.2C725.3,429,725.5,428.8,726,428.6z"/>
			<path d="M748.2,359.6c-0.2-0.1-0.5-0.1-0.7-0.2c-2.3-0.7-4.7-1.4-7-2c-1.1-0.3-2.3-0.4-3.4-0.5c-1,0-2,0.1-3.1,0.3
				c-2.5,0.4-4.9,1.1-7.2,2c-1.1,0.4-2.3,0.6-3.4,0.9c-1.1,0.2-2.2,0.3-3.3,0.4c-1.2,0.1-2.4,0.1-3.6-0.1c-1.2-0.2-2.4-0.2-3.6,0
				c-3.3,0.5-6.5,1.1-9.7,2.2c-1.2,0.4-2.5,0.8-3.7,1.2c-0.3,0.1-0.7,0.2-1-0.2c0.2-0.2,0.4-0.3,0.6-0.4c4.2-2,8.6-3.5,13.1-4.9
				c1.5-0.5,3-0.7,4.5-0.7c1.8,0,3.6-0.2,5.4-0.4c1.2-0.1,2.3-0.4,3.5-0.7c1.1-0.3,2.3-0.4,3.4-0.6c2-0.2,4-0.2,6,0
				c1.2,0.1,2.5,0.2,3.7,0.3c0.9,0.1,1.8,0.3,2.6,0.6c1.9,0.6,3.9,1.3,5.8,2c0.3,0.1,0.5,0.2,0.8,0.3
				C748.1,359.1,748.3,359.2,748.2,359.6z"/>
			<path d="M725.8,425.6c-2.5,0-5.1-0.2-7.5-0.6c0,0-0.1,0-0.1,0c-2.1,0-3.7-1.1-5.4-2.1c-0.7-0.5-1.4-1-2.1-1.5
				c-0.5-0.3-1-0.5-1.5-0.8c-0.5-0.2-0.7-0.5-0.6-0.7c0.2-0.4,0.6-0.3,0.9-0.2c0.6,0.1,1.1,0.2,1.6,0.5c1.3,0.6,2.6,1.1,3.9,1.3
				c0.6,0.1,1.2,0.1,1.8,0.2c1.3,0.2,2.5,0.3,3.8,0.5c0.7,0.1,1.4,0.2,2,0.2c2.9,0.1,5.8,0.2,8.7-0.1c1.5-0.2,3-0.1,4.6-0.2
				c1.9-0.2,3.8-0.5,5.6-1.3c0.9-0.4,1.9-0.8,2.8-1.2c0.2-0.1,0.4-0.2,0.6-0.2c0.4-0.1,0.7,0.1,0.8,0.4c0.1,0.3,0.1,0.6-0.2,0.8
				c-0.2,0.2-0.4,0.3-0.6,0.4c-0.8,0.3-1.5,0.7-2.3,1c-1.5,0.6-2.9,1.2-4.4,1.6c-0.9,0.2-1.8,0.6-2.6,1c-1.3,0.7-2.8,0.9-4.2,1
				C729.5,425.5,727.6,425.5,725.8,425.6z"/>
			<path d="M715.5,375.3c0-0.4,0.2-0.6,0.5-0.7c1.8-0.7,3.6-1.5,5.6-1.7c1.2-0.1,2.4-0.4,3.6-0.7c0.9-0.2,1.8-0.4,2.8-0.5
				c2.2-0.2,4.4-0.1,6.6,0.2c1.2,0.2,2.4,0.6,3.7,0.9c1.1,0.2,2.1,0.7,3.2,1c2.3,0.8,4.5,1.7,6.7,2.8c1.2,0.7,2.4,1.5,3.6,2.3
				c0.1,0,0.2,0.1,0.2,0.2c0.1,0.2,0.1,0.3,0.2,0.5c-0.2,0-0.3,0.2-0.5,0.1c-0.2,0-0.4-0.1-0.6-0.2c-2.1-1-4.2-2-6.3-2.9
				c-0.9-0.4-1.9-0.8-2.8-1.2c-0.8-0.3-1.6-0.4-2.4-0.4c-1.2,0-2.3,0.1-3.5,0.1c-1,0-2-0.1-3-0.2c-1-0.1-2.1-0.1-3.1-0.2
				c-1.1-0.1-2.1-0.1-3.2-0.4c-1.4-0.3-2.7-0.4-4.1-0.4c-1.8,0-3.6,0.3-5.3,0.9c-0.3,0.1-0.7,0.3-1,0.3
				C715.9,375.4,715.7,375.4,715.5,375.3z"/>
			<path d="M735.8,361.6c0.2-0.1,0.4-0.2,0.6-0.2c1.1-0.2,2.2,0,3.3,0.2c1.4,0.3,2.9,0.5,4.3,0.8c1.4,0.3,2.7,0.8,3.9,1.4
				c1.9,1,3.8,2,5.8,2.9c0.9,0.4,2,0.7,3,1.1c1.8,0.6,3.5,1.3,5,2.3c1.5,0.9,2.7,2.1,3.8,3.4c0.5,0.6,1.1,1.2,1.6,1.9
				c0.1,0.1,0.3,0.3,0.4,0.4c0.3,0.4,0.4,0.9,0.1,1.3c-0.3,0.4-0.7,0.6-1.2,0.5c-0.2,0-0.3-0.1-0.5-0.2c-1-0.4-1.8-1.1-2.6-1.8
				c-2-2.1-4.2-4-6.9-5.4c-0.4-0.2-0.7-0.4-1.1-0.5c-1.2-0.5-2.2-1.1-3.3-1.8c-1.7-1.1-3.4-2.1-5.1-3.1c-1.4-0.8-2.9-1.3-4.4-1.6
				c-1.1-0.2-2.2-0.6-3.3-0.8c-0.7-0.2-1.4-0.2-2.1-0.3c-0.4-0.1-0.8,0-1.2-0.3C735.9,361.7,735.9,361.7,735.8,361.6z"/>
			<path d="M688.3,380.4c-0.6,0-0.8-0.3-0.6-0.7c0.1-0.2,0.2-0.3,0.3-0.4c0.6-0.8,1.2-1.5,1.8-2.3c0.6-0.7,1.2-1.4,2-2
				c3-2.3,6.5-4,9.8-5.9c3.4-1.9,7.1-3.2,10.8-4.5c0.4-0.1,0.7-0.3,1.1-0.4c0.4-0.1,0.8-0.3,1.2-0.4c0.2-0.1,0.5,0,0.6,0.3
				c0.1,0.3-0.1,0.4-0.3,0.5c-0.2,0.1-0.4,0.2-0.6,0.2c-2.3,0.7-4.5,1.6-6.6,2.9c-2.8,1.7-5.7,3.3-8.1,5.5c-1.1,1-2.2,1.9-3.5,2.6
				c-0.6,0.3-1.1,0.7-1.6,1.1c-0.9,0.7-2,1.3-3.1,1.8c-0.9,0.4-1.6,0.9-2.5,1.3C688.7,380.2,688.4,380.3,688.3,380.4z"/>
			<path d="M737.1,367.3c2.3,0.3,4.6,0.5,6.8,1.3c0.9,0.3,1.8,0.6,2.7,0.9c2.4,0.9,4.9,1.9,7.3,2.9c1.3,0.6,2.5,1.3,3.5,2.4
				c0.2,0.2,0.4,0.5,0.5,0.7c0.4,0.8-0.2,1.6-1.1,1.5c-0.2,0-0.4-0.1-0.7-0.2c-0.6-0.3-1.2-0.5-1.8-0.8c-1.4-0.8-2.9-1.5-4.4-2.1
				c-0.7-0.3-1.4-0.6-2-1c-0.7-0.3-1.3-0.7-2-1c-0.8-0.4-1.7-0.8-2.5-1.3c-1.3-0.7-2.6-1.3-4-1.7c-0.8-0.2-1.6-0.5-2.4-0.7
				c-0.1,0-0.2,0-0.3-0.1c-0.4-0.1-0.6-0.4-0.5-0.6c0.1-0.3,0.4-0.4,0.7-0.4C736.9,367.3,737,367.3,737.1,367.3z"/>
			<path d="M728,367.2c-0.1,0.2-0.2,0.4-0.3,0.5c-0.1,0.1-0.3,0.2-0.4,0.2c-2.1,0.5-4.1,1.1-6.3,1.3c-0.5,0.1-1,0.1-1.5,0.3
				c-2.5,0.7-5,1.4-7.3,2.6c-0.5,0.2-0.9,0.5-1.3,0.9c-1.9,1.5-3.8,2.9-6.1,3.9c-0.7,0.3-1.3,0.7-2,1c-0.6,0.3-1.3,0.6-2,0.6
				c-0.3,0-0.6,0-0.7-0.4c-0.1-0.3,0-0.6,0.3-0.8c0.9-0.7,1.8-1.3,2.7-2c1.1-0.8,2.2-1.5,3.2-2.3c1.2-0.9,2.4-1.5,3.9-1.8
				c1.2-0.2,2.4-0.6,3.6-1c0.1,0,0.2-0.1,0.3-0.1c2.7-0.7,5.4-1.5,8.1-2.1c1.7-0.4,3.5-0.6,5.2-0.9
				C727.5,367.1,727.7,367.2,728,367.2z"/>
			<path d="M735.7,434.5c0.5,0,0.9,0,1.4,0c1,0.1,1.9,0,2.8-0.2c0.2,0,0.4-0.1,0.5-0.1c0.2,0,0.4,0.1,0.5,0.3c0.1,0.1,0,0.4-0.1,0.6
				c-0.1,0.2-0.4,0.3-0.6,0.4c-1.5,0.7-2.9,1.4-4.5,1.9c-1.2,0.4-2.4,0.4-3.6,0.4c-0.2,0-0.5-0.1-0.7-0.2c-1-0.5-1.2-1.7-0.3-2.4
				c0.5-0.4,1-0.5,1.6-0.6C733.7,434.6,734.7,434.5,735.7,434.5C735.7,434.5,735.7,434.5,735.7,434.5z"/>
			<path d="M746.5,422.8c-0.3,0.4-0.7,0.7-1,1.1c-0.6,0.6-1.2,1.1-1.8,1.7c-1.2,1.4-2.8,2.4-4.3,3.5c-0.5,0.3-1.2,0.5-1.8,0.6
				c-0.9,0.2-1.7,0.4-2.6,0.5c-0.3,0-0.5,0-0.8,0c-0.3-0.1-0.5-0.3-0.5-0.6c0-0.2,0.2-0.4,0.3-0.6c0.1-0.1,0.3-0.1,0.4-0.2
				c1.3-0.6,2.6-1.2,3.9-1.8c0,0,0,0,0.1,0c2-0.8,3.7-2.1,5.4-3.4c0.4-0.3,0.9-0.6,1.4-0.8c0.3-0.1,0.7-0.2,1-0.2
				C746.4,422.6,746.4,422.7,746.5,422.8z"/>
			<path d="M704.6,421.4c0.2-0.2,0.3-0.5,0.5-0.6c0.2-0.2,0.5-0.1,0.8,0.1c0.1,0,0.1,0.1,0.2,0.2c0.7,0.8,1.6,1.4,2.5,1.9
				c0.8,0.5,1.5,1.1,2,1.9c0.2,0.2,0.4,0.4,0.6,0.7c0.3,0.3,0.6,0.5,0.8,0.8c0.5,0.7,1.2,1.1,2,1.4c0.4,0.2,0.9,0.4,1.3,0.6
				c0.2,0.1,0.3,0.2,0.4,0.4c0.2,0.3,0.1,0.5-0.3,0.6c-0.1,0-0.2,0-0.3,0c-1.4-0.4-2.9-0.8-4-1.8c-0.3-0.3-0.7-0.4-1-0.7
				c-0.2-0.1-0.4-0.2-0.6-0.4c-0.5-0.6-1.2-0.9-1.9-1.3c-1-0.6-1.9-1.4-2.4-2.4C704.9,422.3,704.8,421.9,704.6,421.4z"/>
			<path d="M726.4,453.5c-0.8-0.1-1.6-0.2-2.4-0.3c-0.5-0.1-1-0.1-1.6-0.1c-0.2,0-0.3,0-0.5,0c-0.1-0.1-0.3-0.2-0.4-0.3
				c0-0.1,0.1-0.3,0.3-0.4c0.2-0.1,0.4-0.2,0.6-0.2c1.1-0.2,2.2-0.5,3.3-0.5c1.5-0.1,2.9-0.6,4.3-1.2c0.5-0.2,0.9-0.5,1.3-0.8
				c0.3-0.2,0.5-0.3,0.8-0.5c0.3-0.1,0.7,0,0.9,0.3c0.2,0.3,0.2,0.6,0,0.9c-0.3,0.6-0.8,1-1.4,1.3c-1.1,0.5-2.1,1-3.2,1.5
				C727.8,453.4,727.1,453.5,726.4,453.5z"/>
			<path d="M708.5,347.4c-0.2-0.9,0.2-1.5,1.1-1.7c0.9-0.2,1.9-0.3,2.8-0.5c2.6-0.5,5.2-0.7,7.9-0.7c2,0,4-0.1,6.1-0.1
				c0.3,0,0.6,0,1,0.1c-0.3,0.4-0.7,0.4-1,0.4c-1.8,0.1-3.6,0.1-5.4,0.3c-1.4,0.1-2.8,0.3-4.3,0.6c-2.5,0.5-5,1-7.5,1.5
				C709,347.3,708.8,347.3,708.5,347.4z"/>
			<path d="M759.8,389.2c-0.1,0-0.3-0.1-0.4-0.1c-0.3-0.2-0.7-0.4-1-0.6c-0.6-0.5-1.1-1-1.8-1.3c-0.3-0.1-0.5-0.4-0.6-0.6
				c-0.5-0.8-1.2-1.2-2.1-1.6c-0.9-0.4-1.8-0.9-2.6-1.4c-0.1-0.1-0.2-0.1-0.3-0.2c-0.3-0.2-0.5-0.4-0.3-0.7c0.2-0.3,0.5-0.2,0.8-0.2
				c0.2,0.1,0.4,0.2,0.7,0.3c0.9,0.5,1.7,0.9,2.6,1.4c0.8,0.4,1.5,0.8,2.1,1.3c0.3,0.2,0.6,0.4,0.9,0.5c1.1,0.4,2,0.9,2.6,1.9
				c0.1,0.2,0.2,0.4,0.3,0.6C760.6,388.8,760.3,389.2,759.8,389.2z"/>
			<path d="M716.7,434.1c-1.1-0.2-2.3-0.3-3.5-0.8c-0.5-0.3-1.1-0.4-1.7-0.6c-0.1,0-0.2,0-0.3-0.1c-0.1-0.1-0.3-0.3-0.3-0.4
				c0-0.1,0.2-0.3,0.3-0.4c0.2-0.1,0.5-0.2,0.7-0.2c0.4,0,0.8,0.1,1.2,0.1c0.8,0.1,1.7,0.2,2.5,0.4c0.6,0.1,1.1,0.2,1.7,0.3
				c0.5,0.1,1,0.3,1.5,0.4c0.2,0,0.3,0.1,0.4,0.2c0.3,0.2,0.3,0.5,0,0.7c-0.1,0.1-0.3,0.1-0.4,0.2
				C718.2,433.9,717.5,434,716.7,434.1z"/>
			<path d="M699.6,385c-0.3,0-0.5-0.2-0.4-0.4c0.1-0.2,0.3-0.4,0.5-0.5c1.7-1.2,3.4-2.3,5.2-3.5c0.5-0.4,1.2-0.6,1.8-0.9
				c0.6-0.2,1.2-0.4,1.8-0.6c0.1,0,0.2-0.1,0.3-0.1c0.1,0,0.3,0,0.4,0.1c-0.1,0.2-0.1,0.3-0.2,0.5c-0.1,0.1-0.3,0.2-0.4,0.2
				c-1.2,0.6-2.5,1.2-3.7,1.9c-0.6,0.3-1.2,0.7-1.8,1.1c-1,0.6-1.9,1.3-2.9,1.9C699.9,384.9,699.7,385,699.6,385z"/>
			<path d="M726.7,458.5c-0.1,0-0.2,0-0.3,0c-0.4,0-0.6-0.3-0.6-0.5c0-0.3,0.3-0.5,0.5-0.5c1.3-0.3,2.4-0.9,3.6-1.4
				c0.2-0.1,0.4-0.3,0.6-0.1c0.2,0.2,0,0.5-0.3,0.7c-0.8,0.5-1.7,1.1-2.6,1.6C727.4,458.4,727,458.5,726.7,458.5
				C726.7,458.6,726.7,458.5,726.7,458.5z"/>
			<path d="M750.4,417.3c-0.1,0.1-0.2,0.4-0.4,0.6c-0.5,0.4-1.1,0.7-1.7,1c-0.4,0.2-0.7,0.1-0.9-0.1c-0.2-0.2-0.2-0.6,0.1-0.9
				c0.5-0.5,1-0.9,1.6-1.3c0.2-0.1,0.5-0.2,0.8-0.1C750.2,416.5,750.4,416.8,750.4,417.3z"/>
			<path d="M741.9,347.1c-0.1,0-0.3,0.1-0.4,0.1c-2.4-0.4-4.8-0.9-7.2-1.3c-0.1,0-0.2-0.1-0.4-0.3c0.3-0.1,0.5-0.1,0.7-0.1
				c2.2,0.4,4.4,0.4,6.5,1.1c0.2,0.1,0.4,0.2,0.6,0.3C741.8,346.8,741.8,347,741.9,347.1z"/>
			<path d="M730.5,430.3c0.3,0,0.6,0,0.9,0c0.1,0,0.3,0.2,0.3,0.3c0,0.1-0.1,0.3-0.2,0.4c-0.7,0.1-1.3,0.2-2,0.3
				c-0.2,0-0.4-0.2-0.4-0.4c0-0.2,0.2-0.4,0.4-0.4C729.8,430.4,730.2,430.4,730.5,430.3C730.5,430.3,730.5,430.3,730.5,430.3z"/>
			<path d="M713.7,410.1c0.3,0,0.7,0.3,0.7,0.7c0,0.3-0.3,0.7-0.7,0.7c-0.3,0-0.7-0.3-0.7-0.7C713.1,410.5,713.4,410.1,713.7,410.1z
				"/>
			<path d="M746.3,410.8c0,0.3-0.3,0.7-0.6,0.7c-0.3,0-0.7-0.3-0.7-0.6c0-0.3,0.3-0.7,0.6-0.7C745.9,410.1,746.3,410.5,746.3,410.8z
				"/>
			<path d="M744,408.5c0,0.3-0.4,0.7-0.7,0.7c-0.3,0-0.6-0.3-0.6-0.7c0-0.3,0.3-0.7,0.7-0.6C743.6,407.9,744,408.3,744,408.5z"/>
			<path d="M706.9,398.8c0.3,0,0.7,0.3,0.7,0.6c0,0.3-0.4,0.7-0.7,0.7c-0.3,0-0.7-0.4-0.7-0.7C706.2,399.1,706.6,398.8,706.9,398.8z
				"/>
			<path d="M705.3,401.7c0,0.3-0.4,0.7-0.7,0.7c-0.3,0-0.7-0.3-0.7-0.7c0-0.3,0.3-0.7,0.6-0.7C704.9,401,705.3,401.4,705.3,401.7z"
				/>
			<path d="M709.2,401c0.3,0,0.6,0.3,0.6,0.6c0,0.3-0.3,0.7-0.6,0.7c-0.3,0-0.7-0.3-0.7-0.6C708.5,401.4,708.9,401,709.2,401z"/>
			<path d="M750.1,401c0.3,0,0.6,0.3,0.7,0.6c0,0.3-0.3,0.7-0.6,0.7c-0.3,0-0.6-0.3-0.7-0.6C749.5,401.4,749.8,401.1,750.1,401z"/>
			<path d="M755.4,401.7c0,0.3-0.3,0.7-0.6,0.7c-0.3,0-0.7-0.4-0.7-0.7c0-0.3,0.3-0.7,0.6-0.7C755,401,755.4,401.4,755.4,401.7z"/>
			<path d="M739.4,413.1c0,0.3-0.4,0.7-0.7,0.6c-0.3,0-0.7-0.4-0.7-0.7c0-0.3,0.4-0.7,0.7-0.6C739.1,412.4,739.5,412.8,739.4,413.1z
				"/>
			<path d="M707.6,404c0,0.3-0.3,0.7-0.6,0.7c-0.3,0-0.7-0.3-0.7-0.6c0-0.3,0.4-0.7,0.6-0.7C707.2,403.3,707.6,403.7,707.6,404z"/>
			<path d="M752.5,404.6c-0.3,0-0.7-0.3-0.7-0.6c0-0.3,0.4-0.7,0.7-0.7c0.3,0,0.7,0.4,0.7,0.7C753.1,404.3,752.8,404.6,752.5,404.6z
				"/>
			<path d="M752.5,398.8c0.3,0,0.7,0.3,0.7,0.7c0,0.3-0.4,0.7-0.7,0.7c-0.3,0-0.7-0.4-0.7-0.7C751.8,399.1,752.1,398.8,752.5,398.8z
				"/>
			<path d="M747.9,409.2c-0.3,0-0.7-0.3-0.7-0.6c0-0.3,0.3-0.7,0.6-0.7c0.3,0,0.7,0.3,0.7,0.6C748.5,408.8,748.2,409.2,747.9,409.2z
				"/>
			<path d="M745.6,405.6c0.3,0,0.7,0.3,0.7,0.6c0,0.3-0.4,0.7-0.7,0.6c-0.3,0-0.6-0.3-0.6-0.6C744.9,405.9,745.3,405.6,745.6,405.6z
				"/>
			<path d="M748.5,394.9c0,0.3-0.4,0.6-0.7,0.6c-0.3,0-0.6-0.4-0.6-0.7c0-0.3,0.4-0.6,0.7-0.6C748.2,394.2,748.5,394.6,748.5,394.9z
				"/>
			<path d="M712.1,408.5c0,0.3-0.3,0.7-0.6,0.7c-0.3,0-0.6-0.3-0.7-0.6c0-0.3,0.3-0.7,0.6-0.7C711.7,407.9,712.1,408.2,712.1,408.5z
				"/>
			<path d="M716.7,413.1c0,0.3-0.3,0.7-0.6,0.6c-0.3,0-0.7-0.4-0.7-0.7c0-0.3,0.3-0.7,0.7-0.6C716.4,412.4,716.7,412.8,716.7,413.1z
				"/>
			<path d="M700.7,401.6c0,0.3-0.3,0.7-0.6,0.7c-0.3,0-0.7-0.3-0.7-0.6c0-0.3,0.3-0.7,0.6-0.7C700.3,401,700.7,401.3,700.7,401.6z"
				/>
			<path d="M702.4,398.8c0.4,0,0.6,0.3,0.6,0.7c0,0.3-0.3,0.6-0.6,0.6c-0.3,0-0.7-0.4-0.7-0.7C701.7,399.1,702,398.8,702.4,398.8z"
				/>
			<path d="M706.9,407.9c0.3,0,0.6,0.4,0.6,0.7c0,0.3-0.4,0.7-0.7,0.6c-0.3,0-0.6-0.4-0.6-0.7C706.2,408.2,706.6,407.9,706.9,407.9z
				"/>
			<path d="M757.6,399.4c0,0.3-0.3,0.7-0.6,0.7c-0.3,0-0.6-0.3-0.6-0.7c0-0.3,0.3-0.6,0.6-0.6C757.3,398.8,757.6,399.1,757.6,399.4z
				"/>
			<path d="M709.8,410.8c0,0.3-0.3,0.7-0.6,0.6c-0.3,0-0.6-0.3-0.6-0.7c0-0.3,0.3-0.7,0.7-0.6C709.5,410.2,709.8,410.5,709.8,410.8z
				"/>
			<path d="M741.1,411.5c-0.3,0-0.6-0.3-0.6-0.7c0-0.3,0.3-0.6,0.6-0.6c0.3,0,0.7,0.3,0.7,0.6C741.7,411.1,741.4,411.5,741.1,411.5z
				"/>
			<path d="M705.3,406.3c0,0.3-0.3,0.6-0.7,0.6c-0.3,0-0.6-0.3-0.6-0.7c0-0.4,0.3-0.6,0.7-0.6C705,405.6,705.3,406,705.3,406.3z"/>
			<path d="M748.5,404c0,0.3-0.3,0.6-0.7,0.6c-0.3,0-0.7-0.3-0.6-0.7c0-0.3,0.4-0.7,0.7-0.6C748.2,403.3,748.5,403.7,748.5,404z"/>
			<path d="M747.9,400.1c-0.3,0-0.6-0.4-0.6-0.7c0-0.3,0.4-0.6,0.7-0.6c0.4,0,0.6,0.3,0.6,0.7C748.5,399.8,748.2,400.1,747.9,400.1z
				"/>
			<path d="M754.7,396.5c0.3,0,0.7,0.3,0.7,0.7c0,0.3-0.3,0.7-0.6,0.7c-0.3,0-0.7-0.3-0.7-0.6C754.1,396.8,754.4,396.5,754.7,396.5z
				"/>
			<path d="M704.6,396.5c0.3,0,0.7,0.3,0.7,0.6c0,0.3-0.3,0.6-0.6,0.7c-0.3,0-0.7-0.3-0.7-0.6C704,396.8,704.3,396.5,704.6,396.5z"
				/>
			<path d="M750.2,393.3c-0.3,0-0.6-0.3-0.7-0.7c0-0.4,0.3-0.7,0.6-0.7c0.3,0,0.6,0.3,0.7,0.6C750.8,392.9,750.5,393.2,750.2,393.3z
				"/>
			<path d="M703,403.9c0,0.4-0.2,0.7-0.6,0.7c-0.3,0-0.7-0.3-0.7-0.6c0-0.3,0.3-0.7,0.6-0.7C702.6,403.3,703,403.6,703,403.9z"/>
			<path d="M709.8,406.3c0,0.3-0.3,0.6-0.6,0.6c-0.3,0-0.6-0.4-0.6-0.7c0-0.3,0.3-0.6,0.6-0.6C709.5,405.6,709.8,405.9,709.8,406.3z
				"/>
			<path d="M750.1,405.6c0.3,0,0.7,0.3,0.7,0.6c0,0.3-0.3,0.7-0.7,0.6c-0.3,0-0.6-0.3-0.6-0.6C749.5,405.9,749.8,405.6,750.1,405.6z
				"/>
			<path d="M750.8,397.1c0,0.4-0.3,0.6-0.7,0.6c-0.4,0-0.6-0.3-0.6-0.7c0-0.3,0.3-0.6,0.6-0.6C750.5,396.5,750.8,396.8,750.8,397.1z
				"/>
			<path d="M709.8,397.2c0,0.4-0.3,0.6-0.7,0.6c-0.3,0-0.6-0.3-0.6-0.6c0-0.3,0.3-0.7,0.6-0.7C709.5,396.5,709.8,396.8,709.8,397.2z
				"/>
			<path d="M753.1,394.9c0,0.3-0.4,0.7-0.7,0.6c-0.3,0-0.7-0.4-0.6-0.7c0-0.3,0.4-0.7,0.7-0.7C752.7,394.2,753.1,394.6,753.1,394.9z
				"/>
			<path d="M693.9,365.9c0.2-0.7,1.3-1.3,2-1.1c0.1,0.3-0.2,0.5-0.4,0.6C694.5,366,694.3,366,693.9,365.9z"/>
			<path d="M758.9,402.2c-0.4-0.7-0.4-0.9,0.4-1.2C759.4,401.5,759.1,401.8,758.9,402.2z"/>
			<path d="M698.2,404.4c-0.2-0.4-0.3-0.7-0.4-1C698.5,403.6,698.5,403.7,698.2,404.4z"/>
			<path d="M741.1,402.4c-0.3,0-0.6-0.3-0.6-0.7c0-0.3,0.3-0.7,0.6-0.7c0.3,0,0.6,0.3,0.6,0.7C741.7,402,741.4,402.4,741.1,402.4z"
				/>
			<path d="M738.8,404.6c-0.3,0-0.7-0.3-0.7-0.6c0-0.3,0.3-0.7,0.6-0.7c0.3,0,0.7,0.3,0.7,0.6C739.5,404.3,739.1,404.6,738.8,404.6z
				"/>
			<path d="M734.3,409.2c-0.3,0-0.6-0.3-0.7-0.6c0-0.3,0.3-0.7,0.6-0.7c0.3,0,0.6,0.3,0.7,0.6C734.9,408.9,734.6,409.2,734.3,409.2z
				"/>
			<path d="M716,404.6c-0.3,0-0.7-0.3-0.7-0.6c0-0.3,0.3-0.7,0.7-0.7c0.3,0,0.6,0.3,0.7,0.7C716.7,404.3,716.3,404.6,716,404.6z"/>
			<path d="M736.5,405.6c0.3,0,0.7,0.3,0.7,0.6c0,0.3-0.3,0.7-0.6,0.7c-0.3,0-0.7-0.3-0.7-0.6C735.8,405.9,736.1,405.6,736.5,405.6z
				"/>
			<path d="M731.9,410.1c0.3,0,0.6,0.3,0.7,0.7c0,0.3-0.3,0.6-0.6,0.7c-0.3,0-0.6-0.3-0.7-0.6C731.3,410.5,731.6,410.2,731.9,410.1z
				"/>
			<path d="M741.7,392.5c0,0.3-0.3,0.7-0.6,0.7c-0.3,0-0.7-0.3-0.7-0.6c0-0.3,0.3-0.7,0.6-0.7C741.4,391.9,741.7,392.2,741.7,392.5z
				"/>
			<path d="M716.7,399.4c0,0.3-0.4,0.7-0.7,0.6c-0.3,0-0.7-0.4-0.6-0.7c0-0.3,0.4-0.6,0.7-0.6C716.4,398.8,716.7,399.1,716.7,399.4z
				"/>
			<path d="M741.7,397.2c0,0.4-0.3,0.6-0.7,0.6c-0.3,0-0.6-0.4-0.6-0.7c0-0.3,0.4-0.6,0.7-0.6C741.4,396.5,741.7,396.8,741.7,397.2z
				"/>
		</g>
	</g>
</g>
</svg>
