<?xml version="1.0" encoding="utf-8"?>
<!-- Generator: Adobe Illustrator 26.0.3, SVG Export Plug-In . SVG Version: 6.00 Build 0)  -->
<svg version="1.1" id="Layer_1" xmlns="http://www.w3.org/2000/svg" xmlns:xlink="http://www.w3.org/1999/xlink" x="0px" y="0px"
	 viewBox="0 0 20 20" style="enable-background:new 0 0 20 20;" xml:space="preserve">
<style type="text/css">
	.st0{fill:#231F20;}
</style>
<g id="icon_x2F_pizza">
	<path class="st0" d="M18.9,4.2c-5.4-3.9-12.8-3.9-18.2,0C0.1,4.6-0.1,5.4,0.3,6.1l8.3,13c0.3,0.4,0.7,0.7,1.2,0.7
		c0.5,0,0.9-0.2,1.2-0.6l8.3-13C19.7,5.4,19.5,4.6,18.9,4.2z M18.1,5.3l-0.5,0.9c-4.8-3.3-10.6-3.3-15.5,0L1.6,5.3
		C6.5,1.8,13.1,1.8,18.1,5.3z M6.2,12.5C6.2,12.5,6.2,12.6,6.2,12.5l-1.5-2.4c0.3-0.8,1.3-1.3,2.2-1c0.9,0.2,1.5,1,1.4,1.9
		c-0.1,0.9-0.9,1.5-1.8,1.5H6.2z M9.9,18.3l-2.8-4.4c1.3-0.3,2.4-1.3,2.6-2.7c0.2-1.6-0.9-3.1-2.5-3.5C5.9,7.4,4.6,7.9,3.8,8.8
		l-1-1.5c4.3-3,9.6-3,13.9,0l-1.5,2.3c-0.8-0.7-2-0.8-3-0.4c-1.2,0.5-2,1.8-1.9,3.2c0.1,1.1,0.6,2,1.5,2.6L9.9,18.3z M12.7,13.8
		c-0.5-0.3-0.8-0.8-0.8-1.4c0-0.8,0.4-1.5,1-1.8c0.6-0.2,1.2-0.1,1.6,0.3L12.7,13.8z"/>
</g>
</svg>
