<?xml version="1.0" encoding="utf-8"?>
<!-- Generator: Adobe Illustrator 26.3.1, SVG Export Plug-In . SVG Version: 6.00 Build 0)  -->
<svg version="1.1" id="Layer_1" xmlns="http://www.w3.org/2000/svg" xmlns:xlink="http://www.w3.org/1999/xlink" x="0px" y="0px"
	 viewBox="0 0 192 192" style="enable-background:new 0 0 192 192;" xml:space="preserve">
<path d="M162,102H30c-3.3,0-6-2.7-6-6s2.7-6,6-6h132c3.3,0,6,2.7,6,6S165.3,102,162,102z"/>
<path d="M108,156c-1.5,0-3.1-0.6-4.2-1.8c-2.3-2.3-2.3-6.1,0-8.5L153.5,96l-49.8-49.8c-2.3-2.3-2.3-6.1,0-8.5c2.3-2.3,6.1-2.3,8.5,0
	l54,54c2.3,2.3,2.3,6.1,0,8.5l-54,54C111.1,155.4,109.5,156,108,156z"/>
</svg>
