<svg width="37" height="37" viewBox="0 0 37 37" fill="none" xmlns="http://www.w3.org/2000/svg">
<path d="M26.1534 14.2179V11.3327V10.9014L25.7221 10.9029L22.8369 10.9131L22.8479 14.2289L26.1534 14.2179Z" fill="white"/>
<path d="M18.6341 21.8759C20.5333 21.8759 22.0793 20.3313 22.0793 18.4322C22.0793 17.6829 21.8352 16.9885 21.4265 16.4234C20.8015 15.5564 19.7833 14.987 18.6341 14.987C17.485 14.987 16.4682 15.5564 15.8417 16.4234C15.4331 16.9885 15.1904 17.6829 15.1904 18.4322C15.1904 20.3313 16.735 21.8759 18.6341 21.8759Z" fill="white"/>
<path d="M18.7239 0.15802C8.78235 0.15802 0.723145 8.21577 0.723145 18.1573C0.723145 28.0988 8.78235 36.158 18.7239 36.158C28.6639 36.158 36.7231 28.0988 36.7231 18.1573C36.7231 8.21577 28.6632 0.15802 18.7239 0.15802ZM28.4191 16.4234V24.4358C28.4191 26.5206 26.7217 28.2165 24.6369 28.2165H12.6303C10.5448 28.2165 8.84888 26.5206 8.84888 24.4358V16.4234V12.4292C8.84888 10.3437 10.5448 8.64779 12.6303 8.64779H24.6369C26.7217 8.64779 28.4191 10.3437 28.4191 12.4292V16.4234Z" fill="white"/>
<path d="M23.9851 18.4321C23.9851 21.3817 21.5853 23.783 18.6343 23.783C15.6832 23.783 13.2849 21.3817 13.2849 18.4321C13.2849 17.7209 13.4259 17.0447 13.6774 16.4233H10.7563V24.4358C10.7563 25.4694 11.597 26.31 12.6306 26.31H24.6372C25.6708 26.31 26.5115 25.4694 26.5115 24.4358V16.4233H23.5889C23.8426 17.0447 23.9851 17.7216 23.9851 18.4321Z" fill="white"/>
</svg>
