<?xml version="1.0" encoding="utf-8"?>
<!-- Generator: Adobe Illustrator 26.0.3, SVG Export Plug-In . SVG Version: 6.00 Build 0)  -->
<svg version="1.1" id="Layer_1" xmlns="http://www.w3.org/2000/svg" xmlns:xlink="http://www.w3.org/1999/xlink" x="0px" y="0px"
	 viewBox="0 0 20 20" style="enable-background:new 0 0 20 20;" xml:space="preserve">
<style type="text/css">
	.st0{fill:#231F20;}
</style>
<path class="st0" d="M19.1,4.5l-3.8-2.2l0,0c0,0-0.1,0-0.2-0.1c-0.1,0-0.1,0-0.2,0l0,0h-2.5c-0.5,0-0.8,0.4-0.8,0.8
	c0,0.9-0.7,1.6-1.6,1.6S8.4,3.9,8.4,3c0-0.5-0.4-0.8-0.8-0.8H5.1l0,0c-0.1,0-0.1,0-0.2,0s-0.1,0-0.2,0.1l0,0L0.9,4.5
	C0.2,4.8,0,5.7,0.3,6.3l1.4,2.8C2,9.6,2.5,10,3,10l0,0h1.3v5.9c0,0.8,0.6,1.4,1.4,1.4h8.6c0.8,0,1.4-0.6,1.4-1.4V10H17l0,0
	c0.5,0,1-0.3,1.3-0.8l1.4-2.8C20,5.7,19.8,4.8,19.1,4.5z M3.1,8.3L1.9,5.8l2.4-1.4v3.9H3.1z M14.1,15.7H5.9V3.8h0.9
	C7.2,5.2,8.5,6.3,10,6.3s2.8-1,3.2-2.5h0.9C14.1,3.8,14.1,15.7,14.1,15.7z M16.9,8.3h-1.1V4.4l2.4,1.4L16.9,8.3z"/>
</svg>
