<?xml version="1.0" encoding="UTF-8"?>
<svg id="Layer_1" data-name="Layer 1" xmlns="http://www.w3.org/2000/svg" viewBox="0 0 960 448">
  <defs>
    <style>
      .cls-1 {
        fill: #fff;
      }
    </style>
  </defs>
  <path class="cls-1" d="m819.59,181.03q.83-.86,0-1.48v1.48h0Zm111.19,46.08c.13-.05.26-.09.39-.14-.12-.36-.24-.72-.37-1.08-.14.05-.28.1-.41.15.13.35.26.71.4,1.07h0Zm-875.41,2.54c.06.13.12.26.18.4.36-.11.72-.22,1.09-.33-.11-.2-.3-.57-.32-.56-.33.13-.63.32-.94.5h0Zm668.04-106.97c-.12.02-.25.04-.37.05.05.53.09,1.07.14,1.6.12-.01.24-.03.36-.04-.04-.54-.08-1.07-.12-1.61h0ZM80.34,210.66c.17-.05.34-.1.51-.15-.13-.4-.26-.81-.42-1.19-.01-.04-.27.03-.42.05.11.44.22.87.33,1.3h0Zm330.29,31.16c.12,1.19.58,1,1.35.48-.6-.21-.98-.35-1.35-.48h0ZM275.13,51.12c-.16-.1-.33-.2-.49-.31-.22.59-.43,1.18-.65,1.77.14.05.28.11.42.16.24-.54.48-1.08.73-1.62h0Zm173.27,183.91c.13.05.26.1.4.14.18-.43.36-.86.54-1.29-.17-.06-.34-.12-.51-.18-.14.44-.28.89-.43,1.33h0Zm268.57-148.17c-.13.1-.26.19-.39.29.32.44.65.88.97,1.32.13-.1.26-.19.39-.29-.32-.44-.64-.88-.97-1.32h0Zm-298.62,2.89c-.67-.22-.98-.38-1.29-.4-.16,0-.5.32-.48.36.12.25.3.51.52.68.07.05.34-.16,1.25-.64h0Zm-154.25,193.07c-.18-.04-.36-.08-.53-.12-.05.39-.1.78-.14,1.17.14.02.28.04.42.07.09-.37.17-.75.26-1.12h0Zm-183.21-60.72c-.21.02-.42.03-.63.05.04.43.08.87.13,1.3.17,0,.34-.02.5-.03v-1.33h0ZM282.13,37.16c-.15-.13-.31-.26-.46-.39-.82.18-.64.92-.68,1.71.44-.52.79-.92,1.14-1.33h0Zm535.82,94.09q-1.26.06-.82,1.09c.31-.41.57-.75.82-1.09h0Zm-.53,5.42c-.15.06-.29.12-.44.18.16.45.31.9.47,1.34.19-.08.38-.15.56-.23-.2-.43-.4-.86-.59-1.29h0Zm-265.37,209.24c-.22-.09-.43-.18-.65-.27-.13.59-.26,1.18-.38,1.77l.39.12c.21-.54.43-1.08.64-1.62h0Zm261.12-246.13c-.09,1.76,1.1.09,1.19.42-.21-.07-.64-.23-1.19-.42h0Zm-278.37,3.45c.22,0,.43,0,.65-.01v-1.15c-.22,0-.61-.01-.62.02-.04.38-.03.77-.03,1.15h0Zm391.04,95.11c-.08.02-.16.04-.24.06.04.56.09,1.11.13,1.67.16-.02.32-.05.49-.07-.12-.55-.25-1.1-.37-1.66h0Zm-543.82,154.28c.21.11.42.22.62.33.15-.46.3-.92.45-1.37-.14-.06-.28-.11-.42-.17-.22.41-.44.81-.65,1.22h0Zm344.24-170.07c.84-.74.72-1.64,0-1.69v1.69h0Zm.09-2.98c1.43-.66.46-1.27.35-1.84-.01-.05-.22-.07-.47-.14.04.66.08,1.26.13,1.98h0ZM80.88,230.82q-.27,1.65.91,1.83c-.26-.52-.49-.99-.91-1.83h0Zm734.91-101.42c1.61-.14,1.76-.62,1.23-1.8-.42.61-.68,1-1.23,1.8h0Zm-267.38-63.14c.88-.23,1.33-.35,1.94-.52-.79-1.2-1.24-.96-1.94.52h0Zm383.7,187.69c.29.03.58.07.86.1-.04-.45-.07-.9-.14-1.35,0-.02-.41-.04-.42,0-.12.41-.2.83-.3,1.24h0Zm-117.85-141.94c.16.07.31.14.47.21.26-.55.52-1.1.94-1.98-1.4.38-1.21,1.18-1.41,1.77h0ZM83.3,294.88c.13.17.25.34.38.51.46-.4.93-.8,1.39-1.2-.07-.07-.13-.13-.2-.2-.52.29-1.05.59-1.57.88h0Zm848.64-32.63c.13.02.27.04.4.06.09-.54.19-1.08.25-1.63,0-.03-.21-.08-.48-.18-.06.61-.12,1.18-.18,1.75h0Zm-205.21-68.25q-1.17,1.19-.38,2.01c.14-.74.26-1.38.38-2.01h0Zm-483.08,9.15c-.18-.09-.35-.19-.53-.28-.31.62-.63,1.24-.94,1.86.16.08.33.17.5.25.32-.61.65-1.22.98-1.83h0Zm336.16,15.15c.06-.89.11-1.53.15-2.16-.7.61-1.6,1.21-.15,2.16h0Zm-496.52,60.29c-.22.07-.44.15-.66.22.26.65.51,1.3.77,1.95.15-.06.29-.11.44-.16-.18-.67-.36-1.34-.54-2.01h0Zm325.53-79.96c-.19-.08-.38-.16-.57-.24-.64.5-.94,1.12-.44,2.47.46-1.01.73-1.63,1.01-2.24h0ZM290.52,18.26c1.49.06,1.2-.93,1.23-1.77-.41.59-.82,1.18-1.23,1.77h0ZM58.28,293.47c-.18.01-.37.02-.55.03.05.63.11,1.26.16,1.89.19-.02.37-.04.56-.07-.06-.62-.11-1.23-.17-1.85h0Zm22.63-68.44c-.22,0-.43,0-.65,0,.1.7.2,1.4.3,2.1.21-.03.41-.06.62-.08-.09-.67-.18-1.34-.27-2.01h0Zm331.02,8.18c.17.04.35.09.52.13.06-.67.9-1.15.03-2.44-.24,1.01-.4,1.66-.56,2.31h0Zm117.26-110.61c.18,0,.36.02.54.02.08-.73.16-1.47.29-2.63-1.26.98-.89,1.83-.84,2.61h0Zm290.02,65.04c.16-.02.32-.03.47-.04q.14-1.15-.91-2.04c.17.83.31,1.46.44,2.09h0Zm-200.3,16.79c-1.05.15-1.39,1.25-1.57,2.51.55-.88,1.09-1.75,1.57-2.51h0Zm-205.87,19.8c-.06.89-.1,1.49-.15,2.3q1.12-.9.15-2.3h0Zm-153.45-91.55c-.19.04-.37.07-.56.11.17.86.35,1.73.52,2.59.18-.03.36-.07.54-.1-.17-.86-.33-1.73-.5-2.6h0ZM56.76,215.99c-.46-.69-.85-1.28-1.27-1.92q-.16,1.93,1.27,1.92h0Zm761.14-72.78c-.46.88-.89,1.8.04,2.69,1.95-.93-.71-1.8-.04-2.69h0ZM82.81,282.17c.09,1.25.17,2.37.26,3.49.85-1.23.95-2.38-.26-3.49h0ZM815.88,114.52c-.61.82-1.21,1.63-.46,2.9,1.01-.98.21-2.02.46-2.9h0Zm-89.65,61.09q1.15-.9,0-4.13v4.13h0Zm-307.73,20.84q-1.02,2.55,0,2.78v-2.78h0Zm-333.71,99.99c-.87.3-1.14.56-1.65,1.62-.06.12.04.3.08.62.38.06.8.12,1.07.16.18-.86.32-1.56.49-2.41h0Zm734.89-124.48c-.21,0-.42-.02-.62-.03-.2,1.12-.39,2.24.62,3.32v-3.29h0Zm-405.25,51.09c.11-1.26.2-2.39.29-3.51q-1.26,2.75-.29,3.51h0Zm404.07-76.37c-.2,0-.39,0-.59,0-.12.48-.4.99-.32,1.44.06.31.6.53.93.79.19-.35.53-.71.52-1.05-.02-.4-.35-.79-.54-1.19h0ZM255.79,324.99c-.16.02-.33.04-.49.06-.31,1.26-.47,2.51.49,3.73v-3.78h0Zm-173.32-69.22c-.9,2.65-.73,3.01.95,2.85-.32-.96-.64-1.91-.95-2.85h0Zm-24.77,35.89c.21,0,.42.01.63.02.1-1.61-.14-3.2-.35-4.79-.2,0-.4.02-.6.03.11,1.58.21,3.16.32,4.74h0Zm-.02-10.74c-.9,3.33-.86,3.67.53,4.92-.2-1.81-.37-3.36-.53-4.92h0Zm.18-16.11c-.51-1.55-.93-2.81-1.34-4.06-.27,1.06-.4,2.1-.23,3.07.14.79.53,1.8,1.57.99h0Zm358.39-55.33c-1.45,1.38-.66,3.05-.99,4.88,1.77-1.58.28-3.42.99-4.88h0ZM55.83,243.86v4.08c.55-.23,1.14-.34,1.16-.51.12-1.3-.07-2.57-1.16-3.57h0Zm28.37,46.58c-1.6-1.52.45-1.34.65-1.66-.32-.73-.58-1.35-.88-2.03-1.36.25-1.42.46-.7,3.69h.93Zm-2.05-42.9c-1.04,2.46-.29,4.8.17,7.18.33-.46.77-1.27.65-1.35-1.29-.97-.39-2.22-.52-3.32-.09-.84-.21-1.67-.31-2.51h0Zm461.1-152.86c.16.06.31.12.47.18.5-1.1,1-2.19,1.5-3.29.52-1.15,1.06-2.3,1.56-3.46.46-1.06,1.6-1.88,1.27-3.35-1.7,1.18-4.78,7.66-4.8,9.92h0Zm-35.36,21.68c4.89-3.83,9.57-7.95,13.64-12.72-5.16,3.56-9.48,8.03-13.64,12.72h0Zm70.58,153.04c.23.01.46.02.68.03.63-3.63,1.41-7.24,1.83-10.89.43-3.68,1.33-7.37.68-11.41-.31.42-.46.54-.49.68-.52,3.02-.32,6.11-1.17,9.14-.72,2.58-.92,5.31-1.27,7.99-.19,1.48-.19,2.98-.28,4.47h0Zm-28.83-193.37c.2.2.39.4.59.59,1.39-1.12,3.16-1.99,4.08-3.41,2.39-3.65,4.41-7.53,6.56-11.33.6-1.07,1.15-2.17,1.73-3.25-.15-.09-.29-.18-.44-.27-4.17,5.89-8.35,11.78-12.52,17.66h0ZM177.46,241.2c-.19.02-.38.03-.57.05-1.17,6.1-2.33,12.2-3.5,18.3.62-.25,1.01-.61,1.27-1.06,1.42-2.47,2.85-4.94,4.19-7.45.54-1.02,1.23-2.02.75-3.35-.78-2.14-1.44-4.32-2.15-6.49h0Zm490.48,24.88c1.6,4.04,2.97,7.52,4.25,10.76,2.37-.42,4.42-.76,6.46-1.16,1.25-.25,2.48-.62,3.73-.94.03-.22.06-.45.1-.67-5.22-1.62-9.83-4.34-14.53-7.99h0ZM294.61,63.97c-2.15-.87-4.36-.57-6.3.2-5.49,2.19-10.34,5.48-14.84,9.29-.1.08-.09.29-.13.43.13.07.26.2.38.19.31-.02.63-.11.94-.17,4.87-.93,9.26-3.19,13.79-5.04.66-.27,1.09-.69,1.21-1.58.27-2.08,1.55-3.15,3.59-3.33.45-.04.91,0,1.37,0h0Zm230.66,129.84c.16.04.31.07.46.11.56-1.05,1.09-2.13,1.69-3.15,1.58-2.69,3.94-4.94,4.63-8.15.03-.13.23-.22.31-.36,1.68-2.73,3.25-5.54,5.05-8.19,2.26-3.33,4.71-6.53,7.04-9.81.2-.28.13-.75.24-1.56-2.85,3.3-5.46,6.17-7.9,9.17-3.41,4.18-6.7,8.46-10.02,12.72-.33.43-.66.96-.72,1.48-.31,2.58-.53,5.16-.78,7.75h0ZM54.15,234.64v-9.13c-6.34,1.04-12.19,3.24-18.21,5.09,6,1.33,12,2.66,18.21,4.04h0Zm491.74,137.69c-.14-.02-.29-.04-.43-.05-.88,1.36-1.6,2.87-2.68,4.05-1.08,1.18-1.12,2.34-.71,3.67,1.03,3.31,1.99,6.64,3.16,9.9,1.49,4.17,3.13,8.28,4.75,12.41.37.93.91,1.8,1.37,2.69.27-.44.23-.73.15-1.02-.62-2.26-1.35-4.5-1.84-6.79-.47-2.23-.67-4.52-1.01-6.77-.46-3.02-.95-6.02-1.41-9.04-.46-3.01-.9-6.03-1.35-9.05h0ZM254.52,93.98c-9.42,11.08-16.89,23.32-22.98,36.5.76-.22,1.55-.45,1.99-.98,1.73-2.08,3.51-4.15,4.96-6.42,3.07-4.79,6.04-9.65,8.88-14.59,2.29-3.97,4.34-8.08,6.44-12.16.37-.72.48-1.57.71-2.36h0Zm262.53,104.87c-7.63,11.1-13.78,22.46-19.4,34.17.48-.24.84-.58,1.11-.98,2.88-4.09,5.57-8.33,8.68-12.24,2.66-3.35,5.83-6.29,8.71-9.48.6-.66,1.2-1.57,1.28-2.41.25-2.52.27-5.07.32-7.61,0-.33-.31-.67-.71-1.45h0Zm-429.81,59.65c3.26-.91,6.32-2.1,9.21-3.56,2.9-1.47,6.24-2.25,8.79-4.97-6.18-1.93-12.23-2.85-18.57-3.96-.02,4.22-.28,8.15.57,12.49h0Zm315.23-99.81c1.81-.24,3.16-1.04,4.57-1.64,4.36-1.87,8.71-3.78,13.09-5.62,2.12-.89,4.29-1.66,6.44-2.47.87-.32,1.51-.78,1.42-2.11-7.21.23-14.34.46-21.53.69-1.35,3.77-2.62,7.3-4,11.15h0ZM584.24,14.13c-1.36.91-2.44,1.37-3.16,2.15-2.16,2.33-4.36,4.65-6.21,7.22-3.43,4.77-6.52,9.77-8.97,15.13-1.58,3.46-3.14,6.94-4.71,10.41-.98,2.17-2,4.32-2.95,6.51-.89,2.05-1.72,4.13-2.66,6.38,2.27-.3,2.83-.74,3.22-2.18.21-.76.54-1.49.72-2.26.15-.66-.66-1.32-.03-2.03,1.38-1.54,2.74-3.09,4.09-4.6.03-.31.06-.7.1-1.09.31.11.61.23.92.34.16.06.33.09.65.18-.25-.76-.45-1.34-.61-1.84,1.08-1.6,2.08-3.14,3.14-4.63,2.33-3.28,5.05-6.29,6.77-9.97.07-.14.2-.25.29-.38,2.98-4.01,5.69-8.19,7.63-12.81.79-1.89,1.81-3.77,1.79-6.51h0Zm-154.97,360.92c.22.03.43.05.65.08.23-.74.56-1.47.68-2.23.52-3.45.97-6.92,1.46-10.37.19-1.34.45-2.66.58-4.01.39-4.01.72-8.03,1.07-12.04.27-3.06.53-6.12.83-9.18.33-3.4.67-6.8,1.02-10.2.29-2.83.6-5.65.91-8.48.14-1.26.24-2.52.45-3.76.21-1.26.54-2.5.82-3.78-1.46-.17-1.27.88-1.52,1.56-.89,2.44-1.73,4.91-2.69,7.33-1.11,2.8-2.44,5.52-3.42,8.37-.5,1.46-.56,3.1-.63,4.66-.08,1.74.12,3.49.1,5.24-.07,6.29-.2,12.57-.28,18.86-.06,4.28-.1,8.55-.13,12.83,0,1.71.06,3.41.1,5.11h0ZM60.89,223.85c0,3.77,0,7.42,0,11.07,0,1.04.68,1.27,1.57,1.39,2.2.32,4.39.73,6.59,1.08,3.57.57,7.15,1.12,10.88,1.7-.17-2.75-.36-5.28-.49-7.81-.16-3.16-.29-6.32-.41-9.48-.04-1.09-.39-1.43-1.46-1.24-4.76.84-9.52,1.67-14.28,2.53-.77.14-1.5.46-2.41.75h0Zm-5.54,43.84c-.18-4.54-.35-8.78-.53-13.09-5.12-.7-9.87.16-14.15,2.56-3.93,2.21-7.5,5.06-11.31,7.5-1.5.96-2.26,2.29-3.04,4.12.86.39,1.59.98,2.35,1.01,4.18.19,8.38.4,12.55-.11,2.58-.31,5.14-.77,7.71-1.14,2.03-.29,4.07-.54,6.42-.86h0Zm376.61,41.2c.28-.96.47-1.97.87-2.89,1.98-4.48,3.93-8.98,6.06-13.39,1.14-2.37,1.65-4.76,1.37-7.34-.04-.39.01-.8.12-1.18.33-1.21.8-2.39,1.03-3.61.24-1.27-.19-2.93.48-3.78,1.01-1.28-.1-2.34.28-3.41.15-.43.41-.83.6-1.25.19-.43.65-1.06.5-1.28-.62-.91-.49-1.65-.12-2.65.31-.84-.11-1.92-.02-2.88.23-2.43.5-4.86.9-7.26.09-.53.79-.95,1.18-1.39-.73-.31-1.38-.77-.69-2,.37-.66.71-1.57.55-2.25-.39-1.63,0-3.12.79-4.37.9-1.41.37-2.84.6-4.24.1-.58-.06-1.2.03-1.78.16-1.02.55-2.02.6-3.03.05-1.1-.19-2.2-.32-3.55-.35.4-.56.54-.63.74-.75,2.15-1.48,4.3-2.21,6.46-1.04,3.09-2.29,6.12-3.08,9.27-1.53,6.12-3.56,12.13-4.53,18.39-.52,3.33-1.23,6.63-1.79,9.96-.43,2.58-.75,5.19-1.15,7.78-.22,1.41-.58,2.8-.73,4.22-.44,4.18-.8,8.37-1.2,12.55-.14,1.4-.24,2.79.49,4.2h0Zm-350.99-48.59c-.44-5.21,0-10.28-1.09-15.11-2.09-.39-4.01-.78-5.96-1.1-3.36-.54-6.73-1.05-10.1-1.52-.88-.12-1.79-.02-2.66-.02,0,1.05,0,1.84,0,2.63.02,3.56.14,7.13.02,10.68-.11,3.38.27,6.7.67,10.18,6.63-1.48,12.88-3.57,19.12-5.76h0Zm367.2,11.49c.18.07.36.15.55.22.23-.29.5-.54.68-.86,3.01-5.2,6.06-10.38,8.99-15.63,3.29-5.89,6.5-11.82,9.66-17.78.44-.84.43-1.92.65-2.95-3.42-1.28-5.68-3.62-7.94-5.97-2.25-2.34-3.66-5.14-4.49-8.29-.18.02-.36.05-.54.07-2.52,17.06-5.03,34.11-7.55,51.17h0Zm166.04-59.61c-.22-.15-.43-.3-.65-.45-.5.66-1.01,1.31-1.49,1.98-.5.7-.99,1.41-1.45,2.13-1.1,1.75-2.24,3.47-3.23,5.28-.88,1.59-1.57,3.28-2.37,4.91-1.23,2.49-2.3,5.08-3.76,7.41-1.85,2.96-3.08,6.18-4.37,9.37-1.26,3.12-2.25,6.35-3.4,9.51-.35.96-1.03,1.83-1.23,2.81-.58,2.85-1.88,5.46-2.53,8.31-.57,2.5-1.95,4.87-3.25,7.13-1.02,1.78-1.52,3.62-1.88,5.6-.39,2.16-.69,4.46-1.67,6.37-.78,1.52-.98,3.03-1.54,4.68,4.87.05,9.58-.19,14.27,1.98.09-.88.48-1.8.18-2.29-.72-1.15-.46-2.32-.47-3.48,0-1.16.15-2.32.21-3.49.13-2.66.17-5.33.39-7.99.32-3.99-.01-8.06,1.63-11.9.36-.83-.34-1.96.66-2.82.21-.18-.56-1.24-.47-1.84.33-2.24.73-4.49,1.3-6.68.81-3.13,1.49-6.26,2.76-9.31,1.04-2.5,1.73-5.2,2.82-7.73.55-1.27.93-2.62,1.54-3.86,1.89-3.87,3.85-7.71,5.8-11.54.7-1.38,1.46-2.72,2.2-4.08h0Zm-357.14-110.52c-.18-.04-.36-.07-.54-.11-.5,1.05-1.12,2.07-1.47,3.17-.78,2.39-2.64,4.38-2.66,7.05-1.39,1.53-2.23,3.37-3.12,5.21-.5,1.05-1.34,1.93-2.03,2.89-.61.84-1.29,1.63-1.83,2.51-1.46,2.36-2.77,4.82-4.32,7.12-2.13,3.16-4.38,6.26-7.45,8.61-.92.7-1.9,1.31-2.99,2.05.92,1.45,1.92,2.72,2.58,4.14,2.61,5.61,6.45,10.11,11.74,13.32,1.24.75,2.51,1.6,3.98,1.63.36-2.4.77-4.65,1.03-6.92.29-2.61.41-5.24.65-7.85.43-4.83.87-9.65,1.36-14.47.33-3.32.69-6.64,1.16-9.95.31-2.17.85-4.3,1.26-6.46.43-2.24.77-4.5,1.26-6.72.38-1.76.93-3.48,1.41-5.22h0Zm-101.48,289.02c.86-1.79,1.64-3.31,2.34-4.87,1.48-3.33,3.02-6.64,4.34-10.03,1.35-3.44,2.25-7.07,3.75-10.43,1.27-2.83,1.4-5.75.87-8.53-.54-2.86-.61-5.68-.67-8.54-.03-1.54-.08-3.09-.12-4.92-2.99,1.93-5.47,3.82-7.36,6.4-2.2,3.01-4.37,6.04-6.57,9.04-2.11,2.87-4.19,5.76-6.4,8.54-.67.84-.67,1.41-.25,2.33,1.82,3.95,3.76,7.86,5.22,11.95.94,2.63,2.27,5,3.56,7.42.28.52.74.95,1.29,1.64h0Zm409.72-60.93c5.19-3.15,9.99-6.07,14.79-8.97,4.83-2.92,9.66-5.85,14.51-8.73,1.41-.84,2.89-1.59,4.36-2.33,1.18-.59,1.45-1.07.88-2.21-.36-.7-.91-1.31-1.35-1.97-.26-.39-.62-.78-.67-1.21-.15-1.25.3-2.89-.34-3.68-1.01-1.25-.43-2.4-.57-3.57-.14-1.14-.15-2.3-.23-3.79-.78.53-1.32.83-1.77,1.23-1.78,1.58-3.05,1.62-5.12.47-1.07-.6-2.34-.9-3.55-1.15-1.31-.26-2.67-.33-4.01-.43-.86-.06-1.72-.01-2.68-.01-3.77,12.4-9.13,24.05-14.24,36.34h0Zm-392.72,15.39c.25-.52.57-1.02.75-1.56.48-1.5.95-3.02,1.34-4.54,1.07-4.13,1.96-8.31,3.18-12.39,1.12-3.72,2.01-7.47,2.79-11.28,1.61-7.89,2.15-15.89,2.88-23.86.65-7.07-.28-14.14-.64-21.21-.02-.31-.19-.61-.21-.93-.18-2.27-1.27-4.38-.88-6.78.2-1.21-.25-2.53-.41-3.79-1.27,1.48-2.17,2.99-2.93,4.57-1.1,2.29-2.25,4.57-3.1,6.95-1.13,3.2-2.09,6.47-2.92,9.76-.73,2.88-1.82,5.86.59,8.77-.87.72-1.71,1.4-2.5,2.06-.28,18.13.63,36.13,2.06,54.23h0Zm244.15-253.88c-.27-.16-.53-.32-.8-.47-.18.37-.3.77-.53,1.09-1.85,2.58-3.69,5.17-5.6,7.7-2.01,2.66-3.91,5.43-6.16,7.88-4.75,5.15-9.55,10.28-15.11,14.61-4.7,3.66-9.3,7.45-14.12,10.93-4.08,2.94-6.95,6.78-9.71,11.11.66.15,1.11.34,1.54.33,2.21-.06,4.41-.15,6.62-.27,5.76-.32,11.53-.63,17.28-1.02,2.52-.17,5.02-.54,7.74-.85,1.77-5.9,3.53-11.76,5.28-17.59.58-.56,2.12.17,1.9-1.5-.43.17-.76.29-1.08.42-.05-.1-.09-.19-.14-.29.42-.32.84-.63,1-.76-.27-2.27.87-4.05,1.32-5.94.25-1.05.91-2,1.29-3.02.38-1.01.99-1.9,1.26-2.99.39-1.6.99-3.15,1.66-4.66.26-.59.89-1.06,1.44-1.46,1.4-1.03,1.82-2.15,1.33-3.79-.11-.36-.23-.79-.13-1.13.79-2.54,1.47-5.13,3.32-7.19.25-.27.28-.74.41-1.11h0Zm96.18,28.63c.84,1,1.57,1.86,2.25,2.67-1.01.88-1.68,1.74-2.55,2.16-1.29.61-1.6,1.7-1.85,2.86-.18.84-.27,1.71-.32,2.58-.4,7.1-.82,14.19-1.15,21.29-.09,1.9-.18,3.88.24,5.71.42,1.85-.16,3.66.31,5.51.48,1.89.32,3.94.55,5.91.2,1.72.5,3.43.84,5.14.96,4.84,2.32,9.54,4.88,13.82.52.88,1.05,1.55,2.41,1.62.33-2.11.71-4.21.96-6.32.27-2.28.28-4.6.66-6.86.57-3.4,1.38-6.75,2.08-10.13.09-.46.32-1.05.13-1.38-.91-1.65-.1-3.28-.05-4.91.03-1.1.24-2.19.35-3.28.36-3.55.64-7.11,1.09-10.66.37-2.96.88-5.9,1.4-8.84.89-5,1.79-9.99,2.78-14.97.36-1.84.94-3.65,1.48-5.45.64-2.12,1.35-4.21,2.04-6.32,1.51-4.67,3.03-9.35,4.53-14.03.12-.37.1-.79.2-1.72-7.52,9.27-14.75,18.07-23.24,25.6h0ZM190.55,394.36c.52-1.45,1-2.68,1.41-3.94.19-.6.26-1.24.38-1.86.53-2.71,1.32-5.4,1.52-8.14.39-5.3.66-10.62.57-15.93-.1-5.29-.76-10.56-1.06-15.85-.19-3.32-.49-6.61-1.3-9.84-.09-.38-.05-.8-.08-1.19-.17-2.29-.29-4.58-.54-6.86-.12-1.1-.59-2.15-.74-3.25-.84-5.93-1.63-11.87-2.44-17.81-.19-.01-.39-.03-.58-.04-.18.64-.42,1.28-.54,1.94-.31,1.71-.5,3.43-.86,5.13-.65,3.1-1.29,6.21-2.1,9.28-1,3.81-2.17,7.58-3.26,11.37-.68,2.34-1.25,4.72-2.04,7.02-1.46,4.26-3.03,8.49-4.58,12.72-.92,2.5-1.36,5.01-.39,7.6.11.29.08.63.12.94.84,6.62,1.87,13.12,4.96,19.25,2.45,4.86,6.03,7.79,11.54,9.46h0Zm364.45-138.07c-2.55,2.34-4.78,4.24-6.85,6.31-6.11,6.09-12.2,12.22-18.22,18.4-2.72,2.8-5.29,5.74-7.86,8.67-.74.85-1.52,1.79-1.48,3.17,2.02.47,3.89,1.03,5.94.7,2.96-.48,5.95-.8,8.92-1.21,1.22-.17,2.49-.22,3.62-.64,4.52-1.67,9.36-1.42,13.99-2.49,2.22-.52,4.6-.32,6.91-.48,1.74-.12,3.47-.3,5.21-.45,2.62-.22,5.25-.33,7.85-.67,1.99-.26,3.17-3.41,2.03-5.05-.57-.82-1.15-1.64-1.63-2.51-1.52-2.74-2.05-5.65-1.55-8.77.22-1.41.3-2.84.43-4.27.21-2.38-.05-4.91.69-7.1,1.13-3.35.96-6.83,1.71-10.2,1.04-4.62,1.62-9.35,2.39-14.03.34-2.04.72-4.09.94-6.15.25-2.37-1.17-4.6-3.34-5.39-.17.21-.41.43-.52.7-1.32,3.12-2.57,6.26-3.93,9.36-1.04,2.38-2.37,4.64-3.3,7.07-1.56,4.07-3.36,8.04-4.49,12.28-.93,3.5-2.23,6.9-3.37,10.34-.8,2.4-1.63,4.8-2.39,7.21-.33,1.05-.3,2.28-.85,3.18-.76,1.25-1,2.5-.88,3.87.09,1.08-.13,2.02-.86,2.88-.89,1.05-1.4,2.29-1.42,3.72-.01.62-.19,1.27-.42,1.86-.69,1.81-3.31,3.01-5.12,2.4-2.32-.79-3.59-2.77-2.94-4.95.47-1.57,1.16-3.09,1.89-4.57,1.51-3.04,3.34-5.94,4.6-9.08,1.62-4.04,2.81-8.25,4.17-12.39.12-.36.07-.77.15-1.73h0Zm-134.34-71.93c-.75.77-1.35,1.3-1.83,1.93-.58.75-1.1,1.55-1.55,2.39-.37.69-.54,1.48-.88,2.19-1.47,3.08-3.16,6.07-4.42,9.24-2.7,6.78-5.14,13.66-7.79,20.46-2.54,6.53-3.76,13.42-5.56,20.14-1.22,4.57-1.76,9.31-2.66,13.97-1.09,5.67-2.3,11.32-2.82,17.09-.15,1.66-.25,3.33-.42,4.99-.65,6.24-1.27,12.48-1.99,18.71-.47,4.02-.39,8.07-1.01,12.09-.59,3.9-.45,7.92-.62,11.88-.21,4.89-.47,9.78-.62,14.68-.12,4.15-.07,8.29-.16,12.44-.08,4.22-.25,8.45-.36,12.67-.07,2.76-.14,5.51-.16,8.27-.03,2.62,0,5.25,0,7.87v7.63c.1-.02.24-.02.24-.04.26-1.88.52-3.75.75-5.63.53-4.33,1-8.67,1.57-12.99.56-4.17,1.25-8.33,1.82-12.5.4-2.92.69-5.86,1.04-8.78.21-1.74.46-3.47.66-5.21.13-1.11.14-2.23.31-3.33.3-1.87.74-3.72,1.01-5.6.55-3.78.95-7.58,1.57-11.35.88-5.37,1.9-10.72,2.86-16.08.53-2.98,1.03-5.96,1.61-8.93.48-2.48.43-5.07,1.57-7.42.26-.54.38-1.27.26-1.86-.43-2.11.39-4.05.67-6.06.62-4.49,1.08-9.01,2-13.44.77-3.68,1.26-7.38,1.88-11.08.13-.78.32-1.54.46-2.32.32-1.87.58-3.75.97-5.6.07-.33.62-.56.76-.69-.13-1.37-.25-2.6-.34-3.59.89-.9,2.7-.62,1.97-2.44-.42.39-.77.73-1.13,1.06-.15-.08-.31-.15-.46-.23.62-3.17,1.24-6.34,1.88-9.5.06-.3.47-.61.4-.83-.75-2.54.71-4.81.86-7.25.1-1.72.87-3.43.8-5.12-.08-2.09,1.15-3.91.76-6.09-.21-1.17.55-2.52.88-3.79.02-.07.11-.11.23-.22.51-.03,1.08-.07,1.63-.11.01-1.96-1.25.28-1.54-.82.48-3.22.88-6.61,1.55-9.93.14-.7.25-2.09,1.72-2.06.15,0,.33-.71.57-1.28-.65.25-1.03.4-1.59.61.21-1.06.37-1.89.53-2.72.53.12.89.21,1.26.29.19-.93.35-1.71.5-2.48-.47-.11-.77-.18-1.34-.32q1.56-.73,1.69-2.94h0Zm72.72,190.19c.39-.29.66-.39.74-.56,2.38-5.17,4.25-10.54,6.11-15.92,1.69-4.86,3.08-9.8,4.61-14.7,1.53-4.89,2.28-9.9,3.01-14.9.8-5.5.93-11.1,1.41-16.65.22-2.53.61-5.05.88-7.58.39-3.63.74-7.27,1.1-10.9.05-.47.04-.95.1-1.42.33-2.83.71-5.66.99-8.49.36-3.62.65-7.26.96-10.88.15-1.74.25-3.48.41-5.22.35-3.79.77-7.57,1.08-11.36.2-2.52.18-5.05.38-7.57.24-3.08.71-6.14.88-9.22.2-3.51.15-7.03.28-10.54.05-1.51.26-3.03.42-4.73-1.57.63-1.23,2-1.62,2.93-3.32,7.73-5.98,15.69-8.11,23.83-1.48,5.66-3.01,11.31-4.3,17.01-1.4,6.18-2.64,12.4-3.77,18.64-.74,4.11-1.17,8.28-1.69,12.43-.18,1.42-.16,2.87-.37,4.28-.58,3.83-1.42,7.62-1.82,11.47-.54,5.2-.79,10.42-1.12,15.64-.22,3.32-.44,6.65-.55,9.97-.1,3.05-.05,6.11-.09,9.17-.03,3.02-.11,6.05-.14,9.07-.04,4.77-.06,9.53-.06,14.3,0,.58.17,1.17.29,1.92h0Zm154.87-204.04c1.23-.95,2.15-1.63,3.04-2.36.73-.61,1.43-1.26,2.13-1.91,2.03-1.89,4.2-3.58,6.54-5.12,2.75-1.81,5.09-4.25,7.82-6.09,2.54-1.71,4.72-3.88,7.65-5.14,2.16-.93,4.09-2.7,6.12-3.99,4.92-3.12,9.39-7.02,14.93-9.12,3.5-2.96,8.01-4.03,11.91-6.3,3.52-2.05,7.55-3.24,11.36-4.8.78-.32,1.58-.57,2.25-.81.07-1.24.22-2.18.14-3.11-.08-.88-.4-1.74-.61-2.6.16-.05.33-.1.49-.15.37.75.73,1.5,1.26,2.58v-3.53c-.46-.22-1.07-.35-1.11-.57-.11-.7.36-1.69-1.05-1.34-.08-1-.16-2-.24-3.13.71.29,1.16.47,1.86.75-.18-1.04-.31-1.78-.46-2.6-.5.36-.86.62-1.77,1.26-.07-3.97-2.16-7.26-.49-11.08-.47-.07-.92-.28-1.31-.19-3.07.73-6.16,1.41-9.18,2.31-4.17,1.25-8.38,2.46-12.42,4.08-4.25,1.71-8.3,3.91-12.45,5.85-5.15,2.41-9.94,5.38-14.19,9.15-3.15,2.8-6.46,5.49-9.17,8.67-2.81,3.29-4.83,7.25-7.5,10.68-3.19,4.11-3.65,8.96-4.32,13.79-.5,3.61-.87,7.23-1.23,10.85-.11,1.15-.02,2.31-.02,3.95h0Zm-427.9-58.4c-.19-.04-.37-.09-.56-.13-.24.42-.56.81-.7,1.26-.54,1.73-.93,3.5-1.53,5.21-1.4,4.02-2.91,8-4.32,12.01-1.33,3.79-2.52,7.63-3.92,11.4-1.35,3.64-3.02,7.16-4.3,10.82-1.98,5.68-3.9,11.39-5.56,17.16-1.4,4.88-3.23,9.58-5.07,14.3-.63,1.62-1.32,3.21-1.99,4.81-1.5,3.58-3.39,6.99-4.25,10.84-.57,2.54-1.52,4.99-2.25,7.5-.58,1.99-1.06,3.99-.87,6.11.22,2.45.39,4.92.54,7.38.29,5.07.55,10.15.84,15.22,0,.11.2.2.43.41.26-.21.63-.38.81-.66.66-1.07,1.25-2.18,1.89-3.26,2.56-4.33,5.17-8.64,7.7-13,3.59-6.18,7.32-12.26,11.54-18.04,2.95-4.04,5.71-8.21,8.83-12.11,5.43-6.77,11.38-13.08,17.55-19.18,2.25-2.23,4.39-4.57,6.65-6.92-2.83-2.13-5.75-3.78-7.81-6.48-1.78-2.33-3.66-4.59-5.48-6.89-.2-.25-.33-.55-.46-.83-.68-1.43-1.36-2.86-2.01-4.3-1.19-2.61-2.69-5.15-3.42-7.89-.48-1.81-.57-3.78-.95-5.69-.8-4.02-.96-8.18-1.31-12.28-.12-1.41-.02-2.85-.02-4.27v-2.5h0Zm307.35,87.52c1.23.48,2.31.87,3.37,1.32,1.95.82,2.46,2.6,1.4,4.43-1.08,1.85-2.84,2.73-4.69,3.52-2.42,1.04-3.76,2.69-3.65,5.52.13,3.32.07,6.66-.13,9.97-.23,3.71-.8,7.4-1.04,11.12-.26,4.02-.21,8.06-.47,12.09-.27,4.15-.76,8.29-1.15,12.44-.07.71-.05,1.43-.11,2.14-.32,3.65-.63,7.29-1,10.93-.11,1.08-.44,2.14-.58,3.22-.25,1.92-.42,3.86-.68,6.25.71-.51,1.04-.68,1.29-.93,2.8-2.82,5.59-5.66,8.39-8.49,2.91-2.95,5.78-5.94,8.73-8.84,2.21-2.17,4.58-4.19,6.76-6.38,3.76-3.78,7.44-7.64,11.15-11.46.84-.87,1.73-1.65,3.07-1.6.83.03,1.32-.3,1.52-1.18.11-.52.46-1.01.78-1.46,1.01-1.37,1.7-2.84,1.93-4.56.07-.54.52-1.03.83-1.52.36-.59,1.03-1.14,1.09-1.75.22-2.37,1.52-4.3,2.38-6.4.3-.73,1.23-1.19,1.6-1.92.35-.67.19-1.6.51-2.3.58-1.29,1.34-2.49,2.12-3.89-.62-.55-1.17-1.12-1.79-1.58-2.88-2.12-5.81-4.17-8.66-6.33-4.25-3.23-7.46-7.3-10.04-11.99-1.72-3.13-2.5-6.49-3.46-9.84-.9-3.12-1.24-6.28-1-9.51.25-3.31.57-6.61.64-9.92.03-1.31.36-2.02,2.03-2.2-.95-.43-1.53-.7-2.04-.93-7,10.23-13.24,20.74-19.09,32.04h0Zm-266.85,200.45c.64-.48,1.15-.74,1.52-1.14,3.83-4.17,6.84-8.9,9.33-13.97,2.84-5.78,3.8-12.12,5.14-18.32,1.06-4.93,1.59-9.97,2.38-14.96.45-2.86.42-5.76.95-8.64.54-2.94.36-6,.58-9.01.17-2.37.58-4.73.71-7.11.25-4.7.37-9.4.55-14.1.02-.4.06-.8.1-1.19.32-3.08.7-6.15.95-9.23.19-2.29.13-4.61.33-6.9.3-3.39.75-6.77,1.11-10.16.47-4.41.9-8.82,1.39-13.23.39-3.56.89-7.11,1.25-10.67.26-2.61.36-5.23.51-7.85.17-3.01.12-6.05.53-9.03.55-4,.19-8.04,1.07-12.04.58-2.65.11-5.51.26-8.27.23-4.21.64-8.41.86-12.62.13-2.51.02-5.04.02-7.55-1.25,2.36-2.25,4.81-3.08,7.31-2.63,7.88-5.19,15.79-7.79,23.68-.3.9-.79,1.74-1.04,2.66-.6,2.21-1.09,4.44-1.65,6.66-.78,3.06-1.59,6.12-2.37,9.18-.51,1.99-.99,3.99-1.51,5.98-.63,2.37-1.46,4.7-1.9,7.1-.59,3.19-1.64,6.26-1.9,9.55-.22,2.73-1.33,5.37-1.89,8.09-.35,1.7-.1,3.56-.65,5.16-1.28,3.75-1.06,7.67-1.67,11.49-.4,2.5-.34,5.1-.89,7.56-.74,3.28-.94,6.59-1.06,9.91-.02.64.02,1.29-.09,1.91-.37,2-.91,3.98-1.19,5.98-.7,4.95-1.34,9.92-1.91,14.89-.56,4.89-1.03,9.79-1.49,14.69-.26,2.7-.31,5.42-.63,8.11-.83,6.89-1.12,13.8-.71,20.72.14,2.27.7,4.51.81,6.79.13,2.61,1.26,4.89,2.05,7.28.14.41.57.73,1.03,1.28h0Zm238.28-138.05c-.12-.04-.44-.17-.76-.29.15-.3.27-.62.47-.88.25-.34.68-.57.84-.94,1.58-3.72,2.18-7.67,2.69-11.65.05-.43.15-1.02.45-1.23,1.57-1.1.87-3.03,1.71-4.37-1.01-1.84.55-3.3.98-4.81.89-3.12,2.52-6.03,3.82-9.04.05-.12-.14-.34-.25-.59-1.02,1.25-2.03,2.36-2.9,3.57-2.43,3.41-4.97,6.74-7.08,10.38-2.66,4.58-5.61,8.99-8.21,13.61-2.17,3.86-4.13,7.86-5.94,11.9-1.39,3.1-2.54,6.34-3.57,9.58-1.15,3.62-2.13,7.3-3.05,10.99-1.35,5.42-2.62,10.86-3.83,16.32-.96,4.33-1.79,8.69-2.64,13.04-.92,4.75-1.8,9.51-2.69,14.27-.15.78-.18,1.59-.3,2.38-.53,3.7-1.01,7.4-1.63,11.08-.57,3.34-1.33,6.66-1.95,9.99-.68,3.66-1.28,7.34-1.95,11.01-.61,3.34-1.29,6.67-1.91,10.01-.29,1.55-.42,3.14-.74,4.68-.51,2.48-1.23,4.91-1.65,7.4-.37,2.18-.2,4.47-.69,6.62-.7,3.06-.96,6.14-.86,9.23.19,5.67,5.11,9.74,11.26,8.52,2.87-.57,4.77-2.54,6.44-4.67,2.54-3.25,4.98-6.58,6.91-10.25,1.66-3.16,3.53-6.22,5.25-9.36.33-.6.48-1.37.49-2.07.05-2.88-.13-5.77.08-8.63.21-2.93-.5-5.79-.23-8.75.29-3.23-.19-6.53-.13-9.79.05-3.06.38-6.11.55-9.17.1-1.84.18-3.68.18-5.52,0-1.25-.29-2.5-.24-3.75.19-4.45,1.22-8.81,1.23-13.29,0-3.24.54-6.48.79-9.73.16-2.03.38-4.07.28-6.09-.09-1.91,1.4-3.46.99-5.39-.02-.08.34-.23.52-.35.21-.15.61-.32.59-.46-.06-.75-.28-1.48-.35-2.23-.11-1.31-.37-2.66-.17-3.92.25-1.51,1.41-2.76,1.05-4.54-.18-.88.43-1.95.81-2.89.44-1.1-.08-2.23.21-3.32.14-.52.31-1.03.4-1.56.29-1.68,0-3.52,1.41-4.88-.22-2.12.36-4.16.65-6.23.23-1.62.1-3.4.74-4.83.55-1.22.38-2.4.66-3.57.29-1.22.35-2.49.59-3.72.11-.56.4-1.08.69-1.82h0Zm-253.76-52.43c-.12-.07-.24-.13-.36-.2-.44.63-1.04,1.2-1.29,1.9-.98,2.75-1.88,5.53-2.76,8.32-1.02,3.25-1.87,6.56-3.01,9.77-1.46,4.12-2.38,8.37-3.42,12.6-.57,2.3-.87,4.67-1.41,6.97-.7,3-1.65,5.95-2.26,8.98-.95,4.72-1.69,9.49-2.54,14.23-.71,3.96-1.53,7.89-2.15,11.86-.49,3.13-.67,6.31-1.16,9.45-.74,4.79-.71,9.65-1.41,14.46-.75,5.17-1.01,10.42-1.26,15.65-.32,6.66-.39,13.34-.64,20-.13,3.39-.56,6.77-.63,10.16-.12,5.96-.13,11.93-.05,17.9.09,6.28-.57,12.6.72,18.82.36,1.77.93,3.5,1.56,5.19.35.92,1.2,1.27,2.18.78,1.06-.54,2.14-1.06,3.15-1.68,3.05-1.87,5.21-4.61,7.07-7.59,3.51-5.61,6.14-11.59,7.93-17.99.53-1.9,1.07-3.79,1.47-5.73.49-2.33,1.26-4.61,1.57-6.96.57-4.33.89-8.7,1.32-13.05.04-.4-.04-.83.1-1.19.65-1.68.58-3.42.51-5.17-.07-1.75-.13-3.5-.08-5.25.08-3.17.28-6.34.36-9.51.06-2.37-.04-4.74,0-7.11.09-5.01.23-10.02.32-15.04.04-2.31.04-4.61,0-6.92-.15-8.96-.33-17.91-.51-26.87,0-.48-.11-.95-.16-1.43-.42-4.17-.89-8.33-1.26-12.5-.24-2.77-.34-5.55-.5-8.33-.27-4.69-.55-9.38-.82-14.07-.2-3.31-.48-6.61-.58-9.93-.1-3.5-.02-7.01-.02-10.52h0Zm359.18,96.81c.91-.46,1.7-.84,2.46-1.25,5.84-3.21,11.66-6.46,17.54-9.61,1.6-.86,3.46-1.26,5.04-2.15,3.79-2.14,7.66-4.04,11.72-5.66,6.26-2.5,12.42-5.24,18.97-6.94,1.58-.41,3.11-.99,4.96-1.59-1.54-2.78-1.78-5.85-4.03-8.13-1.82-1.84-1.33-4.07.98-5.27.93-.49,2.02-.65,3.24-1.03-1.25-1.09-2.45-2.09-3.59-3.14-2.75-2.52-5.56-4.97-8.2-7.61-3.8-3.8-6.42-8.39-8.93-13.13-2.97-5.61-4.25-11.64-4.88-17.73-.54-5.18-.99-10.46-.4-15.73.58-5.1.95-10.23,1.32-15.35.14-1.94.02-3.89.02-5.83-.14-.14-.28-.29-.43-.43-.09.3-.1.68-.29.9-3.33,3.93-6.82,7.74-10,11.79-2.92,3.71-5.71,7.55-8.19,11.55-2.62,4.24-4.88,8.7-7.17,13.14-1.63,3.16-3.16,6.39-4.52,9.68-1.33,3.21-2.46,6.51-3.57,9.81-.58,1.73-1,3.51-1.38,5.29-.54,2.51-.99,5.04-1.46,7.57-.62,3.28-1.38,6.53-1.79,9.84-.7,5.62-.82,11.27-.78,16.93.05,6.55,1.07,12.98,2.1,19.41.25,1.54.8,3.02,1.26,4.66h0Zm-87.21-7.28c-.28,2.69-.46,5.21-.82,7.7-1.02,7.07-.97,14.25-2.21,21.3-.38,2.18-.46,4.43-.96,6.58-1.07,4.6-2.22,9.19-3.54,13.72-.99,3.4-2.29,6.71-3.48,10.05-1.03,2.9-1.92,5.87-3.2,8.66-1.74,3.8-2.9,7.88-5.38,11.33-.36.5-.54,1.14-.8,1.72-.52,1.15-1.06,2.28-1.55,3.44-.63,1.52-1.77,2.88-1.56,4.67.38,3.23.74,6.47,1.17,9.69.25,1.89.48,3.8.95,5.64.66,2.59,1.45,5.16,2.36,7.67.48,1.31,1.26,2.53,2.04,3.7.76,1.15,1.93,1.45,3.15.82,1.69-.86,3.5-1.63,4.93-2.83,5.01-4.2,9.23-9.14,13.02-14.45,2.4-3.36,4.76-6.75,7.07-10.18,1.87-2.77,3.68-5.59,5.39-8.46.39-.67.63-1.92.27-2.44-.98-1.41-1.24-3.05-1.92-4.54-.69-1.52-1.32-3.07-1.92-4.62-2.05-5.23-3.85-10.57-7.21-15.18-1.3-1.79-.07-5.35,2.73-5.47,2.16-.09,4.06.54,5.6,4.12,1.72,3.99,3.34,8.02,5.01,12.04.12.29.21.59.31.89.67,1.99,1.34,3.97,1.98,5.87.4-.03.52-.01.54-.05,1.65-2.72,3.33-5.43,4.92-8.18.25-.44.21-1.1.18-1.64-.13-2.29-.31-4.57-.47-6.85-2.51-1.26-4.85-2.48-5.49-5.5.79-.76,1.47-1.74,2.41-2.25,2.12-1.15,2.06-2.92,1.43-4.71-.38-1.08-.14-1.83.39-2.66,1.96-3.14,5.06-3.32,7.17-.43.22.3.51.55.82.89,1.05-.67,1.97-1.3,2.92-1.87,1.98-1.19,3.43-2.48,4.22-5,1.68-5.35,3.91-10.54,6.19-15.67,2.38-5.34,4.68-10.71,6.53-16.26.69-2.07,1.33-4.17,2.09-6.54-1.82.14-3.29.23-4.75.37-2.53.24-5.05.55-7.58.74-2.46.19-4.94.17-7.4.4-1.89.18-3.75.6-5.63.91-3.58.59-7.18,1.12-10.75,1.77-6.2,1.14-12.39,2.32-19.21,1.08h0Zm-247.69-137.11c.72,1.37.29,2.38-.57,3.38-.82.95-1.6,1.96-2.29,3.01-1.57,2.39-3.13,4.78-4.59,7.24-2.27,3.82-4.5,7.68-6.68,11.55-1.61,2.86-2.75,5.9-2.81,9.22-.11,5.52-.25,11.05-.15,16.57.15,8.59-.2,17.18.82,25.77.86,7.25,1.2,14.56,1.66,21.84.37,5.86.68,11.74.79,17.61.1,5.16-.04,10.32-.23,15.47-.17,4.67.27,9.34-.14,14.02-.32,3.71-.26,7.46-.29,11.2,0,1.32.26,2.65.4,3.97.18,0,.36,0,.53,0,.2-1.2.36-2.41.59-3.6.34-1.79,1.18-3.61,1-5.34-.34-3.31,1.27-6.24,1.34-9.43.04-1.75,1.26-3.39.87-5.15-.29-1.28.75-1.36,1.24-1.86-.58-1.26-.32-2.61-.01-4.27.29-1.57.06-3.25.06-4.89.53.07.85.11,1.46.18-1.09-.98-1.18-1.94-.65-2.82.3-.49.58-.76.28-1.4-.19-.41.05-1.05.16-1.57.15-.77.58-1.56.5-2.29-.15-1.34.51-2,1.67-2.34-.39-.54-.65-.91-.93-1.3.6-.47,1.13-.89,1.82-1.43-1.41-1.44-1.27-3.13-.17-4.32,1-1.08,1.25-2.25,1.72-3.55-.54-.04-.98-.08-1.4-.11-.07-.21-.19-.38-.15-.51.59-2.08,1.2-4.16,1.82-6.24.18-.61.27-1.63.62-1.74,1.64-.49,1.48-1.95,1.93-3.08.07-.18-.07-.45-.11-.68-.54.1-1.03.19-1.68.32.71-2.37,1.35-4.48,2.12-7.05.43.73.61,1.04.81,1.38.97-1.46-.99-1.53-.79-2.48.52-1.55.89-3.14,1.34-4.7.5-1.72,1.29-3.39,1.57-5.14.36-2.25,1.06-4.13,3.13-5.21-1.86-2.72.84-4.8.77-7.28.51.22.91.38,1.52.64.62-2,1.2-3.86,1.78-5.73-.54-.28-.93-.49-1.32-.69.29-.73.55-1.38.81-2.03.49-.09.98-.18,1.53-.28-.28-.69-.47-1.17-.62-1.55.7-.65,1.29-1.2,1.88-1.76-.07-.11-.14-.21-.2-.32-.46.14-.91.27-1.72.51.61-1.45,1.1-2.58,1.58-3.72.42.02.8.04,1.18.07-.04-.93.93-1.8-.03-2.74-.15-.15.03-.8.21-1.12.82-1.44.98-2.08,1.15-3.21.11-.75-.05-2.29,1.56-1.11.27-.42.54-.85.91-1.43h-1.35c.54-1.18,1.08-2.19,1.45-3.25.7-1.96,1.29-3.95,1.86-5.7.73-.09,1.11-.13,1.17-.14-.1-.9-.37-1.63-.22-2.26.29-1.21,1.1-2.35,1.19-3.55.23-2.86.18-5.75.23-8.63,0-.07-.07-.14-.11-.21-1.1-1.55-.73-3.1-.08-4.69.21-.5.41-1.04.41-1.56-.01-4.74,0-9.48-.14-14.22-.13-4.13-.45-8.25-.7-12.37-.07-1.1-.19-2.2-.32-3.29-.28-2.37-.7-4.72-.84-7.09-.32-5.45-.5-10.91-.75-16.37-.06-1.39.08-2.84-.26-4.17-.79-3.05.13-6.06.03-9.09-.11-3.2.6-6.41.66-9.63.12-6.57.04-13.14.04-19.72-.01,0-.1-.06-.16-.04-5.92,2.67-11.81,5.46-18.32,6.43-1.98.3-2.61,1.55-2.99,3.17-.51,2.15-.63,4.48-1.55,6.44-1.27,2.72-1.23,5.68-2.18,8.48-1.21,3.54-1.51,7.43-1.39,11.29.24,7.74.34,15.48.53,23.22.02.7.27,1.4.38,2.1.11.7.32,1.43.23,2.12-.23,1.77-.6,3.53-.92,5.37-1.89-.15-1.9-1.94-2.67-3.2-.21.68-.35,1.12-.55,1.77-.77-1.69-.6-3.54-2-5.02-.36,3.72-.73,7.15-1.02,10.58-.37,4.43-.67,8.86-1,13.3-.05.72-.08,1.44-.13,2.15-.26,3.31-.51,6.62-.79,9.93-.14,1.75-.32,3.51-.48,5.26.79-.68,1.3-1.46,1.76-2.27,1.23-2.22,2.27-4.56,3.7-6.63,1.2-1.73,2.04-3.34,1.03-5.31,2.8-2.3,4.51-2.63,8.61-1.7h0Zm82.7,2.01c-.23-.06-.46-.13-.69-.19-2.13,4.06-4.33,8.08-6.36,12.19-1.61,3.26-3.04,6.61-4.52,9.94-1.32,2.97-2.67,5.94-3.89,8.95-2.79,6.9-5.71,13.75-8.22,20.75-3.2,8.94-6.1,17.99-9.04,27.02-1.37,4.21-2.54,8.48-3.79,12.73-.45,1.52-.92,3.04-1.29,4.58-.39,1.6-.62,3.23-1.01,4.82-.69,2.85-1.46,5.68-2.17,8.52-1.09,4.38-2.22,8.76-3.22,13.16-1.29,5.65-2.51,11.31-3.67,16.99-.65,3.18-1.04,6.41-1.64,9.6-.58,3.12-1.39,6.21-1.89,9.34-1,6.2-1.9,12.42-2.74,18.64-.52,3.85-.87,7.72-1.24,11.59-.2,2.03-.39,4.08-.42,6.12-.05,4.37-.12,8.75.06,13.11.09,2.19.79,4.35,1.05,6.55.42,3.52,1.67,6.74,3.35,9.8.74,1.34,1.94,2.28,3.43,2.72.47.14,1.03.14,1.5.01,2.21-.62,3.88-2.12,5.57-3.55,4-3.39,7.96-6.83,11.93-10.24,3.08-2.65,6.24-5.25,8-9.05.52-1.13.87-2.35,1.23-3.55.71-2.35,1.65-4.67,1.99-7.07.28-2.01-.12-4.12-.28-6.19-.14-1.95-.4-3.89-.52-5.85-.05-.77.38-1.61.19-2.31-.65-2.36-.63-4.7-.25-7.07.14-.85.32-1.71.32-2.57-.01-2.71-.2-5.42-.15-8.12.1-5.69.28-11.37.48-17.06.32-9.21.87-18.39,2.37-27.5.67-4.05,1.15-8.14,1.77-12.2.2-1.33.73-2.61.86-3.93.5-5.25,2.28-10.21,3.3-15.33.66-3.32,1.62-6.6,2.11-9.95.61-4.16.88-8.36,1.28-12.55.34-3.63.68-7.26.96-10.89.23-3.02.28-6.05.56-9.06.58-6.24,1.24-12.47,1.92-18.7.34-3.06.84-6.1,1.21-9.15.25-2.12.37-4.25.58-6.37.22-2.21.48-4.41.73-6.61.08-.69.16-1.38.24-2.07h0Zm-231.31,2.84c-.16-.02-.32-.03-.48-.05-.46,1.37-1.05,2.7-1.34,4.1-1.05,5.04-2.04,10.1-2.98,15.16-.69,3.73-1.41,7.47-1.86,11.24-.64,5.45-1.07,10.93-1.53,16.41-.18,2.13-.2,4.28-.25,6.42-.22,9.54-.67,19.09,1.03,28.57.08.47.25.97.18,1.42-.5,3.37.16,6.65.66,9.95.66,4.3,1.14,8.62,1.89,12.89.76,4.36,1.76,8.67,2.65,13,.18.86.27,1.73.49,2.57.62,2.35,1.31,4.69,1.93,7.05,1.16,4.44,2.25,8.9,3.46,13.33.62,2.27,1.5,4.48,2.17,6.74,1.25,4.24,2.38,8.52,3.67,12.74,1.04,3.39,2.25,6.74,3.39,10.1.11.34.26.66.46,1.19,1.44-2.27,2.7-4.33,4.04-6.35,1.54-2.31,3.05-4.64,4.75-6.83.81-1.05,1.94-1.91,3.06-2.65,1.19-.79,4.45-.49,5.24.45,1.09,1.29.9,2.86.33,4.28-1.18,2.89-2.22,5.89-4.63,7.81-.66-.5-1.3-.98-2.13-1.61-1.35,2.11-2.5,3.99-3.74,5.82-1.15,1.7-2.27,3.44-3.63,4.96-.88.98-.75,1.98-.42,2.86,1.54,4.11,3.23,8.15,4.89,12.3.35-.2.61-.27.72-.43,2.32-3.23,4.75-6.39,6.89-9.74,2.59-4.04,5.35-7.9,8.81-11.26,1.46-1.41,3.66-1.89,5.46-.99.46.23.87.55,1.71,1.08-.31-3.26-.76-6.09-.81-8.93-.13-6.61-.07-13.23-.06-19.84,0-.71.18-1.42.17-2.12-.05-4.04-.17-8.08-.17-12.12,0-2.18.25-4.36.24-6.54,0-2.94-.24-5.89-.18-8.83.03-1.64.47-3.27.72-4.9l.54-4c.48-2.3-.23-4.66.67-7.02.61-1.59.86-3.45.69-5.33-.15-1.68-.28-3.43.39-5.15.51-1.31.64-2.77.86-4.17.42-2.64.78-5.3,1.18-7.95.03-.23.13-.49.3-.64.88-.78.87-1.8.85-2.84-.02-1.46.25-2.84,1.01-4.12.97-1.63.69-3.14-.34-4.69-3.37-5.05-6.83-9.99-12.59-12.67-2.36-1.1-4.64-2.43-7.09-3.28-4.4-1.52-9.03-2.46-13.33-4.21-3.11-1.27-6.17-3.09-8.69-5.3-3.69-3.24-5.18-7.93-6.37-12.57-.77-2.99-1.32-6.02-1.59-9.13-.41-4.57-1.3-9.1-1.18-13.72.02-.82-.07-1.64-.11-2.46h0Zm552.59,115.48c1.09,3.15,2.05,5.99,3.06,8.81,1.02,2.83,2.01,5.67,3.16,8.44,1.92,4.67,3.91,9.32,5.96,13.94,1.41,3.19,2.92,6.33,4.48,9.45,2.51,5.05,5.03,10.08,7.65,15.07,1.03,1.97,2.31,3.81,3.48,5.71,3.04,4.96,5.97,9.99,9.16,14.85,2.48,3.78,5.14,7.46,8,10.96,2.76,3.38,5.8,6.54,8.84,9.67,3.19,3.29,7.1,5.63,11.23,7.49,4.09,1.84,8.41,2.68,12.95,2.79,4.94.12,9.75-.51,14.34-2.09,4.79-1.65,9.6-3.39,13.89-6.2,2.98-1.96,5.97-3.92,8.84-6.03,2.16-1.6,4.16-3.43,6.21-5.18,3.14-2.68,6.41-5.24,9.37-8.11,4.8-4.67,9.41-9.52,14.06-14.35,2.82-2.92,5.58-5.89,8.3-8.91,2.6-2.88,5.05-5.88,7.66-8.76,2.87-3.17,5.9-6.18,8.73-9.38,2.78-3.14,5.86-5.99,8.72-9.06,4.91-5.28,10.25-10.16,15.42-15.21,4.81-4.7,9.62-9.4,14.42-14.11,2.17-2.14,4.31-4.31,6.44-6.44-.2-.4-.28-.62-.41-.8-1.46-1.98-.82-3.98,1.6-4.36,2.05-.32,4.16-.22,6.1.68,1.8.83,2.26,2.8,1.03,4.47-.74,1-1.63,1.9-2.5,2.79-2.61,2.67-5.21,5.36-7.9,7.97-2.11,2.05-4.38,3.92-6.49,5.97-3.49,3.39-6.89,6.87-10.35,10.3-4.47,4.42-9.04,8.75-13.43,13.25-5.07,5.19-9.98,10.53-14.98,15.78-1.26,1.32-2.68,2.49-3.89,3.85-1.79,2.02-3.37,4.23-5.18,6.23-4.27,4.72-8.59,9.4-12.97,14.02-3.34,3.52-6.76,6.97-10.24,10.35-2.28,2.22-4.65,4.35-7.1,6.38-2.5,2.07-5.14,3.99-7.74,5.93-1.98,1.47-3.98,2.93-6.04,4.29-2.17,1.44-4.41,2.78-6.65,4.12-.67.4-1.43.67-2.16.98-2.91,1.25-5.91,2.33-8.72,3.78-2.74,1.42-5.76,1.61-8.63,2.43-2.04.58-4.19.77-6.3,1.07-.94.13-1.91.16-2.86.09-2.28-.17-4.55-.42-6.83-.67-1.5-.16-3.1-.07-4.46-.6-5-1.96-9.96-3.95-14.3-7.34-3.65-2.86-6.91-6.06-10.09-9.38-3.74-3.91-6.46-8.62-9.98-12.7-2.83-3.27-4.45-7.27-6.93-10.74-1.22-1.72-1.89-3.84-3.17-5.5-1.41-1.85-2.67-3.69-3.47-5.89-.49-1.32-1.34-2.5-2.05-3.74-1.57-2.75-3.39-5.38-4.65-8.26-1.63-3.7-3.35-7.32-5.22-10.92-2.61-5.05-4.76-10.35-6.91-15.62-1.98-4.84-3.69-9.79-5.53-14.68-.63-1.68-1.29-3.35-1.92-4.96-3.29,1.07-6.39,2.09-9.49,3.08-1.5.48-3.19.62-4.48,1.41-2.29,1.41-4.71,2.3-7.27,2.94-.6.15-1.2.4-1.72.73-.97.62-1.72,1.77-3.16,1.14-.13-.06-.55.27-.66.51-.48,1.04-1.51,1.05-2.37,1.39-1.09.43-2.17.9-3.23,1.39-.42.2-.77.56-1.2.75-1.34.6-2.76,1.06-4.05,1.75-4.76,2.52-9.48,5.1-14.22,7.67-2.92,1.58-5.82,3.18-8.77,4.8.86,4.72,2.56,9,4.31,13.21,1.76,4.22,4.15,8.18,6.24,12.26,5.01,9.78,11.64,18.45,18.71,26.77,3.96,4.66,8.21,9.1,12.61,13.35,7.73,7.48,15.51,14.91,23.57,22.02,4.45,3.92,9.49,7.18,14.29,10.7,3.14,2.3,6.33,4.53,9.51,6.77,2.2,1.55,4.27,3.35,6.64,4.57,5.15,2.64,10.47,4.97,15.71,7.44,4.8,2.26,9.69,4.25,14.8,5.72,2.96.85,5.87,1.88,8.84,2.67,4.13,1.1,8.25,2.33,12.46,3,4.74.75,9.55,1.14,14.35,1.34,7.22.31,14.45.15,21.65-.74,2.66-.33,5.31-.98,7.98-1.05,4.01-.1,7.81-1.19,11.63-2.06,5.64-1.28,11.03-3.43,16.44-5.5,7.98-3.06,15.62-6.8,22.78-11.4,6.22-4,12.12-8.51,18.01-12.99,2.84-2.16,5.46-4.64,7.97-7.2,5.36-5.45,10.62-11.03,15.11-17.2,4.53-6.23,9.04-12.51,12.66-19.36,2.73-5.17,5.76-10.17,7.89-15.65,1.46-3.75,3.13-7.41,4.63-11.14,1.22-3.02,2.51-6.03,3.45-9.14,1.65-5.44,3.63-10.78,4.82-16.38,1.36-6.36,3.11-12.64,4.66-18.96.15-.61.1-1.27.15-1.91.06-.71.1-1.42.21-2.12.39-2.5.83-4.98,1.21-7.48.33-2.18.62-4.36.92-6.47h1.52c-1.43-1.15-1.34-2.59-1.27-4.03.1-2.18.6-4.31.62-6.51.03-3.25.55-6.5.44-9.74-.17-5.21-.69-10.41-1.04-15.61-.07-1.02.08-2.06-.04-3.08-.62-5.11-1.36-10.21-1.94-15.32-.52-4.58-1.49-9.07-2.4-13.57-.77-3.79-1.62-7.56-2.5-11.33-.39-1.65-.84-3.3-1.41-4.9-1.42-3.96-2.61-7.98-4.26-11.88-1.61-3.79-2.97-7.68-5.03-11.26-2.44-4.25-4.89-8.5-7.49-12.66-2.1-3.36-4.28-6.7-6.7-9.83-2.71-3.51-5.7-6.82-8.64-10.15-1.1-1.25-2.41-2.31-3.62-3.46-1.56-1.47-3.34-2.77-4.63-4.45-2.25-2.93-5.6-4.4-8.28-6.74-1.77-1.54-3.92-2.65-5.93-3.88-3.11-1.91-6.21-3.84-9.4-5.61-2-1.11-4.14-1.97-6.23-2.92-2.96-1.35-5.87-2.84-8.92-3.97-3.85-1.43-7.78-2.66-11.73-3.77-4.11-1.16-8.29-2.07-12.69-3.15,0,1.1-.22,2.03.04,2.8,1.04,3.15.98,6.42,1.26,9.66.27,3.17.46,6.35.79,9.52.49,4.73,1.12,9.44,1.59,14.17.27,2.7.29,5.42.54,8.12.2,2.14.79,4.25.86,6.38.17,5.33.08,10.66.68,15.99.36,3.17-.04,6.4.4,9.63.44,3.23.25,6.56.22,9.84-.06,6.33-.19,12.66-.3,18.99-.06,3.39.1,6.81-.25,10.17-.76,7.45-.4,14.97-1.48,22.4-.32,2.19-.07,4.48-.56,6.61-.93,4.01-1.32,8.09-2.34,12.11-1.46,5.76-2.98,11.46-5.16,16.98-1.02,2.59-2.15,5.15-5.44,5.64-1.19.18-3.38-.52-3.77-1.41-.56-1.26.3-4.86,1.61-5.35,1.17-.43,1.41-1.34,1.71-2.09,1.04-2.64,1.97-5.34,2.73-8.08.92-3.29,1.69-6.63,2.39-9.97.55-2.63.99-5.29,1.31-7.96.29-2.45.35-4.93.52-7.4.48-6.59.96-13.17,1.45-19.76.15-1.95.42-3.9.46-5.86.08-4.62.02-9.24.08-13.85.07-5.28.26-10.56.03-15.85-.18-4.1-.39-8.2-.57-12.3-.07-1.5-.1-3-.08-4.5,0-.41.25-.82.41-1.3,2,1.17-.14,3.2,1.22,4.59.73-.78,1.17-1.47.58-2.38-.55-.85-.74-1.66-.48-2.68.12-.49-.24-1.11-.38-1.67-.12.02-.25.04-.37.06-.1.57-.21,1.14-.31,1.71-.16,0-.32-.01-.49-.02-.13-1.84-.27-3.69-.38-5.53-.21-3.61-.38-7.22-.63-10.82-.1-1.42-.46-2.82-.54-4.24-.27-4.96-.31-9.93-1.24-14.85-.59-3.11-1.09-6.31-1.03-9.46.11-5.99-1.69-11.77-1.69-17.72,0-.9-.33-1.56-1.29-1.73-1.55-.28-3.1-.66-4.67-.79-3.34-.27-6.69-.41-10.04-.61-.64-.04-1.31.03-1.9-.15-3.2-.99-6.49-.57-9.72-.6-5.69-.04-11.4-.21-17.08.68-2.95.46-6,.31-9,.56-4.2.35-8.38.82-12.57,1.26-.95.1-1.89.27-2.82.44-3.03.56-6.05,1.17-9.09,1.7-2.86.5-5.73.92-8.71,1.39,1.11,8.03,2.18,15.71,3.27,23.59,2.73-.7,5.45-1.36,8.16-2.09,1.98-.54,3.91-1.27,5.91-1.71,1.61-.36,3.32-.27,4.93-.62,3.91-.85,7.87-.76,11.82-.84,3.81-.08,7.65-.14,11.43.24,3.99.4,7.94,1.24,11.87,2.09,1.92.41,3.8,1.15,5.6,1.97,2.31,1.04,4.51,2.33,6.78,3.47,1.54.77,2.81,1.7,3.37,2.66-2.21-.6-4.36-1.08-6.45-1.76-5.58-1.83-11.21-3.49-17.03-4.35-2.03-.3-4.09-.5-6.14-.54-2.27-.04-4.55.16-6.82.24-1.25.04-2.52-.1-3.76.06-4.78.62-9.57.99-14.33,1.9-4.52.86-8.9,2.15-13.33,3.32-.57.15-1.04.68-1.58,1.06.15,1.87.3,3.68.43,5.48.09,1.22.11,2.44.24,3.65.12,1.17.41,2.33.5,3.5.21,2.67.34,5.35.5,8.03.23,3.69.54,7.37.66,11.06.19,5.7.33,11.4.33,17.1,0,6.36-.16,12.73-.29,19.09-.09,4.69-.18,9.37-.61,14.05-.5,5.38-.37,10.81-.64,16.22-.22,4.34-.52,8.68-.99,13-.63,5.77-.2,11.6-1.33,17.35-.65,3.29-3.24,4.93-6.18,3.35-.7-.38-1.35-.83-2.12-1.31.15-.74.14-1.5.46-2.09,1.81-3.42,2.13-7.11,2.19-10.87.04-2.24.02-4.48.19-6.71.35-4.51.92-9,1.2-13.51.38-6.12.55-12.25.83-18.37.17-3.8.37-7.6.56-11.39.19-3.79.5-7.59.55-11.38.07-5.76.15-11.51-.5-17.26-.32-2.8-.12-5.65-.15-8.48,0-.15.1-.3.17-.52.46-.13.95-.28,1.32-.39,0-2.21.03-4.26-.04-6.32,0-.22-.5-.43-.76-.64,0,1.26-.02,2.29,0,3.32.03,1.02.1,2.04.16,3.42-.53-.47-.82-.6-.84-.77-.14-1.16-.25-2.32-.3-3.48-.08-1.76-.42-3.61,1.3-4.92.11-.08.01-.44.01-.7-.44.21-.82.39-1.2.57-.53-1.33-.05-1.89,1.27-1.89-.93-1.78,1.13-4.23-1.68-5.28,1.53-1.47,1.25-3.28,1.04-4.85-.09-.69.54-2.49-1.39-2.35-.37-1.39-1.67-2.61-.24-4.64-2.89,1.16-5.15,2.06-7.4,2.98-1.14.46-2.29.89-3.38,1.45-2.59,1.35-5.13,2.81-7.73,4.15-2.66,1.37-5.39,2.61-8.05,3.97-1.76.9-3.54,1.8-5.17,2.9-3.62,2.43-7.17,4.97-10.73,7.49-4.28,3.03-8.6,6-12.8,9.13-4.52,3.37-9.25,6.46-13.19,10.58-2.3,2.4-4.91,4.49-7.33,6.78-.41.39-.75,1.05-.81,1.61-.62,6.54-1.26,13.09-1.74,19.64-.29,3.89-.66,7.83-.36,11.7.39,5.03.21,10.09,1.34,15.12.88,3.89,1.81,7.75,3.53,11.29,2.69,5.53,6.26,10.52,10.8,14.73,4.66,4.33,9.55,8.34,15.12,11.54,5.91,3.4,12.24,5.64,18.68,7.66,1.4.44,2.84.9,4.29.98,3.64.19,7.31.42,10.94.17,5.39-.37,10.33,1.3,15.32,2.81,1.25.38,1.89,1.43,1.94,2.73.05,1.19-.37,1.98-1.61,2.59-1.6.79-3.14.89-4.8.67-1.74-.22-3.48-.41-5.22-.61-2.14-.23-4.28-.38-6.41-.7-3.51-.53-6.99-1.32-10.52-1.72-3.83-.43-7.61.43-11.4.92-2.36.31-4.73.59-7.07,1.02-1.97.36-3.89.93-6.11,1.47h0Zm-261.01-93.98c1.67-.12,1.82-1.52,1.75-2.58-.12-1.71.64-3,1.4-4.35.05-.09.23-.1.51-.21-.1.62-.18,1.14-.26,1.66,2.58-4.16,5.35-8.14,6.43-12.99.27-1.22.07-3.29,2.41-3.19.1-.82.18-1.54.27-2.27-.11-.04-.22-.08-.33-.11-.22.41-.45.83-.68,1.25-.21-.16-.45-.29-.43-.35.4-1.89.74-3.79,1.27-5.64.33-1.16.95-2.23,1.53-3.56-.37-.17-.91-.63-1.27-.53-1.44.42-2.88.92-4.21,1.59-2.88,1.45-6,2.31-8.87,3.84-3.41,1.82-7.08,3.15-10.67,4.61-1.38.56-2.27,1.55-2.74,2.83-1.57,4.31-3.19,8.61-4.51,13-1.64,5.49-3.96,10.82-4.18,16.68-.02.57-.86,1.34-1.5,1.61-.8.35-1.77.28-2.88.41-1.03-.72-2.46-1.47-2-3.38.56-2.31,1.09-4.62,1.76-6.9,1.03-3.5,2.23-6.94,3.24-10.45.67-2.33,1.14-4.73,1.73-7.26-.56.09-.83.05-1,.17-5.94,4.18-11.46,8.87-15.81,14.72-2.26,3.03-4.24,6.32-5.97,9.68-2.09,4.06-3.9,8.28-5.63,12.51-1.35,3.3-2.42,6.72-3.55,10.1-.8,2.4-1.49,4.83-2.21,7.25-1.27,4.25-2.57,8.49-3.76,12.76-.75,2.67-1.47,5.37-1.93,8.1-.4,2.4-.33,4.86-.69,7.31-.59,3.98-.52,8.06-.74,12.09-.4,7.15-.83,14.31-1.22,21.46-.12,2.12-.09,4.26-.25,6.38-.35,4.75-.76,9.49-1.16,14.23-.21,2.54-.39,5.08-.7,7.61-.34,2.9-.93,5.77-1.19,8.67-.34,3.8-.44,7.63-.7,11.44-.24,3.55-1.47,6.99-1.14,10.6.04.43-.33.88-.45,1.33-.6,2.39-1.17,4.73-.58,7.27.56,2.45.83,4.99.98,7.5.13,2.14.12,4.26.75,6.35.33,1.11.32,2.33.52,3.49.55,3.2.99,6.43,1.72,9.59.73,3.17,1.74,6.28,2.65,9.42.44,1.52.86,3.05,1.37,4.55.59,1.72,1.1,3.5,1.94,5.09.89,1.7,1.04,3.9,2.97,4.96,2.54-1.06,4.51-2.69,5.85-5.07,1.67-2.96,3.47-5.85,5.08-8.83.86-1.59,1.37-3.37,2.15-5,1.79-3.73,3.17-7.62,4.3-11.59.76-2.64,1.36-5.33,1.98-8.01.7-3.02,1.46-6.03,1.99-9.08.63-3.66,1.03-7.36,1.56-11.04.55-3.83,1.15-7.66,1.72-11.49.19-1.25.4-2.5.54-3.76.37-3.25.75-6.51,1.06-9.77.18-1.89.27-3.8.35-5.7.08-1.94.96-3.67.98-5.72.03-2.97.99-5.93,1.26-8.96.25-2.79.27-5.59,1.14-8.37.65-2.07.22-4.46.44-6.69.18-1.79.7-3.54.93-5.33.42-3.3.79-6.61,1.31-9.9.2-1.25-.24-2.67.2-3.79.46-1.18.56-2.33.67-3.52.18-2.1.31-4.21.58-6.29.21-1.59.09-3.21,1.23-4.7.5-.65-.08-2.12-.15-2.94.68-.44,1.43-.68,1.48-1.01.12-.82.06-2.38-.16-2.43-1.32-.26-.69-.87-.53-1.54.4-1.63.71-3.29,1.06-4.93.93-4.26.42-8.8,2.5-12.83.07-.13.05-.31.09-.46.82-4.09,1.27-8.29,2.55-12.23,1.25-3.83,1.89-7.8,3.15-11.6.95-2.86,1.89-5.72,2.81-8.59,1.01-3.16,2.36-6.22,2.61-9.6.04-.58.58-1.28,1.09-1.64,1.92-1.35,4.87.11,5.08,2.46.05.59,0,1.19,0,1.84.51-.13.81-.21,1.11-.29-.23.48-.33,1.12-.7,1.43-2.34,1.94-2.25,4.86-3.07,7.44,1.26-1.9,2.25-3.93,3.37-5.9.56-.98.67-1.93.4-2.97h0Zm-19.64-26.54c.33.07.67.13,1.03.2.18-.44.36-.91.55-1.38-.06-.06-.13-.11-.19-.16-.46.45-.93.89-1.39,1.34.48-1.49.95-2.99,1.43-4.48.21.06.51.14.59.16-.05-1.22-.23-2.3-.12-3.35.14-1.26.58-2.48.79-3.74.1-.62-.04-1.27-.08-2.2-4.19.46-8.03.88-11.86,1.29-.56.06-1.12.09-1.68.04-2.46-.2-4.88.03-7.34.26-4.19.4-8.41.38-12.62.53-1.61.06-1.91.29-2.16,1.86-.06.39-.13.78-.17,1.18-.42,3.98-.82,7.96-1.26,11.93-.33,2.91-.72,5.82-1.08,8.73-.36,2.98-.75,5.96-1.06,8.94-.34,3.32-.61,6.65-.92,9.97-.16,1.74-.37,3.47-.54,5.21-.17,1.71-.33,3.43-.46,5.15-.13,1.75-.22,3.5-.3,5.25-.02.4.07.8.1,1.2.54-.37.81-.75.95-1.18,1.71-5.05,4.14-9.78,6.41-14.59,3.03-6.42,7.33-11.9,12.3-16.82,5.1-5.04,10.72-9.5,17.08-12.93.99-.54,1.86-1.18,2.01-2.42h0Zm-121.1-104.8c.2-.22.39-.44.59-.65.54-.86,1.08-1.73,1.73-2.75h-1.72c1.7-3.75,3.26-7.37,4.97-10.92,2.38-4.93,4.9-9.79,7.34-14.69,1.3-2.62,2.42-5.34,3.92-7.84.74-1.23.88-2.7,1.67-3.74,1.53-2.04,1.93-4.5,2.97-6.71.31-.66.3-1.48.53-2.76-1.73,1.31-2.88,2.48-3.93,3.76-4.39,5.31-7.66,11.27-10.25,17.62-1.57,3.87-3.17,7.74-4.57,11.67-2.04,5.74-4.05,11.49-5.25,17.57.55-.13.99-.23,1.43-.33.22,1.5-1.27,1.31-2.15,1.94,1.54,1.72-.74,3.06-.2,4.75,1.17-2.24,2.81-4.24,2.91-6.91h0Zm-188.55,215.13c-.26-.39-.51-.79-.86-1.32-.37,1.12-.02,1.45.9,1.28-.38,1.61-.76,3.22-1.07,4.5.91.73,1.56,1.25,2.39,1.92-.31-1.21-.59-2.25-.86-3.3-.1-.37-.36-1-.25-1.08,1.28-.89-.12-1.36-.27-2.01h0Zm643.07-105.98c-.72,1.33-.53,2.62.17,3.89.3-1.3.57-2.61-.22-3.85-.04-2.47,1.03-4.98-.21-7.71-.34.48-.7.79-.65.94.67,1.8.09,3.57.03,5.36-.02.5-.08,1.35.87,1.38h0Zm-395.69,32.92c-.36-.42-.72-.84-1.26-1.47,1.89-.38,2.96-1.06,2.71-2.86-.03-.21.33-.48.49-.73.15-.23.42-.67.39-.69-1.03-.79.21-1.26.22-1.86.02-.94.77-1.61.65-2.69-.07-.68.95-1.6,1.65-2.22.93-.81,1.04-1.65,1.13-2.87.22-2.87.74-5.82,4.08-6.99.19-.07.32-.34.44-.53.08-.13.09-.3.2-.7-.49.05-.9.08-1.42.13-.14-1.59,1.27-2.06,2.1-2.86,1.33-1.29,1.39-1.23.65-3.04h1.03c-.89-2.33.09-3.9,2.37-3.77-.28-1.51.48-2.88,1.4-3.66,1.27-1.08.97-2.67,1.86-3.78.16-.2.15-.16,1.17-.84.3-.2.13-1.11.18-1.76,1.8-.51,2.4-.5,1.23-2.62.69-1.13,1.38-2.25,2.18-3.56-1.42-.57-2.65-.9-3.71-1.52-1.09-.64-2.02-1.56-2.8-2.18.6-2.99,1.9-4.56,4.31-5.2.68-.18,1.28-.63,1.93-.92,1.2-.54,1.78-1.43,1.9-2.76.23-2.53.55-5.06.9-7.58.13-.94.49-1.84.64-2.78.32-2.01.58-4.04.48-6.3-.58.7-1.18,1.38-1.74,2.11-1.18,1.55-2.75,2.58-4.5,3.32-2.38,1.01-4.5,1.04-6.39-1.25-2-2.43-3.54-4.95-4.28-8.08-1.58-6.73-1.39-13.54-1.41-20.35,0-2.14.3-4.29.4-6.43.06-1.32.01-2.64-.36-4.06-.57,1.24-1.11,2.49-1.7,3.72-1.06,2.21-2.12,4.43-3.22,6.62-1.85,3.68-3.82,7.3-5.57,11.02-2.3,4.88-4.48,9.81-6.61,14.76-2.59,6.03-5.08,12.1-7.6,18.16-.6,1.45-1.14,2.94-1.74,4.52,1.18.88,2.29,1.93,2.39,3.56.1,1.51.09,2.99-.7,4.41-2.35,4.23-4.61,8.5-6.89,12.77-1.71,3.2-3.38,6.43-5.09,9.63-1.12,2.09-2.3,4.15-3.4,6.25-1.63,3.12-1.57,6.56-1.78,9.93-.23,3.65-.37,7.3-.55,10.95-.12,2.52-.21,5.04-.37,7.56-.29,4.24-.87,8.49-.83,12.72.02,1.88-.33,3.7-.28,5.57.08,2.67-.21,5.36-.35,8.04-.14,2.71-.23,5.42-.44,8.12-.26,3.4-.67,6.79-.92,10.19-.18,2.46-.22,4.93-.32,7.39-.03.71-.04,1.41-.12,2.11-.37,3.31-.73,6.63-1.14,9.94-.31,2.51-.74,5-.99,7.52-.57,5.66-1.66,11.27-1.46,17,.06,1.64.12,3.26-.56,4.93-.54,1.32-.31,2.95-.4,4.44-.15,2.68-.14,5.38-.45,8.05-.65,5.55-.74,11.15-1.41,16.69-.57,4.81-.93,9.62-1.18,14.45-.22,4.27-1.02,8.52-1.69,12.77-.55,3.52-1.2,7.03-1.94,10.52-1.25,5.89-2.54,11.82-5.32,17.2-1.92,3.72-4.41,7.15-6.71,10.67-1.36,2.08-3.03,3.88-5.04,5.37-1.98,1.46-4.11,2.28-6.57,1.57-.62-.18-1.32-.55-1.69-1.06-3.18-4.3-4.59-9.2-5.25-14.5-.79-6.36-.46-12.7-.44-19.05.01-3.12.65-6.24,1.02-9.55-1.06.32-.85,1.2-.99,1.73-.49,1.81-.66,3.71-1.22,5.49-1,3.16-2.11,6.29-3.34,9.36-1.66,4.12-3.61,8.09-6,11.88-2.45,3.89-5.21,7.32-9.25,9.72-3.33,1.98-6.87,2.27-10.54,2.16-.41-.01-.92-.34-1.2-.67-1.48-1.78-2.79-3.66-3.23-6.01-.01-.08.02-.17-.01-.24-1.43-3.22-1.34-6.67-1.45-10.08-.07-2.37-.03-4.75-.01-7.13.05-7.57,0-15.14.22-22.7.11-3.7.78-7.39,1.07-11.09.2-2.58.23-5.18.25-7.78.03-2.6-.16-5.2-.03-7.79.12-2.52.55-5.03.78-7.55.12-1.24.14-2.5.14-3.75-.02-2.99.89-5.81,1.56-8.68.08-.34.09-.73.03-1.07-.16-1.06-.69-2.19-.46-3.14.23-1.01.72-1.98.68-3.05-.03-.71.64-1.38-.02-2.19-.21-.26.3-1.1.49-1.68.29-.91.67-1.81.83-2.75.04-.24-.6-.59-1.06-1.01.58-.28.97-.47,1.53-.73-.4-.31-.73-.57-1.16-.9.38-.59.75-1.17,1.18-1.85-1.46-2.14,1.02-4.21.07-6.59.42-.06.77-.1,1.29-.17-.17-.46-.32-.88-.5-1.38.39-.13.79-.27,1.57-.53-.72-.25-1.1-.38-1.52-.53,0-.74.01-1.57,0-2.39,0-.24-.21-.53-.13-.69.43-.81.94-1.59,1.42-2.37-1.05-.79-.6-1.79-.14-2.55.94-1.59,1.18-3.3,1.13-5.07-.14-4.45,1.51-8.35,3.63-12.26-.36-.3-.76-.63-1.36-1.13.39-.65,1.31-1.73,1.13-1.95-.67-.86-.41-1.58-.12-2.36.48-1.29.72-2.63,2.18-3.44.87-.48,1.31-1.65.26-2.65l-.05.06c1.07-.64,1.2-1.61.91-2.7-.2-.76-.43-1.5-.75-2.59.52.36.77.54,1.27.89.62-2.02,1.27-3.95,1.78-5.91.12-.47.81-1.44-.56-1.56-.09,0-.21-1.02-.1-1.51.19-.84.57-1.64.84-2.47.52-1.63.5-1.63,2.46-2.3-.29-.45-.57-.87-.83-1.27,2.4-2.45,2.37-6,3.99-8.8.16-.59.32-1.19.53-1.99-1.46.6-.49,1.37-.53,1.99-.49.17-.99.34-1.72.6.79-2.11.76-4.48,3.22-5.94-.17-.48-.42-1.19-.69-1.93.56-1.03,1.2-2.05,1.69-3.13.55-1.2,1.16-2.34,1.48-3.68.31-1.31,1.35-2.43,2.05-3.65.35-.61.81-1.23.92-1.89.39-2.51.66-5.03.96-7.55.35-2.9.71-5.79,1.02-8.69.11-1.03.07-2.07.13-3.1.15-2.3.31-4.6.48-6.9.08-1.08.19-2.15.29-3.23-.16-.08-.31-.16-.47-.25-.87.86-1.72,1.75-2.62,2.58-.88.8-1.89,1.48-2.74,2.32-3.18,3.12-6.36,6.23-9.44,9.45-2.65,2.76-5.26,5.55-7.71,8.48-3.06,3.67-6.03,7.42-8.87,11.26-2.82,3.81-5.54,7.71-8.1,11.7-3.9,6.09-7.62,12.3-11.4,18.46-2.86,4.67-5.77,9.32-8.51,14.07-.96,1.66-1.79,3.37-1.4,5.58.88,5,1.46,10.05,2.01,15.1.27,2.45.05,4.96.28,7.42.52,5.5.66,11.05,2.19,16.42.21.75.16,1.58.18,2.38.07,2.43.53,4.78,1.21,7.13.42,1.42.2,3.02.47,4.5.65,3.59,1.53,7.12,1.41,10.83-.04,1.29.63,2.59.83,3.91.85,5.65,1.73,11.29,2.44,16.95.43,3.46.53,6.95.89,10.42.18,1.71.69,3.39.89,5.1.2,1.66.21,3.34.28,5.01.12,2.87.35,5.75.3,8.62-.09,5.62-.11,11.26-.61,16.85-.42,4.62-1.12,9.24-2.7,13.69-.44,1.25-.69,2.56-1.29,3.78-1.18,2.38-4.23,3.87-6.55,2.72-4.41-2.18-8.79-4.36-12.18-8.18-2.65-2.99-4.36-6.46-5.97-9.99-1.17-2.57-1.88-5.34-2.93-8.44-.71,1.63-1.33,3.01-1.9,4.41-1.58,3.86-3.1,7.74-4.71,11.59-.88,2.11-1.84,4.2-2.86,6.25-.38.76-.95,1.46-1.54,2.08-.36.38-1.21.9-1.37.78-1.12-.89-2.28.63-3.31-.14-.3-.22-.74-.61-.7-.87.17-1.4-.92-2.13-1.5-3.13-1.66-2.88-3.35-5.75-4.84-8.71-1.35-2.7-2.46-5.52-3.64-8.29-.4-.94-.7-1.92-1.14-3.16-1.18,1.52-2.27,2.82-3.25,4.21-4.75,6.76-9.41,13.58-14.21,20.31-3.55,4.98-7.34,9.79-10.87,14.78-2,2.83-3.71,5.87-5.55,8.82-1.48,2.37-3.1,3.68-5.63,2.31-2.34-1.27-2.94-2.32-1.22-4.57,1.93-2.53,3.58-5.27,5.47-7.84,1.08-1.47,2.47-2.7,3.56-4.16,1.81-2.42,3.48-4.93,5.21-7.41,2.8-4.02,5.57-8.06,8.38-12.07,2.36-3.37,4.78-6.7,7.14-10.07,2.04-2.92,3.84-6.04,6.11-8.76,1.82-2.19,1.73-4.21.74-6.53-.66-1.53-1.34-3.05-1.9-4.61-.69-1.9-1.28-3.85-1.99-6-.4.43-.87.8-1.18,1.28-3.29,4.96-6.57,9.92-9.82,14.9-2.38,3.65-4.68,7.35-7.07,10.99-1.35,2.05-2.8,4.03-4.22,6.03-2.01,2.83-3.96,5.71-6.08,8.46-2.37,3.09-4.8,6.13-7.37,9.05-1.56,1.77-4.25,1.45-5.68-.43-.29-.38-.52-.8-.94-1.43.47-.7.92-1.53,1.52-2.22,3.55-4.08,7.21-8.07,10.69-12.21,1.83-2.18,3.44-4.55,5-6.93,1.52-2.31,2.59-4.96,4.33-7.08,2.29-2.78,3.42-6.4,6.37-8.68.12-.1.32-.27.3-.36-.55-1.92,1.25-2.45,2.06-3.57.94-1.3,1.77-2.68,2.8-3.92.36-.43.43-1.08.7-1.59.62-1.13,1.27-2.25,1.94-3.35,1.12-1.83,2.29-3.63,3.39-5.47.47-.79.56-1.47.22-2.56-1.23-3.94-2.85-7.75-3.69-11.85-.47-2.34-1.73-4.59-2.42-6.95-.55-1.86-.74-3.82-1.18-5.72-.21-.95-.6-1.86-.91-2.79-.19-.58-.37-1.16-.58-1.74-.25-.72-.52-1.44-.79-2.16-.16-.43-.6-.97-.48-1.28.61-1.52-.02-2.6-.96-3.68-.18-.21-.17-.6-.22-.9-.6-3.48-1.32-6.91-2.58-10.25-.6-1.58-.64-3.37-.95-5.06-.1-.53-.26-1.05-.4-1.61.35-.09.7-.19,1.31-.36-.47-.62-.86-1.15-1.26-1.68.22-.17.46-.37.81-.64-3.61-2.37-2.49-6.02-3.33-9.11.16-.04.32-.08.48-.13-.43-.65-1.24-1.32-1.21-1.96.1-2.38-1.05-4.54-1.01-6.9.02-1.03-.61-2.05-.78-3.1-.34-2.13-.57-4.28-.82-6.43-.14-1.18-.21-2.37-.34-3.9-2.07.96-3.89,1.86-5.76,2.64-1.74.73-3.53,1.34-5.3,2-.52.19-1.06.37-1.58.55-2.39.84-4.76,1.72-7.17,2.5-1.22.4-1.83.97-1.71,2.41.31,3.61.51,7.24.62,10.86.11,3.68.06,7.36.09,11.04.04,3.97-.08,7.96.21,11.92.24,3.24-.02,6.52.85,9.71.14.53.06,1.11.09,1.67.25,5.9.22,11.82.83,17.69.54,5.15.45,10.32,1.02,15.45.19,1.72.43,3.43.71,5.13.51,3.05-2.35,6.36-5.38,6.18-1.57-.1-2.29-.76-2.29-2.4-.01-3.42.19-6.84.07-10.25-.18-5.22-.58-10.43-.84-15.64-.1-1.9-.02-3.8-.11-5.7-.27-5.86-.62-11.72-.87-17.58-.23-5.34-.21-10.7-.49-16.04-.36-6.97-.39-13.95-.57-20.93,0-.22-.12-.44-.19-.69-.26,0-.52-.07-.73,0-5.2,1.9-10.61,3.11-15.9,4.7-2.5.75-2.42.77-2.3,3.31.24,4.76.36,9.53.58,14.3.23,4.86.43,9.72.82,14.57.17,2.12,1,4.19,1.09,6.3.13,3.13.51,6.18,1.24,9.22.44,1.82.51,3.72.82,5.57.18,1.07.41,2.16.78,3.18.63,1.74-.09,2.83-1.51,3.69-.54.33-1.06.7-1.52,1.01-1.08-.31-2.13-.53-3.13-.91-.91-.35-1.19-1.16-1.25-2.12-.12-2.05-.23-4.1-.5-6.14-.46-3.44-1.05-6.87-1.55-10.31-.15-1.02-.21-2.05-.29-3.07-.31-4.27-.67-8.53-.9-12.8-.26-4.83-.34-9.67-.61-14.5-.16-2.9-.52-5.79-.82-8.95-.79,0-1.65-.11-2.48.02-2.65.41-5.27.95-7.92,1.37-1.57.25-3.15.4-4.73.55-2.68.25-5.36.66-8.04.65-2.19,0-4.38-.49-6.56-.81-1.36-.2-2.35-1.04-3-2.17-.33-.57-.58-1.43-.39-1.99.52-1.55,1.17-3.09,2-4.5,1.12-1.89,2.22-3.88,3.75-5.42,2.96-2.98,6.05-5.88,9.88-7.78,2.85-1.42,5.81-2.46,8.9-3.32,2.6-.72,5.19-.36,8.08-.76-.19-2.76-.38-5.47-.57-8.34-1.13-.2-2.14-.34-3.12-.57-3.09-.74-6.15-1.59-9.25-2.25-1.85-.39-3.77-.41-5.63-.78-2.71-.54-5.46-1.04-8.05-1.97-1.65-.59-3.22-1.74-4.47-2.99-1.55-1.56-.42-3.92,2.07-4.7,4.22-1.34,8.44-2.71,12.69-3.95,3.63-1.05,7.3-1.92,10.95-2.9,1.44-.38,2.86-.84,4.64-1.36.08-1.41.23-2.96.24-4.51.04-3.91.04-7.82.02-11.73-.06-9.2-.16-18.39-.18-27.58,0-1.88-.1-3.81,1.3-5.45.77-.89,1.54-1.03,2.53-.74,2.15.62,3.48,2.21,3.63,4.54.11,1.67.07,3.35.04,5.02-.03,1.67-.11,3.34-.19,5-.16,3.31-.37,6.62-.48,9.94-.18,5.31-.35,10.63-.42,15.95-.03,2.57.19,5.15.31,8.04,6.02-1.1,11.84-2.17,17.93-3.29-.14-8.23-.27-16.19-.41-24.16-.18-.04-.35-.08-.53-.12-.51,1.08-1.02,2.15-1.53,3.23-.78-2.73-.55-5.25.12-7.87.79-3.12,1.08-6.36,1.59-9.55-1.24-2.42-.49-5.03-.66-7.54-.05-.79.1-1.59.17-2.57.69-.37,1.44-.8,2.22-1.17,1.85-.86,3.26-.42,4.13,1.41.4.85.65,1.82.74,2.76.23,2.6.46,5.22.45,7.83-.01,2.61-.33,5.23-.47,7.84-.06,1,.03,2.02,0,3.02-.05,1.63.05,3.26,0,4.9-.19,6.22-.02,12.46.06,18.69.02,1.72.46,2.17,2.18,2.06,1.49-.1,2.96-.5,4.46-.69,3.38-.42,6.78-.75,10.16-1.2,1.38-.19,2.7-.46,4.09.04,1.13.41,1.66,1.02,1.64,2.27-.05,2.92-2.23,4.61-5.1,4.42-2.83-.19-5.71.08-8.56.26-2.68.18-5.36.51-8.37.81,0,2.14-.04,4.11.01,6.08.07,2.46.21,4.91.33,7.36.1,2.06.2,4.12.31,6.18.05.84.52,1.27,1.36,1.39,2.99.44,5.98.86,8.95,1.37,2.11.36,4.2.85,6.29,1.29,1.24.26,2.47.55,3.7.83q1.91.43,3.11-.75c-.09-.9-.17-1.7-.25-2.51-.04-.38.09-.92-.11-1.12-1.26-1.21-.76-2.54-.63-3.99.09-.93-.58-1.91-.2-3,.77-2.17.38-4.4.34-6.63-.02-1.47.43-2.95.16-4.45-.09-.52-.03-1.1-.24-1.57-.32-.7-.57-1.38-.03-2,.75-.88-.29-1.71.05-2.75.32-.97,1.11-2.5-.09-3.69-.1-.1-.04-.51.08-.67,1.06-1.37.28-3.15,1.1-4.64.3-.54-.35-1.59-.62-2.6,1.41-1.94,1.7-4.32,1.03-6.89-.17-.65-.08-1.37-.13-2.06-.08-1,1.35-1.62.43-3-.44-.65.45-2.12.59-3.24.15-1.16.06-2.35.2-3.51.14-1.18.42-2.34.68-3.5.14-.6.38-1.17.61-1.75.05-.13.35-.27.33-.31-.72-1.67-.07-3.15.52-4.69.3-.77.19-1.68.41-2.49.97-3.44,1.93-6.88,2.16-10.47.07-1.09-.06-2.1-.59-3.19-1.26-2.61.82-5.72,3.71-5.89.71-.04,1.41-.12,2.23-.19.32-5.41,1.65-10.67,1.4-16.08-.04-.99-.4-1.98-.71-2.93-.34-1.04-.79-2.05-1.21-3.06-1.42-3.35-2.92-6.66-4.24-10.05-.65-1.67-.69-3.61-1.5-5.17-.77-1.49-1.44-2.96-1.93-4.56-.55-1.8-1.24-3.55-1.85-5.33-1.72-5.01-3.47-10.01-5.12-15.04-1-3.07-1.74-6.23-2.78-9.29-1.53-4.5-3.37-8.9-4.81-13.43-1.21-3.83-3.08-7.32-4.97-10.8-1.06-1.95-2.46-3.71-3.71-5.55-.22-.33-.52-.62-.69-.98-.88-1.84-1.17-2.51.66-3.83,1.74-1.25,2.81-1.41,4.16.07,1.8,1.96,3.55,3.86,4.72,6.45,1.92,4.24,4.07,8.37,5.63,12.79,1.32,3.74,2.92,7.37,4.19,11.12,1.09,3.21,1.86,6.52,2.85,9.77.8,2.63,1.67,5.24,2.56,7.85,1.76,5.18,3.5,10.37,5.34,15.52,1.36,3.82,2.84,7.59,4.29,11.37.1.26.38.46.9,1.07.33-2.39.55-4.39.9-6.37.61-3.51,1.31-7.01,1.96-10.52.14-.77.25-1.55.35-2.33.46-3.79.95-7.59,1.36-11.39.18-1.67.19-3.35.31-5.02.15-1.97.29-3.95.52-5.91.15-1.27.73-2.27,2.2-2.41.31-.03.62-.12.92-.21,2.31-.76,4.28.42,4.21,2.81-.07,2.64.85,4.94,1.65,7.36,1.01,3.08,1.71,6.27,2.52,9.41.69,2.67,1.36,5.34,2.01,7.91,2.51.75,3.42,1.88,3.41,4.26-.02,3.1-.16,6.2-.18,9.3-.03,3.08.06,6.17.02,9.25-.04,3.3-.19,6.59-.23,9.89-.02,2.07.07,4.13.11,6.2.06,2.88.06,5.75.18,8.62.1,2.58.37,5.15.46,7.72.12,3.34.12,6.68.19,10.02.13,6.06.28,12.12.41,18.19.04,2,.04,4,.1,5.99.02.71.07,1.44.28,2.1.44,1.4.01,3.32-1.07,4.23-1.21,1.02-4.06.79-4.99-.47-.3-.41-.64-1.08-.51-1.49.83-2.57-.24-5.03-.34-7.53-.15-3.73-.89-7.44-.95-11.17-.08-5.92.2-11.85.3-17.78,0-.37-.12-.75-.22-1.11-.1-.36-.47-.8-.36-1.05,1.14-2.57-.18-5.2.25-7.83.41-2.5,0-5.14-.04-7.71,0-.79.07-1.58.1-2.36.17-4.74,0-9.45-.7-14.16-.22-1.49-.12-3.04-.06-4.55.19-5.21-.48-10.35-1.32-15.46-.58-3.53-1.34-7.03-2.06-10.53-.12-.58-.43-1.12-1.1-1.66-.4,2.15-.84,4.29-1.18,6.44-.71,4.63-1.34,9.28-2.05,13.91-.25,1.65-.76,3.26-.98,4.91-.51,3.7-1,7.4-1.32,11.12-.11,1.22.28,2.49.51,3.71.27,1.4.7,2.76.93,4.16.45,2.83-.08,3.11-2.66,4.49-.1,5.3-.24,10.71-.3,16.12-.04,3.76.06,7.52,0,11.28-.05,3.2.52,6.31,1.12,9.43.43,2.26.36,4.63.89,6.86,1.3,5.43,3.47,10.44,8.27,13.8,2.64,1.85,5.63,2.85,8.74,3.63,3.23.81,6.45,1.67,9.64,2.64,5.75,1.74,10.52,5.1,14.72,9.3,1.34,1.34,2.59,2.77,4.02,4.3.21-.46.47-.9.63-1.38.6-1.79,1.17-3.61,1.77-5.4.86-2.57.24-5.19.25-7.79.01-3.19-.01-6.39-.11-9.58-.07-2.38-.28-4.76-.43-7.14-.16-2.43-.35-4.87-.48-7.3-.03-.55.18-1.11.16-1.66-.03-.92-.18-1.84-.23-2.76-.08-1.75-.14-3.5-.16-5.25-.07-6.05-.16-12.11-.17-18.17-.01-3.99.1-7.98.13-11.96.04-4.59-.02-9.19.1-13.77.1-3.6.41-7.19.63-10.78.16-2.61.27-5.22.51-7.82.09-1,.53-1.95.74-2.95.95-4.49,1.88-8.99,2.8-13.49.43-2.08.88-4.16,1.22-6.26.29-1.8,1.15-3.29,2.21-4.69.99-1.31,3.03-2,4.26-1.52,1.11.43,2.04,2.44,1.82,4.07-.41,3.06-.75,6.14-1.33,9.18-.55,2.86-1.42,5.66-2.07,8.5-.44,1.91-.7,3.87-1.11,5.79-.36,1.67-.85,3.32-1.26,4.99-.21.85-.49,1.71-.54,2.57-.17,3.21-.24,6.43-.38,9.64-.11,2.52-.33,5.03-.43,7.54-.14,3.34-.24,6.68-.3,10.03-.07,4.67-.17,9.34-.1,14,.1,6.27.35,12.53.52,18.8.06,2.34.06,4.67.14,7.01.01.44.24.88.53,1.89.46-1.15.73-1.82.98-2.49.3-.8.65-1.59.85-2.42.2-.82.32-1.68.35-2.52.05-1.23-.16-2.52.74-3.55.44-.5.95-1.09,1.54-1.25,2.41-.67,3.62-2.34,4.3-4.61.55-1.82,1.29-3.59,1.87-5.4.53-1.65.91-3.35,1.47-4.98,1.5-4.42,2.79-8.94,4.67-13.21,1.58-3.6,2.73-7.35,4.34-10.93.84-1.87,1.3-3.92,1.93-5.89.14-.44.26-.9.47-1.31,1.48-3,2.64-6.1,3.34-9.39.34-1.61,1.06-3.13,1.58-4.7.79-2.4,1.51-4.83,2.34-7.21.78-2.23,1.7-4.42,2.53-6.64.24-.64.41-1.3.62-1.96.84-2.71,1.77-5.39,2.5-8.12.6-2.27,1.93-4.25,2.02-6.76.09-2.4,1.08-4.75,1.59-7.14.77-3.55,1.43-7.12,2.21-10.67.61-2.77,1.25-5.54,2.02-8.27.89-3.19,2.56-5.69,6.38-6.02.6.43,1.32.9,2,1.43,1.49,1.15,1.69,2.37,1.07,4.19-1.3,3.81-2.44,7.67-3.73,11.49-.79,2.33-1.6,4.66-2.61,6.9-1.46,3.24-1.61,6.76-2.42,10.13-.28,1.15-.6,2.3-.8,3.46-.54,3.11-1.03,6.23-1.53,9.35-.04.24-.1.47-.1.71-.03,4.93-.03,9.85-.08,14.78-.01,1.59-.19,3.18-.19,4.77,0,1.65.14,3.29.39,5.03,8.29-14.73,17.48-28.8,29.02-41.62-1.86-.41-3.34-.91-4.86-1.04-3.29-.29-6.21-1.8-8.73-3.53-2.48-1.7-4.4-4.37-5.12-7.55-.42-1.86.19-3.27,1.96-3.68,2.16-.5,4.43-1.39,6.85.26-.05.58.04,1.38-.2,2.07-.51,1.5-.43,2.59.84,3.5,3.45,2.46,7.33,3.71,11.59,3.74,1.09,0,1.5-.57,1.65-1.61.41-2.98.83-5.97,1.42-8.92.4-2.02,1.12-3.97,1.63-5.97.78-3.07,1.35-6.19,2.27-9.22,1.39-4.55,2.89-9.07,4.55-13.53,1.79-4.82,3.68-9.6,5.78-14.29,1.38-3.09,3.12-6.02,4.84-8.94,1.08-1.84,2.55-3.46,3.6-5.31,1.11-1.95,2.85-3.17,4.44-4.61,1.05-.96,2.19-1.21,3.52-1.03,1.1.15,2.23.22,3.3.49,1.89.47,2.69,1.48,2.62,3.45-.05,1.33-.16,2.74-.62,3.97-1.11,2.95-2.45,5.82-3.69,8.73-.87,2.04-1.71,4.1-2.6,6.13-1.01,2.3-1.95,4.65-3.12,6.86-2,3.76-4.29,7.37-6.22,11.16-1.76,3.45-3.19,7.06-4.81,10.59-1.39,3.01-2.85,5.98-4.26,8.98-.53,1.14-1.26,2.31,0,3.75.92-.53,1.93-1.11,2.93-1.69,2.34-1.36,4.58-2.97,7.05-4.02,4.56-1.92,9.3-3.19,14.32-1.86,2.21.58,3.58,2.38,4.14,4.24.45,1.52-.12,3.73-1.77,4.65-2.15,1.19-2.4,3.01-2.5,5.04-.25,5.23-.42,10.46-.74,15.68-.33,5.37-.97,10.72-1.14,16.09-.12,3.72.28,7.47.51,11.2.14,2.3.48,4.58.62,6.88.29,4.77.24,9.58.82,14.31.76,6.18.92,12.37,1.07,18.57,0,.11.19.22.44.49.52-.91,1.11-1.72,1.5-2.62,1.29-2.99,2.97-5.6,5.85-7.35.76-.46,1.34-1.39,1.74-2.23,1.27-2.63,2.44-5.31,3.6-7.99.82-1.87,1.68-3.72,2.32-5.65,1.45-4.36,3.32-8.54,5.23-12.71,2.37-5.18,4.67-10.4,7.05-15.58,1.75-3.8,3.63-7.54,5.38-11.35,1.68-3.66,3.35-7.33,4.87-11.06.98-2.4,1.4-5.06,2.6-7.33,1.36-2.58,1.98-5.34,2.91-8.03,1.07-3.08,2.08-6.15,2.17-9.46.03-1.01.37-2.05.75-3,.72-1.78,3.25-2.37,4.82-1.19,2.1,1.58,2.91,3.29,1.87,4.76-.62.87-.65,1.7-.89,2.59-1.32,4.85-1.57,9.84-2.12,14.8-.33,3.04-.75,6.08-1.23,9.1-.16,1-.82,1.93-.93,2.93-.33,2.97-.58,5.96-.72,8.95-.1,2.22.01,4.45.05,6.67.04,2.78.06,5.55.17,8.33.15,3.87,1.2,7.45,3.67,10.52.24.3.59.51.91.78,1.53-.74,2.59-1.84,3.55-3.16,3.62-4.92,5.92-10.48,7.86-16.19.72-2.12.73-4.49,1.06-6.74.05-.31-.01-.64.06-.95.37-1.57,4.33-3.93,6.32-2.75.38.23.97.58.98.89.04,1.41.62,2.7.15,4.26-2.01,6.71-3.48,13.54-4.36,20.51-.48,3.76-1.45,7.45-2.1,11.19-.42,2.4-.68,4.83-1.03,7.41,2.75-1.34,5.04-3.07,7.1-5.17.67-.68,1.51-1.08,1.69-2.18.17-1.05,1.64-1.1,1.88-2.38.18-.98,1.11-1.88,1.86-2.67.95-1,2.29-1.7,3.04-2.81.74-1.1,1.57-1.9,2.74-2.33-.04-2.05.49-2.74,2.38-3.62.55-.26,1.34-1.02,1.26-1.38-.27-1.21.57-1.74,1.12-2.44,1.16-1.46,2.29-2.95,3.6-4.26,1.07-1.07,2.38-1.89,3.64-2.86-.14-.12-.34-.29-.66-.57,1.16-1.46,2.39-2.89,3.48-4.42.87-1.22,1.59-2.55,2.36-3.84.45-.75.75-1.61,1.3-2.26,1.5-1.78,4.08-1.9,5.77-.36.85.77.87,2.65-.02,3.72-2.36,2.8-4.76,5.58-7.13,8.37-2.63,3.1-5.25,6.2-7.86,9.32-.13.16-.14.41.04.85,1.21-1.16,2.5-2.24,3.61-3.48,3.79-4.27,7.7-8.45,10.81-13.29,2.41-3.73,5.25-7.19,7.61-10.95,3.04-4.85,5.89-9.84,8.65-14.86,2.48-4.51,4.77-9.12,7.07-13.73,1.06-2.12,1.9-4.34,2.92-6.48.4-.84,1.01-1.6,1.58-2.36,2.28-3.04,3.74-6.47,4.48-10.16.55-2.78,3.29-4.39,5.85-3.04,1.43.76,2.51,1.69,3,3.62.47,1.88.5,3.47-.09,5.19-.16.47-.05,1.2-.96.99-.07-.02-.42.54-.35.69.42.93-.19,1.44-.71,2-.1.1-.39.15-.39.19.42,2.61-2.49,3.46-3.01,5.67-.23.98-.89,1.91-1.09,3.04-.22,1.2-.77,2.46-1.52,3.43-2.15,2.78-3.05,6.15-4.48,9.25-1.4,3.04-2.01,6.45-3.02,9.68-.95,3.03-1.99,6.03-2.97,9.05-1.15,3.51-2.24,7.04-3.43,10.53-.87,2.54-1.94,5.02-2.8,7.56-1.29,3.82-2.43,7.7-3.74,11.52-1.04,3.03-2.23,6-3.35,9-.52,1.39-1.07,2.76-1.52,4.17-1.07,3.3-2.11,6.6-3.14,9.91-.36,1.15-.06,1.6.93,1.53,2.93-.2,5.86-.47,8.8-.55,3.58-.1,7.16-.02,11.01-.02.85-2.46,1.74-5.05,2.63-7.64.28-.82.5-1.65.77-2.47.48-1.46,1.06-2.88,1.43-4.4.85-3.52,2.07-6.95,3.26-10.37.37-1.07.75-2.38,2.37-2.53-.31-.1-.62-.2-.93-.3.74-2.28,1.5-4.56,2.23-6.84.4-1.25.38-1.26,1.64-2.14-.1-.5-.42-1.09-.26-1.49.74-1.97.87-4.14,1.96-6,.35-.6.45-1.35.72-2.01,1.49-3.71,3.06-7.39,4.47-11.13.72-1.9,1.06-3.94,1.72-5.87.87-2.53,1.88-5.01,2.87-7.5.85-2.14,1.69-4.28,2.64-6.38,1.95-4.33,3.62-8.76,5.23-13.22,1.32-3.65,2.58-7.33,3.84-11.01.15-.44.15-.95.14-1.42-.03-2.1,1.28-3.19,3.01-3.88,2.01-.8,4.73,1.82,4.39,4.24-.19,1.33-.54,2.64-.83,3.96-.63,2.84-1.23,5.68-1.91,8.51-.39,1.62-.81,3.24-1.39,4.8-1.89,5.11-3.82,10.21-5.82,15.28-1.11,2.8-2.46,5.5-3.62,8.28-1.49,3.57-2.99,7.15-4.31,10.78-.97,2.67-1.63,5.45-2.48,8.16-1.4,4.47-2.9,8.91-4.25,13.39-1.53,5.08-2.73,10.25-3.67,15.48-.48,2.67-2.23,3.73-4.92,3-.14-.04-.31.02-.64.04-2.04,3.12-1.77,7.14-3.92,10.68,1.96.26,3.63.6,5.31.68,4.3.2,8.6.34,12.9.37,1.62,0,3.25-.38,4.88-.58,1.89-.23,3.97.88,4.66,2.54.17.42.21.94.18,1.4-.15,1.82-2.24,3.39-4.08,3.83-2.22.54-4.34-.5-6.58.12-2.2.61-4.58.56-6.85.97-4.06.74-8.11,1.53-12.11,2.52-.78.2-1.5,1.37-1.87,2.25-.58,1.37-.83,2.88-1.27,4.52.32.04.64.08,1.02.12.04.2.19.49.1.62-2.29,3.3-2.72,7.23-3.82,10.94-.45,1.5-.2,3.26-1.47,4.49.42,2.58-1.03,4.9-1.01,7.43,0,.77-.25,1.55-.4,2.33-.51,2.57-.89,5.17-1.57,7.69-.82,3.01-1.02,6.12-1.69,9.16-.93,4.16-1.37,8.42-2.11,12.62-.79,4.52-1.71,9.02-2.53,13.53-.2,1.08-.19,2.21-.37,3.29-.64,3.82-1.32,7.63-1.99,11.44-.63,3.57-1.31,7.14-1.91,10.71-.58,3.42-.96,6.88-1.68,10.27-.48,2.28-.85,4.57-1.18,6.88-.32,2.26-.97,4.48-1.33,6.73-.4,2.49-.59,5.01-.97,7.51-.51,3.29-1.11,6.56-1.69,9.83-.8,4.53-1.62,9.06-2.42,13.6-.57,3.19-1.11,6.39-1.69,9.58-.42,2.26-1.28,4.51-1.23,6.76.06,2.51-.77,4.79-.99,7.21-.22,2.36-.7,4.7-1.07,7.05-.01.08-.03.16-.02.24.31,4.1-1.18,7.98-1.45,12.02-.25,3.77-.82,7.53-1.36,11.28-.53,3.68-1.27,7.34-1.8,11.02-.32,2.21-.49,4.45-.59,6.68-.22,5.16-1.26,10.22-1.91,15.32-.25,1.99-.28,4.02-.15,6.09,1.75-1.83,2.78-3.98,3.79-6.16,2.09-4.54,4.28-9.04,6.32-13.6,1.26-2.81,2.29-5.73,3.46-8.58.78-1.9,1.63-3.76,2.44-5.65,2.86-6.71,5.81-13.38,8.55-20.14,1.91-4.7,3.53-9.52,5.31-14.27.42-1.12,1-2.17,1.43-3.29.97-2.54,1.53-5.17,1.55-7.91,0-.4,0-.82.13-1.18.4-1.21.38-3.37.24-4.69-.15-1.44-.48-2.84.24-4.38.62-1.34.55-3.02.71-4.56.16-1.64.2-3.29.37-4.93.02-.15.54-.25.83-.38-1.07-1.08-.58-2.42-.49-3.58.24-3.14.54-6.3,1.83-9.26.16-.37-.36-.98-.34-1.47.02-.47.5-.93.51-1.4.01-.94.85-1.66.3-2.84-.33-.72.63-1.95.75-2.98.23-2.06.29-4.15.38-6.23.05-1.05-.3-2.2.91-2.91.19-.11.26-.55.26-.83.01-2.32.99-4.43,1.36-6.67.07-.45-.07-.94,0-1.39.15-.88.39-1.76.6-2.63.11-.45.39-.91.35-1.35-.27-2.83,1.04-5.35,1.52-8.04.2-1.13.57-2.25,1.02-3.32.73-1.74,2.19-3.41,2.21-5.13.03-1.87,2.25-2.94,1.31-4.87,1.7-1.05,1.25-3.26,2.57-4.63.97-1.01,1.32-2.63,1.93-3.99.13-.27.16-.73.35-.81,1.8-.73,1.82-2.21,1.64-3.5.61-.69,1.21-1.14,1.48-1.74.24-.53.12-1.22.17-2h1.26c.42-1.16.87-2.19.7-3.6-.13-1.14.51-2.54,1.22-3.54.25-.36.38-.63.43-1.01.08-.54,0-1.28.31-1.56.62-.56.58-.96.25-1.64-.16-.34.06-.87.12-1.31.04-.26.24-.62.14-.74-1.22-1.43-.68-2.39.68-3.33.46-.32.67-1.01,1.06-1.64-.54-.18-.89-.3-1.35-.46.08-.95.11-1.96.27-2.96.06-.37.39-.71.62-1.05.17-.24.59-.49.56-.65-.27-1.23.33-2.32.44-3.45.32-3.31.85-6.56,1.58-9.81.73-3.23,1.14-6.54,1.78-9.8.4-2.01.83-4.03,1.47-5.97,1.31-3.99,2.85-7.9,4.15-11.89.52-1.61,1.66-2.59,3.03-3.47-.1-.13-.21-.26-.31-.4-.39.22-.77.45-1.3.75,0-.33-.05-.54,0-.72.97-2.97,1.94-5.94,2.94-8.89.57-1.68,1.32-3.31,1.74-5.02.27-1.09.82-1.62,1.72-1.92,0-.68-.12-1.37.02-2,.51-2.27,1.63-4.33,2.24-6.57.22-.81,1.26-1.39,1.96-2.12-.74-.96-.18-2.65.96-3.06.03-.71-.11-1.38.11-1.88,2.19-5,4.42-9.99,6.7-14.95,1.12-2.44,2.63-4.72,3.5-7.24,1.09-3.15,3.02-5.84,4.24-8.89.31-.78.88-1.47,1.38-2.17.69-.95,1.36-1.87,1.59-3.1.13-.71.69-1.35,1.08-2.02.84-1.43,1.69-2.85,2.53-4.27,1.52-2.58,3-5.18,4.59-7.72,2.27-3.64,4.56-7.25,6.93-10.83,2.01-3.04,4.17-5.98,6.22-8.99,1.43-2.11,3.45-2.68,5.84-2.38,1.72.21,3.07,1.77,2.83,3.49-.09.61-.52,1.37-1.03,1.71-3.69,2.45-6.01,6.02-8.31,9.65-1.32,2.09-2.9,4.01-4.23,6.08-3.1,4.83-6.31,9.61-9.13,14.6-3.39,6-6.5,12.15-9.58,18.32-2.19,4.38-4.2,8.86-6.16,13.35-1.96,4.51-3.75,9.08-5.6,13.64-1.46,3.6-2.94,7.2-4.31,10.83-1,2.64-1.83,5.34-2.89,8.45,2.94-.96,5.47-1.29,7.06,1.67-.46.84-.95,1.73-1.55,2.82-5.02.64-6.95,4.99-9.5,8.66-.07,2.26-1.8,4.05-1.76,6.39.02.96-.67,1.92-.94,2.91-.58,2.13-1.1,4.28-1.66,6.42-.51,1.98-1.11,3.94-1.54,5.94-.53,2.46-.98,4.95-1.35,7.44-.32,2.16-.56,4.33-.69,6.51-.16,2.63-.3,5.26-.23,7.89.09,3.26.25,6.53.67,9.75.71,5.46,3.26,9.95,8,12.91,1.45.91,3.18,1.57,4.87,1.84,1.65.26,2.14,1.54,3,2.49.2.22-.01.9-.15,1.33-1.48,4.48-3.85,8.55-6.17,12.61-2.74,4.79-5.79,9.41-8.63,14.16-3.41,5.7-6.85,11.39-10.06,17.21-2.03,3.68-3.9,7.48-5.42,11.4-.87,2.23-1.82,4.57-1.61,7.14.07.89-.43,1.8-.58,2.72-.68,4.13-.86,8.32-1.62,12.47-.91,4.91-1.1,9.96-1.64,14.94-.3,2.75-.7,5.5-1,8.25-.33,2.99-.54,5.98-.9,8.96-.29,2.35-.77,4.68-1.09,7.02-.15,1.08-.09,2.2-.19,3.29-.63,7.04-2,13.98-2.99,20.97-.48,3.35-1.58,6.47-2.6,9.64-.6,1.87-1.04,3.79-1.58,5.68-.36,1.27-.24,2.68-1.29,3.76-.33.34-.38,1.05-.38,1.59,0,2.02.54,4.01.15,6.05-.08.44.4.99.73,1.73,1.38-3.7,2.75-7.26,4.03-10.84,1.01-2.83,1.92-5.7,2.88-8.56,1.18-3.52,2.35-7.04,3.55-10.56.92-2.7,1.94-5.37,2.83-8.08,1.06-3.24,2.01-6.51,3.04-9.76,1.47-4.65,2.98-9.28,4.46-13.92.96-3.01,1.85-6.03,2.85-9.02,1.98-5.93,4.02-11.84,6-17.77,1.01-3,1.93-6.03,2.93-9.03.62-1.85,1.31-3.68,2-5.51,1.37-3.61,2.76-7.22,4.17-10.81,1.62-4.14,3.19-8.31,4.95-12.39,2.07-4.8,4.41-9.47,6.43-14.29.94-2.24,1.39-4.68,2.06-7.03.02-.07-.05-.18-.02-.23.51-.95,1.34-1.87,1.45-2.86.12-1.04-.05-2.02.9-2.77.2-.15.28-.54.29-.83.07-1.64,1.09-2.82,1.93-4.08.23-.35.73-.52,1.21-.84-.07-.43-.39-1.13-.22-1.68.56-1.89,1.24-3.75,1.99-5.58.13-.32.77-.43,1.39-.75-.18-2.97,1.36-5.48,3.27-7.55-.09-.52-.37-1.04-.21-1.36.74-1.47,1.57-2.89,2.42-4.3.11-.18.49-.22.76-.29.68-.17.96-.43.77-1.26-.48-2.09-.26-2.42,1.64-3.58.38-.23.91-.52.99-.87.45-1.82,1.89-3.25,1.89-5.28,0-.65.83-1.3,1.57-2.35-.5-1.46,1.1-2.95,2.06-4.6,1.31-2.23,2.83-4.34,4.3-6.47.75-1.08,1.58-2.11,2.42-3.22-1.36-2.37-2.91-4.85-4.26-7.45-1.16-2.24-2.41-4.47-2.75-7.04-.04-.3-.24-.59-.36-.88-1.5-3.57-1.52-7.42-2.21-11.14-.94-5.03-.73-10.11-1.08-15.15-.32-4.57.17-9.2.29-13.8.09-3.59.17-7.17.23-10.76,0-.46-.1-.92-.16-1.37-2.11.69-4.09,1.48-6.13,1.97-2.93.7-4.86-.45-5.93-3.27-.14-.37-.27-.73-.46-1.22,13.47-15.04,28.56-28.28,45.72-39.99-.97-.16-1.39-.24-1.81-.3-4.95-.65-9.67-1.95-13.34-5.57-2.92-2.88-5.17-6.22-6.23-10.27-.46-1.76.11-3.1,1.73-3.92,1.75-.89,3.8-.61,4.6.93.64,1.22,1.32,2.43,1.69,3.87.84,3.28,2.95,5.91,6.12,7.21,3.62,1.49,7.42,2.43,11.42,2.08,1.04-.09,1.65-.28,2.09-1.45,1.85-5.05,3.85-10.05,5.87-15.04,1.22-3.01,2.53-5.99,3.88-8.95,3.19-6.92,6.35-13.86,9.68-20.72,2.11-4.35,4.62-8.5,7.53-12.38,1.86-2.48,3.77-4.92,5.58-7.43,1.67-2.31,4.08-3.52,6.6-4.49,2.1-.81,4.33-.28,6.3.55,2.16.92,2.68,3.08,2.22,5-1.66,7.07-4.03,13.87-8.48,19.74-1.23,1.62-2.86,2.94-4.18,4.51-2.44,2.9-4.79,5.87-7.15,8.83-.56.7-1.02,1.48-1.48,2.43,1.61-.59,2.83.02,3.98.89,1.49,1.13,1.72,2.48.7,4.1-2.78,4.42-5.56,8.84-8.32,13.27-.23.37-.35.82-.65,1.57,1.22-.37,2.16-.55,3-.93,4.23-1.91,8.72-2.47,13.29-2.45,2.42.01,4.12.84,5.52,2.42-.61,1.96-1.97,3.34-3.68,4.44-3.57,2.29-7.62,3.45-11.58,4.78-4.14,1.39-8.34,2.56-12.49,3.92-.68.22-1.45.76-1.78,1.37-1.97,3.7-3.96,7.39-5.67,11.21-2.02,4.52-3.84,9.12-5.59,13.75-1.37,3.63-2.5,7.35-3.75,11.02-1.58,4.64-3.23,9.26-4.74,13.92-1.03,3.17-1.94,6.38-2.8,9.59-1.18,4.43-2.31,8.88-3.39,13.33-.56,2.31-.99,4.66-1.44,7-.68,3.57-1.31,7.15-2,10.72-.15.79-.22,1.41.79,1.51.93-1.49,1.79-2.92,2.72-4.3.98-1.44,2.01-2.84,3.07-4.22,1.1-1.43,2.25-2.81,3.2-3.98-.63-.96-1.19-1.82-1.82-2.76,2.42-1.78,4.95-2.34,7.58-2.38,1.42-.02,2.75,1.5,3.21,3.47,1.38-1.36,2.61-2.65,3.22-4.38,1.27-3.58,2.36-7.21,3.69-10.76,1.42-3.8,3.03-7.53,4.55-11.3.64-1.58,1.21-3.19,1.86-4.77,1.49-3.66,3.01-7.28,5.24-10.61,1.22-1.82,1.75-4.08,2.74-6.06,1.97-3.93,4.04-7.82,6.08-11.72,1.43-2.72,2.84-5.45,4.37-8.11.48-.85.75-2.17,2.35-1.84-.8-1.2-.23-2.28.37-3.21,1.15-1.79,2.55-3.41,3.65-5.22,1.17-1.92,2.04-4.03,3.17-5.98,2.56-4.4,5.19-8.76,7.82-13.11,1.97-3.26,3.9-6.55,5.99-9.73,2.05-3.11,4.21-6.16,6.46-9.13,2.26-2.98,4.7-5.81,7.04-8.73,1.17-1.45,2.72-2.19,4.51-2.28.81-.04,1.81.12,2.43.58,2.34,1.72,3.82,4.03,3.99,7.02.07,1.1.26,2.26,0,3.3-.22.9,1.73,1.55.17,2.43.49.84.48,1.67.26,2.63-.08.36.57,1.11,1.04,1.34,3.58,1.75,3.65,1.88,2.58,5.57-.29.98-.72,1.8-1.35,2.64-.98,1.32-1.55,2.95-2.31,4.45-1.56,3.09-3.17,6.16-4.7,9.26-1.68,3.42-3.23,6.9-4.96,10.29-1.34,2.62-2.94,5.11-4.28,7.73-1.82,3.53-3.42,7.16-5.26,10.68-2.05,3.93-4.3,7.75-6.39,11.66-2.02,3.77-3.93,7.59-5.91,11.38-.99,1.89-2.02,3.78-3.09,5.63-2.98,5.14-5.48,10.48-7.11,16.23-.77,2.72-1.9,5.34-2.93,7.98-1.46,3.76-3,7.49-4.47,11.24-.22.55-.27,1.16-.51,2.28,1.94-1.13,3.46-1.93,4.89-2.87,4.59-3.02,9.17-6.05,13.68-9.19,1.2-.84,2.17-2.03,3.2-3.11,2.33-2.45,6.3-2.01,7.69,1.03.36.78.1,2.11-.34,2.93-.88,1.64-2.2,2.93-4.26,3.08-.39.03-.84.03-1.14.23-4.2,2.69-8.38,5.41-12.57,8.12.04.17.07.34.11.5.75.04,1.5.1,2.26.12,3.42.08,6.87-.12,10.24.31,3.36.43,6.64,1.45,9.95,2.28,3.84.96,7.67,2,11.51,2.99,1.76.45,3.53.84,5.28,1.32,1.96.53,2.74,1.63,2.54,3.48-.13,1.23-.73,2.07-2.03,2.32-1.73.33-3.3.23-5.09-.36-4.98-1.63-10.1-2.82-15.16-4.19-1.31-.35-2.6-.8-3.94-1.02-1.79-.29-3.6-.45-5.4-.59-3.22-.25-6.45-.6-9.67-.61-3.08-.01-6.17.42-9.25.51-1.68.05-3.58.46-4.85-1.64-.4.74-.72,1.26-.96,1.81-1.12,2.54-2.24,5.08-3.31,7.64-.57,1.38-.95,2.84-1.55,4.2-1.67,3.82-5.12,4.29-7.79,1.13-.2-.23-.55-.33-.89-.52,1.94-5.87,3.67-11.53,5.69-17.09,1.89-5.22,3.91-10.41,6.2-15.47,2.22-4.9,4.74-9.67,7.34-14.38,1.89-3.42,3.97-6.71,5.48-10.34.68-1.64,2-3.01,2.92-4.57.36-.63.42-1.44.6-2.17.03-.14-.09-.34-.03-.45.51-.94,1.87-1.52,1.49-2.81-.38-1.29.7-1.88,1.12-2.74.46-.96,1.42-1.67,2.25-2.6-1.49-.98.03-2.32-.72-3.6.86-.05,1.51.06,2.01-.16.34-.15.49-.75.72-1.14-.39-.42-.69-.75-.75-.81.75-1.81,1.49-3.38,2.02-5.02.21-.65.26-1.2,1.01-1.41.2-.05.5-.31.49-.45-.19-2.26,1.34-3.88,2.16-5.74,2.08-4.68,4.06-9.45,6.59-13.89,2.88-5.03,5.33-10.26,7.94-15.41,1.92-3.81,3.53-7.79,5.14-11.75,1.47-3.62,2.3-7.43,2.72-11.3.15-1.44-.4-2.97-.7-4.45-.07-.32-.47-.57-.79-.93-2.55,2.06-4.47,4.49-6.27,6.99-3.9,5.4-7.87,10.77-11.48,16.37-2.97,4.59-5.43,9.51-8.17,14.25-1.87,3.23-3.91,6.35-5.74,9.59-3.73,6.63-7.47,13.27-11.02,20-2.82,5.34-5.39,10.81-8.03,16.24-1.5,3.07-2.98,6.15-4.34,9.29-.39.91-1.4,1.88-.42,3.05.03.04-.08.22-.14.32-.63.95-1.27,1.89-1.65,3.03,1.29-1.37,2.6-2.72,3.87-4.11,2.31-2.52,4.63-5.03,6.85-7.62.53-.63.69-1.57,1.03-2.38.9-.74,1.96-1.51,2.9-2.41,1.03-.97,1.93-2.07,2.92-3.09,1.13-1.17,1.77-.97,2.25.63.15.48.4.93.79,1.82-2.44,2.76-5.12,5.79-7.81,8.82-2.22,2.49-4.45,4.97-6.68,7.45-2.11,2.35-4.26,4.67-6.31,7.07-.6.69-.92,1.61-1.42,2.4-.98,1.54-1.9,3.13-3.01,4.57-1.57,2.03-2.02,4.49-2.64,6.81-1.04,3.89-1.85,7.87-2.39,11.86-.49,3.67-.73,7.42-.66,11.12.08,4.9.88,9.66,3.04,14.24,1.87,3.96,3.88,7.67,7.32,10.41,1.99,1.58,4.11,3,6.19,4.47,1.54,1.09,3.11,2.16,4.84,3.36,1.55-2.48,3.02-4.82,4.47-7.17.74-1.2,1.53-2.38,2.19-3.62.36-.68.56-1.47.72-2.23.43-1.97,1.79-2.91,3.78-2.68,1.4.16,2.22,1.03,3.08,2.01.96,1.09.59,2.11.33,3.32-.77,3.57-1.35,7.18-2.01,10.76-.32,1.71-.67,3.41-.98,5.13-.34,1.87-.6,3.75-.96,5.61-.28,1.46.57,2.61,1.1,3.76,1.51,3.3,2.23,6.76,2.46,10.34.24,3.71.34,7.43.53,11.53.54-.6,1.01-.91,1.17-1.34.79-2.07,1.47-4.18,2.25-6.26.71-1.87,1.74-3.56,2.16-5.6.41-1.97,1.53-3.8,2.46-5.64.64-1.27,1.12-2.68,2.46-3.53.31-.19.19-.99.4-1.45.1-.23.51-.32.92-.54-.91-1.29-.35-2.68.5-3.79,2.36-3.07,4.11-6.52,6.2-9.76,1.47-2.28,2.82-4.63,4.38-6.85,1.22-1.74,1.66-3.62,1.92-5.68.24-1.98,1.68-3.34,3.24-4.4,1.43-.97,2.53.16,3.67.93.65,1.87-.45,3.45-1.1,5.1.14.08.27.16.41.24.76-.92,1.53-1.82,2.27-2.75,1.86-2.38,3.67-4.8,5.57-7.14,1.8-2.21,3.85-4.23,5.52-6.53,2.11-2.92,4.84-5.2,7.3-7.76.96-1.01,1.38-2.06,1.47-3.4.37-5.33.78-10.65,1.21-15.97.09-1.12-.13-1.7-1.4-1.99-1.76-.42-2.39-2.51-1.77-4.3.44-1.29,1.11-2.3,2-3.32,1.48-1.7,1.55-4.07,2.4-6.08.15-.35.2-.86.46-1.04,2.52-1.64,3.35-4.57,5.23-6.7,1.05-1.19,1.89-2.57,2.93-3.78,2.12-2.47,4.13-5.08,6.51-7.27,3.51-3.23,7.21-6.27,11-9.16,5.54-4.22,11.83-7.19,18.12-10.09,3.8-1.75,7.68-3.4,11.66-4.71,4.89-1.61,9.89-2.91,14.9-4.15,1.68-.42,2.72-1.09,2.92-2.85.03-.22.18-.42.4-.88-.65.22-1.09.37-1.6.54.43-.99.84-1.9,1.24-2.82-.11-.06-.21-.13-.32-.19-.26.35-.51.69-.89,1.2-.74-1.22-1.5-2.24-1.69-3.74-.25-2.01-.93-3.96-1.48-5.92-.94-3.33-1.92-6.64-2.89-9.96-.21-.72-.41-1.45-.67-2.34.22-.29.54-.72.85-1.12-.1-.18-.16-.41-.25-.42-1.26-.13-1.85-1.17-1.98-2.09-.49-3.5-2.16-6.57-3.45-9.76-1.54-3.82-3.15-7.64-5.15-11.23-2.74-4.92-5.81-9.69-9.74-13.76-1.16-1.2-1.11-2.57-1.25-3.92-.05-.46.71-1.15,1.25-1.49.72-.46,1.6-.69,2.38-1.01,2.94.77,4.52,3.17,6.14,5.36,2.44,3.29,5.05,6.32,8.29,8.88,2.36,1.87,4.47,4.1,6.49,6.35,1.07,1.19,1.79,2.72,2.07,4.68-2.15-.99-3.73-2.96-6.5-1.95,6.28,14.86,10.23,30.44,14.26,46.28,2.43-.44,4.74-.88,7.06-1.29,3.2-.57,6.4-1.13,9.61-1.69,2.18-.38,4.37-.72,6.55-1.08.24-.04.47-.13.7-.15,2.61-.18,5.23-.21,7.82-.55,5.27-.69,10.59-.31,15.84-.75,7.34-.62,14.64-.26,21.96-.09,1.11.02,2.23.11,3.34.2,3.55.28,7.11.59,10.66.88,1,.08,2.01.15,3.38.26-.43-3.21-.82-6.09-1.2-8.97-.25-1.94-.26-3.88-.72-5.82-.69-2.91-.99-5.92-1.58-8.86-.71-3.57-1.6-7.09-2.32-10.66-.75-3.72-1.82-7.31-3.21-10.84-.6-1.5-.64-3.19-1.26-4.79-1.3-3.39-2.17-6.95-3.2-10.44-.4-1.33-.2-2.61.91-3.48.92-.73,2.26-1,3.15-.28,1.18.97,2.4,2.2,2.96,3.57,2.1,5.14,3.23,10.57,4.52,15.96.94,3.93,2.1,7.8,3.04,11.73.61,2.54.98,5.14,1.48,7.7.74,3.74,1.58,7.46,2.23,11.21.41,2.35.53,4.74.81,7.11.29,2.51.55,5.02.97,7.5.07.44.78,1,1.29,1.12,3.37.8,6.79,1.43,10.16,2.25,2.68.65,5.33,1.43,7.96,2.25,5.38,1.68,10.69,3.53,15.77,6.01,3.28,1.6,6.71,2.9,9.93,4.6,3.3,1.74,6.44,3.8,9.64,5.74,5.12,3.12,9.62,7.07,14.24,10.85,5.58,4.57,10.26,9.99,14.77,15.57,5,6.19,9.74,12.56,13.65,19.5,2.57,4.55,5.07,9.15,7.36,13.85,1.37,2.82,2.27,5.86,3.36,8.81.44,1.19.82,2.4,1.26,3.59.73,1.99,1.59,3.95,2.18,5.98.81,2.8,1.3,5.7,2.16,8.48.7,2.27.3,4.8,1.71,6.88.16.23.08.62.12.94.24,1.88.44,3.77.75,5.64.52,3.13,1.13,6.24,1.69,9.36.07.39.05.79.08,1.19.23,3.39.46,6.79,1.35,10.09.08.3.07.63.09.95.27,5.06.77,10.11.76,15.17-.01,6.04-.4,12.08-.75,18.12-.24,4.2-.56,8.4-1.05,12.57-.48,4.01-1.22,7.99-1.85,11.99-.62,3.97-1.91,7.79-2.35,11.82-.28,2.56-1.36,5.03-2.09,7.54-.09.3-.38.59-.36.87.22,3.06-1.57,5.59-2.2,8.4-1.11,4.98-3.26,9.57-4.83,14.37-2.15,6.58-5.21,12.75-7.81,19.12-1.73,4.21-4.23,7.98-6.29,11.99-1.15,2.24-2.79,4.24-3.91,6.5-1.94,3.92-4.69,7.32-7.29,10.73-4.02,5.28-7.9,10.71-12.76,15.32-3.23,3.06-6.3,6.29-9.62,9.24-5.52,4.9-11.32,9.43-17.34,13.72-6.91,4.93-14.3,8.94-22.05,12.27-5.24,2.25-10.73,3.92-16.06,5.95-3.74,1.43-7.65,2.05-11.52,2.92-4.95,1.12-9.98,1.49-14.95,2.29-3.07.49-6.12.81-9.21.98-2.25.12-4.51.1-6.76.08-1.65-.01-3.3-.09-4.95-.17-3.41-.18-6.81-.36-10.22-.58-3.01-.2-6.07-.15-9.01-.74-4.8-.96-9.51-2.33-14.25-3.57-1.94-.51-3.83-1.28-5.8-1.68-2.78-.57-5.25-1.94-7.9-2.83-.9-.3-1.79-.63-2.69-.94-.6-.2-1.39-.2-1.79-.6-1.5-1.5-3.85-1.28-5.3-2.7-.58-.56-1.66.64-1.93-.78-.06-.32-1.28-.34-1.89-.64-.71-.33-1.32-.85-2.01-1.24-4.32-2.47-8.74-4.79-12.95-7.44-3.45-2.17-6.68-4.69-9.98-7.1-1.3-.95-3.17-1.12-3.88-2.89-.06-.14-.57-.06-.82-.18-1.1-.55-2.18-1-3.07-2.04-1.14-1.32-2.69-2.31-4.12-3.36-1.98-1.45-4.03-2.79-5.48-4.85-.4-.57-.98-1.1-1.59-1.44-2.85-1.58-5.1-3.88-7.33-6.18-1.31-1.36-2.83-2.43-4.28-3.61-2.28-1.86-4.14-4.22-6.36-6.57-.29-.03-.92-.09-1.5-.14-1.17-1.69-2.33-3.19-4.1-4.28-1.14-.7-1.83-2.12-2.75-3.19-2.75-3.23-6.03-5.93-9.01-8.93-1.35-1.36-2.92-2.56-3.35-4.51-.34-1.51-1.64-1.71-2.62-2.29-.27-.64,1.34-1.61-.14-1.7-1.57-.1-1.69-.79-1.59-1.97.02-.22-.08-.45-.14-.76-.66-.24-1.32-.47-1.59-.56-1.38-2.22-2.44-4.2-3.76-5.98-1.31-1.78-2.94-3.33-4.32-5.06-.51-.63-.72-1.51-1.04-2.28-.09-.22-.07-.63-.19-.67-1.56-.52-1.18-1.61-.73-2.79-.54-.04-.97-.07-1.51-.11-.26-.9-.51-1.81-.8-2.71-.54-1.66-1.27-3.23-2.03-4.8-.8-1.64-1.92-3.07-2.66-4.67-.47-1.03-.56-2.32-1-3.48-.99-2.65-1.73-5.39-2.66-8.37-.69.38-1.5.79-2.26,1.26-2.94,1.82-5.73,3.95-8.84,5.43-4.01,1.92-7.49,4.68-11.44,6.69-2.96,1.51-5.73,3.4-8.55,5.16-2.29,1.44-4.49,3.02-6.82,4.4-1.58.93-2.66,2.24-3.35,3.84-2.58,5.97-5.14,11.93-8.18,17.69-.55,1.04-.54,2.49-.43,3.72.29,3.25.76,6.48,1.2,9.71.79,5.78,1.56,11.56,2.45,17.33.52,3.35,1.09,6.71,1.97,9.98.61,2.24,1.15,4.6,2.85,6.43.46.5.82,1.26.87,1.93.05.65-.16,1.72-.58,1.93-1.68.82-3,3.01-5.75,1.18.61,1.91,1.05,3.28,1.51,4.69-.93.47-1.6.71-2.18,1.1-2.08,1.41-4.43,1.01-5.55-1.27-1.54-3.12-2.84-6.36-4.21-9.56-1.42-3.32-2.87-6.64-4.19-10.01-1.04-2.65-1.89-5.37-2.85-8.05-.18-.51-.47-.98-.83-1.7-1.94,2.59-3.77,4.98-5.54,7.41-1.67,2.3-3.38,4.58-4.9,6.98-3.65,5.78-8.43,10.56-13.37,15.17-2.09,1.95-4.64,3.32-7.48,4.02-2.43.59-5.83.55-6.99-.2-2.5-1.6-4.39-3.82-5.33-6.58-1.28-3.74-2.28-7.59-3.25-11.43-.4-1.57-.42-3.23-.64-5.05-.37.28-.7.41-.82.65-2.5,4.97-5.5,9.61-9.03,13.92-3.6,4.38-8.27,6.52-13.85,5.94-4-.42-7.84-2-10.58-5.02-2.03-2.23-3.02-5.24-2.85-8.37.2-3.56.46-7.13.95-10.66.89-6.44,1.91-12.86,3-19.27.61-3.59,1.5-7.12,2.24-10.69.55-2.63,1.23-5.25,1.53-7.9.38-3.36,1.4-6.62,1.66-9.95.31-3.92,1.62-7.61,2.08-11.45.44-3.71,1.51-7.28,1.92-10.97.36-3.21,1.18-6.3,2-9.4.05-.19-.08-.43-.2-1.04-.79,1.96-1.46,3.58-2.08,5.22-.54,1.4-1.07,2.81-1.52,4.23-1.66,5.19-3.29,10.38-4.94,15.58-1,3.16-2.01,6.32-3.04,9.47-.69,2.11-1.42,4.21-2.13,6.32-.7,2.09-1.44,4.17-2.08,6.28-.7,2.3-2.1,4.37-2.06,6.9.01,1-1.04,1.52-1.14,2.73-.15,1.79-1.27,3.49-1.88,5.25-.65,1.86-1.19,3.76-1.8,5.64-.34,1.03-.67,2.08-1.09,3.08-1.67,3.92-3.15,7.9-4.13,12.06-.32,1.37-1.01,2.65-1.53,3.98-1.42,3.59-2.72,7.21-3.7,10.96-.54,2.05-1.59,4.01-2.72,5.82-.44.71-1.81,1.34-2.62,1.2-1.01-.18-1.9-.48-3.13.79-.08-1.56.05-2.42-.19-3.17-1.21-3.81-.89-7.72-1-11.61-.08-2.67-.38-5.34-.53-8.01-.1-1.73-.31-3.49-.09-5.18.49-3.78-.39-7.61.48-11.36-1.15-2.24-.33-4.62-.42-6.93-.16-4.04-.17-8.09-.18-12.13,0-1.33.25-2.65.32-3.98.2-3.76.38-7.53.57-11.44-1.19.64-1.39,1.81-1.78,2.82-1.33,3.45-2.54,6.95-3.96,10.36-1.45,3.5-3.14,6.9-4.65,10.38-.75,1.73-1.25,3.58-2.01,5.31-1.6,3.62-3.3,7.2-4.95,10.8-.72,1.58-1.37,3.18-2.12,4.74-1.75,3.63-3.49,7.27-5.35,10.84-1.76,3.38-3.64,6.69-5.49,10.02-1.57,2.83-4.32,3.61-7.22,3.89-.55.05-1.46-.72-1.73-1.33-.72-1.64-1.13-3.42-1.77-5.1-.92-2.44-1.03-4.95-1.03-7.52-.01-5.56-.26-11.12-.23-16.68.03-6.44.28-12.88.4-19.32.03-1.72-.08-3.45-.08-5.17,0-.63.13-1.26.15-1.89.03-.84,0-1.68,0-2.52-.17-.02-.35-.03-.53-.05-.3,1.38-.79,2.75-.85,4.14-.17,3.99-1.5,7.76-2.08,11.65-.63,4.25-2.18,8.24-3.2,12.38-.61,2.45-1.58,4.83-2.62,7.13-1.5,3.33-3.15,6.61-4.87,9.84-1.18,2.22-2.46,4.42-3.92,6.47-2.1,2.95-4.72,5.48-8.21,6.59-1.72.55-3.77.32-5.62.06-.72-.1-1.39-1.21-1.91-1.98-.83-1.24-1.52-2.57-2.25-3.87-.19-.34-.32-.72-.44-1.1-.85-2.62-1.53-5.32-2.59-7.85-1.08-2.57-1.89-5.18-2.66-7.85-1.05-3.66-2.2-7.28-2.83-11.05-.37-2.25-.85-4.48-1.27-6.7-.25-.01-.47-.08-.51-.02-1.9,2.8-4.44,4.93-7.05,7.04-3.39,2.74-6.54,5.77-9.73,8.75-3.45,3.22-7.09,6.2-11.47,7.99-1.76.72-3.94.95-5.82.69-2.07-.29-3.36-2.23-4.7-3.76-3.29-3.77-4.55-8.41-5.58-13.18-.89-4.12-.9-8.3-1.31-12.46-.1-1.01.24-2.05.28-3.08.09-2.32.22-4.64.15-6.95-.1-3.26.51-6.43.88-9.63.14-1.24.3-2.48.44-3.72.47-4.45.89-8.9,1.42-13.34.22-1.88.66-3.75,1.03-5.61.78-3.93,1.65-7.84,2.36-11.78.7-3.88,1.16-7.8,1.89-11.67.47-2.54,1.23-5.03,1.86-7.54.61-2.42,1.47-4.82,1.69-7.27.1-1.07.65-1.17,1.22-1.65-.34-.26-.63-.48-1.15-.88.5-.76,1.03-1.55,1.55-2.35.08-.12.19-.31.15-.41-1.13-2.68.97-4.61,1.58-6.89.07-.25.09-.53.09-.79,0-2.55.32-5.01,1.84-7.17.16-.23.21-.56.25-.85.16-1.23.05-2.57.49-3.69,1.32-3.38,2.12-6.9,3.08-10.38,1.28-.65.46-1.96.88-2.86.47-.99,1.15-1.9.95-3.1-.02-.13.06-.38.17-.43,2.15-1.16,1.84-3.72,3.13-5.44h-1.22c.03-.54.06-1.07.09-1.61,2.19-.49,2.66-1.82,1.32-3.74.65-.47,1.3-.95,2.32-1.71h-1.97c.79-2.58,1.47-5.08,2.36-7.5.26-.7.4-1.73,1.53-1.96.24-.05.48-.87.47-1.33-.06-1.71.14-3.4,1.84-4.14,1.53-.67.3-2.35,1.35-3.18-.37.24-.74.48-1.18.76-.09-1.6.9-1.94,2.77-1.75-.93-.85-1.39-1.27-1.72-1.57.4-1.42.63-2.83,1.21-4.08.53-1.11.71-2.58,2.19-3.04.64-.2.11-.47.12-.72.05-1.11.43-2.2.59-3.31.16-1.17.96-1.18,1.82-1.17-.16.17-.4.31-.47.51-.11.31-.11.66-.16.99.23.02.63.11.65.05.1-.29.15-.62.15-.93,0-.21-.11-.41-.16-.62h0Zm284.32-89.28c.39,1.58.67,2.71.95,3.83-.77.42-1.37.79-2,1.08-.35.16-.76.28-1.15.3-2.49.13-3.85-1.71-5.2-3.29-1.01-1.18-.38-3.56.95-5,.21-.23.45-.46.72-.62,1-.61,1.11-1.49.75-2.48-.92-2.49-.56-4.5,1.57-6.4,2.96-2.63,5.53-5.69,8.46-8.35,2.81-2.55,5.9-4.8,8.82-7.24,2.03-1.7,3.96-3.53,5.99-5.23,1.95-1.63,4.01-3.13,5.95-4.77,4.32-3.65,8.66-7.28,12.84-11.07,1.24-1.13,2.23-2.68,2.94-4.22,1.53-3.34,3.95-4.55,7.29-3.31,1.72.64,2.94,3.96,1.97,5.55-.45.74-1.06,1.43-1.73,1.96-4.61,3.65-9.3,7.21-13.88,10.89-5.89,4.73-11.77,9.47-17.52,14.37-4.04,3.45-7.86,7.16-11.77,10.77-.15.13-.16.4-.31.78,1.84.11,3.29-.54,4.67-1.47,2.37-1.59,4.74-3.18,7.12-4.75,3.63-2.39,7.27-4.77,10.92-7.14,1.76-1.14,3.57-2.21,5.32-3.37,2.75-1.83,5.44-3.76,8.22-5.55,5.14-3.32,10.03-7.06,15.61-9.69,2.24-1.05,4.51-.81,6.78-.5,1.21.16,2.4,2.15,2.25,3.34-.17,1.38-1.65,3.08-2.98,2.96-3.79-.33-6.72,1.56-9.69,3.41-6.14,3.82-12.31,7.59-18.38,11.53-6.2,4.03-12.26,8.28-18.43,12.34-3.53,2.32-7.21,4.4-10.74,6.71-2.18,1.43-4.21,3.08-6.29,4.63h0Zm-246.16-63.91c1.34,2.46,2.67,4.55,3.64,6.8.6,1.39,1.08,2.31,2.81,2.2,1.06-.07,2.15.28,3.21.52,1.99.46,3.99.88,5.93,1.5,1.72.55,1.83.57,2.86-.99,1.56-2.39,3.18-4.74,4.76-7.11.41-.62.75-1.29,1.17-2.04-3.86-1.19-6.52-3.62-8.65-6.7-2.17-3.13-2.33-6.88-3.15-10.52-3.01,6.44-7.82,11.39-12.58,16.35h0Zm-3.78-4.56c4.75-2.59,7.53-6.88,10.5-10.98.97-1.34,2.01-2.66,2.73-4.13,1.45-2.95,2.96-5.85,3.14-9.33.19-3.62.3-7.28,1.43-10.81.27-.86.04-1.88.04-2.97,2.74,0,5.34,0,7.95,0,2.19,3.3,1.82,4.58-1.55,5.75-.8,3.05-1.68,6-2.32,9-.29,1.37-.13,2.84-.17,4.27-.09,2.8-.48,5.63.23,8.38.59,2.29,1.18,4.65,2.27,6.72.82,1.55,2.28,2.88,3.72,3.95,1.68,1.25,3.5.78,5-.85,1.79-1.94,5.02-1.4,6.37,1.07.96,1.76.4,4.81-1.12,6.12-.24.2-.51.51-.77.52-2.9.08-4.45,2.09-5.98,4.12-1.38,1.82-2.71,3.68-4.06,5.53-1.38,1.88-1.45,4.11-1.61,6.3-.1,1.44-.57,2.47-2.19,2.62-.3.03-.59.22-.87.35-1.72.81-2.55.69-3.77-.64-.58-.63-1.08-1.34-1.73-2.16.11-.71.24-1.62.39-2.65-2.03-.52-3.79-1.19-5.93-.03-1.35.73-3.24.51-4.89.57-.42.01-1.06-.46-1.26-.87-.5-1.07-1.13-2.22-1.13-3.34-.03-3.7-2.46-6.24-4.14-9.13-.26-.45-1.1-.59-1.67-.85-1.39-.63-2.67-1.39-3.55-2.71-.87-1.3-1.06-3.4-.3-4.17,1.09-1.09,3.14-1.17,4.63-.17.24.17.46.38.61.51h0Zm-297.82,15.01c2.58-1.08,3.43-.94,5.03.91,2.81,3.25,5.21,6.78,7.38,10.49,1.29,2.2,2.93,4.19,4.21,6.39,2.75,4.73,5.3,9.57,8.05,14.29,1.72,2.95,3.69,5.75,5.49,8.66.74,1.19,1.33,2.47,1.97,3.73,1.16,2.31,2.32,4.63,3.46,6.96,1.49,3.04,3.05,6.05,4.42,9.14,1.92,4.35,3.75,8.75,5.48,13.18.66,1.68,1.03,3.49,1.4,5.26.32,1.54-.44,2.77-1.48,3.84-3.09.19-4.43-.91-5-3.78-.66-3.33-1.62-6.57-3.09-9.66-1.77-3.73-3.32-7.56-5.16-11.25-2.28-4.59-4.75-9.09-7.16-13.62-1.27-2.38-2.57-4.76-3.94-7.09-1.67-2.86-3.42-5.68-5.48-8.44,0,.4-.08.81.01,1.19.7,2.76,1.49,5.5,2.13,8.28.62,2.69,1.25,5.4,1.58,8.14.28,2.35,1.22,4.32,2.32,6.35.86,1.6,1.26,3.39,2.33,4.97.62.91.31,2.46.06,3.88-.29-.4-.78-.77-.85-1.2-.38-2.26-1.41-4.2-2.75-6-4.57-6.17-6.56-13.33-7.96-20.72-.82-4.34-1.6-8.68-2.5-13.01-.25-1.21-.65-2.48-1.31-3.51-2.44-3.82-4.9-7.63-7.59-11.28-1.09-1.48-1.59-2.86-1.24-4.6.09-.46.12-.94.19-1.49h0Zm283.12-18.04c-.22-2.25,1.34-3.45,3.42-3.64,1.32-.12,3.25,1.53,3.28,2.67.03,1.65-2.43,4.12-4.03,4.03-1.38-.08-2.68-1.56-2.67-3.06h0Zm62.86-5c.54.36,1.07.71,1.6,1.07.89.6,1.32,1.47,1.05,2.48-.29,1.07-.77,2.12-2.07,2.38-.39.08-.78.19-1.17.21-1.58.09-2.93-.56-3.2-1.51-.37-1.29.45-3.14,1.77-3.83.62-.33,1.32-.52,2.02-.8h0Zm-183.32,209.82c-.12-.03-.25-.1-.37-.09-.14.01-.28.09-.42.14.17-.9.34-1.8.5-2.69.08,0,.16,0,.24,0,0,.9,0,1.81,0,2.72,0,0,.05-.06.05-.06h0Zm7.18-25.86c-.29.54-.57,1.09-.86,1.63-.15-.07-.3-.15-.45-.22.27-.55.53-1.11.8-1.66.17.08.34.17.51.25h0Zm34.77-160.26c-.21.1-.41.19-.62.29.19-.78.38-1.55.57-2.33.15.02.3.04.45.06.06.44.12.89.18,1.33-.2.22-.39.44-.59.65h0Zm452.08,78.54c.72,1.71.47,2.97-.13,4.74-.5-1.81-.67-3.09.13-4.74h0Zm.08,7.21c1.3.56.71,1.57.8,2.66-1.45-.69-.58-1.84-.8-2.66h0Z"/>
</svg>