<?xml version="1.0" encoding="UTF-8"?>
<svg id="Layer_1" data-name="Layer 1" xmlns="http://www.w3.org/2000/svg" viewBox="0 0 960 560">
  <defs>
    <style>
      .cls-1 {
        fill: #fff;
      }
    </style>
  </defs>
  <path class="cls-1" d="m181.66,188.38c-.82-2.27-2.24-3.91-4.27-4.92-1.83,1.01-3.05,3.03-3.66,6.05v116.09c-.41,4.29.41,7.94,2.44,10.97,2.03,0,3.66-1.13,4.89-3.4l.61-4.92.31-3.4v-111.93l-.31-4.54h0Zm-49.77,230.3V147.54h62.28c1.02.25,2.03.51,3.05.76,1.02.25,2.03.63,3.05,1.13,6.72,4.04,11.7,10.46,14.96,19.29.61,2.78.92,6.05.92,9.83v149.75c-.41,4.29-1.43,8.32-3.05,12.1-2.65,4.79-6.11,8.83-10.38,12.1l-6.41,2.65c-1.83,0-3.46.38-4.88,1.13h-13.74c-1.02-.25-2.09-.31-3.21-.19-1.12.13-2.39.32-3.82.57v62.02h-38.78Z"/>
  <polygon class="cls-1" points="242.11 418.3 242.11 144.89 281.19 144.89 281.19 418.3 242.11 418.3 242.11 418.3"/>
  <polygon class="cls-1" points="410.34 420.19 368.82 420.19 344.08 297.29 344.08 420.19 304.7 420.19 304.7 150.56 344.08 150.56 370.65 271.95 370.65 150.56 410.34 150.56 410.34 420.19 410.34 420.19"/>
  <path class="cls-1" d="m434.76,419.05V143h66.86v54.83c-2.44.76-5.7.89-9.77.38h-17.1l-.3,3.03v48.4c2.44.76,5.39,1.01,8.85.76h16.49v53.32h-25.34v59.75c1.02.25,2.29.44,3.82.57,1.53.13,3.2.06,5.04-.19h19.84v55.21h-68.39Z"/>
  <path class="cls-1" d="m581,299.18c-4.48,0-8.45,1.77-11.91,5.29v21.18c-1.22,9.33,1.32,11.6,7.63,6.81,5.5-4.03,8.95-9.58,10.38-16.64,2.24,15.63-3.77,25.97-18.01,31.01,0,6.81,2.54,10.72,7.63,11.72,13.63-.25,19.13-8.95,16.49-26.09,2.64-19.91-1.43-31.01-12.21-33.28h0Zm-56.48,100.97h-3.05v-6.05l5.19-.38v-225.76c-1.02-2.52-2.55-3.27-4.58-2.27v-11.35c3.86,1.01,5.39-3.27,4.58-12.86l1.22-.38h13.74l.92,3.78h26.56v146.72c13.63-4.79,23.92-.76,30.84,12.1.61,2.27.92,4.41.92,6.43l-.61,41.98c-1.83,5.05-4.38,8.83-7.63,11.34,2.24,1.01,4.37,1.51,6.41,1.51,13.63,14.37,28.29,16.77,43.97,7.18v56.34c-4.07,4.03-8.65,6.05-13.74,6.05l-1.22-.76c-1.63-.26-3.21-.51-4.73-.76-1.53-.25-2.8-.63-3.82-1.13-.82-.76-1.73-1.45-2.75-2.08-1.02-.63-2.04-1.2-3.05-1.7-1.63-1.01-2.85-1.76-3.66-2.27l-3.36-1.89-19.24-5.67-1.83-.76-3.05-.38-3.36-.76h-5.8l-2.75-.76c-6.11,6.05-9.77,13.24-10.99,21.56-5.09-16.64-14.35-21.68-27.78-15.13.61-9.07-1.83-16.38-7.33-21.93h0Z"/>
  <path class="cls-1" d="m710.15,299.18c-4.48,0-8.45,1.77-11.91,5.29v21.18c-1.22,9.33,1.32,11.6,7.63,6.81,5.5-4.03,8.95-9.58,10.38-16.64,2.24,15.63-3.77,25.97-18.01,31.01,0,6.81,2.54,10.72,7.63,11.72,13.63-.25,19.13-8.95,16.49-26.09,2.64-19.91-1.43-31.01-12.21-33.28h0Zm-56.48,100.97h-3.05v-6.05l5.19-.38v-225.76c-1.02-2.52-2.55-3.27-4.58-2.27v-11.35c3.86,1.01,5.39-3.27,4.58-12.86l1.22-.38h13.74l.92,3.78h26.56v146.72c13.63-4.79,23.91-.76,30.84,12.1.61,2.27.92,4.41.92,6.43l-.61,41.98c-1.83,5.05-4.38,8.83-7.63,11.34,2.24,1.01,4.37,1.51,6.41,1.51,13.63,14.37,28.29,16.77,43.97,7.18v56.34c-4.07,4.03-8.65,6.05-13.74,6.05l-1.22-.76c-1.63-.26-3.21-.51-4.73-.76-1.53-.25-2.8-.63-3.82-1.13-.82-.76-1.73-1.45-2.75-2.08-1.02-.63-2.04-1.2-3.05-1.7-1.63-1.01-2.85-1.76-3.66-2.27l-3.36-1.89-19.24-5.67-1.83-.76-3.05-.38-3.36-.76h-5.8l-2.75-.76c-6.11,6.05-9.77,13.24-10.99,21.56-5.09-16.64-14.35-21.68-27.78-15.13.61-9.07-1.83-16.38-7.33-21.93h0Z"/>
  <polygon class="cls-1" points="787.09 418.3 787.09 144.89 826.17 144.89 826.17 418.3 787.09 418.3 787.09 418.3"/>
  <path class="cls-1" d="m854.87,155.86c3.46-4.54,8.34-8.19,14.66-10.97h40c11.8,1.51,19.13,13.87,21.98,37.06v49.92h-37.86l-.61-34.41c-.41-1.26-1.22-2.9-2.44-4.92-1.63-.5-3.36,0-5.19,1.51-4.07,12.61-4.17,25.72-.3,39.33.81,1.77,1.73,3.4,2.75,4.92,1.02,1.51,2.24,3.16,3.66,4.92l10.07,12.48c1.63,1.77,3.66,4.54,6.11,8.32l1.83,2.65,1.53,2.27c1.02,1.51,1.98,2.97,2.9,4.35.92,1.39,1.68,2.71,2.29,3.97l1.22,1.89.92.38,1.22,3.4,4.58,9.08,3.97,10.21.92,2.65,1.83,7.56.31,2.27.3,1.13v65.8l-.3,3.4-.31,2.65-.61,2.65-1.83,6.43c-1.02,2.78-2.24,5.42-3.66,7.94l-1.53,2.65c-4.07,5.05-8.85,8.83-14.35,11.34h-37.86c-2.04,0-3.97-.5-5.8-1.51-5.91-3.78-10.99-9.7-15.27-17.78-1.63-4.28-2.75-8.95-3.36-13.99l-.61-1.51v-65.42h37.55v33.66l.31,5.29v6.05c.41,3.02,1.32,5.8,2.75,8.32,2.44,1.26,4.68.63,6.72-1.89,3.46-14.37,3.46-29.75,0-46.14l-4.58-7.94-1.53-2.65-.61-.76c-.41-.5-.97-1.26-1.68-2.27-.71-1.01-1.48-2.14-2.29-3.4l-5.19-6.43-.3-1.14-2.75-3.02c-.82-.76-1.83-2.14-3.05-4.16-18.53-23.19-26.97-53.19-25.34-90v-20.42c0-2.77.4-5.29,1.22-7.56v-1.51l1.83-5.29c.61-2.27,1.53-4.41,2.75-6.43l1.22-1.89,1.53-2.27.31-.76h0Z"/>
  <path class="cls-1" d="m32.87,155.86c3.46-4.54,8.34-8.19,14.66-10.97h40c11.8,1.51,19.13,13.87,21.98,37.06v49.92h-37.86l-.61-34.41c-.41-1.26-1.22-2.9-2.44-4.92-1.63-.5-3.36,0-5.19,1.51-4.07,12.61-4.17,25.72-.3,39.33.81,1.77,1.73,3.4,2.75,4.92,1.02,1.51,2.24,3.16,3.66,4.92l10.07,12.48c1.63,1.77,3.66,4.54,6.11,8.32l1.83,2.65,1.53,2.27c1.02,1.51,1.98,2.97,2.9,4.35.92,1.39,1.68,2.71,2.29,3.97l1.22,1.89.92.38,1.22,3.4,4.58,9.08,3.97,10.21.92,2.65,1.83,7.56.31,2.27.3,1.13v65.8l-.3,3.4-.31,2.65-.61,2.65-1.83,6.43c-1.02,2.78-2.24,5.42-3.66,7.94l-1.53,2.65c-4.07,5.05-8.85,8.83-14.35,11.34h-37.86c-2.04,0-3.97-.5-5.8-1.51-5.91-3.78-10.99-9.7-15.27-17.78-1.63-4.28-2.75-8.95-3.36-13.99l-.61-1.51v-65.42h37.55v33.66l.31,5.29v6.05c.41,3.02,1.32,5.8,2.75,8.32,2.44,1.26,4.68.63,6.72-1.89,3.46-14.37,3.46-29.75,0-46.14l-4.58-7.94-1.53-2.65-.61-.76c-.41-.5-.97-1.26-1.68-2.27-.71-1.01-1.48-2.14-2.29-3.4l-5.19-6.43-.3-1.14-2.75-3.02c-.82-.76-1.83-2.14-3.05-4.16-18.53-23.19-26.97-53.19-25.34-90v-20.42c0-2.77.4-5.29,1.22-7.56v-1.51l1.83-5.29c.61-2.27,1.53-4.41,2.75-6.43l1.22-1.89,1.53-2.27.31-.76h0Z"/>
</svg>