<?xml version="1.0" encoding="UTF-8"?>
<svg id="Layer_1" data-name="Layer 1" xmlns="http://www.w3.org/2000/svg" viewBox="0 0 960 560">
  <defs>
    <style>
      .cls-1 {
        fill: #fff;
      }
    </style>
  </defs>
  <path class="cls-1" d="m300.99,310.9c1.86-1.16,3.69-2.35,5.49-3.58,1.94-1.23,3.81-2.54,5.59-3.92,1.79-1.38,3.58-2.76,5.37-4.15,1.64-1.38,3.31-2.8,5.02-4.25,1.71-1.45,3.38-3.02,5.02-4.71,1.63-1.68,3.23-3.4,4.79-5.15,1.56-1.75,3-3.55,4.33-5.37,2.81-3.81,5.23-7.91,7.28-12.31,1.89-4.55,3.18-9.31,3.86-14.3l-.02-1.36.22-.45-.08-5.42c-.02-1.2-.11-2.45-.28-3.73-.17-1.28-.41-2.52-.73-3.72-.49-2.4-1.35-4.8-2.59-7.2-1.24-2.39-2.63-4.63-4.16-6.72-.77-1.04-1.65-2.01-2.64-2.9-.99-.89-2.02-1.7-3.09-2.44-.91-.74-1.91-1.44-2.97-2.1-1.07-.66-2.13-1.29-3.19-1.88-4.4-2.04-8.87-3.64-13.41-4.78-2.27-.57-4.53-1.03-6.8-1.37-2.27-.34-4.53-.65-6.79-.92-2.26-.27-4.53-.46-6.79-.58-2.26-.12-4.45-.24-6.56-.36-4.52-.08-8.97-.06-13.33.08-4.37.14-8.74.32-13.1.53l-26.19,1.96c-4.37.37-8.66.73-12.87,1.09-4.21.36-8.5.73-12.87,1.09-4.37.37-8.66.62-12.87.75-4.22.14-8.44.16-12.66.07-2.11-.12-4.18-.2-6.22-.25-2.03-.04-4.11-.2-6.22-.48-4.38-.39-8.3-1.01-11.78-1.86-.91-.29-1.82-.57-2.73-.86-.91-.29-1.74-.58-2.5-.87-.76-.44-1.48-.84-2.16-1.21-.68-.36-1.33-.77-1.94-1.22-1.22-.89-2.06-1.85-2.53-2.9-.77-1.19-1.24-2.32-1.41-3.37-.17-1.35-.19-2.78-.06-4.29.14-.75.28-1.51.42-2.27.14-.75.35-1.51.65-2.27.43-1.66,1.04-3.25,1.85-4.77.81-1.52,1.73-3.04,2.76-4.56,2.22-2.89,4.74-5.72,7.56-8.47,2.82-2.9,5.8-5.51,8.93-7.81,1.64-1.23,3.28-2.42,4.92-3.57,1.64-1.15,3.28-2.34,4.92-3.57l10.53-6.48c3.58-2.16,7.25-4.21,10.99-6.15,3.74-1.94,7.48-3.84,11.22-5.7,7.63-3.73,15.34-7.23,23.13-10.5,7.79-3.28,15.65-6.48,23.6-9.61,8.09-3.13,16.15-6.07,24.17-8.82,8.02-2.75,16.08-5.39,24.18-7.92,4.2-1.26,8.33-2.53,12.38-3.79,4.05-1.26,8.1-2.45,12.15-3.57l12.38-3.57,6.31-1.67,2.93-.72,3.15-.72c.3-.15.52-.23.68-.24.15,0,.3-.08.45-.23,4.35-1.42,7.55-4.14,9.6-8.16,2.05-4.02,2.37-8.21.95-12.56-1.42-4.35-4.14-7.51-8.16-9.49-4.02-1.98-8.21-2.26-12.56-.84l-3.37,1.18-3.15.95-6.3,2.12c-2.1.79-4.16,1.53-6.18,2.24-2.02.71-4.09,1.45-6.18,2.24-4.2,1.57-8.32,3.1-12.37,4.59-4.05,1.49-8.17,3.09-12.36,4.81-8.09,3.13-16.18,6.41-24.27,9.84-8.09,3.43-16.17,6.94-24.26,10.52-4.04,1.72-8.09,3.51-12.13,5.37-4.04,1.87-8.01,3.81-11.9,5.82-7.93,4.03-15.78,8.22-23.55,12.55-3.89,2.17-7.7,4.41-11.43,6.72-3.73,2.31-7.47,4.78-11.2,7.39-7.61,5.08-14.84,10.69-21.68,16.81-1.64,1.53-3.31,3.14-5.02,4.82-1.71,1.68-3.38,3.37-5.01,5.05-3.26,3.81-6.14,7.77-8.64,11.88-.74,1.07-1.36,2.17-1.87,3.3-.51,1.14-1.06,2.31-1.64,3.53-.43,1.21-.87,2.42-1.3,3.64-.43,1.21-.79,2.5-1.08,3.86-.72,2.57-1.13,5.29-1.24,8.15.02,1.36.11,2.75.29,4.18.17,1.43.41,2.9.74,4.4.64,2.85,1.97,5.7,3.97,8.53,1.69,2.24,3.91,4.32,6.65,6.23,1.98,1.33,4.4,2.5,7.28,3.51,2.12.73,4.54,1.44,7.26,2.16,2.41.42,4.76.76,7.02,1.03,2.26.27,4.6.46,7.02.58,2.26.12,4.52.16,6.78.13,2.26-.03,4.44-.06,6.55-.09,9.04-.28,17.84-.86,26.42-1.74l25.96-2.63c4.36-.36,8.65-.73,12.87-1.09,4.21-.36,8.5-.72,12.87-1.09,4.37-.21,8.62-.39,12.76-.52,4.14-.13,8.4-.16,12.77-.07,2.11.12,4.18.2,6.22.25,2.03.05,4.11.21,6.22.48,2.11.27,4.15.58,6.12.93,1.96.35,3.93.73,5.89,1.16,1.97.58,3.89,1.15,5.79,1.72,1.89.58,3.67,1.3,5.34,2.18,1.67.88,3.19,1.88,4.56,2.99,1.37,1.11,2.59,2.34,3.67,3.68,2.14,2.53,3.62,5.6,4.43,9.2.48,1.8.73,3.61.76,5.41l.04,2.94c0,.6-.06,1.06-.21,1.36l.02,1.36c-.28,1.96-.66,3.82-1.16,5.55-.51,1.74-1.12,3.52-1.85,5.34-.73,1.67-1.61,3.34-2.64,5.01-1.03,1.67-2.14,3.27-3.32,4.79-2.37,3.2-5.11,6.25-8.23,9.16-1.49,1.38-3.01,2.76-4.57,4.13-1.56,1.38-3.16,2.68-4.8,3.91-6.56,5.07-13.5,9.69-20.82,13.86-7.62,4.48-15.1,8.43-22.43,11.85-3.89,1.86-7.82,3.66-11.79,5.37-3.97,1.71-7.9,3.35-11.8,4.92-7.94,3.28-15.92,6.33-23.94,9.16-8.02,2.83-16.16,5.58-24.41,8.26-8.25,2.68-16.46,5.13-24.64,7.36-8.18,2.23-16.47,4.45-24.88,6.69-4.2,1.11-8.41,2.19-12.61,3.23-4.2,1.04-8.41,2.04-12.61,3.01l-12.62,2.89c-2.11.48-4.21.97-6.31,1.45-2.11.48-4.21.89-6.31,1.22-2.11.48-4.21.97-6.31,1.45-2.1.48-4.21.89-6.31,1.22l-12.62,2.44-12.63,2.22-6.31,1.22-6.31,1h-.9c-3,.81-5.35,2.54-7.04,5.2-1.69,2.66-2.14,5.49-1.35,8.5.65,3,2.3,5.35,4.96,7.05,2.66,1.69,5.49,2.14,8.49,1.35l3.38-.73,9.46-2.17,12.84-3.35,12.61-3.12,12.61-3.35,12.61-3.35,12.61-3.57,25.21-7.37c8.4-2.69,16.72-5.33,24.97-7.93,8.25-2.61,16.5-5.4,24.74-8.38,8.24-2.98,16.41-6,24.51-9.06,8.09-3.06,16.18-6.37,24.27-9.96,4.04-1.72,8.09-3.51,12.13-5.37,4.04-1.87,8-3.81,11.9-5.82,3.89-2.02,7.77-4.07,11.66-6.16,3.89-2.09,7.7-4.29,11.43-6.61,1.94-1.23,3.84-2.43,5.71-3.59h0Z"/>
  <path class="cls-1" d="m483.17,334.61s.02-.02.03-.03c-.12.12-.13.13-.03.03h0Z"/>
  <g>
    <path class="cls-1" d="m819.2,155.38c-3.07,2.67-4.76,6.12-5.07,10.35l-.69,12.69c-.21,2.57.36,5,1.72,7.29,1.36,2.29,3.26,4,5.72,5.12,3.22,1.4,6.46,1.47,9.74.23,3.27-1.25,5.61-3.48,7-6.69l5.24-11.94c.55-1.38.94-3.05,1.18-5.02.16-4.08-1.1-7.69-3.77-10.84-2.68-3.15-6.13-4.8-10.35-4.95-4.08-.16-7.65,1.1-10.73,3.77h0Z"/>
    <path class="cls-1" d="m610.5,253.32c.8-1.59,1.65-3.22,2.53-4.9l.66-1.37c0,.3-.03.49-.11.57-.08.08-.11.27-.11.57l-.6,5.66-.41,2.94-.22.68v.68c.01.3-.02.53-.09.68-.07.15-.11.31-.11.45-.28,1.66-.63,3.33-1.06,4.99-.43,1.67-1.01,3.26-1.74,4.77-.88,1.67-1.69,3.04-2.43,4.1-.59,1.22-1.47,2.28-2.67,3.2-.3.31-.48.54-.56.69-.07.15-.26.31-.56.46,0-.45-.09-.9-.25-1.35-.16-.6-.28-1.16-.36-1.69-.09-.53-.13-1.16-.14-1.92l1.53-3.86,1.96-5.23,2.41-5.23c.73-1.67,1.5-3.3,2.3-4.89h0Zm266.26-24.06c0-.15.07-.23.22-.23l-.22.45-.45.46.45-.68h0Zm48.42,3.71c-.63-2.02-1.86-3.55-3.68-4.58-1.67-1.03-3.52-1.27-5.55-.71-2.03.56-3.56,1.75-4.58,3.57-2.51,4.41-5.04,8.78-7.61,13.11-2.58,4.33-5.27,8.63-8.07,12.89-1.77,2.74-3.53,5.44-5.31,8.1-1.77,2.66-3.62,5.29-5.54,7.88-.94-2.25-1.84-4.53-2.7-6.86-.87-2.32-1.69-4.68-2.47-7.08-.94-2.55-1.73-5.13-2.37-7.76-.64-2.63-1.13-5.22-1.46-7.78-.18-1.2-.3-2.4-.39-3.61-.1-1.2-.15-2.41-.16-3.61-.02-.9.05-1.58.19-2.04l10.96-8.07c.9-.61,1.64-1.38,2.23-2.29,1.62-2.43,2.22-5.08,1.81-7.94-.43-2.85-1.77-5.1-4.05-6.72l-5.26-3.77c-2.27-1.17-4.55-1.97-6.81-2.39-1.36-.28-2.71-.37-4.08-.28-1.35.1-2.63.3-3.83.62-2.41.64-4.64,1.65-6.74,3.04-1.93,1.54-3.43,2.91-4.46,4.13-.59.76-1.11,1.45-1.55,2.06-.44.61-.88,1.3-1.32,2.05l-1.76,3.87c-.43,1.21-.76,2.42-.96,3.63-.22,1.21-.46,2.42-.74,3.63-.13,1.06-.23,2.12-.29,3.17-.06,1.06-.08,2.11-.07,3.17.02,1.06.03,2.03.05,2.94,0,.9.1,1.88.26,2.93.15,1.46.36,2.93.6,4.39l-.07.12-1.55,2.28-3.09,5.02-1.55,2.28-1.55,2.51-3.32,4.79-3.1,4.57-6.64,9.59-3.33,4.57-3.32,4.79-3.55,4.57-3.33,4.57-3.55,4.57-2,2.74c.13-1.21.3-2.3.52-3.28.21-.98.46-2.08.74-3.29.12-1.81.55-3.62,1.28-5.44l1.28-5.44,1.51-5.45,1.73-5.45c.57-1.82,1.14-3.63,1.72-5.45.57-1.82,1.23-3.63,1.96-5.45.57-1.82,1.19-3.59,1.84-5.34.66-1.74,1.35-3.52,2.07-5.34l1.09-2.73,1.1-2.5,1.09-2.73.66-1.14.43-1.36c.29-.76.58-1.51.87-2.27.29-.76.5-1.51.64-2.27.39-4.22-.71-7.94-3.33-11.14-2.61-3.2-5.95-5-10.02-5.39-4.08-.54-7.71.49-10.91,3.1-3.2,2.61-5,5.95-5.39,10.02v.23s-.82,5.89-.82,5.89l-.59,5.89-.44,3.17c-1.85,2.76-3.74,5.5-5.72,8.22-5.32,7.31-10.87,14.4-16.65,21.26-2.96,3.51-5.93,6.91-8.89,10.19-2.97,3.29-6.01,6.61-9.12,9.96l-1.34,1.38c1.45-3.94,2.83-7.76,4.13-11.47,1.3-3.71,2.6-7.53,3.9-11.47l15.83-46.56c4.9-15.44,10.1-30.89,15.61-46.34l3.9-11.36,1.53-3.86,3.1-4.56c2.36-3.35,4.69-6.74,6.97-10.16,2.29-3.42,4.61-6.96,6.97-10.61.59-.91,1.14-1.79,1.66-2.62.52-.83,1.07-1.78,1.66-2.85l3.31-5.47,3.31-5.92,3.07-6.6,1.3-3.86c.73-1.37,1.16-3.03,1.28-4.99l.43-1.59-.02-1.81c.14-.45.21-1.21.19-2.26l-.5-2.93c-.16-.6-.32-1.2-.48-1.8-.15-.6-.39-1.27-.7-2.02-.32-.75-.67-1.46-1.05-2.13-.39-.67-.96-1.38-1.72-2.12-1.23-1.34-2.6-2.45-4.11-3.33-.77-.44-1.48-.8-2.17-1.1-.68-.29-1.33-.58-1.93-.88l-3.62-.63-2.71.04c-.76.01-1.58.17-2.48.49-.75.01-1.43.17-2.03.48l-1.79.7-1.35.7-1.34.92-1.79,1.38c-.3.16-.75.54-1.34,1.15-.45.31-.82.69-1.11,1.15-.3.46-.59.84-.89,1.14l-2.89,3.66-1.99,3.42c-1.18,1.83-2.28,3.95-3.3,6.38l-2.85,5.92-5.03,12.05-4.35,11.82-3.9,12.04c-.73,1.67-1.35,3.41-1.85,5.22-.5,1.82-1.04,3.56-1.62,5.22-4.66,13.5-15.3,27.48-21.85,40.34-9.43,18.54-17.66,38.53-29.89,55.33-5.32,7.31-10.87,14.4-16.65,21.26-2.96,3.51-5.93,6.91-8.89,10.19-2.97,3.28-6.01,6.61-9.12,9.96l-1.34,1.38c1.45-3.94,2.83-7.76,4.13-11.47,1.3-3.71,2.61-7.53,3.91-11.47l15.83-46.56c4.9-15.44,10.1-30.89,15.61-46.33l3.91-11.36,1.53-3.86,3.1-4.56c2.36-3.35,4.69-6.74,6.97-10.16,2.29-3.42,4.61-6.96,6.97-10.61.59-.91,1.14-1.78,1.66-2.62.51-.83,1.07-1.78,1.65-2.85l3.31-5.47,3.31-5.92,3.07-6.6,1.3-3.86c.73-1.37,1.16-3.03,1.29-4.99l.43-1.59-.03-1.81c.14-.45.21-1.21.19-2.26l-.49-2.93c-.16-.6-.32-1.2-.48-1.8-.16-.6-.39-1.27-.7-2.02-.32-.75-.67-1.46-1.05-2.13-.39-.67-.96-1.38-1.72-2.12-1.23-1.34-2.6-2.45-4.12-3.33-.76-.44-1.48-.81-2.16-1.1-.68-.29-1.33-.58-1.93-.88l-3.62-.63-2.71.04c-.76.01-1.58.17-2.48.49-.76.01-1.43.17-2.03.48l-1.8.7-1.35.7-1.34.92-1.79,1.38c-.3.16-.75.54-1.34,1.15-.45.31-.82.69-1.11,1.15-.3.46-.59.84-.89,1.14l-2.89,3.66-1.98,3.42c-1.18,1.83-2.28,3.95-3.3,6.38l-2.85,5.92-5.03,12.05-4.35,11.82-3.9,12.04c-.73,1.67-1.35,3.41-1.85,5.23-.5,1.82-1.04,3.56-1.62,5.22-4.7,13.56-15.96,26.71-22.56,39.62-8.38,16.4-16.03,33.17-24.65,49.45-14.85,28.04-33.24,55.33-59.69,72.86-4.18-9.51-4.04-20.82.38-30.23.46-.98,13.79-4.4,15.85-5.59,5.38-3.1,10.14-7.3,13.97-12.18,7.2-9.17,11.24-22.44,13.67-33.68.28-1.06.53-2.16.74-3.29.21-1.13.45-2.3.74-3.51.42-2.41.61-4.98.57-7.69-.01-.75-.02-1.5-.03-2.26-.01-.75-.1-1.5-.26-2.26l-.49-2.71-.72-2.93-1.64-3.59-1.16-1.79c-.16-.3-.35-.63-.58-1.01-.23-.37-.5-.71-.81-1.01-1.07-1.19-2.52-2.45-4.35-3.78-1.98-1.18-3.87-1.98-5.68-2.4-1.21-.28-2.12-.42-2.72-.41-.31-.14-.76-.22-1.36-.21l-2.49.04c-.45,0-.83.09-1.13.24-.3,0-.64.05-1.02.13-.38.08-.71.12-1.01.13-2.7.8-4.95,1.73-6.74,2.81-1.05.47-1.91.97-2.58,1.51-.67.54-1.38,1.11-2.12,1.73-1.19.77-2.31,1.84-3.34,3.21-1.04,1.07-1.97,2.1-2.78,3.09-.81.99-1.59,2.1-2.33,3.31l-1.99,2.97-1.76,3.19c-1.17,2.13-2.2,4.18-3.07,6.15-.88,1.97-1.75,4.02-2.62,6.14-2.82,6.95-5.05,14.18-6.7,21.69-1.3,2.27-2.59,4.52-3.85,6.71-1.84,3.19-3.79,6.38-5.85,9.58-.88,1.67-1.84,3.23-2.87,4.68-1.04,1.45-2.07,2.93-3.1,4.45l-.66,1.14v-.23s1.19-11.09,1.19-11.09l1.41-11.55.37-5.88c.13-1.05.2-2.07.18-3.05-.01-.98-.03-2.07-.05-3.28l-.05-3.39-.51-3.84-.48-2.03-.95-2.93c0-.3-.09-.56-.24-.79-.16-.22-.31-.48-.46-.79-.32-.9-.78-1.64-1.39-2.24-.31-.45-.66-.89-1.04-1.34-.38-.45-.88-.89-1.49-1.33l-2.05-1.33c-1.22-.58-2.13-.95-2.73-1.09-.15,0-.3-.03-.45-.11-.15-.07-.31-.11-.45-.11h-.23s-.45.01-.45.01c-.15,0-.38-.07-.68-.22h-.9c-1.06-.12-2.03-.03-2.93.28h-.9s-.45.25-.45.25c-.15,0-.3.08-.45.23h-.22s-.45.24-.45.24h-.22s-.22.23-.22.23l-1.8.7-1.12.7-2.01,1.38c-.59.61-1.12,1-1.56,1.15l-2.45,2.3-2.23,2.29c-1.64,1.53-3.09,3.02-4.34,4.47-1.26,1.45-2.56,2.94-3.89,4.46-1.33,1.53-2.63,3.01-3.89,4.46-1.26,1.45-2.48,2.94-3.67,4.46l-1.77,2.51,4.6-10.01,10.1-20.94,1.3-3.64c.85-3.93.12-7.61-2.19-11.04-2.31-3.43-5.43-5.57-9.36-6.42-3.93-.85-7.61-.15-11.05,2.08-3.43,2.24-5.57,5.39-6.42,9.47-.85,3.63-1.7,7.3-2.55,11-.85,3.71-1.77,7.45-2.78,11.23-.79,2.85-1.57,5.71-2.36,8.56l-.66.98-3.09,5.02-1.55,2.28-1.55,2.51-3.32,4.79-3.1,4.57-6.64,9.59-3.33,4.57-3.32,4.79-3.55,4.57-3.32,4.57-3.55,4.57-2,2.74c.13-1.21.31-2.3.52-3.28.21-.98.46-2.08.74-3.29.13-1.81.55-3.63,1.28-5.44l1.28-5.44,1.5-5.45,1.73-5.45c.57-1.82,1.15-3.63,1.73-5.45.57-1.82,1.22-3.63,1.96-5.45.57-1.82,1.19-3.59,1.84-5.34.65-1.74,1.34-3.52,2.07-5.34l1.09-2.73,1.09-2.5,1.09-2.73.66-1.14.43-1.36c.29-.76.58-1.51.87-2.27.29-.76.51-1.51.65-2.27.39-4.22-.72-7.94-3.32-11.14-2.61-3.2-5.95-5-10.02-5.39-4.08-.54-7.71.49-10.92,3.1-3.2,2.61-5,5.95-5.39,10.02v.23s-.82,5.89-.82,5.89l-.59,5.89-.28,2c-1.67,2.83-3.33,5.65-4.99,8.48-2.06,3.5-4.16,6.88-6.3,10.15-2.14,3.27-4.39,6.51-6.75,9.7l-6.87,9.37c-2.53,2.75-5.12,5.42-7.8,8.02-.75.61-1.42,1.19-2.01,1.72-.59.54-1.27,1.03-2.01,1.5l-2.01,1.39c.73-1.52,1.54-3,2.42-4.44.88-1.44,1.84-3,2.87-4.68,3.98-6.39,7.95-13,11.92-19.84.44-.76.88-1.59,1.32-2.51.44-.91.95-1.74,1.55-2.51.44-.91.88-1.82,1.32-2.73.44-.91.95-1.82,1.54-2.73l2.63-5.46c.44-1.06.88-2.05,1.31-2.96.44-.91.8-1.97,1.08-3.18l1.31-3.18,1.08-3.86c.14-.75.28-1.55.42-2.38.14-.83.2-1.77.18-2.83l-.06-3.84-.72-2.7c-.32-1.05-.79-2.1-1.4-3.14-.31-.6-.7-1.19-1.16-1.79l-1.38-1.79c-.61-.59-1.22-1.11-1.83-1.56-.61-.44-1.22-.81-1.82-1.1-1.22-.73-2.51-1.24-3.86-1.53-1.51-.28-2.57-.41-3.17-.41l-3.39.05-2.7.49c-.9.16-1.77.37-2.59.6-.83.24-1.61.51-2.36.83l-4.04,2.09c-2.54,1.54-4.7,3.23-6.48,5.07l-4.89,5.49-3.76,5.48-1.54,2.73-1.54,2.96-2.63,5.69-2.63,5.46c-.43,1.21-.91,2.35-1.42,3.41-.51,1.06-.98,2.2-1.42,3.41l15.65-59.22c.43-1.81.18-3.54-.75-5.19-.93-1.64-2.3-2.83-4.12-3.56-1.97-.72-3.85-.58-5.64.42-1.79,1.01-2.98,2.49-3.55,4.46l-89.3,281.34-1.09,2.95-.22.68c-.85,3.93-.27,7.61,1.74,11.05,2.01,3.44,4.98,5.65,8.91,6.65,3.94,1.15,7.62.68,11.05-1.4,3.44-2.08,5.73-5.09,6.88-9.03l41.58-157.69,7.62-20.23c1.46-3.49,2.95-6.97,4.48-10.46,1.53-3.49,3.18-6.97,4.93-10.47l5.51-10.02c.44-.76.88-1.56,1.32-2.39.44-.83.95-1.63,1.55-2.4.44-.91.91-1.74,1.43-2.51.52-.76.99-1.52,1.44-2.28,2.21-3.34,4.5-6.39,6.88-9.14l3.78-4.12,1.79-1.61-.88,1.82c-.73,1.67-1.46,3.41-2.18,5.23-.73,1.82-1.46,3.64-2.18,5.46-.73,1.82-1.45,3.64-2.18,5.46-.73,1.82-1.45,3.71-2.18,5.68l-1.95,5.68-1.49,6.12c-.58,1.97-1,4.16-1.26,6.57-.14.76-.24,1.44-.31,2.04-.07.6-.1,1.28-.08,2.04.01.9.1,1.66.26,2.26,0,.6.17,1.66.5,3.16l.47,1.35c.78,2.1,2.23,3.36,4.35,3.78.76.29,1.48.47,2.16.53.68.07,1.39.17,2.15.31,1.51.13,3.01.11,4.52-.07,2.86-.19,5.49-.83,7.88-1.92,1.2-.62,2.36-1.2,3.48-1.75,1.12-.54,2.13-1.2,3.02-1.96,2.09-1.39,3.95-2.84,5.59-4.37,3.13-2.76,6.09-5.96,8.9-9.62,2.81-3.35,5.4-6.71,7.77-10.06.75-1.05,1.49-2.1,2.21-3.15l-.59,5.84-.59,5.89c-.27,2.12-.43,4.19-.48,6.22-.04,2.03-.13,4.11-.25,6.22.01,1.06.03,2.11.05,3.16.01,1.06.11,2.18.28,3.39,0,.6.06,1.21.14,1.81.09.6.21,1.28.37,2.03l.71,2.25c.16.3.31.67.47,1.12.16.45.39.97.7,1.57l.93,1.57c.31.3.61.59.92.89.31.3.61.59.92.89.46.45,1.3.96,2.51,1.55l2.95.64,1.58-.02c.15,0,.3-.04.45-.12.15-.08.38-.12.68-.12.3-.16.53-.23.67-.24.15,0,.3-.08.45-.23h.45s.22-.24.22-.24l.22-.23c.15,0,.38-.16.67-.46l.9-.46.45-.46,1.56-1.6,2-2.52,1.77-2.51c1.18-1.67,2.33-3.27,3.43-4.8,1.11-1.52,2.25-3.12,3.44-4.8l6.64-9.59,6.41-9.04c-.43,1.22-.85,2.44-1.29,3.65-1.31,3.56-2.61,7.08-3.92,10.57l-3.92,10.45-1.09,2.5v.23s-.44.68-.44.68l-.89,1.14c-.14.3-.29.57-.44.8-.14.23-.29.49-.44.8l-.67.91-.22.23v.45s-.44.46-.44.46v.45c-.14,0-.22.15-.21.45l-.43,1.36c.16.3.13.86-.09,1.7-.21.83.3,2.29,1.53,4.39.92,1.19,1.88,2.04,2.86,2.56.99.51,1.93.8,2.84.86.9.06,1.96-.07,3.16-.38.75-.16,1.43-.4,2.02-.71.27-.28.35-.36.25-.26.05-.05.11-.11.2-.2.45-.16.67-.31.67-.46l.89-.69.89-.92.44-.68.66-1.14c.3-.31.44-.54.44-.68l.88-1.59,1.54-2.73,2.66-3.66,6.88-8.91c4.74-5.79,9.63-11.55,14.67-17.28,5.04-5.72,10.16-11.34,15.35-16.83l7.57-8.02,7.79-8.25,1.11-1.15v.68s.85,11.29.85,11.29l.85,11.74c.01,1.06.07,2.07.16,3.05.09.98.22,2,.38,3.05,0,.6.05,1.17.14,1.69.08.53.13,1.09.14,1.69l.73,3.38.71,2.02.94,2.7.93,1.57c.61.89,1.23,1.56,1.84,2.01.3.15.76.52,1.37,1.11l1.82.65c.91.29,1.59.43,2.04.42.45.15,1.13.21,2.04.2l2.7-.72,1.79-.93c.9-.46,1.57-1,2.01-1.61l2.9-2.53,2.22-2.74c.3-.3.59-.69.89-1.14.3-.46.59-.91.89-1.37.67-.69,1.24-1.42,1.72-2.17-.01.38-.02.77-.04,1.13-.06.98-.08,2.07-.07,3.28-.12,2.11-.13,4.3-.02,6.56.11,2.26.33,4.52.66,6.77.17,1.21.34,2.41.51,3.61.17,1.2.41,2.4.73,3.61l1.18,3.83c.31.75.62,1.38.93,1.91.31.52.62,1.16.93,1.91.46.75.93,1.42,1.39,2.01.46.59,1,1.26,1.61,2.01,1.37,1.34,2.9,2.52,4.57,3.55,1.67.73,3.49,1.23,5.45,1.5.15,0,.27.03.34.11.08.07.19.11.34.11l2.03-.03c1.06-.01,1.89-.11,2.48-.26.76-.01,1.47-.1,2.14-.26.68-.16,1.39-.4,2.14-.71l3.59-1.41,3.37-1.86,2.91-2.08c3.58-2.46,6.93-5.38,10.04-8.73,1.64-1.53,3.12-3.06,4.46-4.58,1.33-1.52,2.67-3.13,4-4.8,1.33-1.68,2.67-3.32,4-4.92,1.33-1.6,2.59-3.24,3.77-4.91l7.09-9.82c1.18-1.67,2.32-3.38,3.43-5.13,1.1-1.75,2.25-3.46,3.43-5.13,2.36-3.35,4.61-6.73,6.75-10.16,4.23-6.76,8.45-13.53,12.44-20.43,3.82-6.61,6.75-15.64,11.56-21.34.15,6.09-2.71,13.32-4.1,19.34-1.56,6.73-3.05,13.49-4.45,20.29-.85,3.93-1.7,7.94-2.54,12.02-.85,4.08-1.61,8.09-2.31,12.01-.69,4.08-1.39,8.16-2.08,12.23-.69,4.08-1.39,8.16-2.08,12.24-.72,2.12-.32,3.99,1.21,5.63,1.23,1.19,2.67,1.84,4.32,1.97,1.66.12,3.08-.35,4.27-1.42l1.33-1.38,1.34-1.15,2.45-2.3,5.13-4.82c1.63-1.68,3.26-3.36,4.9-5.04,1.63-1.68,3.26-3.36,4.9-5.04,3.26-3.36,6.42-6.76,9.46-10.19,3.04-3.43,6.04-6.9,9-10.41,2.96-3.51,5.89-7.13,8.77-10.86,2.89-3.73,5.73-7.5,8.54-11.31,2.66-3.8,5.28-7.65,7.86-11.53,1.99-2.99,3.89-6.02,5.75-9.05.46-.37.88-.8,1.22-1.33v-.23c1.32-1.98,2.65-3.92,3.98-5.82,1.33-1.9,2.73-3.84,4.21-5.82-1.56,6.8-3.12,13.57-4.68,20.3-1.56,6.73-3.05,13.49-4.45,20.29-.85,3.93-1.69,7.93-2.54,12.02-.85,4.08-1.61,8.09-2.31,12.01-.69,4.08-1.39,8.16-2.08,12.24-.69,4.08-1.39,8.16-2.08,12.24-.72,2.12-.32,3.99,1.21,5.63,1.23,1.19,2.66,1.84,4.32,1.97,1.66.12,3.08-.35,4.27-1.42l1.34-1.38,1.34-1.15,2.45-2.3,5.13-4.82c1.63-1.68,3.26-3.36,4.9-5.04,1.63-1.68,3.26-3.36,4.9-5.04,3.26-3.36,6.42-6.76,9.46-10.19,3.04-3.43,6.04-6.9,9-10.41,2.96-3.51,5.89-7.13,8.77-10.86.44-.57.88-1.15,1.32-1.73l-.9,7.49-.59,5.89-.59,5.89c-.27,2.12-.43,4.19-.48,6.22-.04,2.03-.13,4.11-.25,6.22.01,1.05.03,2.11.04,3.16.02,1.06.11,2.18.28,3.39.01.6.06,1.21.14,1.81.09.6.21,1.28.37,2.03l.71,2.25c.16.3.31.67.47,1.12.16.45.39.97.7,1.57l.93,1.57c.31.3.61.59.92.89.31.3.61.59.92.89.46.45,1.3.96,2.51,1.55l2.95.64,1.58-.02c.15,0,.3-.04.45-.12.15-.08.38-.12.67-.12.3-.16.53-.23.68-.24.15,0,.3-.08.45-.23h.45s.22-.24.22-.24l.22-.23c.15,0,.37-.16.67-.46l.9-.46.45-.46,1.55-1.6,2-2.52,1.77-2.51c1.18-1.67,2.33-3.27,3.43-4.8,1.11-1.52,2.25-3.12,3.44-4.8l6.64-9.59,6.65-9.36,9.96-14.38,3.33-4.57,3.32-4.79,1.72-2.21c1,2.62,2.1,5.22,3.33,7.78,1.25,3,2.61,5.92,4.08,8.76,1.48,2.84,2.99,5.69,4.53,8.52l1.16,2.02.7,1.12.46.67,1.4,2.92.7,1.57-9.74,14.38c-1.48,2.13-2.92,4.34-4.32,6.62-1.4,2.28-2.76,4.56-4.08,6.84-2.8,4.41-5.29,9.27-7.47,14.57v.23c-1.02,1.97-.92,4,.32,6.1.93,1.79,2.34,2.98,4.23,3.56,1.89.57,3.74.4,5.53-.53l.67-.24.67-.46c.15,0,.53-.16,1.12-.47.9-.62,1.65-1.01,2.24-1.16l4.04-2.54c1.49-.93,2.91-1.85,4.25-2.77,1.34-.92,2.61-2,3.8-3.22,2.68-2,5.21-4.37,7.58-7.12,1.18-1.22,2.3-2.52,3.33-3.89,1.04-1.37,2.07-2.89,3.1-4.56.87-1.67,1.72-3.38,2.52-5.12.8-1.74,1.42-3.52,1.85-5.34,1.14-4.09,1.69-8.08,1.63-12-.02-1.05-.07-2.07-.15-3.05-.09-.98-.22-1.99-.39-3.05,2.95-3.96,5.84-7.99,8.64-12.1,2.81-4.11,5.54-8.29,8.18-12.55,2.95-4.41,5.79-8.82,8.52-13.23,2.72-4.41,5.33-8.89,7.83-13.45,1.18-1.83,1.45-3.75.82-5.78h0Z"/>
  </g>
  <path class="cls-1" d="m473.61,205.32c3.21,1.4,6.46,1.47,9.73.23,3.27-1.25,5.61-3.47,7-6.69l5.24-11.94c.55-1.38.94-3.05,1.18-5.02.16-4.08-1.1-7.69-3.77-10.84-2.68-3.15-6.12-4.8-10.35-4.95-4.08-.16-7.65,1.1-10.72,3.77-3.07,2.67-4.76,6.12-5.07,10.35l-.69,12.69c-.21,2.57.36,5,1.72,7.29,1.36,2.29,3.27,4,5.72,5.11h0Z"/>
  <path class="cls-1" d="m626.2,391.51l-.05-.05v-.11s-.06-.21-.06-.21l-.11-.31-.17-.74c0-.21-.04-.46-.12-.74,0-.14-.01-.27-.03-.4-.02-.12-.03-.25-.03-.4-.09-.98-.06-1.99.1-3.01l.29-1.49.44-1.49c.33-.89.74-1.81,1.21-2.77.95-1.74,2.08-3.35,3.39-4.82.65-.72,1.34-1.4,2.04-2.05.71-.65,1.43-1.28,2.15-1.89.76-.65,1.52-1.23,2.29-1.74.38-.29.77-.56,1.17-.82.4-.25.79-.51,1.17-.76,1.53-.95,3.17-1.84,4.91-2.69,1.67-.84,3.38-1.6,5.13-2.27,1.75-.67,3.51-1.27,5.3-1.8.87-.26,1.76-.51,2.65-.74.89-.23,1.8-.44,2.71-.64.91-.19,1.82-.37,2.74-.53.91-.16,1.82-.3,2.74-.43,1.86-.25,3.71-.43,5.54-.54,1.83-.11,3.69-.15,5.6-.11,1.9.07,3.78.21,5.63.44,1.85.23,3.7.57,5.54,1.02.92.23,1.83.48,2.74.76.9.28,1.82.61,2.74.97.89.37,1.77.77,2.64,1.19.87.42,1.72.91,2.54,1.45.82.51,1.61,1.07,2.38,1.67.77.6,1.51,1.25,2.23,1.93.36.38.7.75,1.03,1.12.32.36.63.73.92,1.12l.22.31.22.26c.07.1.15.21.22.31.07.1.14.19.22.26l.76,1.2c.51.83.99,1.69,1.42,2.56.44.87.81,1.78,1.11,2.72.15.45.29.91.43,1.37.13.45.24.93.32,1.42.08.49.14.98.19,1.47.04.49.09.98.14,1.48.01.49,0,.98-.02,1.45-.03.48-.07.96-.13,1.46-.09.88-.26,1.82-.52,2.81-.26,1.03-.58,1.93-.95,2.71-.37.92-.77,1.78-1.22,2.56-.44.75-.94,1.53-1.48,2.35-.27.39-.56.77-.85,1.13-.29.36-.59.72-.9,1.08-1.2,1.4-2.5,2.69-3.88,3.88-1.42,1.19-2.88,2.28-4.4,3.26-1.51.98-3.09,1.88-4.72,2.69-1.64.81-3.3,1.52-4.97,2.14-1.68.62-3.41,1.15-5.2,1.61-.88.19-1.75.39-2.63.58-.88.19-1.77.35-2.68.48-.91.12-1.81.23-2.69.32-.88.09-1.78.14-2.69.16-1.83.07-3.65.04-5.47-.1-1.82-.14-3.63-.38-5.43-.73-.39-.06-.68-.25-.88-.56-.2-.31-.27-.66-.21-1.05.06-.39.25-.68.56-.88.31-.2.66-.27,1.05-.21.03,0,.05,0,.05.02,0,.02.02.03.05.03,3.36.85,6.75,1.23,10.17,1.16.88-.02,1.75-.05,2.61-.11.86-.05,1.71-.14,2.56-.26.88-.12,1.74-.26,2.58-.42.84-.16,1.68-.35,2.52-.58,1.68-.42,3.33-.93,4.93-1.53,1.61-.6,3.18-1.3,4.71-2.1,1.57-.81,3.06-1.68,4.46-2.63,1.41-.94,2.75-1.99,4.03-3.15l1.87-1.78,1.65-1.94c.28-.32.52-.65.75-.99.22-.34.45-.69.69-1.04.24-.36.46-.71.66-1.07.2-.36.41-.73.61-1.12.17-.39.33-.77.48-1.14.15-.37.31-.75.48-1.15.13-.39.26-.78.37-1.17.11-.39.2-.78.27-1.17l.19-1.17c.03-.21.05-.41.07-.61.01-.19.02-.4.01-.61.03-.21.04-.41.04-.61,0-.19,0-.4-.01-.61,0-.18,0-.37-.01-.58,0-.21-.03-.4-.06-.58-.21-1.58-.61-3.1-1.2-4.57-.63-1.43-1.45-2.8-2.46-4.12l-.76-.94-.43-.47-.16-.21-.11-.1v-.05s-.11-.1-.11-.1c-.5-.52-1.08-1.03-1.72-1.55-.61-.52-1.24-.98-1.9-1.39-.66-.41-1.35-.8-2.06-1.17-1.53-.74-3.02-1.33-4.47-1.76-.78-.23-1.57-.42-2.36-.58-.8-.16-1.6-.32-2.41-.48-1.62-.25-3.26-.42-4.9-.51-1.64-.09-3.3-.12-4.99-.08-1.69.03-3.36.14-5.01.31-1.65.18-3.32.39-5,.63-.81.16-1.63.31-2.47.45-.84.14-1.67.31-2.47.5-.81.19-1.62.4-2.44.6-.82.21-1.64.43-2.44.66-3.19.91-6.35,2.01-9.49,3.31-1.54.67-3.03,1.38-4.5,2.13-1.46.75-2.89,1.58-4.28,2.49-1.36.87-2.64,1.83-3.85,2.88-1.21.98-2.32,2.11-3.31,3.4-.48.61-.91,1.24-1.28,1.9-.37.66-.69,1.34-.96,2.05-.27.71-.46,1.45-.59,2.23l-.14,1.11v.63s-.04.12-.03.27v.32c.01.39-.11.72-.37.99-.26.27-.58.43-.97.47-.71.01-1.15-.31-1.34-.98h0Z"/>
  <path class="cls-1" d="m668.23,439.35l12.74-66.55c.13-.67.34-1.26.65-1.75.31-.5.67-.91,1.08-1.23.42-.32.88-.53,1.39-.63.51-.1,1.01-.06,1.51.1,1.03.34,1.82,1.08,2.37,2.23.55,1.15.72,2.37.5,3.67-.07.18-.1.32-.1.4l-17.32,64.76c-.13.49-.38.86-.74,1.09-.37.23-.74.26-1.13.09-.36-.17-.63-.47-.81-.89-.19-.42-.23-.86-.13-1.3h0Z"/>
  <path class="cls-1" d="m713.25,384.36l.2-2.96c.09-.99.49-1.79,1.22-2.4.73-.61,1.57-.89,2.52-.84.99.05,1.79.45,2.4,1.19.61.74.89,1.59.84,2.54-.06.46-.16.85-.29,1.17l-1.26,2.77c-.34.75-.89,1.26-1.66,1.54-.77.28-1.53.25-2.27-.09-.57-.27-1.01-.67-1.32-1.21-.31-.54-.44-1.11-.38-1.71h0Zm3.07,15.78l-.1.32-.15.27-.25.64-.25.59-.25.64c-.17.43-.33.84-.48,1.25-.15.41-.29.83-.42,1.25-.17.43-.32.85-.45,1.28-.13.43-.27.85-.4,1.28l-.4,1.28-.34,1.27-.29,1.27c-.17.43-.26.85-.29,1.27-.06.28-.12.54-.17.77-.05.23-.09.49-.12.77l.46-.64.82-1.07.77-1.07.82-1.07.77-1.13.77-1.07,1.54-2.25.72-1.07.77-1.13.36-.59.36-.54.71-1.18.36-.54.36-.59c.27-.39.52-.78.74-1.15.22-.37.43-.76.64-1.15.27-.43.65-.71,1.12-.84.47-.13.92-.08,1.35.16.43.27.71.64.84,1.09.13.45.06.9-.21,1.32,0,.07-.03.14-.1.21-.27.39-.55.76-.82,1.1-.28.34-.55.71-.82,1.1l-.41.54-.36.54c-.17.18-.32.37-.44.56-.12.2-.25.38-.38.56l-.36.54-.41.54-.77,1.12-.77,1.07-2.31,3.38-1.54,2.2-1.54,2.25c-.27.39-.54.77-.8,1.13-.26.36-.52.73-.8,1.13l-.41.59-.46.59-.36.38-.1.11-.21.11c-.07.07-.12.11-.16.11l-.05.05-.05.05h-.11s-.07.06-.11.06c-.03,0-.09.02-.16.06-.07,0-.12.01-.16.03-.04.02-.07.03-.11.03h-.37s-.69-.14-.69-.14c-.28-.13-.48-.25-.59-.36-.07-.07-.14-.14-.21-.21-.07-.07-.14-.14-.22-.21l-.22-.37c-.07-.14-.13-.26-.17-.37-.04-.11-.07-.19-.11-.26l-.17-.52c-.04-.18-.07-.33-.09-.47-.02-.14-.03-.28-.04-.42-.04-.28-.06-.54-.07-.79,0-.25-.01-.49-.01-.74.03-.49.04-.98.05-1.45,0-.48.04-.96.1-1.45l.13-1.38.13-1.38.63-5.51.37-2.75.13-1.38.18-1.38v-.05c.09-.95.5-1.74,1.25-2.35.74-.61,1.59-.86,2.55-.74.95.09,1.74.5,2.35,1.25.61.75.88,1.61.79,2.6-.03.18-.08.35-.15.53-.07.18-.13.36-.2.53h0Z"/>
  <path class="cls-1" d="m734.59,417.57l-.05-.05v.05s.05,0,.05,0h0Zm-10.51-20.28l12.14-5.48c.84-.37,1.67-.39,2.51-.05.83.34,1.45.9,1.86,1.71.22.52.3,1.06.25,1.61-.06.55-.23,1.05-.5,1.52l-.51.75-1.71,1.88-1.71,1.83-3.41,3.71-6.77,7.53c-.79.93-1.58,1.84-2.37,2.72-.79.88-1.58,1.77-2.37,2.66.07-.04.12-.06.16-.06.04,0,.07-.02.1-.05l3.09-1.54c.52-.22,1.06-.43,1.6-.64.54-.2,1.09-.4,1.65-.59.6-.19,1.18-.34,1.76-.46.58-.12,1.17-.22,1.76-.3.28-.04.58-.07.9-.1.32-.02.63-.02.95,0h.63s8.96-16.26,8.96-16.26c.24-.43.59-.71,1.06-.84.47-.13.9-.08,1.3.16.43.24.72.59.87,1.06.15.47.11.92-.13,1.35l-9.52,17.31-2.1.78h-.16s-.07,0-.11-.02c-.04-.02-.09-.02-.16-.02-.11,0-.21,0-.32-.02-.11-.02-.23-.02-.37-.02-.21,0-.43,0-.66.01-.23,0-.47.03-.71.07-.49.08-.97.17-1.45.27-.47.1-.96.22-1.45.37-.49.15-.97.32-1.44.51-.47.19-.95.37-1.44.56-.49.22-.96.44-1.41.66-.45.22-.91.48-1.36.77-.91.51-1.8,1.06-2.69,1.64-.89.58-1.76,1.18-2.63,1.8-.87.62-1.72,1.26-2.55,1.93-.83.67-1.64,1.36-2.44,2.08-.34.36-.75.53-1.23.53-.48,0-.88-.2-1.2-.58-.29-.28-.45-.59-.49-.94-.04-.35.02-.69.19-1.01l.05-.11.66-1.23c.1-.21.21-.41.33-.59.12-.18.23-.36.33-.54l1.43-2.2,2.92-4.23c.99-1.36,2-2.73,3.01-4.1,1.01-1.38,2.03-2.74,3.06-4.1l6.12-8.1.67-.91-3.95.66c-.49.08-.93-.02-1.33-.29-.39-.27-.63-.66-.71-1.15-.08-.42-.02-.8.16-1.14.19-.34.47-.6.86-.78h0Z"/>
  <path class="cls-1" d="m754.7,417.16l-.05-.05v.05s.05,0,.05,0h0Zm-10.5-20.28l12.14-5.48c.84-.37,1.67-.39,2.51-.05.83.33,1.45.9,1.86,1.71.22.52.3,1.06.24,1.61-.06.55-.23,1.05-.5,1.52l-.51.75-1.7,1.88-1.71,1.83-3.41,3.71-6.77,7.53c-.79.93-1.58,1.84-2.37,2.72-.79.88-1.58,1.77-2.38,2.66.07-.04.12-.05.16-.06.04,0,.07-.02.11-.05l3.09-1.54c.52-.22,1.06-.44,1.6-.64.54-.2,1.09-.4,1.65-.59.59-.19,1.18-.34,1.76-.46.58-.12,1.17-.22,1.76-.3.28-.04.58-.07.9-.1.32-.02.63-.02.95,0h.63s8.96-16.26,8.96-16.26c.24-.43.59-.71,1.07-.84.47-.13.9-.08,1.3.16.43.24.72.59.87,1.07.15.47.11.92-.13,1.35l-9.52,17.31-2.1.78h-.16s-.07,0-.11-.02c-.04-.02-.09-.02-.16-.02-.11,0-.21,0-.32-.02-.11-.02-.23-.02-.37-.02-.21,0-.43,0-.66.01-.23,0-.47.03-.71.07-.49.08-.97.17-1.45.27-.47.1-.96.22-1.44.37-.49.15-.97.32-1.44.51-.47.19-.95.37-1.44.56-.49.22-.96.44-1.41.66-.45.22-.9.48-1.36.77-.9.51-1.8,1.06-2.69,1.64-.89.58-1.76,1.18-2.63,1.8-.87.62-1.72,1.26-2.55,1.93-.83.67-1.65,1.36-2.44,2.08-.34.36-.75.53-1.23.53-.48,0-.88-.2-1.2-.58-.29-.28-.45-.59-.5-.94-.04-.35.02-.69.19-1.01l.05-.11.66-1.23c.1-.21.21-.41.33-.59.12-.18.23-.36.33-.53l1.43-2.2,2.92-4.23c.99-1.36,2-2.73,3.01-4.1,1.01-1.38,2.03-2.74,3.06-4.1l6.12-8.1.67-.91-3.95.66c-.49.08-.93-.02-1.33-.29-.39-.27-.63-.66-.71-1.15-.08-.42-.03-.8.16-1.14.19-.34.47-.6.86-.78h0Z"/>
  <path class="cls-1" d="m761,415.23v.05s.05-.05.05-.05h-.05Zm10.96-19.5h-.11s-.05.06-.05.06h-.21s-.37.17-.37.17c-.25.08-.54.24-.89.49l-.88.7c-.14.14-.28.28-.41.41-.14.13-.28.28-.41.46-.28.29-.55.6-.83.94-.28.34-.55.69-.82,1.05l-1.43,2.2c-.81,1.5-1.59,3.11-2.33,4.85l-.45,1.22c-.06.21-.13.43-.2.64-.06.21-.13.43-.2.64-.07.21-.13.43-.2.64-.07.21-.13.43-.2.64l-.29,1.27c-.07.21-.11.42-.12.64-.01.21-.03.42-.07.64-.03.21-.05.42-.07.64-.01.21-.02.41-.02.58v.37s.27-.27.27-.27l.36-.43c.07-.07.13-.16.18-.27.05-.11.11-.2.18-.27.07-.07.13-.15.18-.24.05-.09.11-.19.18-.29l.31-.53.31-.59c.2-.39.4-.79.58-1.2.18-.41.36-.83.53-1.25.17-.43.33-.85.48-1.28.15-.43.31-.87.47-1.33.13-.43.26-.86.4-1.3.13-.44.25-.89.34-1.35l.29-1.33c0-.07.01-.12.05-.16v-.47s.04.05.04.05c0-.03,0-.05.03-.05.02,0,.03-.02.02-.05,0-.14.01-.25.05-.32v-.32s.4-.75.4-.75c.37-.71.94-1.19,1.69-1.43.75-.24,1.48-.18,2.2.19.6.3,1.05.77,1.32,1.4.28.63.33,1.26.17,1.9v.05s-.05.05-.05.05v.16s-.04.32-.04.32l-.15.58,2.04-3.48,1.12-1.87c.21-.29.4-.59.59-.91.19-.32.38-.64.59-.96.27-.43.65-.7,1.14-.82.49-.12.95-.04,1.38.24.43.27.7.65.82,1.14.12.49.04.95-.24,1.38l-1.07,1.82-1.07,1.87-2.14,3.74-2.03,3.79-.97,1.87-.86,1.87c-.2.5-.55.86-1.06,1.08-.51.22-1.01.22-1.51-.02-.32-.1-.57-.29-.75-.57h-.05s-.27-.42-.27-.42l-.17-.37-.22-.52c-.07-.14-.12-.28-.14-.42-.02-.14-.05-.26-.09-.37l-.92,1.5c-.07.11-.14.21-.2.3-.07.09-.14.19-.2.29l-.46.64c-.1.21-.24.41-.41.59-.2.29-.38.5-.52.65-.31.43-.7.84-1.19,1.24l-.83.6-.63.22c-.07,0-.12.02-.16.06h-.21c-.11.04-.23.06-.37.06-.28,0-.58-.04-.9-.14-.28-.06-.55-.24-.8-.51-.11-.07-.2-.16-.3-.28-.09-.12-.17-.22-.24-.29l-.28-.58c-.07-.17-.13-.35-.17-.52-.04-.18-.08-.35-.12-.53-.04-.14-.06-.28-.06-.42,0-.14,0-.28,0-.42-.04-.28-.06-.55-.04-.82.01-.26.03-.54.06-.82,0-.25,0-.49.04-.74.03-.25.06-.49.09-.74l.23-1.48c.07-.25.12-.49.17-.72.05-.23.1-.47.17-.72.07-.25.12-.49.17-.72.05-.23.11-.47.17-.72l.34-1.43c.56-1.91,1.21-3.76,1.95-5.53.17-.46.35-.91.55-1.36.2-.44.4-.9.61-1.36.24-.46.47-.92.71-1.36.24-.44.49-.9.76-1.36.14-.25.27-.48.41-.69.14-.21.29-.43.46-.64l.98-1.39,1.29-1.29.73-.65.42-.33.16-.06.1-.11.21-.11c.8-.58,1.66-.79,2.6-.63.94.16,1.68.64,2.22,1.43.58.8.79,1.67.63,2.6-.16.94-.63,1.7-1.43,2.27-.31.22-.66.38-1.05.5h0Z"/>
  <path class="cls-1" d="m782.9,372.63l43.49-4.64,3.95-18.3c.13-.53.34-1,.63-1.41.29-.41.64-.74,1.06-1,.42-.26.87-.43,1.36-.53.5-.1,1.01-.08,1.53.05,1.03.23,1.83.78,2.41,1.67.58.89.76,1.84.53,2.87-.03.04-.05.11-.05.21l-4.28,15.67,79.06-8.49c1.06-.13,2,.14,2.82.81.83.67,1.28,1.53,1.38,2.59.13,1.05-.14,1.99-.81,2.82-.67.82-1.53,1.28-2.59,1.37h-.1s-81.02,5.73-81.02,5.73l-18.28,67.25c-.09.35-.31.62-.64.81-.33.18-.69.23-1.08.13-.36-.1-.63-.3-.81-.59-.18-.3-.24-.64-.18-1.03l14.12-66.11-42.3,2.98c-.39,0-.73-.12-1.01-.38-.29-.26-.43-.58-.44-.97-.04-.39.05-.71.3-.98.24-.27.55-.44.94-.52h0Z"/>
  <path class="cls-1" d="m837.58,396.02c.37-.82.73-1.62,1.11-2.4.37-.78.74-1.58,1.11-2.4.21-.39.41-.79.61-1.2.2-.41.39-.81.56-1.2l1.22-2.35,2.38-4.7.61-1.17.5-1.54c.27-.85.53-1.71.8-2.58.26-.87.54-1.73.84-2.58.17-.46.33-.9.5-1.33.16-.43.33-.87.5-1.33l.6-1.39c.07-.11.13-.22.2-.35.07-.12.14-.26.21-.4.03-.07.06-.14.1-.21.03-.07.09-.14.15-.21l.36-.54.26-.32.15-.16.21-.22.26-.22c.07-.07.13-.13.2-.16.07-.04.16-.09.26-.16l.63-.33c.11,0,.19-.02.26-.06.04,0,.07,0,.11-.03.03-.02.07-.03.1-.03.08,0,.12-.01.16-.03.03-.02.09-.03.15-.03h.63c.14-.02.25,0,.32.03.04,0,.07,0,.11.02.03.02.09.02.16.02h.15c-.07,0-.06,0,.02.02.09.02.15.04.19.07.14.03.28.08.43.15.14.07.28.14.43.2.29.17.53.38.75.62l.27.31.22.37c.15.21.25.41.3.6.06.19.11.36.15.5.07.18.11.32.12.45,0,.12,0,.24,0,.34v.53c0,.07,0,.14-.02.21-.02.07-.02.14-.02.21-.06.28-.09.49-.09.63l-.29.96c-.07.28-.15.54-.25.77-.1.23-.2.47-.3.72l-.61,1.33-1.32,2.46c-.2.43-.41.84-.63,1.23-.22.39-.46.78-.74,1.18-.17.25-.32.49-.43.72-.12.23-.26.45-.43.67-.53,1.56-1.04,3.11-1.54,4.65-.5,1.54-.98,3.11-1.44,4.7l-2.88,9.15c.27-.5.54-.98.82-1.44.27-.46.54-.93.81-1.39.17-.25.32-.49.43-.72.12-.23.26-.45.44-.67l.92-1.45.56-.7c.2-.29.41-.54.62-.75l.36-.43c.13-.07.22-.15.26-.22l.36-.27c.21-.14.4-.25.57-.33l.47-.17c.07-.04.19-.06.37-.06h.11s.03-.06.1-.06h.32s.11.04.11.04h.11c.07,0,.13,0,.19.02.05.02.11.02.19.02.35.13.6.25.74.36.25.14.43.27.53.41.11.07.24.21.38.41.08.07.15.17.22.31l.16.31.17.52c.04.14.06.26.08.37.02.11.03.21.03.32.04.14.06.33.07.58v.53c0,.18.02.33.02.48,0,.14,0,.3-.04.48,0,.18,0,.33-.02.45-.02.12-.02.27-.02.45l-.22,1.64-.29,1.64c-.09.53-.2,1.06-.31,1.59-.12.53-.24,1.06-.36,1.59-.07.21-.1.37-.1.48l6.57-9.22c.24-.32.55-.52.94-.6.39-.08.76.02,1.12.29.32.24.52.55.6.94.08.39-.02.76-.29,1.12l-11.86,16.72c-.28.32-.61.52-.99.6-.39.08-.76,0-1.11-.24-.54-.41-.73-.94-.56-1.57,0-.18.03-.44.09-.79,0-.18.02-.44.09-.79l.05-.37.05-.42.09-.79.42-3.07.69-5.09c-.45.68-.87,1.35-1.25,2.01-.39.66-.8,1.33-1.2,2.01l-3.17,5.4-3.21,5.45c-.58.93-1.14,1.84-1.66,2.73-.53.89-1.08,1.78-1.66,2.68-.13.39-.36.66-.7.81-.33.15-.67.15-1.03.02-.32-.13-.56-.34-.73-.62-.16-.28-.22-.58-.15-.89l.05-.27c.03-.21.05-.43.06-.66.02-.23.05-.45.12-.66l.09-.64.09-.69c.1-.42.19-.86.26-1.3.09-.44.15-.87.22-1.3.15-.88.32-1.76.47-2.62.16-.87.33-1.74.53-2.63.36-1.73.7-3.47,1.06-5.2.35-1.73.72-3.47,1.11-5.2l.67-3.08-.93,1.02c-.28.29-.63.43-1.04.44-.43,0-.78-.12-1.07-.4-.25-.21-.4-.47-.46-.78-.06-.32-.02-.62.12-.9h0Z"/>
  <path class="cls-1" d="m866.49,397.49l-.15.27-.15.32-.31.59-.56,1.17-1.01,2.4-.9,2.45c-.13.43-.26.84-.4,1.25-.13.41-.25.82-.34,1.25-.13.39-.26.8-.37,1.22-.12.42-.2.85-.26,1.27l-.29,1.22-.19,1.27-.13,1.16c0,.21,0,.41-.02.58-.02.18,0,.35.04.53v.05c.14-.07.33-.24.57-.49l.72-.86c.14-.14.26-.3.36-.46.11-.16.21-.33.31-.51.14-.14.26-.32.36-.54l.3-.53.61-1.07c.21-.39.4-.77.59-1.15.19-.37.36-.76.53-1.15.34-.82.65-1.62.93-2.42.29-.8.56-1.6.83-2.42l.69-2.5c.06-.21.11-.42.14-.64.03-.21.09-.42.15-.64l.05-.21v-.21l.05.05.05-.26.05-.32.05-.16v-.16c.05-.88.41-1.6,1.07-2.16.66-.56,1.41-.81,2.25-.76.74.06,1.38.31,1.89.75.52.45.86,1.02,1.01,1.72.19.81.22,1.58.1,2.32-.13.74-.22,1.24-.29,1.49-.1.28-.19.58-.28.9-.08.32-.15.64-.22.96-.06.28-.12.58-.16.9-.05.32-.1.64-.17.95-.06.32-.11.63-.14.93-.02.3-.05.61-.09.93-.06.28-.09.58-.09.9,0,.32.02.62.02.9l.02.63.41-.48c.11-.07.21-.17.31-.3.11-.13.19-.24.26-.35l.56-.7.56-.8.51-.75c.34-.54.67-1.08,1-1.63.32-.55.62-1.11.89-1.68.58-1.07,1.14-2.22,1.67-3.47.17-.28.31-.58.41-.88.1-.3.22-.59.35-.88.07-.21.13-.37.2-.48l.15-.43.15-.48.1-.21s0-.07.02-.11c.02-.04.02-.07.02-.11.17-.5.46-.86.87-1.1.42-.24.87-.27,1.38-.11.46.13.8.41,1.04.82.24.42.29.88.16,1.37-.07.18-.14.3-.21.37v.05l-.25.43-.26.48-.51.86-.92,1.71-1.93,3.47c-.3.6-.62,1.18-.94,1.74-.32.55-.66,1.13-.99,1.74l-.56.86-.51.86c-.21.29-.4.57-.6.86-.19.29-.4.57-.64.86l-.72.86-.46.38c-.18.18-.36.32-.57.43-.21.14-.46.27-.73.38l-.53.17h-.73c-.18-.02-.33-.06-.46-.11-.12-.05-.26-.11-.4-.18-.29-.2-.46-.36-.53-.46-.11-.1-.23-.26-.38-.47-.04-.07-.06-.13-.08-.18-.02-.05-.06-.11-.13-.18l-.28-.68-.17-.58-.29-1.05c-.21.29-.35.5-.41.64l-1.49,2.3c-.55.82-1.08,1.59-1.59,2.3l-.93,1.13-1.03,1.13c-.21.18-.42.35-.63.52-.21.16-.45.33-.73.52-.32.18-.61.33-.89.44l-.58.17c-.1,0-.19.02-.26.06h-.68c-.22.02-.37,0-.48-.03-.29-.1-.59-.24-.9-.4-.26-.17-.46-.4-.65-.67l-.38-.57c-.08-.18-.13-.35-.17-.53-.04-.18-.08-.33-.12-.47-.04-.18-.07-.32-.09-.45-.02-.12-.03-.27-.03-.45-.04-.28-.06-.53-.07-.76,0-.23,0-.48-.02-.76l.08-1.43.13-1.38.18-1.38c.06-.46.12-.91.19-1.35.06-.44.12-.89.19-1.35l.84-5.35.36-2.7c.07-.25.11-.48.12-.69.02-.21.04-.44.07-.69l.08-.69.05-.32.05-.37v-.16c.12-.92.55-1.68,1.28-2.27.73-.6,1.56-.83,2.52-.71.91.12,1.67.55,2.27,1.27.6.73.84,1.55.71,2.47-.02.49-.17.95-.45,1.38h0Z"/>
  <path class="cls-1" d="m884.76,399.6c-.27.39-.55.8-.82,1.23-.27.43-.54.87-.82,1.34-.27.46-.53.92-.77,1.36-.23.45-.47.92-.7,1.42l-.71,1.39-.6,1.49c-.2.5-.39.99-.56,1.46-.16.48-.29.97-.39,1.46l-.15.69c-.03.14-.05.27-.07.37-.02.11-.02.21-.02.32v.48c.19-.11.32-.25.43-.43l.93-1.18.87-1.29c.28-.46.54-.93.8-1.39.26-.46.52-.94.79-1.44l1.36-2.93c.37-.82.73-1.66,1.08-2.53.36-.87.7-1.73,1.04-2.58-.43-.13-.73-.25-.9-.35l-.77,1.13h0Zm-5.96,13.22l-.05.05s.05-.02.05-.05h0Zm9.93-20.75s.02-.07.05-.11l.05-.16v-.11c.16-.5.46-.86.9-1.08.43-.22.9-.25,1.4-.08.46.17.8.45,1.02.85.22.4.26.83.13,1.29l-.05.11-.05.11h.05s-.1.16-.1.16l-5.21,19.44c.41-.75.83-1.49,1.25-2.22.43-.73.86-1.47,1.3-2.22,1.32-2.28,2.68-4.53,4.08-6.74,1.4-2.21,2.84-4.41,4.31-6.59.27-.39.63-.64,1.07-.74.43-.1.85,0,1.25.27.36.28.58.61.68,1.02.09.4.02.8-.22,1.19-2.65,4.46-5.15,9-7.48,13.62-1.19,2.31-2.33,4.63-3.43,6.96-1.1,2.33-2.15,4.68-3.16,7.06-1.04,2.35-2.04,4.71-3,7.09-.95,2.38-1.88,4.79-2.78,7.24l-2.49,7.29-1.19,3.67-.54,1.86-.25.9v.05l-.25.85-.05.16c-.29.92-.87,1.59-1.7,2.02-.84.42-1.72.48-2.64.19-.92-.3-1.59-.87-2.02-1.7-.42-.84-.48-1.72-.19-2.64l.15-.43v-.05l.1-.21,11.87-36.37c-.1.07-.2.17-.31.3-.1.12-.22.24-.36.35l-.41.38-.53.33c-.28.15-.54.24-.78.28l-.85.02-.1-.05h-.05c-.22-.06-.37-.13-.48-.2-.18-.03-.32-.12-.43-.26-.14-.1-.26-.22-.37-.36l-.27-.36c-.15-.28-.24-.49-.28-.63-.08-.1-.12-.21-.12-.31s-.02-.21-.05-.32c-.04-.17-.07-.35-.09-.53-.02-.17-.03-.35-.04-.53l-.02-.95c0-.18,0-.33.02-.48.02-.14.02-.28.02-.42.03-.32.06-.63.09-.93.03-.3.08-.59.14-.87l.29-1.75c.06-.28.12-.56.16-.85.05-.28.11-.56.17-.85l.39-1.7c.13-.57.28-1.12.44-1.67.17-.55.33-1.11.49-1.67.2-.57.4-1.12.6-1.65.2-.53.43-1.08.7-1.65l.87-1.66.56-.86c.07-.14.16-.28.29-.4.12-.13.23-.28.33-.46.14-.14.28-.29.42-.43.13-.14.29-.31.46-.48l.67-.49c.14-.07.28-.16.42-.25.14-.09.32-.17.53-.25.18-.07.4-.15.68-.23.11-.04.25-.06.43-.06h.15s.11-.06.11-.06h.15c.32,0,.69.04,1.11.13l.63.14.64.3.64.46v.05l.05-.11h0Z"/>
  <path class="cls-1" d="m902.13,394.22l.05-.11s-.05.02-.05.05l-.1.16.1-.11h0Zm-.33,1.65c0,.28.02.56.05.84.02.28.05.56.09.84.08.6.2,1.2.36,1.82.15.61.34,1.22.56,1.81.19.56.38,1.11.59,1.65.2.54.42,1.07.64,1.6.44-.61.87-1.22,1.28-1.85.41-.62.81-1.26,1.22-1.9.65-1,1.28-2.01,1.87-3.02.6-1.02,1.18-2.04,1.76-3.07.24-.43.6-.71,1.07-.84.47-.13.91-.08,1.3.16.43.24.71.59.87,1.07.15.47.09.92-.19,1.35-.58,1.07-1.18,2.12-1.81,3.15-.63,1.04-1.28,2.07-1.97,3.1-.61,1-1.25,1.98-1.89,2.94-.65.96-1.31,1.91-2,2.84.04.25.07.48.09.71.02.23.03.47.04.71.02.91-.1,1.85-.36,2.81-.1.42-.24.84-.43,1.25-.19.41-.38.81-.58,1.2-.24.39-.48.75-.72,1.07-.24.32-.5.63-.77.91-.55.65-1.14,1.2-1.76,1.67-.28.29-.57.54-.88.76-.31.22-.64.44-.99.65l-.94.6c-.14.04-.32.13-.53.27-.14.07-.22.11-.26.11l-.15.11-.15.06c-.42.22-.85.26-1.29.13-.45-.13-.77-.41-1-.82-.29-.49-.32-.96-.08-1.42v-.05c.5-1.24,1.08-2.38,1.72-3.42.3-.53.62-1.07.94-1.6.32-.53.66-1.05,1-1.55l2.25-3.37-.16-.37-.33-.68-.11-.16-.16-.26-.28-.47c-.36-.66-.72-1.32-1.07-1.99-.35-.66-.67-1.34-.97-2.04-.7-1.43-1.24-2.9-1.62-4.4-.08-.39-.15-.79-.23-1.21-.08-.42-.14-.84-.19-1.26-.04-.25-.06-.47-.07-.69,0-.21,0-.44-.02-.69,0-.25,0-.49.02-.74s.03-.49.06-.74c.07-.28.12-.57.17-.85.05-.28.12-.57.22-.85l.41-.91c.1-.18.2-.34.3-.48.11-.14.22-.3.36-.48.24-.29.59-.61,1.04-.97.49-.33,1.01-.57,1.57-.72.28-.08.58-.13.9-.15.31-.02.63,0,.95.06.53.09,1.06.28,1.59.55l1.23.87c.54.38.86.9.96,1.57.1.67-.04,1.29-.41,1.86-.14.21-.31.39-.52.54l-2.55,1.9c-.03.11-.05.27-.04.48h0Z"/>
</svg>