<?xml version="1.0" encoding="UTF-8"?>
<svg id="Layer_1" data-name="Layer 1" xmlns="http://www.w3.org/2000/svg" viewBox="0 0 960 448">
  <defs>
    <style>
      .cls-1 {
        fill: #fff;
        fill-rule: evenodd;
      }
    </style>
  </defs>
  <path class="cls-1" d="m531.1,271.22c-.24.4-.49.8-.73,1.19-.16-.08-.32-.16-.48-.25.19-.43.37-.86.55-1.29.22.11.44.23.65.35h0Z"/>
  <path class="cls-1" d="m430.45,154.8c-.42.27-.64.41-.86.56-.13-.23-.34-.46-.37-.71-.01-.13.32-.44.44-.41.23.05.42.28.79.56h0Z"/>
  <path class="cls-1" d="m152.78,177.66c.29-.14.46-.22.63-.31.07.17.19.34.2.52,0,.07-.25.25-.32.22-.16-.07-.29-.23-.52-.43h0Z"/>
  <path class="cls-1" d="m66.61,187.28c.25.22.5.34.52.48.02.13-.21.32-.36.42-.04.03-.32-.14-.32-.23-.02-.18.08-.36.17-.67h0Z"/>
  <path class="cls-1" d="m52.31,184.66c-.09-.25-.2-.44-.21-.64,0-.1.21-.32.24-.31.17.08.32.21.47.32-.09.11-.17.22-.5.63h0Z"/>
  <path class="cls-1" d="m190.19,190.53c.18.24.41.41.4.56-.01.15-.26.4-.4.4-.15,0-.39-.25-.4-.4-.01-.14.22-.31.41-.55h0Z"/>
  <g>
    <path class="cls-1" d="m594.24,187.5c.29.08.52.16.53.15.38-.91.73-1.82,1.09-2.74-.15-.06-.3-.11-.45-.17-.39.91-.78,1.82-1.18,2.76h0Zm-241.71-17.47c-.15-.05-.3-.1-.44-.15-.29.37-.63.72-.85,1.12-.25.45-.42.96-.53,1.46-.01.06.61.43.72.35.42-.3.9-.67,1.07-1.12.18-.49.04-1.1.04-1.66h0Zm-83.15-78.39c-1-2.42-1.96-4.59-2.79-6.81-.87-2.31-1.47-4.73-2.47-6.98-.97-2.17.17-4.78-1.63-6.98-.19.47-.38.74-.4,1.02-.21,2.22-.29,4.46-.6,6.66-.21,1.48-.64,2.94-1.15,4.35-.54,1.5-1.44,2.87-1.91,4.38-.99,3.2-1.8,6.45-3.47,9.39-.13.24-.07.59-.1.92,1.83.95,2.45-1.27,3.88-1.3,1.48-.03,2.96-.33,4.5-.53.22-2.11,1.45-2.79,3.27-2.99.96-.11,1.87-.71,2.89-1.12h0Zm3.81,11.37c-2.84.41-4.42,2.3-5.9,4.3-.8,1.08-1.68,2.02-3.12,1.9-2.46-.21-3.31,2.27-5.19,3.03-.18.07-.24.57-.27.88-.17,1.62.73,2.98,2.18,3.87,2.03,1.25,4.61,1.41,6.29,3.34.21.24.92.17,1.36.08,1.59-.35,2.71.36,3.39,1.65,1.63,3.11,4.48,4.37,7.6,5.31,1.18.36,2.16-.03,2.73-.94.69-1.09.03-2-.94-2.6-1.26-.78-1.49-1.92-1.51-3.29-.01-.93-.2-1.91-.55-2.78-1.27-3.18-2.66-6.32-3.97-9.48-.72-1.74-1.4-3.5-2.1-5.27h0Zm203.91,39.11c-.67.26-.86.27-.95.38-.31.36-.57.76-.86,1.13-.39.49-.78.98-1.17,1.47-1.72,2.16-3.78,4.14-5.07,6.53-1.25,2.32-2.56,4.58-4,6.77-1.21,1.85-.77,4.3.96,5.62,1.26.96,2.53,1.9,3.73,2.94.99.86,2,1.33,3.27.79,1.85-.79,3.42-.2,4.89.94.5.39.99.81,1.5,1.18,1.51,1.09,3.17,1.01,4.78.37,1.26-.5,1.7-1.43,1.21-2.71-.48-1.24-1.17-2.42-1.89-3.55-1.16-1.8-2.44-3.55-2.61-5.77-.21-2.75-.73-5.4-1.71-7.98-.56-1.47-.83-3.05-1.22-4.59-.28-1.12-.55-2.25-.86-3.51h0Zm-270.1,25.59c.23-1.07.38-1.93.61-2.76.73-2.68,1.51-5.36,2.23-8.05.09-.35.05-.84-.13-1.15-.94-1.63,0-2.68.99-3.81.84-.94,1.59-1.97,2.31-3.01.77-1.11,1.47-2.26,2.18-3.41,2.19-3.53,4.41-7.05,3.68-11.52-.08-.46.06-.96.01-1.44-.09-.91.2-1.67,1.09-1.89,2.47-.59,2.4-3.56,4.39-4.56.05-.02.06-.15.07-.22.34-2.19.68-4.39,1.03-6.58.2-1.25.3-2.54.67-3.74,1.04-3.34,2.19-6.65,3.33-9.97.18-.52.53-.98.78-1.47.85-1.67,1.55-3.37,1.4-5.34-.99,1.05-1.74,2.26-2.68,3.3-1.33,1.49-2.96,2.73-4.17,4.3-1.55,2-3.17,4.08-4.1,6.4-.75,1.85-1.59,3.62-2.46,5.41-.34.71-.7,1.45-.83,2.22-.44,2.48-1.66,4.44-3.59,6.03-1.41,1.17-2.81,2.37-4.07,3.69-1.16,1.23-1.91,2.68-2.04,4.49-.1,1.49-.45,3.01-.94,4.43-.65,1.88-1.46,3.71-2.38,5.47-.88,1.7-1.92,3.28-4.16,3.58-.74.1-1.58.79-2.02,1.44-.65.98-1,2.16-1.45,3.26-.42,1.03-.59,2.24-1.25,3.08-1.77,2.26-2.49,5.22-4.77,7.14-.31.26-.38.8-.58,1.27,1.51.34,2.86.65,4.24.96,2.16-1.69,2.63-1.66,4.6.23.67.65,1.36,1.27,2,1.86q2.51-1.86,6,.34h0Zm620.22,59.62c-1.79.26-2.88-.68-4.15-1.59-1.48-1.07-3.54-1.26-4.62-3.02-.12-.19-.6-.14-.9-.24-.99-.32-1.97-.64-2.94-.98-2.46-.85-4.04-2.4-4.29-5.15-.05-.52-.61-1.1-1.08-1.46-2.06-1.59-4.43-2.55-6.98-2.92-2.02-.3-3.44-1.18-4.11-3.14-.08-.23-.16-.45-.27-.67-.97-1.89-2.04-2.15-3.81-1.03-.5.31-1.19.66-1.69.56-1.2-.26-1.61.41-1.94,1.28-.66,1.75-1.86,2.91-3.54,3.71-.85.4-1.57,1.09-2.38,1.61-.6.38-1.26.66-1.86,1.02-1.07.65-2.23,1.2-3.16,2.02-1.7,1.49-2.86,3.43-3.74,5.51-.81,1.89-1.97,3.46-3.69,4.61-1.16.78-1.97,1.81-2.47,3.15-.26.7-.73,1.47-1.33,1.87-.94.63-1.52,1.39-1.77,2.45-.26,1.13-.98,1.89-2.08,2.09-3.02.55-4.95,2.8-7.22,4.51-.86.65-1,1.52-.36,2.55.69-.27,1.26-.56,1.87-.72,2.25-.58,4.59-1.2,6.79-.25,2.63,1.13,5.09.88,7.7.09,1.36-.41,2.81-.5,4.23-.71,1.25-.18,2.56-.17,3.76-.53,2.21-.67,4.33-1.65,6.55-2.31,1.89-.56,3.86-.87,5.8-1.29,1.31-.28,2.75-.3,3.92-.87,2.04-.99,4.14-1.65,6.36-1.98.55-.08,1.07-.31,1.62-.43,3.42-.77,6.83-1.57,10.26-2.29,2.02-.42,4.07-.73,6.1-1.08,1.28-.22,2.26-.92,2.75-2.09.51-1.22,1.33-1.93,2.7-2.26h0Zm-375.41-21.87c.56-.1,1.24-.25,1.93-.36,1.85-.29,2.6.13,3.35,1.82.29.66.53,1.37.97,1.92,3.22,4.03,4.31,8.82,5.04,13.74.33,2.23.88,4.36,2.5,6.08.46.49.79,1.24.87,1.91.4,3.38,2.98,5.04,5.32,7.15,1.49-1.54,2.64-3.1,3.47-4.93.93-2.03,1.89-4.04,2.92-6.01,1.66-3.17,4.02-5.96,5.15-9.42.1-.3.29-.57.47-.83,2.33-3.32,4.66-6.63,6.99-9.94,1.04-1.48,1.09-4.15-.26-5.23-1.55-1.25-2.67-2.6-2.73-4.57-.97.31-2.07,1.03-2.5.74-1.7-1.13-3.39-2.42-4.68-3.98-.63-.77-1.03-1.66-2-2.17-.53-.28-1-.83-1.31-1.37-1.44-2.58-3.86-3.3-6.55-3.73-.95-.15-2.14-.63-2.65-1.36-1.43-2.03-3.51-2.58-5.67-3.17-1.99-.54-3.97-1.14-5.93-1.78-2.19-.72-3.56-.18-4.86,1.74-1.11,1.64-2.23,3.37-3.69,4.67-1.49,1.32-1.6,2.53-.89,4.19.4.93.91,2.06.7,2.94-.3,1.24,0,2.17.5,3.18,1.29,2.64,2.93,5.15,3.06,8.22,0,.12.2.23.46.52h0Zm-204.51-82.14c-.07,1.21-.2,2-.16,2.78.1,1.7-.33,3.1-1.71,4.25-.64.53-1.28,1.42-1.35,2.2-.21,2.48-.78,4.78-2.2,6.87-.48.7-.74,1.55-1.1,2.34-.26.57-.75,1.14-.75,1.71,0,1.71-.59,3.09-1.75,4.31-.31.33-.47.83-.65,1.27-.93,2.19-1.37,4.41-.49,6.75.6,1.58.43,2.97-1.21,3.93-.45.26-.97.72-1.1,1.18-.48,1.71-1.97,3.17-1.26,5.19.11.31-.14.77-.27,1.14-.57,1.56-1.21,3.09-1.74,4.67-.5,1.51-.07,2.27,1.49,3,.49.23,1.02.45,1.42.8,1.97,1.78,4.62,1.66,6.38-.32,1.16-1.31,2.1-1.56,3.29-.59.55.45.89,1.26,1.11,1.97.62,1.95,1.16,2.26,3.06,1.68.49-.15,1.11-.18,1.57,0,1.11.42,2.2.93,3.24,1.52.88.49,1.69.83,2.71.41,1.34-.54,2.57.1,3.05,1.16.74,1.63,2.12,2.24,3.49,3.21,1.29-1.65,2.65-1.7,4.09-.34.17.16.39.31.62.36,3.41.74,6.83,1.49,10.25,2.18,1.32.27,2.66.46,4,.61.94.11,1.9.21,2.83.11,1.15-.11,2.2.18,2.76,1.08,1.1,1.74,2.78,2.24,4.61,2.61.47-.4.93-.8,1.61-1.4,1.07,1.07,2.1,2.04,3.06,3.07,1.14,1.23,2.73,1.59,3.85.79,1.3-.93,2-3.09,1.4-4.31-.83-1.69-.76-2.48.67-3.79.87-.79,1.06-1.61,1.06-2.74,0-1.31.33-2.64.62-3.94.19-.85.68-1.64.83-2.49.21-1.18.79-2.03,1.66-2.81.47-.43.9-1.12.97-1.74.33-2.69.66-5.27,2.29-7.63,1.06-1.53,1.75-3.41,2.24-5.24,1.74-6.39,3.3-12.82,4.97-19.23,1.36-5.24,2.78-10.48,4.16-15.68-2.05-2.35-1.83-4.18.62-6.13.4-.32.73-.85.88-1.35.69-2.38,1.27-4.79,1.95-7.17,1.52-5.29,3.01-10.58,5.22-15.65.95-2.17,2.17-4.26,2.34-6.73.11-1.67.36-3.33.49-5,.1-1.29-.31-1.58-1.69-1.67-2.52-.17-4.58,1.22-6.84,1.9-1.45.43-2.74,1.15-3.66,2.53-.4.6-1.5,1.09-2.23,1.03-3.09-.27-5.36,1.28-7.67,2.94-.74.53-1.77,1.32-2.46,1.15-2.08-.52-3.38.66-4.7,1.72-.96.77-1.84,1.17-3.04.93-1.29-.26-2.5-.08-3.78.95.67,1.07,1.22,2.12,1.91,3.05,1.3,1.73,2.64,3.4,3.13,5.6.15.67.53,1.37,1.02,1.85.98.95,1.21,1.98.96,3.26-.14.7-.04,1.43-.06,2.15-.04,1.46.45,2.56,1.72,3.46.71.5,1.25,1.44,1.55,2.29,1.22,3.38,2.23,6.83,4.82,9.52.89.92,1.21,2.07.56,3.31-.55,1.06-.21,1.87.74,2.44.86.51,1.09,1.26,1.2,2.19.15,1.18.48,2.34.74,3.5.27,1.17.66,2.32.79,3.5.23,2.01-.24,3.82-2.03,5.06-1.29.89-2.17,2.02-2.61,3.59-.37,1.32-1.75,2.06-2.83,1.38-1.98-1.25-3.45-.23-5.06.61-.55.29-1.14.63-1.73.69-3.86.36-7.78.35-11.52,1.56-1.21.39-1.73.04-2.17-1.07-.34-.85-.94-1.61-1.51-2.34-.68-.88-1.67-1.59-2.12-2.56-.57-1.24-1.53-1.78-2.61-2.3-3.3-1.6-6.62-3.17-9.9-4.81-1.7-.85-3.41-1.73-4.97-2.81-2.68-1.88-5.21-3.96-7.84-5.89-3.08-2.26-6.21-4.46-9.33-6.66-.43-.3-.96-.48-1.88-.92h0Zm-118.88,134.6c3.32.44,3.37.52,6.05-1.21,3.34-2.16,7.12-2.15,10.83-2.33,1.14-.06,2.13-.14,3.19-.62,3.54-1.62,7.17-2.14,10.92-.61.79.32,1.69.39,2.55.52,2.77.43,5.37-.52,8-1.12,1.94-.44,3.82-1.12,5.74-1.63.84-.22,1.71-.44,2.57-.43,2.79.05,5.58.16,8.37.37,1.25.09,2.47.49,3.71.74,1.01.2,2.02.56,3.03.55,2.55-.04,5.09-.39,7.63-.34,2.51.05,4.23-1.04,5.72-2.89.47-.58,1.15-1.13,1.84-1.37,2.62-.88,5.29-1.62,7.94-2.44.29-.09.56-.3.78-.51,1.45-1.36,2.96-2.65,4.29-4.12.99-1.1,1.9-1.06,3.19-.66,1.34.41,2.83.71,4.2.56,3.14-.33,5.86-2.01,8.68-3.28,2.61-1.17,5.11-2.58,7.61-3.97,3.79-2.1,7.82-3.67,12.08-4.24,3.86-.52,7.13-2.26,10.48-3.92,3.21-1.59,6.24-3.63,9.57-4.88,2.44-.92,3.65-2.57,4.91-4.7-2.54-2.77-4.95-5.54-9.26-4.88-.7.11-1.45.08-2.16-.02-.78-.11-1.59-.26-2.29-.58-1.95-.9-3.83-1.92-5.77-2.84-.49-.23-1.07-.29-1.62-.37-1.34-.21-2.74-.2-4.02-.6-3.51-1.09-7.37-1.12-10.47-3.51-.45-.35-1.24-.45-1.84-.38-2.02.24-4.03.61-6.47,1-.09-.07-.59-.45-1.04-.88-1.19-1.15-2.58-2-4.22-2.09-2.38-.14-4.27-1.04-5.86-2.8-.42-.46-1.32-.86-1.88-.74-1.67.35-3.33,1.28-4.03,2.74-1.09,2.28-1.97,4.79-2.28,7.28-.22,1.74.07,3.44-1.31,4.86-.33.34-.39,1.05-.39,1.59,0,1.4-.14,2.7-1.68,3.59,1.61.82,2.91,1.88,2.26,3.41-.5,1.18-1.85,2.01-2.88,3.06.51.81,1.59,1.65.63,2.86-.82,1.03-1.48,2.32-3.25,1.92-.46-.1-1.13.36-1.59.71-1.25.93-2.41,1.85-4.12.97-.81-.42-1.76,0-2.02.79-.87,2.65-3.48,3.65-5.08,5.6-.72.87-1.73,1.08-2.81.42-.38-.23-.92-.5-1.28-.39-1.52.47-3.16.83-4.47,1.67-3.09,1.97-6.44,1.59-9.78,1.53-.98-.02-1.86-.54-1.78-1.56.15-1.89.13-3.98.97-5.56.86-1.62,1.28-3.03.82-4.73-.44-1.62.04-3.03,1.1-4.21.89-.99,1.96-1.81,2.91-2.75.5-.5,1.1-1.04,1.28-1.67.54-1.87,1.84-3.13,3.1-4.47.7-.74,1.13-1.72,1.71-2.58.54-.8.65-1.52.11-2.43-.32-.54-.38-1.36-.26-2,.29-1.47.71-2.92,1.2-4.35.25-.73.63-1.48,1.14-2.04,2.51-2.75,3.25-6.32,4.82-9.53-1.77-1.64-3.83-2.08-5.84-2.46-2.09-.39-3.94-1.14-5.69-2.37-1.22-.86-2.62-1.56-4.05-2-2.04-.63-4.18-.95-6.4-1.43-1.58,2.55-3.18,5.01-4.65,7.54-1.56,2.69-3.03,5.43-4.47,8.18-.5.96-1.11,1.57-2.21,1.49-.97-.07-1.46.44-1.81,1.25-1.1,2.52-3.11,3.95-5.68,4.71-.52.15-1.06.41-1.47.75-2.48,2.07-4.33,4.61-5.64,7.58-1.25,2.84-2.69,5.59-4.04,8.39-.17.36-.43.71-.48,1.09-.3,2.63-1.86,4.55-3.63,6.3-.86.85-1.21,1.79-1.35,2.96-.11.91-.47,1.81-.83,2.67-.43,1.02-1.02,1.96-1.46,2.98-.34.79-.4,1.76-1.44,1.82-1.32-.33-1.34-2.31-3.16-2.13.32,1.45.92,2.77.81,4.02-.12,1.28-.94,2.5-1.44,3.75-.06.14-.04.32-.1.47-.43,1.02-.77,2.08-1.32,3.03-1.47,2.54-3.05,5.02-3.67,7.96h0Zm523.89,171.22c-.73-2.33-1.43-4.34-1.98-6.39-1.06-3.98-.21-7.94.19-11.91.07-.64.28-1.27.24-1.9-.18-2.75.43-5.24,2.19-7.4.54-.66.47-1.31.03-1.99-.7-1.07-.82-2.22-.47-3.45.31-1.08.06-2.07-.61-2.94-.92-1.21-1.08-2.59-1.12-4.07-.09-3.51-.3-7.02-.46-10.53-.08-1.72-.12-3.37,1.96-4.17.42-.16.77-1.23.68-1.81-.55-3.72.14-7.28.93-10.88.51-2.32.48-4.76.74-7.14.16-1.5.39-2.99.6-4.49.1-.71.31-1.42.33-2.13.05-2.55.05-5.1.03-7.64,0-.71.08-1.51-.2-2.13-1.42-3.19-.45-6.29.18-9.41.6-2.96,1.32-5.9,1.85-8.88.32-1.8.32-3.66.63-5.47.17-.99.53-2.01,1.06-2.87.84-1.38,1.21-2.72.66-4.3-.23-.67-.2-1.42-.34-2.12-.25-1.29-.53-2.58-.89-4.29.51-.69,1.3-1.77,2.08-2.85.57-.79.73-1.6.08-2.42-.94-1.18-.91-2.55-.69-3.9.27-1.73.72-3.42,1.07-5.14.12-.62.19-1.26.24-1.89.18-2.23.29-4.46.52-6.68.41-4.13.59-8.31,1.42-12.36.9-4.4,1.56-8.79,2.03-13.24.14-1.33.69-2.62.98-3.94.46-2.1.95-4.21,1.26-6.33.11-.73-.05-1.69-.47-2.27-.71-.97-.72-1.9-.46-2.94.55-2.17,1.26-4.3,1.65-6.5.7-3.91,1.14-7.87,1.81-11.79.4-2.35,1.02-4.67,1.54-7.01.15-.69.47-1.41.4-2.09-.42-4.26.24-8.38,1.13-12.53.9-4.21,1.38-8.52,2.09-12.77.34-2.04.76-4.07,1.25-6.08.18-.75.55-1.52,1.02-2.13,1.51-1.94,1.98-4.05,1.76-6.5-.23-2.6-.08-5.17.47-7.82.87-4.12,1.83-8.33.92-12.68-1.13,2.53-2.52,4.93-2.94,7.71-.25,1.62-.82,3.03-1.91,4.31-.63.74-.96,1.8-1.26,2.77-.7,2.21-1.16,4.5-2.01,6.65-.66,1.68-1.76,3.18-2.67,4.76-1.96,3.4-3.7,6.96-4.41,10.8-.45,2.43-.93,4.64-2.32,6.77-1.14,1.75-1.81,3.79-1.49,6.14.18,1.38-.59,2.95-1.15,4.35-1.14,2.84-2.93,5.52-3.5,8.46-.47,2.47-1.91,4.31-2.65,6.53-.84,2.49-1.58,5.01-2.4,7.51-.29.88-.41,1.66.27,2.46.71.83.5,1.77.08,2.71-1.05,2.34-1.91,4.74-2.07,7.34-.03.55-.21,1.1-.39,1.63-1.33,3.91-2.38,7.96-4.11,11.69-1.43,3.1-2.28,6.28-2.99,9.55-.04.15-.04.34-.14.46-1.5,1.98-1.91,4.34-2.39,6.68-.06.31-.17.67-.39.86-1.84,1.64-2.09,4.07-3.12,6.11-.5.98-1.02,2-1.75,2.81-1.48,1.63-3.03,3.22-4.71,4.63-.74.62-1.84.91-2.82,1.15-1.11.27-1.58.84-1.65,1.99-.15,2.35-.48,2.8-2.61,3.34-.98.25-1.79.6-2.37,1.45-.73,1.07-1.76,1.52-3.07,1.57-2.16.07-3.96,1.16-5.66,2.36-.43.3-.8.81-.98,1.3-.35.96-.83,1.71-1.84,2.06-.22.07-.5.22-.57.4-1.28,3.4-4.74,4.11-7.35,5.78-2.25,1.45-4.77,2.5-7.42,3.28-1.66.49-3.1,1.87-4.49,3.03-1.24,1.04-2.35,1.95-4.09,2.22-2.02.32-3.92,1.32-5.93,1.79-3.92.93-4.43.62-5.7-3.3-.33-1.02-.35-2.16-.35-3.25,0-2.83.96-5.67-.16-8.5-.19-.49.02-1.12-.07-1.66-.14-.84-.24-1.72-.61-2.47-.91-1.84-.68-3.42,1.09-4.21,1.94-.87,2.26-2.19,1.97-4.07-.26-1.63-.23-3.27,1.86-4.11-.34-.36-.52-.59-.73-.77-1.67-1.43-1.66-3.3.04-4.59q1.62-1.24.77-2.95c-.52-1.05-.08-3.29,1.21-4.29,1.87-1.46,2.06-3.53,2.41-5.55.11-.64-.09-1.48-.44-2.05-.73-1.2-.85-2.42-.44-3.68.76-2.34,1.62-4.65,2.39-6.99.37-1.13.75-2.29.9-3.46.46-3.48.84-6.97,2.03-10.31.13-.37.24-.78.26-1.17.24-5.23.45-10.47.72-15.7.05-.94.11-1.97.53-2.77.53-1.01.53-1.8-.19-2.62-.94-1.06-.79-2.12-.18-3.31,1.17-2.27,2.27-4.53,4.16-6.38.74-.73.84-2.16,1.13-3.29.11-.44-.22-1.01-.08-1.42,1.06-2.92.6-6,1.05-8.98.15-.98.68-1.9.78-3.05-.31.27-.7.48-.92.81-1.91,2.92-4.07,5.62-4.59,9.34-.31,2.21-1.56,4.33-2.62,6.37-.45.86-1.46,1.45-2.28,2.09-1.35,1.07-1.99,2.43-2.1,4.13-.13,2.13-.91,4.01-2.28,5.66-1.68,2.01-2.92,4.18-2.54,6.98.19,1.38-.35,2.6-1.05,3.84-.55.98-.78,2.25-.78,3.39,0,1.7-.32,3.21-1.65,4.31-1.46,1.21-2.02,2.97-2.93,4.51-.89,1.51-1.55,3.12-2.97,4.28-.38.31-.71,1.02-.65,1.49.38,3.23-1.8,5.49-3.03,8.09-1.01,2.13-2.36,4.09-3.62,6.09-.41.65-.9,1.33-1.52,1.75-2.03,1.4-2.14,2.18-.34,4.14-.03,1.22-.93,1.96-1.77,2.65-1.05.87-1.72,1.87-1.81,3.24-.21,2.99-1.27,5.57-3.53,7.64-.52.48-1.04,1.09-1.24,1.75-.72,2.31-2.3,3.77-4.37,4.83-.28.14-.51.4-.72.63-1.43,1.59-3.14,2.66-5.32,2.88-.2.02-.38.26-.71.5.43.56.84,1.09,1.42,1.84-1.36,1.31-2.47,2.69-4.65,2.91-2.11.21-3.93,1.19-4.76,3.4-.54,1.44-1.43,2.35-3.14,2.49-1.91.16-3.25,1.45-3.92,3.15-.73,1.83-2.14,2.72-3.77,3.42-1.32.56-2.72.95-4.02,1.57-1.43.68-2.6.63-3.59-.7-.18-.25-.46-.43-.82-.75-.55.22-1.1.54-1.7.66-1.08.22-2.18.42-3.27.43-1.15.01-1.65-.76-1.71-1.89-.06-1.26-.33-2.51-.27-3.76.04-.72.36-1.64.88-2.1,2.4-2.11,2.52-4.93,2.38-7.71-.11-2.16-.3-4.18,1.87-5.6-1.52-1.81-.98-3.52-.28-5.3.37-.93.47-1.96.68-2.95.15-.7.13-1.47.43-2.09.68-1.38,1.33-2.66.72-4.31-.16-.42.44-1.37.94-1.74,1.59-1.17,1.05-2.9,1.38-4.4.32-1.49,1.75-2.7.83-4.51-.73-1.42-.16-2.81.89-3.94,1.64-1.78,2.45-3.7,1.42-6.12-.23-.54-.2-1.28-.06-1.87.89-3.57,1.93-7.11,1.63-10.86,1.55-4.35.73-8.87.84-13.31.03-1.22-.29-2.58-.87-3.65-1.2-2.2-1.41-4.38-.55-6.67.5-1.34.94-2.75,1.7-3.94.44-.69,1.47-1.01,2.52-1.68.01-.26.18-.91.04-1.49-.58-2.56-.27-5.06.08-7.62.47-3.39.7-6.82,1-10.24.19-2.13.86-3.93,2.6-5.41,1.44-1.23,1.54-3.2,1.7-5.01.18-2.06.29-4.13.5-6.2.05-.51.38-.99.55-1.44,1.68-.14,1.2,1.6,2.36,2.2.95-3.66-.09-7.37.97-10.9-.7-.25-1.18-.43-1.82-.66.37-1.83.71-3.56,1.16-5.81-1.82,1.23-2.67,2.42-3.29,3.92-1.18,2.87-2.4,5.74-3.81,8.5-1.38,2.69-3.17,5.17-4.5,7.89-.83,1.69-1.02,3.68-1.69,5.46-.64,1.71-.74,3.68-2.29,5.02-.27.23-.27,1.12-.05,1.5.85,1.46.41,2.76-.21,4.11-.3.65-.63,1.31-.77,2-.22,1.05-.78,1.73-1.75,2.1-.88.33-1.32.97-1.74,1.82-1.79,3.64-3.68,7.23-5.62,10.78-.51.94-1.07,1.77-.8,2.89.06.23.16.55.06.7-1.41,2.19-1.25,5-2.89,7.11-.36.46-.66,1.16-.59,1.7.22,1.89-.61,3.28-1.54,4.85-1.23,2.06-2.98,3.91-3.13,6.6-.06,1.17-.72,2.46-2.05,3.05-1.43.64-1.74,1.94-1.43,3.22.46,1.85-.02,3.2-1.28,4.57-.56.61-.72,1.75-.76,2.66-.08,1.69-.06,3.33-1,4.86-.29.47-.38,1.34-.13,1.8.84,1.58.18,2.78-1.02,3.5-1.4.85-1.87,2.03-2.25,3.46-.22.82-.63,1.69-1.21,2.29-.99,1.04-2.05,1.94-2.69,3.3-.26.55-1.27.95-1.98,1.02-1.38.14-2.23.74-2.66,2.03-.65,1.96-2.18,3.1-3.87,4.07-.34.2-.81.53-1.08.43-1.99-.73-3.15.69-4.4,1.69-2.24,1.81-2.7,1.78-4.91.02-1.68-1.34-2.87-2.92-3.76-4.87-.55-1.21-1.4-2.36-2.34-3.29-1.02-1.01-1.44-2.09-1.24-3.44.21-1.4-.2-2.33-1.42-3.24-1.29-.97-2.24-2.28-2.49-4.16-.23-1.75-1.31-3.41-2.97-4.37-2.11-1.23-2.2-1.85-.31-3.63.11-.1.15-.26.17-.3-1.89-2.13-3.78-4.21-5.61-6.33-.35-.4-.8-1.03-.71-1.44.37-1.59-.58-2.64-1.13-3.95-.64-1.53-.7-3.39-.68-5.1.02-1.17-.15-2.05-1.12-2.68-2.81-1.84-4.2-4.7-5.41-7.65-.41-1.01-.9-1.78-1.86-2.37-.6-.36-1.15-1.12-1.31-1.81-.47-1.98-1.7-3.26-3.52-3.85-1.65-.53-2.84-1.38-3.5-2.99-.11-.27-.38-.47-.73-.91-.99,2.07-2.33,3.76-1.22,6.13.33.7,0,1.72-.05,2.59-.04.62-.12,1.25-.19,1.87-.1.92-.09,1.87-.32,2.76-.51,1.98-.33,2.61,1.35,3.77,1.37.95,1.45,1.78.24,2.85-.41.36-.88.65-1.47,1.09.88.86,2.34,1.32,1.98,2.75-.26,1.01-.82,1.95-1.43,2.86-.06,1.4.9,2.67.63,4.27-.13.78-.04,1.52-.65,2.14-.96.97-.95,1.96-.03,2.96.22.23.41.49.6.75,1.04,1.44,1.09,2.19-.24,3.3-1.01.84-1.25,1.77-1.22,2.93.07,2.4-.09,4.82.24,7.18.45,3.27,1.71,6.33,3.47,9.12,1.02,1.63,1.3,3.22.75,5.01-.47,1.53-.83,3.1-1.42,4.58-1.04,2.61.05,4.84,1.14,7.05.76,1.54,1.87,2.92,2.63,4.47.26.53.16,1.49-.17,2-1.45,2.26-2.84,4.62-4.64,6.6-2.99,3.29-6.22,6.37-9.45,9.43-1.02.97-2.26,1.82-3.55,2.38-1.39.6-2.19,1.5-2.66,2.86-.31.9-.62,1.83-1.12,2.64-.49.8-1.07,1.77-1.86,2.12-1.99.9-3.25,2.53-4.69,4.01-1.1,1.13-2.42,1.79-4.03,1.86-1.82.08-3.65.24-5.47.24-.48,0-1.21-.33-1.38-.72-.41-.9-.87-1.97-.74-2.89.71-5.39.99-10.76.56-16.2-.31-3.95-.09-7.95-.12-11.92,0-.46-.02-1.02-.27-1.37-1.05-1.45-.81-2.99-.62-4.61.2-1.66.12-3.35.27-5.02.14-1.65.48-3.29.61-4.94.15-1.88.31-3.78.16-5.64-.09-1.12-.07-1.74,1.07-2.26,1.13-.52,1.23-1.1.27-2.01-1.16-1.1-.84-2.04-.27-3.2,1.14-2.34,1.5-4.72-.09-7.02-1.25-1.8-.42-3.58.06-5.28.78-2.76,1.89-5.42,2.73-8.16.44-1.44.81-2.96-.89-4.06-.74-.48-.65-1.3-.39-2.17.38-1.28.46-2.65.81-3.95.63-2.31.77-4.52.09-6.92-.34-1.2.54-2.75.87-4.14.75-3.13.49-6.32.61-9.49.04-1.02.12-2.04.21-3.06.04-.39.29-.8.24-1.17-.4-2.73.57-5.21,1.46-7.68.43-1.19.98-2.35,1.63-3.44,1.21-2.05,1.22-3.03-.48-4.62-1.24-1.16-1.59-2.4-1.31-4.08.53-3.13,1.06-6.3,1.17-9.47.09-2.66.85-5.01,1.96-7.33,1.24-2.6,2.46-5.2,3.66-7.82.25-.54.35-1.15.56-1.83-1.09-.13-1.24.41-1.43,1.07-.23.81-.52,1.66-1.01,2.31-.71.94-1.68,1.51-3.06.16-.47.66-.83,1.19-1.23,1.7-3.59,4.63-7.98,8.44-12.48,12.15-1.05.86-2.18,1.65-3.1,2.63-.63.67-1.16,1.56-1.39,2.44-.84,3.19-2.21,6.15-3.63,9.1-.3.63-.75,1.25-1.26,1.72-1.17,1.06-1.61,2.34-1.49,3.87.11,1.41-.53,2.53-1.13,3.78-.73,1.5-.97,3.34-.98,5.04-.01,2.18-.56,4.05-1.93,5.71-.85,1.03-1.7,2.06-2.34,2.84.11,1.25.47,2.37.23,3.34-.46,1.91-1.25,3.74-1.9,5.6-.21.6-.55,1.2-.56,1.81-.01,2.16-1.41,3.15-3.16,3.73-1.39.46-2.62.99-3.69,2.07-.68.68-1.82.94-2.78,1.29-1.79.65-3.64,1.09-4.75,2.95-.32.54-1.36.97-2.04.93-1.33-.08-2.29.47-3.29,1.17-2.93,2.09-6.2,2.82-9.75,2.3-2.15-.31-3.85-1.82-4.4-3.85-.33-1.2-.07-2.22.8-3.07.4-.39.87-.7,1.31-1.05,1.58-1.27,2.57-2.65,2.02-4.93-.62-2.59.13-5.22,1.42-7.38,1.45-2.42,1.77-5.12,2.71-7.64.72-1.93,1.12-3.98,1.69-5.97.11-.37.29-.86.58-1.01,1.75-.92,1.6-2.52,1.73-4.14.18-2.11,1.28-3.87,2.6-5.49.39-.48.9-.97,1.04-1.54.5-2,.86-4.03,1.3-6.05.42-1.92.42-3.73-.6-5.56-1.1-2-.7-3.01,1.32-4.01.99-.49,1.49-1.12,1.48-2.21-.02-1.4,0-2.79,0-4.49-.61.32-.97.38-1.11.59-2.32,3.53-4.82,6.94-6.29,10.97-.84,2.31-1.97,4.52-2.95,6.79-.25.58-.5,1.18-.64,1.8-.66,3-2.57,4.84-5.31,6-.63.27-1.25.7-1.73,1.19-1.47,1.53-2.87,3.12-4.47,4.88,2.17,3.43,1.41,7.63,1.47,11.72.02,1.83,0,3.66-.07,5.48-.09,2.11-.81,2.78-2.84,2.36-1.08-.22-1.97-.46-2.86.38-.2.18-.63.26-.9.19-1.89-.45-3.41.42-4.99,1.22-.97.49-1.73.96-2.05,2.12-.17.6-.88,1.08-1.4,1.54-.84.74-1.76,1.38-2.59,2.12-1.61,1.44-1.61,1.46-3.43.22-.2-.13-.42-.23-.63-.34-.07-.03-.16-.02-.47-.06-.24.31-.59.7-.88,1.13-.72,1.05-1.38,2.15-2.14,3.16-.57.77-1.37.98-2.35.74-1.38-.33-2.8-.52-4.23-.78-.98,1.41-1.7,3.02-3.65,3.27-.31.04-.58.51-.85.8-1.41,1.53-2.22,1.78-3.89.54-1.32-.98-2.15-.63-3.38.12-1.65,1.02-3.16,1.97-4.14,3.79-.75,1.4-1.98,2.44-3.98,1.65-.86-.33-1.97-.36-2.91.51-.52.48-1.46.69-2.22.69-1.61,0-2.96.52-4.22,1.47-.38.29-.81.65-1.24.69-4.12.37-7.03,3.59-10.88,4.57-.85.21-1.63.67-2.46.93-2.52.78-5.05,1.5-7.03,3.41-.33.31-.82.48-1.27.63-2.18.74-4.39,1.42-6.56,2.19-.58.21-1.08.67-1.61,1.02-.47.31-.9.86-1.39.9-1.95.17-3.38,1.28-4.81,2.52-.42-.21-.85-.3-1.09-.57-.81-.9-1.62-.62-2.6-.28-3.14,1.09-5.77,3.06-8.56,4.76-1.63.99-3.38,1.8-4.98,2.83-1.65,1.06-3.44,1.08-5.3,1.15-2.55.09-5.12.2-7.62.65-2.25.41-4.41,1.34-6.63,1.95-2.75.75-5.51,1.51-8.3,2.07-1.3.26-2.42.64-3.41,1.54-1.02.93-2.14,1.66-3.67.85-.39-.21-1.14-.05-1.56.21-1.46.9-3.03.95-4.64.8-1.65-.15-3.12-.02-4.39,1.31-.84.88-2,1.17-3.32.74-1.95-.63-3.82.06-5.55.85-1.58.72-3,1.76-4.51,2.65-1.99,1.18-4.3,1.02-5.81-.26-1.12.19-2.12.45-3.13.51-3.58.19-7.16.28-10.74.46-1.4.07-2.71-.04-3.89-.88-.77-.55-1.48-.37-2.41-.22-2.29.37-4.34,2.18-6.89,1.23-.37-.14-1.01.3-1.46.56-1.62.96-2.24.88-3.49-.55-1.3-1.49-2.18-1.8-3.51-.35-2.14,2.32-4.49,1.86-7.03,1.33-1.72-.36-3.47-.54-5.2-.85-1.21-.21-2.35-.48-2.45-2.12-.03-.53-.6-1.03-.98-1.64-1.36.67-2.57,1.47-3.93.51-.06-.04-.18-.09-.22-.07-2.26,1.29-3.61-.73-5.29-1.5-1.29-.59-2.45-1.3-3.97-1.41-1.76-.13-3.24-2.05-3.38-3.84-.19-2.46.51-4.67,1.53-6.92,1.11-2.44,3.19-4.42,3.45-7.28.04-.45.55-1.07.99-1.25,1.77-.73,2.1-2.2,2.34-3.85.12-.84.46-1.68.88-2.42,1.04-1.82,1.68-3.56,1.62-5.83-.07-2.73.85-5.48,1.34-8.26,2.15-.52,4.13-1.03,6.12-1.47,1.29-.29,2.1-.91,2.42-2.29.39-1.72,1.04-3.34,2.92-4.11.39-.16.66-.85.79-1.35.24-.93.39-1.88.47-2.84.38-4.42,2.59-7.96,5.38-11.23,1.13-1.32,2.5-2.14,4.23-2.52,1.92-.42,1.89-.53,2.03-2.58.11-1.59.47-2.91,2.37-3.41,1.73-.46,2.64-1.92,3.28-3.56,1.25-3.2,2.62-6.33,5.09-8.84.43-.44.67-1.06.99-1.61.9-1.53,1.35-1.75,3.43-1.58,1.52-2.5,3.63-4.52,6.06-6.23.46-.32.91-.69,1.42-.89,1.56-.6,2.57-1.49,2.48-3.36-.02-.51.5-1.11.89-1.57,1.02-1.22,2.09-2.4,3.18-3.57.43-.46.88-.97,1.43-1.22,2.29-1.04,3.63-3.02,5.38-4.97-2.14-.88-4.04-1.61-6.16-1.12-1.53.35-2.85.18-3.88-1.15-.18-.23-.56-.54-.76-.49-2.27.59-4.08-1.1-6.22-1.22-.79-.04-1.53-.9-2.52-1.54-.65.4-1.54.91-2.38,1.5-.89.61-1.72.67-2.66.08-.88-.55-1.81-1.04-2.77-1.4-.71-.27-1.64-.6-2.26-.36-2.39.92-4.17-.47-6.05-1.4-2.06-1.02-4.02-2.24-6.07-3.27-.52-.26-1.25-.28-1.85-.21-1.5.19-2.66-.24-3.57-1.45-1.03-1.36-2.23-1.66-3.99-1.2-1.73.46-3.63.25-5.45.36-1.43.09-2.87.17-4.29.34-.99.11-1.79-.02-2.03-1.13-.24-1.12-1.04-1.5-2.02-1.77-1.51-.43-2.89-1.22-4.62-.89-1.1.21-2.35-.25-2.25,2.04-.19-.14-.38-.29-.58-.43-.93-1.25-1.83-2.52-2.79-3.73-.28-.35-.7-.69-1.12-.82-1.91-.58-3.82-1.14-5.76-1.59-1.44-.33-2.76-.26-3.93,1.02-1.02,1.12-2.13.93-3.34-.15-.34-.3-.7-.58-1.16-.95-.49.57-.85,1.08-1.3,1.51-1.28,1.23-3.24,1.06-3.73-.62-.81-2.79-3.29-3.75-5.11-5.44-.29-.27-.85-.38-1.28-.37-1.89.03-2.88-.5-3.58-2.04-1.06-2.33-2.83-3.27-5.39-2.51-1.17.35-2.11.26-3.2-.18-1.68-.68-3.44-1.17-5.61-1.88.36-.05.16-.08.05,0-1.83,1.37-2.73,1.24-4.02-.6-.55-.78-1.21-1.52-1.57-2.38-.42-.99-.87-2.12-.78-3.14.13-1.33-.2-2.22-1.3-2.79-2.23-1.15-1.89-3.35-2.06-5.23-.09-.99.67-1.89,1.82-2.28.89-.3,1.73-.78,2.54-1.27,2.03-1.23,4.23-1.86,6.57-2.06,1-.08,1.76-.33,2.5-1.14,1.32-1.45,2.93-2.04,4.96-1.24,2.27.89,3.01.55,4.33-1.49.98-1.53,2.38-2.21,3.57-1.36,2.38,1.7,4.57.51,6.51-.48,1.4-.72,2.53-1.23,4.07-.5.28-.49.6-.85.71-1.28.49-1.87,1.84-2.56,3.58-2.58,1.79-.02,3.47-.04,4.76-1.66.32-.4,1.32-.43,1.98-.37,2.91.27,5.37-.54,7.33-2.75,1.11-1.25,2.45-1.67,4.11-1.26.97.24,1.99.26,3.11.4.37-2.33,1.6-3.19,3.7-3.17.6,0,1.29-.75,1.8-1.29.37-.39.6-.97.73-1.5.43-1.8,1.6-2.14,3.33-2.39,2.52-.37,5.23-.79,6.97-3.08.64-.85,1.44-1.17,2.44-1.29,2.33-.3,4.16-1.43,5.66-3.25.44-.53,1.3-.84,2.02-.98,1.23-.24,2.44-.53,3-1.71.91-1.91,2.49-1.9,4.07-1.44,1.19.35,1.93.09,2.75-.73,1.97-1.97,4.16-3.7,6.77-4.73,1.47-.58,3.05-.88,4.59-1.24,2.12-.5,4.07-1.3,5.97-2.39,1.36-.78,2.99-1.09,4.46-1.7.71-.29,1.38-.74,1.99-1.22,1.67-1.32,2.61-1.36,4.22.06.78.69,1.53,1.43,2.14,2.26.68.91,1.41,1.19,2.48.81.6-.21,1.23-.35,1.86-.42.9-.1,1.48.38,1.91,1.16.42.78.56,1.44-.11,2.18-.48.53-.7,1.33-1.24,1.74-1.78,1.37-1.7,3.54-2.41,5.35-.24.62.2,1.51.3,2.1-.95,1.06-1.76,2.17-2.77,3.03-1.01.86-2.23,1.49-3.38,2.18-.75.45-1.55.83-2.33,1.23-.9.47-1.23,1.13-1.46,2.21-.93,4.31-4.65,9.54-9.99,9.97-3.06.24-6.2.33-9.13,1.7-1.14.54-2.66.26-4,.4-.93.1-1.97.07-2.77.47-2.98,1.51-5.88,3.18-8.82,4.77-.55.3-1.14.73-1.73.75-3.79.11-6.33,2.44-8.67,4.96-1.5,1.62-3.16,2.88-5.14,3.83-3.3,1.6-6.56,3.28-9.79,5.03-1.25.67-2.32,1.69-3.57,2.39-1.15.64-2.43,1.05-3.74,1.61.52,1.15,1.41,1.46,2.53,1.26,2.96-.53,5.41.62,7.82,2.18,1.78,1.15,3.64,2.23,5.96.82,1.66-1.01,2.73-.48,4.22,1.41,2.03.16,3.92.33,5.83.44,1.37.08,2.41.66,3.26,1.73,1.14,1.43,2.49,2.45,4.49,2.3.61-.05,1.34.11,1.85.43,3.28,2.06,7.17,1.38,10.66,2.44.28.09.67.04.93-.08,1.17-.56,2.13-.2,3.12.5.84.58,1.86.73,2.67,0,.79-.71,1.55-1.59,2.67-1.29,1.21.32,2.48.77,3.46,1.51.75.58,1.33.9,2.3.86,1.92-.09,3.5,1.03,5.01,1.99.59.38.7,1.51,1.14,2.58.7.11,1.65.48,2.55.38,2.9-.32,5.53.48,8.06,1.69,2.01.96,3.9,1.65,6.09.32,1.3-.79,2.15-.22,3.46,1.82,2.58-3.2,5.24-6.27,7.62-9.55,1.77-2.44,3.25-5.11,4.69-7.76.42-.76.46-1.86.35-2.76-.3-2.47.45-4.3,2.51-5.79,1.48-1.06,2.71-2.47,3.99-3.8,1.72-1.78,3.37-3.63,5.04-5.45.9-.99,1.72-1.95,2.36-3.22.79-1.57,2.34-2.77,3.58-4.11.38-.41.87-.72,1.21-1.15,1.11-1.4,2.6-2.53,2.65-4.64.02-.82.87-1.67,1.46-2.41,2.55-3.17,5.12-6.32,7.74-9.43.77-.91,1.9-1.54,2.56-2.51,1.48-2.16,3.39-3.89,5.12-5.8,1.62-1.78,2.54-4.22,3.65-6.42.25-.5.08-1.25.02-1.87-.19-2.2.18-3.18,2.17-4.01,3.14-1.31,4.78-3.71,5.71-6.82.23-.75.55-1.55,1.05-2.13,2.26-2.65,3.96-5.61,5.06-8.89.78-2.33,1.41-4.71,2.03-7.08.1-.4-.14-.9-.27-1.34-.4-1.29-.83-2.57-1.23-3.87-.34-1.11-.1-2.09.85-2.78,1.09-.8,2.16-1.71,3.38-2.24,2.71-1.17,5.5-2.15,8.28-3.15,1.34-.48,2.36-1.15,3.02-2.51.89-1.82,3.64-2.83,5.59-2,1.53.65,2.78.52,4.33-.04,4.27-1.53,8.64-2.77,12.97-4.13.08-.02.16-.06.23-.05,2.19.32,4.4.57,6.55,1.05.45.1,1.04,1.15.97,1.69-.21,1.55-.53,3.14-1.15,4.57-.72,1.64-1.35,3.21-1.07,5.25.6-.11,1.12-.16,1.61-.31,1.76-.53,2.67-.13,2.95,1.62.55,3.39.84,6.8.23,10.23-.67,3.8-.38,7.45,1.68,10.85.36.59.41,1.35.63,2.03.26.82.58,1.61.81,2.44.73,2.67,1.26,5.42,3.34,7.48-.04,1.67.92,2.73,2.09,3.78.6.55.81,1.54,1.18,2.33.39.81.92,1.18,1.9,1.03,1.15-.18,2.34-.07,3.5-.19,1.86-.19,3.42-1.11,5.05-1.99,6.1-3.3,12.29-6.42,18.43-9.63.95-.49,1.84-1.09,3.08-1.82-1.75-.4-3-.73-4.27-.96-.34-.06-.88.05-1.09.29-1.83,2.01-4.12,1.65-6.22.95-1.89-.63-3.43-.3-5.02.59-1.11.63-2.16,1.4-3.32,1.9-2.78,1.2-5.5,1.14-8.28-.29-1.94-1-2.24-2.81-2.73-4.53-.11-.4.47-1.09.85-1.54.87-1.02,1.77-2.01,2.74-2.93.61-.58,1.3-1.18,2.07-1.47,2.54-.95,5.07-.35,7.51.43,1.29.41,2.43.57,3.7.01.64-.28,1.41-.48,2.09-.4,2.92.36,5.84.08,8.76.09,1.67,0,3.36,0,5.02-.18,5.23-.58,10.45-1.24,15.68-1.88.15-.02.32-.15.46-.12,3.67.72,6.97-.97,10.38-1.74,4.03-.91,8.12-1.12,12.19-1.46,3.24-.28,6.53.04,9.8-.09,2.13-.08,4.25-.48,6.38-.74.24-.03.47-.1.71-.12,3.1-.18,6.2-.5,9.29-.48,2.15.01,3.65-.76,4.89-2.43,1.6-2.15,2.98-2.44,4.93-.6,1.72,1.63,3.31,1.18,5.25.74,4.65-1.04,9.26-2.52,14.15-1.89.46.06,1.02.1,1.4-.1,1.93-.99,3.72-.6,5.61.55.56-.44,1.06-.95,1.65-1.29,1.03-.6,2.1-1.5,3.18-1.55,1.85-.08,3.79.17,5.55.73.87.28,1.42,1.55,2.17,2.45-.06.02.13.03.2-.06,2.12-2.6,2.16-2.66,4.68-.74,1.7,1.29,3.65,1.09,5.48.92,4.28-.39,8.54-1.05,12.81-1.65.68-.1,1.33-.46,1.98-.72.79-.31,1.56-.63,2.35-.94.43-.17,1-.21,1.27-.52,1.58-1.86,3.77-1.93,5.92-2.08,1.35-.1,2.77.12,3.61-1.34.1-.18.47-.42.58-.36,1.84.92,4.2-.35,5.82,1.38.84.89,1.79.98,3,1.01,3.71.08,6.7-1.7,9.77-3.33,1.47-.78,1.97-.71,3.06.61,1.58,1.91,2.15,2.04,4.13.6.83-.6,1.51-.71,2.42-.3.57.25,1.27.45,1.86.36,2.73-.42,5.17.73,7.73,1.25.31.06.64.26.93.2,3.31-.67,6.65-.14,9.97-.21.71-.01,1.45-.06,2.14.06,5.24.94,10.48.72,15.73.12,1.58-.18,2.16,0,2.49,1.12.36,1.18-.13,2.11-1.58,2.48-3.63.92-7.29,1.77-10.95,2.56-2.1.45-4.24.69-6.35,1.08-1.65.3-2.53,1.57-3.35,2.87-.68,1.08-1.27,2.23-2.03,3.25-.79,1.07-1.27.99-2.42.26-1.8-1.15-3.6-2.33-5.53-3.22-.95-.43-2.19-.24-3.3-.28-1.43-.05-2.85-.04-4.28-.07-1.42-.03-2.84-.15-4.26-.08-.97.04-1.64-.27-2.35-.9-1.28-1.14-2.62-1.3-3.9-.3-1.75,1.37-3.39,1.66-5.13.08-.65.36-1.17.75-1.76.94-1.37.45-2.79.52-3.67-.84-.8-1.23-1.88-1.4-3.12-1.26-1.74.2-3.51.33-4.95,1.55-.29.25-.68.45-1.06.55-4.42,1.09-8.86,2.16-13.47,1.63-1.01-.12-2.04-.46-2.94-.94-1.52-.82-2.92-.59-4.33.13-.43.22-.82.5-1.22.75-2.75,1.7-5.6,1.69-8.56.58-.5-.19-1.31-.14-1.73.15-2.38,1.68-2.4,1.71-5.11-.1-.83,1.48-2.14,1.8-3.78,1.47-.92-.19-1.93-.14-2.87,0-.66.09-1.36.39-1.89.79-1.32,1.01-1.58,1.09-2.86.13-.57-.43-1.06-.95-1.5-1.36-2.2-.14-3.95.61-5.6,1.89-1.84,1.42-3.9,1.11-5.93.36-.97-.36-1.9-.86-2.9-1.08-1.3-.28-2.49-.02-3.42,1.14-1.91,2.37-2.29,2.34-4.27-.09-.1-.12-.25-.18-.38-.27-2.24.44-4.21,1.74-6.55,1.92-.96.07-1.72.11-2.39-.58-.89-.93-1.92-.84-3.1-.67-1.8.26-3.65.18-5.46.43-1.22.17-2.41.62-3.6.97-3.33.98-6.76.96-10.18,1.04-1.14.03-2.19-.14-2.81,1.22-.44.97-1.48,1.15-2.5,1.02-1.5-.2-3.01-.37-4.49-.67-1.79-.35-2.71-.18-3.62,1.5-2.03,3.78-4.26,7.53-4.33,12.04-.02,1.25-.33,2.39-1.35,3.2-.85.67-1,1.56-1.05,2.56-.09,1.74-.27,3.48-.43,5.45.17.14.54.43.91.72,1.44,1.14,1.47,1.69.15,3.07-1.55,1.6-3.19,3.12-4.6,4.83-.54.65-.79,1.75-.75,2.63.16,3.1.46,6.2.8,9.29.07.67.48,1.32.78,1.96.72,1.54.67,2.07-.63,3.09-1.44,1.13-2.35,2.58-2.92,4.29-.17.53-.42,1.03-.64,1.55-1.16,2.8-2.29,5.61-3.5,8.38-.6,1.38-1.48,2.64-2.04,4.03-.62,1.54-1.21,3.13-1.43,4.76-.23,1.69-.75,3.1-2.02,4.19-1.38,1.19-1.59,2.65-1.25,4.35.42,2.11.87,4.24,1.09,6.38.45,4.29-.09,8.42-2.11,12.32-.93,1.78-1.32,3.73-.81,6.02.59-.28,1.19-.38,1.49-.74,2.32-2.74,4.66-5.48,6.84-8.33,1.16-1.51,2.01-3.25,3.01-4.89.46-.75,1-1.45,1.41-2.22.4-.74.82-1.52.97-2.33.26-1.32.82-2.4,1.77-3.32,1.51-1.44,2.97-2.92,3.58-5.02.08-.29.28-.6.52-.79,2.24-1.89,3.56-4.48,5.09-6.88,1.23-1.94,2.11-4.09,3.16-6.15,1.55-3.05,3.13-6.08,4.65-9.15.56-1.13.96-2.32,1.44-3.49.62-1.55,1.21-3.12,1.89-4.64.18-.4.59-.79.99-.97,3.15-1.38,5.41-3.94,7.95-6.09,1.56-1.32,3.1-1.97,5-1.55,1.45.31,2.66.12,3.85-.73.57-.41,1.27-.67,1.93-.94,1.3-.53,2.28-1.24,2.88-2.65,1.11-2.64,4.64-4.4,7.55-4.01,1.41.19,1.99.86,1.82,2.26-.07.54-.3,1.07-.51,1.59-1.27,3.1-1.43,6.34-1.47,9.64-.03,2.61-.02,5.27-1.18,7.74-.3.64-.45,1.37-.52,2.08-.22,2.22-.47,4.45-.51,6.68-.03,1.59-.71,2.75-1.75,3.8-.56.57-1.17,1.09-1.78,1.61-2.09,1.8-3.65,3.92-4.65,6.54-1.27,3.35-2.78,6.62-4.16,9.93-.08.18.04.44.1.96.85-.83,1.47-1.61,2.24-2.17.76-.56,1.77-.79,2.51-1.37.74-.58,1.58-1.3,1.86-2.13.6-1.78,1.92-2.89,3.14-4.15,1.22-1.25,2.25-2.69,3.47-3.94,1.16-1.18,2.71-2,3.26-3.73.08-.27.4-.56.67-.65,1.4-.47,2.15-1.43,2.65-2.82.2-.55,1.22-.87,1.93-1.13.71-.27,1.5-.33,2.39-.51-.11-.69-.17-1.14-.25-1.59-.41-2.32-.02-2.89,2.16-3.78.74-.3,1.32-1.02,1.96-1.57.11-.1.14-.28.22-.42,1.41-2.44,1.75-2.54,4.58-1.18,1.22-1.61,3.03-2.78,3.51-5.1.42-2.03,1.59-3.43,3.65-4.39,1.82-.85,3.56-1.3,5.5-1.19,1.37.08,2.44-.42,3.44-1.37,1.81-1.72,3.75-3.21,6.42-3.38,1.66-.11,3.22-.02,4.47,1.23.89.89,1.72,1.08,2.66.09.64-.67,1.37-.8,2.1-.12.71.66,1.33,1.27.91,2.47-.58,1.65-.96,3.37-1.32,5.08-.12.59.07,1.24.11,1.86.05.79.16,1.58.13,2.36-.14,3.19-2.05,5.17-4.79,6.31-1.4.58-2.23,1.38-2.64,2.79-.57,1.98-1.19,3.94-1.79,5.91-.12.38-.22.77-.4,1.12-1.88,3.6-3.72,7.23-5.71,10.77-.57,1.01-1.54,1.84-2.48,2.57-1.02.79-1.57,1.65-1.75,2.96-.15,1.05-.62,2.14-1.24,3.02-.68.96-.99,1.92-1.13,3.07-.24,1.97-.69,3.92-1.05,5.88-.12.63-.25,1.25-.36,1.88-.28,1.64-.55,3.29-.82,4.94-.17,1.06-.8,2.14.04,3.18.18-.01.45,0,.45-.04.56-2.51,3.2-3.9,3.51-6.59.06-.51.71-1.18,1.24-1.36,1.41-.49,1.91-1.58,2.3-2.84.56-1.79,1.58-3.25,2.88-4.62,1.08-1.14,2.02-2.51,2.66-3.94.76-1.68,1.74-3.04,3.51-3.93-.63-1.75,0-2.9,1.39-4.07,1.9-1.59,3.07-3.85,4.13-6.11.88-1.88,2.22-3.3,4.05-4.26,2.02-1.05,2.95-3.09,4.29-4.75.3-.37.41-.92.75-1.21,1.38-1.18,1.86-2.76,2.08-4.45.19-1.45.73-2.59,2.13-3.22.94-.42,1.18-1.16,1.04-2.17-.12-.78-.11-1.6-.01-2.39.11-.96.75-1.82,1.68-1.75,2.31.18,3.77-1.45,5.59-2.29.7-.33,1.48-.52,2.23-.71,2.62-.65,5.24-1.33,7.89-1.87,1.47-.3,2.99-.49,4.49-.48,1.3,0,2.62.76,3.86-.3.14-.12.54-.11.69,0,1.52,1.26,2.96.34,4.47-.04,2.79-.7,5.42.24,7.9,1.29,1.83.77,2.84,4.43,2.07,6.4-.7,1.78-1.43,3.56-2.29,5.26-.55,1.08-.82,2.02-.21,3.16.47.87.3,1.68-.54,2.33-.54.42-1.37.89-1.43,1.41-.12.99.22,2.03.38,3.04.01.07.07.15.11.21,1.16,1.6,1.59,3.29.47,5.26,1.52.51,2.36,1.42,2.51,2.95.04.41.65.83,1.09,1.11,1.7,1.06,1.93,1.65,1.09,3.49-.66,1.46-1.14,2.77-.63,4.54.39,1.33-.3,2.95-.34,4.45-.02.62.22,1.45.66,1.85,1.01.93,1.11,1.99.57,3.04-.62,1.19-.22,2.04.33,3.1,1.27,2.46,2.35,5.02,3.52,7.53.09.2.27.37.46.62.91-.91,1.33-1.81.74-3.03-.63-1.29-.48-2.5.68-3.46.74-.61.64-1.35.53-2.18-.35-2.6-.33-2.63,1.97-3.84,1.39-.73,1.84-2.18,1.93-3.4.19-2.41,1.41-4.2,2.68-6.04.68-1,1.23-1.97,1.11-3.31-.06-.64.59-1.35.98-2.16-.83-1.96-.81-1.95.68-3.78,1.1-1.35,2.15-2.74,3.21-4.13.19-.25.36-.54.47-.83.87-2.47,1.89-4.9,2.51-7.44.44-1.82,1.31-3.18,2.6-4.44.89-.87,1.56-1.97,2.27-3,1-1.43,1.95-2.9,3-4.48-.28-1.01-.64-2.15-.91-3.3-.29-1.24-.42-2.45.06-3.76.31-.83.12-1.88.03-2.82-.08-.71-.41-1.38-.55-2.08-.41-2.1-.07-2.82,1.86-3.87,1.49-.81,2.87-1.69,3.87-3.14.7-1.02.92-1.98.44-3.14-.87-2.11-.71-4.13.32-6.23.61-1.25.71-2.76,1.05-4.15.13-.53.16-1.17.48-1.56,2.09-2.51,3.4-4.8,4.42-7.83.23-.67.6-1.3.98-1.91.68-1.07,1.61-1.74,2.95-1.76.53,0,1.06-.17,1.76-.3-.23-.66-.3-1.24-.59-1.66-.88-1.28-.91-2.66-.84-4.14.07-1.44.19-2.7,1.85-3.21.33-.1.68-.5.78-.84.44-1.39,1.25-2.37,2.63-2.91.92-.37.99-1.23.82-2.04-.36-1.78.3-3.26,1.57-4.29,2.84-2.32,5.55-5.09,8.82-6.51,3.98-1.73,7.78-4.1,12.2-4.82.72-.12,1.43-.66,2.01-1.16,1.06-.92,2.09-1.24,3.51-.76.82.28,1.84.06,2.76-.02,1.34-.1,2.68-.42,4.02-.38,1.38.04,1.97.76,2.15,2.13.21,1.59-.23,3.02-1.13,4.31-.64.92-1.35,1.79-2.01,2.69-.33.45-.79.87-.93,1.38-1.42,5.42-5.29,9.59-7.45,14.64-.65,1.53-2.02,2.82-2.4,4.38-.63,2.6-1.8,5.03-2.26,7.65-.23,1.28-.39,2.42-1.25,3.51-.51.65-.7,1.83-.53,2.67.47,2.25.11,4.12-1.73,5.6-.87.69-.96,1.62-.71,2.61.43,1.72.42,3.33-.97,4.68-.22.21-.42.53-.46.83-.59,3.86-2.62,7.37-2.64,11.37,0,1.55-.47,2.96-1.86,3.97-.5.36-.89,1.14-.98,1.78-.48,3.41-1.33,6.72-2.36,10-.23.73-.15,1.57-.12,2.36.08,2.22-.33,4.08-2.02,5.86-2.01,2.1-2.38,5.07-2.07,7.89.19,1.76-.05,3.27-.63,4.89-.6,1.68-1.31,3.37-.47,5.31.26.61-.46,1.65-.86,2.88.13.35.74,1.2.63,1.93-.11.75-.93,1.39-1.45,2.1.3.74.94,1.58.88,2.37-.06.75-1.04,1.39-1.29,2.18-.6,1.95-1.7,4.11-1.31,5.91.52,2.37-.26,4.23-.84,6.23-.6,2.05-1.47,3.97-1.19,6.25.19,1.51-.29,3.1-.48,4.65-.04.31-.22.71-.09.93,1.15,2.02.12,3.91-.43,5.76-.32,1.09-1.04,2.15-1.83,2.98-1.53,1.61-1.85,2.99-.54,4.87,1.12,1.6,1.04,2.96.47,4.87-.96,3.26-3.48,5.95-3.37,9.55.03.93.13,1.86.25,2.78.08.62.26,1.24.41,1.85.29,1.15.46,2.35.92,3.42,1.2,2.83.9,4.61-1.49,6.49-1.71,1.34-2.05,3.08-2.02,5.1.02,1.49-.22,2.98-.33,4.47-.03.39-.11.81,0,1.16.45,1.47.06,2.83-.42,4.2-.17.51-.33,1.09-.25,1.6.25,1.72.57,3.44.94,5.14.28,1.27-.16,2.12-1.18,2.87-1.48,1.09-1.44,1.14-.47,2.84.23.41.45.84.69,1.25.03.05.14.06.33.14,1.65-1.03,2.07-2.9,2.65-4.57.56-1.63,1.18-3.08,2.58-4.19.48-.38.65-1.21.85-1.86.21-.68.03-1.68.45-2.05,1.58-1.39,1.46-3.46,2.34-5.12.24-.45.29-1.07.22-1.6-.42-3.47.33-4.54,3.8-5.01.14-.52.22-1.14.46-1.7.48-1.16.88-2.4,1.6-3.4.68-.94,1.23-1.81,1.28-3,.06-1.39.56-2.59,1.52-3.68.66-.75,1.05-1.76,1.44-2.7.37-.88.53-1.85.89-2.73.47-1.16,1.07-2.26,2.96-1.59-.58-1.65-1.18-2.92-.44-4.38.74-1.45,1.97-1.73,3.45-1.76.23-2.11.8-4.01.36-6.04-.36-1.67-.14-3.13,1.8-3.93.59-.24,1.1-1.19,1.25-1.9.3-1.39,1.11-2.39,1.83-3.55,1.79-2.9,3.82-5.65,4.98-8.97,1.31-3.76,3.16-7.33,4.87-10.94.67-1.41,1.13-2.81,1.02-4.37-.11-1.57.18-3.02,1.12-4.32.09-.13.18-.28.21-.43.61-2.87,1.62-5.4,4.47-6.91.72-.38,1.29-1.74,1.29-2.66,0-1.83.76-3.29,1.79-4.59,1.98-2.5,2.77-5.39,3.02-8.44.14-1.68.67-3.07,1.67-4.39.81-1.07,1.45-2.26,2.23-3.5-.34-.28-.66-.49-.92-.77-1.33-1.38-1.28-2.88.15-4.14,2.48-2.18,4.08-4.86,4.67-8.13.09-.47.12-1.07.43-1.35,2.16-1.94,2.26-4.82,3.36-7.23,1.12-2.46,1.93-5.06,2.98-7.55,1.14-2.71,2.41-5.37,3.6-8.06.26-.58.41-1.2.62-1.8.29-.82.46-1.74.93-2.45,1.09-1.64,1.59-3.46,2.01-5.35.23-1.08.7-2.11,1.15-3.13.72-1.63,1.36-3.26.99-5.08-.29-1.45.27-2.55,1.48-3.25,1.24-.71,1.27-1.68,1.37-2.99.16-2.18.73-4.36,1.43-6.45.71-2.12,1.67-4.11,1.82-6.42.08-1.21.93-2.35,1.28-3.57.65-2.25,1.61-4.05,3.94-5.19,1.79-.88,3.39-1.81,5.46-2.15,2.22-.37,4.3-1.57,6.42-2.44.95-.39,1.86-.87,2.78-1.32.99-.49,1.99-.97,2.96-1.5,2.02-1.11,3.95-2.4,6.04-3.33,1.27-.56,2.81-.5,4.18-.87,1.84-.5,3.67-1.04,5.44-1.75,1.77-.7,2.64-.52,3.57,1.1,1.37,2.4,1.31,3.25-.43,5.54-1.15,1.51-2.38,2.85-2.24,5.08.07,1.08-1.03,2.26-1.68,3.34-1.14,1.91-2.38,3.75-3.48,5.68-.29.51-.41,1.25-.32,1.84.46,2.92-.99,5.06-2.69,7.14-.5.61-1.15,1.25-1.32,1.97-.76,3.41-3,6.16-4.05,9.42-.76,2.35-1.15,4.82-1.89,7.18-1.03,3.27-2.17,6.5-3.37,9.72-2.17,5.83-4.57,11.59-5.93,17.69-.38,1.7-.35,3.48-.54,5.22-.12,1.1-.13,2.26-.5,3.28-.72,1.94-1.65,3.79-2.52,5.67-.99,2.15-.97,4.41-.2,6.53.62,1.72.3,2.92-.97,4.06-2.04,1.82-2.82,4.14-2.89,6.84-.08,2.88-1.48,5.32-2.99,7.69-.54.85-1.11,1.77-1.33,2.73-.8,3.51-1.34,7.05-1.48,10.66-.07,1.88-.72,3.74-1.05,5.61-.11.62-.29,1.37-.05,1.87.8,1.69.3,3.27-.07,4.91-.32,1.4-.39,2.85-.71,4.24-.28,1.22-.49,2.6-1.2,3.55-1.24,1.66-1.61,3.44-1.63,5.39-.02,1.84.12,3.64-1.45,5.12-.41.38-.37,1.56-.14,2.24.65,1.97.47,3.67-.78,5.39-.63.87-.95,2.03-1.19,3.11-.35,1.55-.72,2.95-1.65,4.37-1.03,1.56-.99,3.71-.25,5.53.46,1.14.35,2.04.09,3.19-.45,1.92-.53,3.94-.67,5.92-.24,3.34-.34,6.69-.66,10.01-.15,1.56-.89,3.06-1.04,4.62-.28,2.84-1.41,5.57-1.04,8.48.02.16.09.33.06.47-.84,3.42.06,6.92-.47,10.33-.19,1.22-.82,2.41-1.41,3.52-.68,1.28-.9,2.43-.37,3.87.3.82-.09,1.89-.4,2.85.72,1.27.88,2.57.32,4.05-.21.55.05,1.38.33,1.98.13.28.85.48,1.23.4.95-.22,2.27-2.38,1.87-3.29-.81-1.82.15-3.06,1.33-3.95,1.64-1.23,2.35-2.71,2.46-4.67.08-1.55.43-2.97,2.15-3.69.92-.38,1.17-1.35.74-2.26-.51-1.08-.19-2.02.25-2.98,1.15-2.53,2.12-5.11,3.57-7.54,1.07-1.79,2.65-3.6,2.58-6.03-.02-.71.59-1.45.97-2.15.76-1.39,1.73-2.65,1.68-4.4-.02-.61.48-1.39.96-1.84,1.57-1.47,2.17-3.25,2.07-5.33-.11-2.18.29-4.11,2.31-5.43.82-.53,1-1.42.61-2.35-.75-1.79.35-3.24.94-4.77.08-.22.79-.19,1.46-.33-.04-.81-.07-1.74-.14-2.66-.1-1.47.11-2.78,1.79-3.21,1.07-.28,1.32-1.11,1.43-1.99.12-.95-.02-1.94.17-2.87.27-1.31.47-2.76,1.18-3.84,1.12-1.7,1.52-3.51,1.63-5.43.08-1.39.49-2.45,1.73-3.2.44-.27.99-.8,1.01-1.24.09-1.85,1.21-3.27,1.81-4.91.4-1.11.69-2.32.72-3.49.06-1.81.73-2.99,2.43-3.73,1.89-.83,1.77-.9,1.32-2.87-.18-.79-.16-1.78.17-2.5,1.19-2.62,2.57-5.15,2.44-8.18-.02-.48.31-1.14.69-1.46,1.15-.94,1.57-2.17,1.75-3.56.03-.24.08-.48.17-.7,1.3-2.97,2.4-5.96,2.75-9.24.1-.94,1.1-1.88,1.87-2.63,1.13-1.09,2.3-2.05,1.51-3.87-.11-.26-.07-.66.04-.94.9-2.2,1.85-4.38,2.75-6.58.2-.5.35-1.03.43-1.57.26-1.81.47-3.63.72-5.44.15-1.06.81-1.7,1.56-2.49,1.47-1.54,3.14-3.19,2.68-5.78-.1-.58.21-1.47.66-1.87,1.21-1.1,1.82-2.49,1.92-4,.17-2.5,1.36-4.56,2.4-6.71.07-.14.13-.34.25-.4,2.2-1.15,2.23-3.27,2.46-5.33.15-1.37.56-2.6,1.78-3.52.49-.37.71-1.22.85-1.89.52-2.42.78-4.88,2.03-7.11.39-.7.32-1.66.48-2.67-.85-.11-1.46-.28-2.07-.26-3.17.13-6.35-.4-9.49.78-1.34.5-3.01.14-4.52.15-.64,0-1.28-.06-1.91-.09-2.54-.12-4.89.41-6.93,2.02-1.54,1.22-3.15,1.07-4.66,0-2.03-1.44-3.87-3.09-4.78-5.5-.67-1.78-.16-2.64,1.68-3.15.6-.17,1.24-.35,1.76-.69,2.28-1.53,4.43-1.71,6.83-.08,2.33,1.58,4.83.57,7.15-.24,2.62-.92,5.18-2,7.68-3.19,1.7-.81,3.16-.62,4.37.67,1.76,1.86,3.61,1.66,5.9,1.09,2.19-.54,4.58-.26,6.89-.32,2.62-.07,5.24-.08,7.86-.22.45-.02.99-.47,1.3-.87,1.02-1.31,2.23-1.84,3.82-1.37,2.32.69,4.55.22,6.78-.37.54-.14,1.05-.42,1.6-.49,3.08-.41,6.18-.68,9.25-1.18,4.7-.77,9.38-1.71,14.07-2.55.86-.15,1.74-.17,2.61-.26.85-.09,1.7-.21,2.32-.29.35-1.31.46-2.42.95-3.33.58-1.08,1.83-1.18,2.96-1.26,2.14-.15,4.29-.34,6.43-.37.64,0,1.28.5,1.93.74.63.23,1.35.74,1.89.6,2.55-.65,5.31,0,7.77-1.25.39-.2.94-.15,1.42-.14,1.86.06,3.61-.21,5.4-.84,1.39-.49,2.98-.45,4.48-.6,2.02-.2,4.05-.34,5.07-2.64,1.38.26,2.66.32,3.62-.98.54-.72,1.31-.4,1.89.16,1.28,1.25,2.63,1.09,4.2.52,3.19-1.17,6.58-1.13,9.92-1.39,1.25-.1,2.49-.43,3.74-.64,1.02-.17,2.05-.49,3.07-.47,2.6.06,4.8-.55,7.12-1.98,2.42-1.49,5.13-2.89,8.17-3.04.47-.02,1-.04,1.42.15,2.73,1.24,5.3.39,7.93-.41,3.32-1.02,6.68-1.07,10.08-.21.88.22,1.94.25,2.77-.04,1.14-.41,2.14-.18,3.26-.07,3.28.32,6.8,1.17,9.7-.76,2.04-1.36,3.71-1.32,5.71-.49.31.13.73.02,1.18-.43-.53-.11-1.14-.09-1.56-.37-.37-.25-.52-.82-.77-1.25.44-.24,1.18-.79,1.29-.69,1.39,1.32,3.63.44,4.95,2.03.66.79,1.68.58,2.13-.46.58-1.33,1.51-1.51,2.73-1.08,1.23.44,2.31.33,3.29-.69.34-.35.99-.45,1.52-.56,2.78-.57,5.55.09,8.32.12,1,0,1.59.83,1.35,1.83-.14.59-.56,1.12-.88,1.66-.57.95-.58.95.95,2.41.33-.52.59-1.14,1.03-1.57.94-.93,2.05-.71,3.12-.2.8.38,1.19,1.04,1.1,1.95-.1,1.04-.98,2.14-2.17,2.27-2.2.25-4.43.93-6.61-.06-.97-.44-1.8-.35-2.67.31-2.08,1.58-4.5,1.9-7.01,1.6-.92-.11-1.54.18-2.08.85-.79.98-1.71,1.4-2.93.71-.33-.18-.82-.33-1.15-.22-1.9.61-3.22-.29-4.47-1.74-.41.37-.8.62-1.07.97-1.37,1.78-2.39,2.23-4.29,1.24-1.87-.97-3.37-.41-4.9.53-1.69,1.03-3.29,2.2-5.02,3.15-.39.22-1.33,0-1.66-.35-1.02-1.08-2.03-1.15-3.43-.79-1.82.46-3.83,0-5.51,1.27-.25.19-.91-.09-1.34-.25-1.35-.49-2.63-.35-3.97.16-1.18.44-2.44.69-3.68.96-2.1.45-4.2.88-6.31,1.27-1.41.26-2.87.68-4.26.56-2.87-.24-5.14.95-7.28,2.56-2.96,2.23-2.69,1.69-5.17.1-.58-.37-1.17-.73-1.84-1.14-.08,2.89-.27,3.28-3.1,3.59-2.77.3-5.58.25-8.38.29-2.86.04-5.73-.08-8.59.03-3.59.14-7.18.34-10.74.72-3,.32-5.96.92-8.94,1.41-.47.08-.93.23-1.41.3-2.74.37-5.43.64-7.96,2.15-1.29.77-3.26.62-4.91.52-1.56-.1-2.98.16-4.46.54-2.23.58-4.53.89-6.79,1.36-1.47.3-3.09.39-4.34,1.1-2.06,1.18-3.97,2.08-6.34.49-.64,1-1.16,1.78-1.65,2.58-1.22,1.96-1.45,2.02-3.61.85-.21-.11-.44-.17-.69-.27-.21.09-.46.14-.63.28-1.59,1.38-2.05,1.43-3.75.4-2.07-1.26-2.31-1.13-3,1.26-.42,1.46-1.07,2.85-1.47,4.31-.37,1.37-.52,2.81-.82,4.21-.23,1.08-.52,2.14-.83,3.2-.14.45-.51.85-.6,1.3-.67,3.55-2.09,6.85-3.23,10.24-1.42,4.21-2.18,8.62-4.1,12.71-.79,1.68-.85,3.72-1.19,5.61-1.04,5.81-1.84,11.68-3.13,17.44-.93,4.14-1.21,8.36-1.98,12.51-.05.29,0,.6,0,1.23.57-.47.96-.71,1.25-1.03,1.69-1.92,3.27-3.94,5.06-5.77,1.62-1.65,3.38-3.13,6.06-2.55.97.21,2.16.17,3.07-.2,2.65-1.05,5.37-1.92,7.66-3.8,1.1-.9,2.72-1.24,4.16-1.65,1.35-.39,2.76-.53,4.4-.83-.43-.71-.67-1.18-.98-1.6-.46-.63-.75-1.26-.23-1.97.53-.74,1.23-.91,2.12-.68.91.24,1.86.37,2.8.55.2-.69.21-1.4.58-1.77.32-.33,1.04-.43,1.55-.37,1.16.14,1.69-.47,2.3-1.32,1.3-1.81,2.68-3.57,4.15-5.25,1.12-1.28,2.61-1.71,4.35-1.42,1.17.2,2.39.27,3.58.18.74-.06,1.63-.34,2.15-.84,1.12-1.08,2.4-1.36,3.86-1.64,2.34-.45,4.61-1.25,6.9-1.94.36-.11.71-.38.97-.66,1.89-2.06,4.01-3.54,7.01-3.45.63.02,1.37-.68,1.92-1.2.99-.92,1.82-2.03,2.83-2.93,1.37-1.22,2.85-2.06,4.84-2.32,2.15-.28,4.43-.73,6.13-2.42.68-.68,1.52-.92,2.4-.38.86.53,1.45,1.27,1.33,2.36-.08.79-.25,1.58-.31,2.38-.08,1.06.15,1.98.89,2.87,1.8,2.18,1.88,4.27.32,6.6-1.06,1.59-2.32,3.05-3.38,4.64-.75,1.12-1.8,2-1.66,3.73.11,1.39-.91,2.69-2.73,2.96-.06,3.58-1.78,6.23-4.43,8.42-1.03.85-1.84,1.98-2.77,2.96-1.62,1.68-3.67,2.2-5.92,2.04-2.17-.15-4.29-.14-6.39.64-.59.22-1.38-.08-2.07-.17-1.02-.13-2.08-.53-3.04-.37-1.72.28-3.34.74-5.1.04-.46-.18-1.35.33-1.87.75-.67.55-1.12,1.35-1.73,1.98-1.81,1.89-3.55,3.87-5.52,5.59-1.38,1.2-3.28,1.22-5.04,1.11-1.89-.12-3.49.49-4.83,1.71-.6.55-1.06,1.34-1.34,2.12-.35.97-.44,2.03-.66,3.04-.24,1.1.12,1.78,1.18,2.29,2.51,1.2,4.96,2.56,7.46,3.78.62.3,1.39.53,2.06.47,1.9-.17,3.9-.21,5.65-.86,2.46-.9,4.66-.01,6.27,1.21,1.83,1.38,4,1.96,5.75,3.35.74.58,1.63,1.01,2.26,1.68,2.17,2.29,4.46,4.22,7.68,5.06,2.6.68,5.02,2.02,7.52,3.06.37.15.75.27,1.13.39,3.89,1.19,7.78,2.4,11.69,3.52.71.21,1.69.33,2.28,0,3.33-1.85,6.58-3.86,9.87-5.8,2.82-1.65,5.66-3.27,8.49-4.91.62-.36,1.25-.71,1.85-1.09,1.18-.75,2.34-1.52,3.79-2.46.67-2.59,1.82-3.58,5.16-3.52,1.56.03,2.26-.42,3.17-1.75,1.72-2.51,4.12-4.46,7.44-4.52,1.42-.02,2.64-.36,3.79-1.23.53-.4,1.33-.45,2.01-.64.82-.23,1.65-.44,2.48-.66,3.21-.85,4.66-3.68,6.6-5.93.91-1.06,1.82-1.58,3.22-1.72,1.96-.2,3.87-.73,5.82-1.09,2.94-.54,5.61-1.66,7.99-3.5.62-.48,1.39-.82,2.14-1.06,1.23-.4,2.04-1.07,2.47-2.35.2-.59.86-1.2,1.46-1.43,1.21-.45,1.82-1.28,2.05-2.44.3-1.53,1.73-1.71,2.7-2.48,1.12-.88,1.99-.74,3.26-.24,1.16.46,2.66.44,3.92.17,1.18-.25,2.19-.38,3.18.31,1.25.86,2.44.58,3.58-.17,1-.66,1.98-1.36,2.92-2.1,1.1-.87,2.24-1.55,3.74-1.05-.24-.94-.74-1.8-.56-2.47.23-.85.99-1.57,1.58-2.3,1.13-1.4,2.8-1.97,4.42-2.15,1.04-.12,2.36.44,3.24,1.11,1.45,1.11,2.76,1.91,4.51.73.18-.12.53-.19.68-.09,2.23,1.4,5.9.31,6.63,3.95,3.53-.38,4.89.66,5.05,3.8.54-.04,1.08-.17,1.6-.11,1.02.11,2.41,1.27,2.51,1.99.11.82-.96,2.4-1.93,2.81-.29.12-.61.19-.92.27-1.9.5-3.81.96-5.69,1.52-.58.17-1.06.67-1.62.97-1.46.79-2.88,1.68-4.41,2.3-1.76.72-3.4.38-4.91-.9-1.37-1.16-1.63-1-2.9.4-.61.68-1.38,1.29-2.19,1.69-1.84.91-3.73,1.73-5.64,2.48-4.04,1.58-8.35,2.05-12.55,2.99-3.6.8-6.77,2.62-10.25,4.65.76.78,1.32,1.29,1.81,1.86.76.88.68,1.52-.3,2.17-.88.59-1.82,1.09-2.91.52-.83-.44-1.51-.13-2.26.25-.56.28-1.24.61-1.81.53-1.95-.27-3.87-.76-5.65.55-2.71-.17-4.9,1.32-7.23,2.29-1.7.7-3.29,1.65-5.01,2.32-1.22.47-2.61.5-3.81.98-1.15.46-2.1,1.4-3.24,1.88-.93.39-2.01.45-3.03.57-1.29.15-2.29.6-3.37,1.49-2.22,1.85-4.19,3.9-6.14,6.01-.78.84-1.67.82-2.64.52-1.36-.42-2.72-.84-4.24-1.31-.18,1.09.57,1.6.89,2.26.67,1.39.57,2.04-.74,2.8-3.04,1.76-6.1,3.48-9.2,5.15-.52.28-1.22.22-1.84.28-1.02.1-1.83.46-2.23,1.65,1.53.93,3.09,1.55,4.78,2.07,3.25,1,6.44,2.24,9.57,3.58,2.77,1.19,5.39,2.74,8.14,4,2.31,1.06,2.35.98,4.6-.09,2.05,1.82,4.45,3.25,6.38,5.48,1.36,1.58,3.72,2.33,5.68,3.35.29.15.91-.12,1.28-.35.45-.28.81-.71,1.42-1.27.66.7,1.27,1.28,1.79,1.93.75.94,1.36,1.99,2.17,2.86.35.38,1.06.43,1.6.63.18-.57.52-1.13.52-1.7,0-.75-.29-1.5-.44-2.23.38-.1.59-.22.66-.17,3.23,2.57,7.13,4.24,9.94,7.39.79.88,1.79,1.6,2.77,2.28.49.34,1.16.63,1.73.59,2.38-.15,3.42,1.45,4.3,3.2.19.39.01,1.03-.15,1.51-.46,1.34-.36,1.89.83,2.18,1.76.43,2.86,1.74,3.96,2.91,1.61,1.7,1.16,4.55-.73,6.23-.89.79-1.78,1.62-2.79,2.25-.84.52-1.84.79-2.79,1.14-.81.3-1.65.53-2.46.84-.37.14-.71.6-1.03.57-2.13-.19-3.56,1.18-5.14,2.22-.39.26-.82.49-1.11.84-1.44,1.73-1.52,1.78-3.55.98-.29-.11-.58-.25-1.01-.43-.72.69-1.45,1.39-2.11,2.01-1.2-.24-2.27-.45-3.35-.67-1.09-.23-1.98.12-2.93.68-.93.55-2.04.82-3.09,1.13-1.36.4-2.83.52-4.08,1.12-1.9.9-3.58.34-5.45-.4-.93,1.28-2.04,2.11-3.8,1.61-.46-.13-1.41.45-1.71.96-.96,1.6-2.38,2.29-4.1,2.6-1.1.2-2.18.57-3.29.66-.74.06-1.59-.1-2.23-.44-1.65-.87-4.09-.58-5.42.82-.49.52-.9,1.13-1.44,1.6-1.1.94-2.3,1.51-3.66.43-.12-.1-.27-.18-.41-.25-3.29-1.51-4.92-1.14-6.81,1.99-.81,1.33-1.9,1.76-3.17,1.67-1.21-.09-2.14.21-3.13.81-.74.45-1.65.6-2.45.95-.99.43-1.84.45-2.57-.48-.57-.73-1.33-.98-2.09-.36-1.24,1-2.69.96-4.12.87-1.81-.12-3.2.47-4.48,1.79-.85.88-2.08,1.4-3.15,2.07-.33.21-.81.3-1.02.59-1.28,1.78-2.79,1.51-4.43.62-.34-.18-.73-.26-1.41-.49-.14.8-.34,1.45-.36,2.11-.03,1.1-.44,1.87-1.53,2.14-1.22.31-2.46.6-3.7.85-3.94.79-7.91,1.07-11.89.37-1.15-.2-2.17,0-3.24.45-2.81,1.16-3.58,1.12-5.92-.02-.72.51-1.82.92-2.32,1.71-1.32,2.1-3.21,2.12-5.05,1.4-1.81-.71-3.14-.47-4.87.39-2.32,1.15-4.96,1.64-7.46,2.43-.45.14-.88.36-1.34.5-1.05.31-2.09.71-3.17.86-2.07.28-4.08.41-5.38,2.51-.81,1.3-2.45.9-3.77,1.06-.68.08-1.46-.05-2.02.26-1.28.71-2.3.31-3.32-.44-.19-.14-.4-.29-.54-.48-1.8-2.6-4.45-4.54-5.7-7.6-.49-1.2-1.44-2.28-2.39-3.2-1.73-1.67-1.31-3.85-1.58-5.85-.04-.31.79-.95,1.3-1.08,1.07-.26,1.55-.83,1.93-1.85.3-.82.95-1.74,1.7-2.13,2.9-1.52,3.88-4.2,4.34-7.07.33-2,.93-3.67,2.43-5.04.57-.52,1.2-1.21,1.35-1.92.49-2.39,1.97-4.08,3.88-5.24,2.14-1.3,3.44-3.54,5.56-4.74,1.92-1.09,2.98-2.85,4.1-4.54.9-1.35,1.84-1.92,3.6-1-.25-.83-.47-1.32-.55-1.83-.17-1.17.27-2,1.44-2.43,1.1-.41,2.16-.91,3.36-1.42-.16-.94-.33-1.71-.42-2.48-.2-1.72.48-2.54,2.12-2.24,2.33.44,3.82-.28,4.77-2.5.63-1.49,1.05-1.51,2.63-.93,1.65.61,3.24.83,4.59-.71.3-.34.81-.77,1.18-.73,2.45.24,3.57-1.87,5.27-2.92,1.73-1.07,3.19-2.43,3.96-4.37.72-1.81,2.4-2.28,3.99-2.76,1.18-.36,2.03-.77,2.16-2.15.1-1.06,1.02-1.3,1.89-1.57,1.03-.32,2.18-.48,3.07-1.83-.79-.33-1.41-.83-1.99-.79-3.03.2-5.58-1.17-8.24-2.26-1.75-.72-3.55-1.31-5.37-1.96-.55.73-.98,1.29-1.41,1.87-.93,0-1.87-.1-2.78.02-1.83.24-2.27-.04-2.44-1.89-.03-.31,0-.61,0-.97-1.78.25-3.31-.11-4.77-1.12-.59-.41-1.48-.5-2.24-.55-1.19-.07-2.4.05-3.59.05-3.45-.01-4.34-.71-5.14-4.11-1.88-.3-3.73-.55-5.27,1.11-.92.99-2.13,1.24-3.29.56-2.94-1.74-5.6-.43-8.16.79-2.37,1.13-3.58.78-4.36-1.75-.14-.46-.14-.95-.29-1.4-.31-.94-.77-1.66-1.85-2-.97-.3-2.03-.78-2.67-1.51-1.07-1.22-2.37-1.53-3.82-1.56-2.36-.05-4.72-.01-7.36-.01-.03.88-.13,1.81-.1,2.72.2,6.03-.45,11.94-1.98,17.79-.45,1.74-.26,3.64-.38,5.46-.29,4.22-.62,8.43-.88,12.65-.11,1.75,0,3.52-.12,5.27-.19,2.92-.22,5.82-1.12,8.73-.98,3.17-1.2,6.58-1.75,9.88-.31,1.88-.75,3.74-.92,5.63-.67,7.71-1.27,15.43-1.86,23.14-.1,1.27,0,2.56-.12,3.83-.16,1.73-.44,3.46-.67,5.18-.04.32-.17.63-.18.94-.05,5.1-1.07,10.15-.22,15.3.35,2.14-.18,4.43-.36,6.65-.09,1.11-.34,2.21-.46,3.32-.44,3.82-1.26,7.56-2.91,11.05-.98,2.08-1.3,3.88.54,5.67.84.82.83,1.91.66,3.12-.37,2.6-.68,5.24-.58,7.85.06,1.6.91,3.17,1.41,4.75.3.97.82,1.94.83,2.91.03,2.07-.23,4.14-.32,6.21-.08,1.91-.07,3.82-.11,5.73-.16,7.03-.33,14.06-.5,21.09-.15,6.39-.31,12.78-.46,19.17-.08,3.73-1.18,7.07-3.79,9.83-.27.29-.51.73-.84.83-3.04.93-4.93,3.45-7.21,5.36-3.16,2.66-6.28,5.42-8.55,8.97-.21.33-.46.69-.79.89-1.76,1.06-3.55,2.08-5.34,3.1-1.8,1.03-3.61,2.05-5.43,3.05-.47.26-.99.42-1.57.66h0Z"/>
    <path class="cls-1" d="m697.57,70.36c-.25-1.91.57-3.42,1.83-4.74.39-.4.9-.69,1.23-1.12,2.53-3.27,6.13-4.31,9.99-4.56,1.88-.12,3.86.25,5.32,1.55,1.35,1.21,2.56,2.64,3.59,4.14,1.02,1.49.81,3.25.09,4.82-.67,1.46-1.18,2.71-.65,4.48.65,2.14-1.6,4.58-3.9,4.72-2.41.15-4.82.3-7.23.41-.46.02-.97-.07-1.38-.27-2.13-1.07-4.28-2.12-6.34-3.32-1.83-1.07-2-3.12-2.53-4.92-.11-.37-.02-.79-.02-1.19h0Z"/>
    <path class="cls-1" d="m353.32,47.42c.97.21,1.86.19,2.5.57,2.01,1.21,4.04,2.43,5.84,3.91,1.52,1.25,1.55,4.8.4,6.41-1.86,2.61-3.4,5.37-4.15,8.53-.62,2.62-1.18,3-3.66,2.29-2.12-.61-4.21-1.23-6.4-1.66-3.76-.73-6.32-6.54-4.72-10.11.57-1.26,1.15-2.41.78-3.86-.1-.39.11-1.02.41-1.31,1.37-1.33,2.19-3.45,4.69-3.21.56.05,1.15-.48,1.75-.7.88-.32,1.78-.61,2.56-.87h0Z"/>
    <path class="cls-1" d="m676.18,64.78c.56-.03,1.13.01,1.66-.11,3.52-.79,6.55.17,9.39,2.3,1.38,1.04,1.97,2.48,2.47,3.96.2.59.05,1.5-.29,2.04-1.22,1.99-2.14,4.02-2.38,6.39-.12,1.2-1.16,1.87-2.3,2.16-1.61.41-3.3.6-4.85,1.17-2.6.97-4.68.02-6.55-1.55-.73-.62-1.36-1.62-1.56-2.55-.43-2-.98-4.04-.13-6.11.18-.45.15-1.22-.13-1.57-1.04-1.31-.55-2.34.36-3.4.26-.3.42-.67.62-1.02.82-1.45,1.87-2.42,3.7-1.71h0Z"/>
    <path class="cls-1" d="m319.16,69.59c-1.74-.18-3.5-.26-5.22-.56-2.31-.4-4.03-2.49-4.25-4.86-.09-.95-.13-1.91-.37-2.83-.58-2.27.73-4.49,3.03-4.56,1.37-.04,2.13-.39,2.87-1.58.64-1.03,1.73-1.86,2.78-2.53.99-.63,2.13-.37,3.2.16,1.14.56,2.32,1.03,3.49,1.51,1.17.49,2.61,3.1,2.33,4.35-.55,2.5-1.22,4.94-3.06,6.89-.48.51-.97,1.14-1.14,1.8-.52,1.97-1.88,2.41-3.65,2.23h0Z"/>
  </g>
</svg>