<?xml version="1.0" encoding="UTF-8"?>
<svg id="Layer_1" data-name="Layer 1" xmlns="http://www.w3.org/2000/svg" viewBox="0 0 960 448">
  <defs>
    <style>
      .cls-1 {
        fill: #fff;
        fill-rule: evenodd;
      }
    </style>
  </defs>
  <path class="cls-1" d="m374.81,38.71c2.37,20.59-2.07,38.56,2.82,62.03,43.49-10.14,85.18-20.5,132.52-16.35,3.3.29,7.1.48,10.71,1.13,2.87.51,6.3,2.3,9.02,2.26,2.99-.05,6.82-4.11,11.28-3.95,25.77,36.14,53.09,73.49,52.44,134.21,7.75-2.59,12.78-7.9,20.3-10.72-9.19-34.72-13.72-73.77-29.89-103.76-1.81-3.36-5.96-10.88-5.64-12.97.78-5.08,11.02-7.36,15.23-3.95,2.56,2.08,8.93,6.08,10.15,8.46,3.48,6.76,6.33,14.85,10.72,22.56,5.82,10.22,8.05,21.9,12.97,33.27,8.29,19.18,13.68,46.61,17.48,68.23,7.68-3.6,13.64-8.91,21.99-11.84-.96-6.95-1.42-14.8-2.82-21.99-1.88-9.66-4.76-20.43-10.15-24.81-.74-2.45-.6-5.79-1.13-8.46,2.14-2.5,5.08-4.8,7.89-5.07-7.4-6.56-25.18-13.73-30.45-24.25-4.71-9.39,3.37-15.67,10.71-19.74-.53-17.58-2.78-36.55-6.2-54.13,2.19-.04,3.67.84,6.77,1.69,1.54,2.41,2.94,4.95,3.38,8.46,1.6.09-.47-3.48,1.13-3.38,4.43,1.02,3.44,7.46,7.33,9.02,2.53.77-.12-5.13,2.25-2.82,4.62,7.98,7.16,18.03,10.15,27.63,25.5-8.58,53.8-10.26,78.38.56,2.29.16,1.27-.21,1.13-1.69,12.12,4.16,20.48,14.71,30.45,19.17.04-4.35-1.14-8.41-2.82-12.97-1.22-3.3-5.28-8.36-4.51-11.28,1.23-4.69,18.26-12.6,23.68-12.97,1.42-.1,4.49.91,5.64,1.13,5.71,18.09,6.41,48.54,11.84,66.54.53,1.75,2.98,5.12,2.82,6.77-.51,5.15-9.7,6.82-14.66,9.59-5,2.79-7.64,7.81-12.97,5.08-4.64-13.8-16.24-28.14-26.5-38.35-20.01-19.9-51.03-34.94-91.35-24.25,2.43,10.98,6.29,23.32,9.58,31.58,10.41,6.32,21.33,12.13,33.84,16.35.92.96,14.73,7.55,15.79,8.37,11.99,4.74,21.16,10.32,32.51,14.96,24.56,9.27,41.8,19.61,65.53,31.48,14.36,10.42,28.13,13.57,38.42,28.09,14.18,20-10.36,34.56-23.68,42.29-11.76,6.83-27.55,12.66-44.55,14.1-21.39,1.81-36.8-3.27-52.44-8.46-2.07,3.75-3.69,7.97-5.64,11.84,1.84,3.47,8.06,3.76,8.46,7.89.48,4.99-9.91,11.05-14.66,12.97-49.53,20.05-128.5,26.01-195.67,27.63,17.18,27.91,35.05,59.55,72.18,66.54-9.94,4.38-24.05,8.91-33.83,6.2-15.62-4.32-27.51-15.51-37.78-24.81-10.72-15.41-21.9-30.35-29.89-48.49-39.09-3.16-82.85-5.13-92.48-39.47-26.82,3.66-52.42,11.41-77.82,17.48-12.81,3.06-29.52,3.89-36.65,12.41-2.15-.29-3.31-1.57-5.08-2.25-25.37,4.71-61.74,19.67-94.74,19.74-8.44.02-23.76-2.81-24.81-11.84-.92-7.91,6.45-11.12,8.46-17.48,25.65-23.41,55.73-42.39,91.92-55.26-6.6-7.5-9.07-19.12-12.41-29.89-15.72,15.11-31.24,29.54-58.08,34.96-13.06,2.64-27.46,3.78-42.29,3.38,5.81,10.67,14.83,30.88,6.77,44.55-1.57,2.65-5.17,5.2-7.33,7.89-2.37,2.96-3.99,7.74-7.89,6.77,1.47-20.64-6.23-38.45-15.23-53.57-1.98-3.32-5.09-9.52-7.33-11.28-2.22-1.74-5.54-1.73-7.89-2.82-14.16-6.56-25.91-17.52-33.84-32.7-2.28-4.37-6.96-12.97-6.2-18.61.92-6.8,9.46-9.61,15.23-12.97,6.14,1.11,8.15,9.01,12.97,9.59,1.47,4.73,6.41,5.99,7.89,10.71,2.16,1.48,2.47.2,3.95.56,7.57,9.16,15.82,17.63,22.56,27.63,30.46,6.25,74.05,5.89,100.94-9.02,2.2-8.05-2.72-15.03-8.46-20.3-8.4-7.7-23.54-14.52-33.27-18.05-33.66-12.2-79.97-13.95-121.8-15.79-6.28-.27-12.57-.4-18.61-1.13-5.39-.65-14.17-.37-18.52-1.22-5.49-1.07-14.11-1.25-19.61-2.58-6.19-1.5-5.55-6.12-9.8-9.74,4.16-20.51,34.92-36.8,52.4-42.7,17.4-5.88,36.36-7.17,54.51-4.86,8.26,1.05,35.19,3.4,39.13,12.6-4.08-9.53-14.73-21.74-21.99-33.27-2.36-3.74-7.32-8.02-7.33-11.28-.02-4.34,7.04-8.69,10.71-11.28,4.73-3.32,9.6-5.79,14.1-6.2,5.17,5.01,6.21,11.65,9.58,17.48,7.17,12.4,19.54,21.47,23.12,37.22,22.15-13.54,53.49-25.93,82.33-32.14,11.1-2.39,26.07-2.78,36.09-1.13,4.22.7,10.84,1.55,10.71,7.89-2.17.9-4.69,4.11-7.89,5.64-4.32,2.06-14.78,5.56-18.61,4.51-3.23-.89-4.12-5.85-6.2-7.33-4.06-2.88-11.89-3-18.61-2.26-29.14,3.23-57.14,18.44-73.31,35.53,2.65,6,5.36,11.94,8.46,17.48,51.04-5.11,90.41-25.4,136.46-38.34,6.5-21.56,7.39-46.26,5.64-67.67,9.78-2.88,19.01-7.22,29.89-6.2m89.66,87.41c20.53-1.49,44.57-8.77,55.26-17.48,4.73-3.85,4.18-8.06,1.13-11.84-16.66-8.58-40.03-8.81-60.34-7.33-27.89,2.03-55.82,10.25-81.2,15.79,3.06,14.99,13.6,22.49,21.99,32.14-1.88,5.78-11.29,4.89-17.48,5.64-2.88.35-5.2,1.56-7.89,1.13-6.46-1.04-9.74-7.92-13.54-10.15-5.84,8.53-19.59,9.24-29.32,12.41-3.86-1.77-7.06-2.01-7.33-6.2-.33-5.08,4.97-5.4,8.46-10.15,2.9-3.95,2.52-7.8,3.95-11.84-43.51,12.32-85,29.65-128,40.6-.19,2.44,3.13,1.39,2.82,3.95-1.03,3.3-3.89,4.75-4.51,8.46,7.97,2.37,15.75,4.92,23.12,7.9,6.65-4.88,13.97-15.31,22.56-12.97.29,2.48,3.25,6.29,5.64,8.46,4.79,8.94,10.92,19.51,18.05,24.25-.42-25.96,12.22-38.5,28.2-47.37,2.37-1.31,5.82-3.08,8.46-3.38,3.67-.42,7.15,1.93,10.71,2.26,1.61.15,2.73-.88,3.95-.56,8.93,2.33,14.29,11.84,20.86,16.92,8.45-5.84,17.84-13.77,28.76-12.41,1.98,5.8,2.93,9.73,3.38,17.48,3.63-8.51,15.04-13.55,26.5-14.66,3.99,5.04,4.2,13.85,7.89,19.17,4.25-9.67,14.06-18.97,25.38-24.25,4.22-1.97,14.13-6.51,19.74-6.2,7.21.4,8.76,14.56,10.71,21.43,2.29,8.04,3.93,14.35,6.77,20.3,5.42-17.95,22.94-32.73,40.6-40.6,8.07-3.6,19.15-7.13,27.63-3.95-3.77-10.71-8.48-20.46-15.22-28.2-12.63,4.68-28.32,9.26-41.17,12.41-4.24,1.04-6.44,1.46-10.46,2.63-1.39.41-5.54,1.06-7.02,1.32-2.72.47-6.29.02-9.58.56-12.74,2.1-34.27,4.95-46.24,0-2.46-1.01-4.16-4.47-5.64-5.64-2.38-1.89-6.98-1.64-5.64-6.2,3.47-.09,3.8,2.96,6.77,3.38-.7-1.74-1.79-3.11,0-4.51,6.3-.47,9.08.33,14.66,1.13,10.46,3.94,23.58,7.15,36.65,6.2m-375.56,6.77c-13.77,0-40.21,1.91-48.57,14.84,9.38,3.39,20.55,4.31,30.35,7.22,10.23,3.03,21.51,3.93,32.12,5.38,11.01,1.5,10.12,1.54,21.16,2.58,10.51.99,28.9,3.61,44.66,3.11-16.28-33.55-54.89-33.12-79.72-33.12m438.16,81.77c12.73-7.35,28.24-37.59,15.79-53.01-4.71-5.82-15.07-9.41-25.94-6.77-9.26,8.66-14.16,19.69-14.1,36.65,1.18,1.27,5.08-.19,5.08,2.26-.1,13.45,4.77,21.92,19.17,20.86m179.32,40.04c-4.51,3.3-8.78,3.88-14.1,1.13-1.47.41-1.73,2.03-3.38,2.25-.78-1.47-1.79-2.72-3.38-3.38-.31.82.66,2.92-.56,2.82-2.63-.86-2.88-3.62-5.64-1.69-6.02-12.02-8.86-27.23-11.28-42.86-11.05,5.11-19.42,13.99-20.3,27.63-8.45,5.25-16.93,10.96-25.94,14.1-1.32-1.69-3.28-2.73-3.38-5.64,2.86-9.93-.89-25.56-2.82-36.09-7.26,3.57-16.54,10.35-20.3,17.48-1.34,2.54-.74,5.87-2.25,8.46-2.6,4.44-10.44,7.15-14.1,10.15-1.12.92-2.06,1.96-3.38,2.82-11.07,7.2-14.52-1.1-9.02-11.84-3.58,1.68-4.5,3.37-9.58,6.2-8.97,4.22-21.44,11.71-36.09,10.72-8.46-.57-14.72-4.34-21.43-7.33,1.91,8.99,5.31,16.5,7.89,24.81,69.85-8.05,146.2-4.44,209.77,7.89,2.41-6.2,2.64-17.08,2.82-23.68-14.2-15.31-16.58-42.44-19.17-69.36,7.02-3.88,13.37-8.08,21.43-7.33.87,4.65,4.03,6.61,5.64,9.58,9.32,17.28,11.43,40.57,16.91,60.34,3.82,2.1,8.8,5.18,13.39,7.52,3.8,1.94,7.08,3.77,11.99,5.45,6.53,2.24,12.56,4.81,19.18,5.64,23.4,2.94,57.73,1.48,50.19-24.81-4.14-14.44-22.32-23.89-35.53-31.02-35.79-19.29-81.97-38.53-115.03-54.7h-1.13c7.08,31.78,8.41,67.24,18.61,94.74m-407.7-90.79c-5.89,7.83-7.63,19.81-7.33,33.84,2.93,11.77,2.72,49.32,15.22,52.44,6.61,1.65,11.8-4.37,19.74-3.38,16.75-27.48,6.58-85.69-27.63-82.89m170.3,84.59c-9.74-27.77-17.97-55.52-27.63-82.89h-1.69c-12.73,16.54-16.51,43.37-11.84,71.62-4.51,6.21-13.02,8.41-19.18,12.97,11.87,1.83,21.92,10.04,32.14,8.46-.51,1.78-1.7,2.48-.56,4.51,9.23.72,11.28,13.95,19.74,15.79,5.4,1.17,11.2-2.02,18.61-1.69-2.34-11.81-6.27-19.3-9.59-28.76m-69.92-4.51c-3-26.14-5.43-52.84-16.35-71.05,3.15,25.98,3.97,54.3,16.35,71.05m123.49-16.92c-2.07-.19-3.13.63-4.51,1.13,8.73,14.07,36.3,21.95,37.78-1.13.22-3.42-1.14-5.91-.56-10.15.28-2.07,2.3-2.1,1.13-5.08,2.4.38,5.69-3.26,6.2-5.08,2.21.13,2.72.75,3.95,2.82-1.21-3.99,1.26-11.99-2.26-16.92-8.16,17.21-26.76,23.99-41.73,34.4m-182.7,19.17c11.59-.02,20.04,0,29.89,1.13-.24-5.04-4.39-9.29-6.2-15.23-3.28-10.71-3.59-23.67-5.64-34.4-.22,19.82-7.97,36.67-18.04,48.49m-11.84,9.59c-5.5,5.02-11.54,9.51-18.61,12.97,3.91,11.34,7.28,28.53,9.02,38.34,30.84-7.32,62.06-14.26,93.61-20.87,1.27-4.36,2.53-8.75,4.51-12.41-18.07-16.8-53.81-21.62-88.53-18.04m-44.55,19.74c-.96-3.67-3.31-11.5-7.33-10.71-23.09,4.54-53.52,21.99-68.23,34.96-4.73,4.17-11.49,12.48-11.28,18.04.13,3.38,4.63,6.27,6.2,7.89,29.69,4.8,62.15-5.28,89.1-11.84-3.88-11.48-5.85-28.37-8.46-38.34m226.69,6.77c5.9,14.59,11.32,29.66,18.61,42.86,41.31,2.23,74.64-.36,116.16-3.38,26.92-1.96,55.15-4.82,71.62-18.61-4.5-.46-5.78,4.35-10.15,2.25-.37-5.44,4.41-5.74,4.51-10.71-65.33-16.84-129.67-16.86-200.75-12.41m-68.8,11.84c9.3,18.52,32.48,23.16,55.83,27.63-4.06-11.04-10.18-23.29-14.66-36.65-15.82,1.5-30.9,3.37-41.17,9.02"/>
  <path class="cls-1" d="m911.65,231.56c-8.36,15.89-18.39,30.11-27.07,45.68-3.12-.75-2.01,2.72-4.51,1.13-.54,3.79-2.97,5.68-3.95,9.02-2.47.38-6.76.72-7.33,4.51-2.32-1.36-4-4.05-6.77-3.39,1.01-4.39-5.71-1.05-4.51-5.64-2.37,1.34-3.07,6.23-7.33,3.95,5.72-26.03,24.99-43.94,29.89-67.1.82-.49,1.79-.85,1.69-2.25,12.39.1,21.57,8.08,29.89,14.1"/>
  <path class="cls-1" d="m900.37,284.57c-5.19,3.64-8.09,9.58-11.84,14.66-.81-3.83,4.87-6.02,5.08-10.71-.37-.57-1.3-.58-1.13-1.69-2.58,1.56-3.95,4.33-5.64,6.77,3.13-5.61,5.51-13.35,11.28-18.05,1.38,1.42-2.22,2.63-1.13,5.64,3.41-.92,3.55-5.1,5.07-7.89-.05-1.07-2.2.35-2.25,1.13-.85-1.44,2.36-3.63,2.82-5.64-2.63,0-1.5,3.77-4.51,3.38,3.72-5.69,6.61-12.18,10.71-17.48-.14-.71-1.12-.57-1.13,0,1.89-7.48,4.11-17.92,9.02-23.12,9.76,4.96,19.45,5.24,27.63,12.41.84,9.4-12.11,19.83-17.48,27.07-8.04,10.82-14.52,23.13-22.56,31.01-2.89-2.72-4,2.61-6.77,3.39-1.5-.87-1.54-3.2-3.95-1.69-1.27-9.28,4.03-12.2,6.77-19.17"/>
  <path class="cls-1" d="m135.15,308.82c-2.49,10.81-13.48,13.32-20.87,7.89-1.71.7.61,1.94,0,3.38-2.08-1.3-2.77-4-5.07-5.08.81,2.01,1.68,3.96,1.69,6.77-5.19-1.46-7.31-7.05-10.71-11.28-6.83-8.5-14.25-16.88-21.43-24.81-4.28-6.81-7.89-14.28-15.79-17.48-.54-1.52-1.58-2.55-2.82-3.38,5.61,22.18,21.44,38.08,32.14,56.96-1.01.07-1.19-.69-2.25-.56-.12,2.37,2.14,2.37,2.25,4.51-1.25.31-.8-1.08-1.69-1.13-1.31,8.37-4.32,6.07-11.84,5.08-1.09-.15-3.05.62-3.38.56-1.48-.27-1.66-1.77-2.82-2.26-.56-.24-1.95.93-3.38,0-4.23-2.73-9.37-8.82-10.71-12.97-1.73.41-2.06-.57-3.39-.56-6.92-7.97-14.19-20.91-20.86-29.32-5.37-6.76.15-8.64,5.07-13.53.38-.38-.31-1.8,0-2.26.32-.46,3.92-1.97,5.64-3.38.35-.29.28-1.49.56-1.69.51-.35,3.54,1.02,2.82-2.25,5.21-.53,5.24-2.3,9.59-1.69.44,1.44.56,3.2,1.69,3.95,1.45-.77.13-3.45,0-4.51,9.21-5.24,18.7-13.71,29.89-13.54,11.96,24.13,31.22,40.96,45.68,62.59"/>
</svg>