<?xml version="1.0" encoding="UTF-8"?>
<svg id="Layer_1" data-name="Layer 1" xmlns="http://www.w3.org/2000/svg" viewBox="0 0 960 448">
  <defs>
    <style>
      .cls-1 {
        fill: #fff;
      }
    </style>
  </defs>
  <path class="cls-1" d="m837.86,49.57c.92-.14.11,1.44,1.17,1.16-.52.87-1.55-.17-1.17-1.16h0Z"/>
  <path class="cls-1" d="m668.33,61.8c1.18,1.35,1.78,3.27,2.33,5.24-1.08-1.44-1.84-3.21-2.33-5.24h0Z"/>
  <path class="cls-1" d="m756.3,83.06c1.22-.45.04,1.51.87,1.46-.19.87-.62-.28-1.16,0-.09-.68.05-1.12.29-1.46h0Z"/>
  <path class="cls-1" d="m137.05,83.94c.77-.09.96.4.87,1.17-.77.09-.96-.4-.87-1.17h0Z"/>
  <path class="cls-1" d="m148.99,89.76c1.04.42-.13,1.4,0,2.04-1.09-.23-.19-1.41,0-2.04h0Z"/>
  <path class="cls-1" d="m131.51,90.05c.77-.09.96.4.87,1.17-.34.24-.78.38-1.46.29-.05-.72.46-.9.58-1.46h0Z"/>
  <path class="cls-1" d="m145.2,90.05c.93-.06,1.26.49,1.46,1.17-.69-.18-1.36-.39-1.46-1.17h0Z"/>
  <path class="cls-1" d="m155.11,90.05c.98-.3.45.91.58,1.46-.59-.21-1.19-.88-.58-1.46h0Z"/>
  <path class="cls-1" d="m151.9,90.35c-.54,1.42.26.36.87.87.21.79-.58.59-.58,1.16-.58-.34-1.97-1.98-.29-2.04h0Z"/>
  <path class="cls-1" d="m774.07,90.93c.99.63-.66,1.06-.58,1.75-.79.21.21-1.37-.58-1.16.09-1.15.9.22,1.17-.58h0Z"/>
  <path class="cls-1" d="m149.86,93.26c.04.65-1.48,1.21-1.46.87-.11-.88.95-.61,1.46-.87h0Z"/>
  <path class="cls-1" d="m150.74,95.59c.06-.84-.07-1.48-.58-1.75,1.38-1.07,2.39,1.62.58,1.75h0Z"/>
  <path class="cls-1" d="m143.45,95.88c.05,1-1.03-.07-1.46.87.2.91.78.38,1.46.29.37,2.31-2.28-.02-3.2,1.16-.72-1.09,2.68-1.77.87-3.2.64-.49,1.3.86,2.33.87h0Z"/>
  <path class="cls-1" d="m134.43,98.5c.74.04,1.13.42,1.16,1.17-.38.37-1.07.37-1.46,0-.04-.52.36-.61.29-1.17h0Z"/>
  <path class="cls-1" d="m142.87,99.08c.45-1.16,1.71.75,1.75,0,.25-.05.27.11.29.29.08.47-.27.5-.29.87-.87-1-.86-.08-2.04,0-.04-.39,1.19-.88.29-1.17h0Z"/>
  <path class="cls-1" d="m137.34,99.38c-.02.78-.67,1.4-1.17.87-.09-.77.4-.96,1.17-.87h0Z"/>
  <path class="cls-1" d="m144.91,101.71c-1.04-.56-1.07.11-2.04.29-.12-1.05,2.32-1.63,2.04-.29h0Z"/>
  <path class="cls-1" d="m760.37,100.83c.52.07.67.5.58,1.16h-.88c-.12-.61.2-.77.29-1.16h0Z"/>
  <path class="cls-1" d="m148.7,102.29c.89.28-.13.98-.29,1.17.33.16,1.98-.05,2.62.58.05.72-.46.9-.58,1.46-.64-.04-.63-.73-.58-1.46-1.12.67-1.1,3.08-2.62,4.08-.12.7.53.63.29,1.46-2,.06-1.41-1.56-1.46-2.62.9.42,1.13-.05,1.75-.58-.07-.37-.87-.38-.87,0-.79-.27.41-.91,0-1.75.47.02,1.63,1.44,1.75,0-1.43.11-1.16-1.53,0-2.33h0Z"/>
  <path class="cls-1" d="m124.52,104.04c.23,1.12-1.39,1.12-1.16,0,.79.03.59-.49,1.16,0h0Z"/>
  <path class="cls-1" d="m143.16,103.74c.85.96,1.51,1.35,2.62,1.46-.41,1.2-3.4-.55-2.62-1.46h0Z"/>
  <path class="cls-1" d="m144.33,106.08c1.7.75.47,2.85-.29,4.08-.85-.72.73-1.98.29-4.08h0Z"/>
  <path class="cls-1" d="m146.37,111.03c-.1.68-.35,1.2-.58,1.75-.52.04-.61-.36-1.16-.29.27-.8.92-1.22,1.75-1.46h0Z"/>
  <path class="cls-1" d="m278.32,111.32c.64.48-.41,1.71-.58,2.33-.88-.71.31-1.81.58-2.33h0Z"/>
  <path class="cls-1" d="m147.24,111.9c.77-.09.96.4.87,1.16-.77.09-.96-.4-.87-1.16h0Z"/>
  <path class="cls-1" d="m145.49,113.36c1.84-.09,2.34.82,3.79,0-.11,2.02-3.63,2.21-3.79,0h0Z"/>
  <path class="cls-1" d="m145.49,115.4c1.06.89,1.59-.07,2.33.29.37,1.15-.85.7-.87,1.46-.54-.04-.18-.99-.58-1.16-.64.04-.63.73-.58,1.46-1.22-.04-.91-1.62-.29-2.04h0Z"/>
  <path class="cls-1" d="m149.57,116.56c.29,1.15-.64,1.69-1.17,1.17.04-.74.42-1.13,1.17-1.17h0Z"/>
  <path class="cls-1" d="m149.28,119.47c-.56.61-.53,1.8-1.46,2.04.07-1.1.29-2.04,1.46-2.04h0Z"/>
  <path class="cls-1" d="m280.06,119.47c.76-.08,1.25.11,1.17.87-.76.08-1.46.1-1.17-.87h0Z"/>
  <path class="cls-1" d="m132.68,120.64c.91-.13,1.3.25,1.17,1.17-.91.14-1.3-.25-1.17-1.17h0Z"/>
  <path class="cls-1" d="m141.12,120.93c-.18,1.08-.55,1.97-1.46,2.33.34-.93.58-1.94,1.46-2.33h0Z"/>
  <path class="cls-1" d="m149.57,122.97c-.39.74-1.29-.43-2.04-.29.32-1.18,1.19.29,2.04.29h0Z"/>
  <path class="cls-1" d="m159.77,122.39c.45.41.83,1.51.29,2.04-.65-.12-.12-1.44-.29-2.04h0Z"/>
  <path class="cls-1" d="m140.54,124.43c.06.83.04,1.59-.87,1.46-.6-.6,0-1.48.87-1.46h0Z"/>
  <path class="cls-1" d="m152.48,126.46c-.59-.67-2-.52-2.33-1.46,1.08-.79,2.18.4,2.33,1.46h0Z"/>
  <path class="cls-1" d="m139.96,126.17c.44.76-.57,1,.29,2.04-.47-.6-1.57-.56-1.46-1.75.39-.71.88.52,1.17-.29h0Z"/>
  <path class="cls-1" d="m151.03,126.76c.78.43-.12,1.6-.87,1.46v-1.16c.63-.19.93.83.87-.29h0Z"/>
  <path class="cls-1" d="m153.94,126.76c-.19.98-1.05,1.28-1.75,1.75-.43-.44.63-1.88,1.75-1.75h0Z"/>
  <path class="cls-1" d="m167.34,128.5c.2.98-.49,1.06-1.17,1.17.04-.74.42-1.13,1.17-1.17h0Z"/>
  <path class="cls-1" d="m149.86,130.25c-.41.37-.02,1.54-1.17,1.16-.13-.91.25-1.3,1.17-1.16h0Z"/>
  <path class="cls-1" d="m151.9,131.71c.36.13.6.37.58.87-1.05-.24-1.41.66-2.04,0,.13-1.15,1.25.35,1.46-.87h0Z"/>
  <path class="cls-1" d="m154.23,131.71c.34.05.25.53.29.87-.34.24-.78.38-1.46.29.26-.51,1.07-.48,1.16-1.17h0Z"/>
  <path class="cls-1" d="m163.26,132.58c-.15.23-.3.47-.29.87-.46.02-1.11-.14-1.17.29-.36-.13-.6-.37-.58-.87.67-.28.94-.02,2.04-.29h0Z"/>
  <path class="cls-1" d="m159.18,132.87c-.22.63-.71,1.63-1.46.87.27-.51.54-1.01,1.46-.87h0Z"/>
  <path class="cls-1" d="m184.82,133.75c.08.76-.11,1.25-.87,1.16-.08-.76.11-1.25.87-1.16h0Z"/>
  <path class="cls-1" d="m162.68,134.04c.55.51-.51,1.01.87.87-.05.83-.53,1.21-.58,2.04-.68-.54-.35-1.92-1.46-2.62.52.04.61-.36,1.16-.29h0Z"/>
  <path class="cls-1" d="m137.63,134.62h.58c-.05.25.11.27.29.29v.58c-.25-.05-.28.11-.29.29h-.58c.05-.25-.11-.28-.29-.29v-.58c.25.05.27-.11.29-.29h0Z"/>
  <path class="cls-1" d="m184.52,135.79c-.36.88-1-.32-1.75,0-.21-.79.58-.59.58-1.17.75.03.42,1.14,1.16,1.17h0Z"/>
  <path class="cls-1" d="m174.04,136.66c-1.28.21-1.51-.63-1.75-1.46.99.08,1.79.35,1.75,1.46h0Z"/>
  <path class="cls-1" d="m185.11,135.2c1.06-.19,1.55.2,2.04.58-.62.24-2.07.58-2.04-.58h0Z"/>
  <path class="cls-1" d="m160.93,135.49c.47-.08.5.28.87.29.21.79-.58.59-.58,1.16-.74-.03-.69-1.09-.29-1.46h0Z"/>
  <path class="cls-1" d="m174.91,135.49c1.14.92,1.24-.25,2.33.29-.15.23-.3.47-.29.87-2.2-.73-2.22,2.24-4.08.87.24-1.11,2.33-.39,2.04-2.04h0Z"/>
  <path class="cls-1" d="m157.44,135.79c.23.15.47.3.87.29-.24.34-.38.78-.29,1.46-.38-.1-.46-.51-.87-.58-.04-.52.36-.61.29-1.16h0Z"/>
  <path class="cls-1" d="m186.85,136.37c.53.34.23,1.52.58,2.04-.26-.23-.66-.31-1.16-.29.23-.54.49-1.07.58-1.75h0Z"/>
  <path class="cls-1" d="m199.67,137.53c.53-1.26,2.19.22,3.2.29-1.09,1.52-1.65-.58-3.2-.29h0Z"/>
  <path class="cls-1" d="m164.13,137.24c-.03.41-.05.83.29.87-.44.34-.71.84-1.46.87.14-.62-.42-.55-.87-.58.36-.7,1.19-.94,2.04-1.17h0Z"/>
  <path class="cls-1" d="m150.74,137.53c1,.59-.99,2.51-2.04,2.91-.13-1.28.89-.96.29-2.04.84.81,1.07-.64,1.75-.87h0Z"/>
  <path class="cls-1" d="m160.64,137.82c.86.21,1.23.91,1.16,2.04-1.09.02-.99-1.14-1.16-2.04h0Z"/>
  <path class="cls-1" d="m199.38,137.82c-.69,1.51,3.15,2.04.87,3.49.12-1.27-.23-1.62-1.17-1.17.14-.92-.41-1.14-.58-1.75-.82.29-.03,1.35.29,1.46.05,1.23-.45,0-.87,0-.12.7.53.63.29,1.46-.8.12-.27-1.09-.87-1.17-.77-.09.27,1.63-.87,1.17-.26-1.6.93-3.28,2.91-3.49h0Z"/>
  <path class="cls-1" d="m184.52,138.11c1-.12,1.66.09,1.46,1.17-.04-.84-1.6-.15-1.46-1.17h0Z"/>
  <path class="cls-1" d="m154.81,138.7c.28,1.2-2.16,1.79-2.04.29.95.17,1.36-.2,2.04-.29h0Z"/>
  <path class="cls-1" d="m175.2,139.28c-.05.95-.86,2.07.87,1.75-.15.43-.43.73-.58,1.16-.82-.15-1.24-.7-2.04-.87,1.12-.84.09-1.41,1.75-2.04h0Z"/>
  <path class="cls-1" d="m158.89,139.86c.68.1,1.37.19,1.16,1.17-.74-.04-1.13-.42-1.16-1.17h0Z"/>
  <path class="cls-1" d="m165.01,140.15c1.03.56,1.35.33,2.33.58.04.52-.36.61-.29,1.16-.87-.39-1.6-.93-2.04-1.75h0Z"/>
  <path class="cls-1" d="m199.09,140.45h.87v1.17c-.43-.25-1.13-.23-.87-1.17h0Z"/>
  <path class="cls-1" d="m162.1,140.74v.87c-.38.37-1.07.37-1.46,0,.44-.34.71-.84,1.46-.87h0Z"/>
  <path class="cls-1" d="m171.42,142.48c-1.25.28-.51-1.43-1.46-1.46.47-.69,2.11.96,1.46,1.46h0Z"/>
  <path class="cls-1" d="m157.14,141.03c.85-.04.89,1.18.58,1.46-.75-.38-.91-.6-.58-1.46h0Z"/>
  <path class="cls-1" d="m186.56,141.03c.11.8,1.56,1.03.87,1.75-.78-.13-1.45-1.13-.87-1.75h0Z"/>
  <path class="cls-1" d="m173.75,142.19c.93-.06,1.26.49,1.46,1.16-.43-.44-1.66-.09-1.46-1.16h0Z"/>
  <path class="cls-1" d="m204.33,142.48c.05,1.3-1.03.75-1.46.29.27-.98.54-.14,1.46-.29h0Z"/>
  <path class="cls-1" d="m172.58,143.36c-.79-.03-.59.49-1.16,0-.23-1.12,1.39-1.12,1.16,0h0Z"/>
  <path class="cls-1" d="m200.54,142.48c1.02-.32.78,1.79-.29,1.16-.04-.52.36-.61.29-1.16h0Z"/>
  <path class="cls-1" d="m164.13,142.78c1.3,0,.21,1.71-.58,1.46-.22-.9.8-.56.58-1.46h0Z"/>
  <path class="cls-1" d="m167.34,142.78c.61.26,1.74,0,1.46,1.17-.55-.32-1.34-.41-1.46-1.17h0Z"/>
  <path class="cls-1" d="m172.58,143.65c.77-.09.75.61.87,1.17-.58,0-.37.79-1.17.58-.62-.6.08-1.15.29-1.75h0Z"/>
  <path class="cls-1" d="m178.41,143.65c.8,0,.69,1.37.29,1.75-.8,0-.69-1.37-.29-1.75h0Z"/>
  <path class="cls-1" d="m199.96,143.94c.32.07.2.58.58.58-.23,1.07-1.2.24-1.75,0-.21-.79,1.37.21,1.17-.58h0Z"/>
  <path class="cls-1" d="m202,143.94h1.17c-.44.98.12,1.84-.29,2.33-.98-.09-.82-1.32-.87-2.33h0Z"/>
  <path class="cls-1" d="m150.15,144.23c.43.25.92.43.87,1.16h-1.16c-.12-.61.2-.77.29-1.16h0Z"/>
  <path class="cls-1" d="m197.05,144.23c.77-.09.96.4.87,1.16h-.87v-1.16h0Z"/>
  <path class="cls-1" d="m167.92,144.52c.74.03.58.98.58,1.75-.65-.21-.97-1.37-.58-1.75h0Z"/>
  <path class="cls-1" d="m159.77,145.4c.03.9-.36,1.39-.58,2.04-.86,0-.46-2.19.58-2.04h0Z"/>
  <path class="cls-1" d="m169.67,145.69c.5-.06.75.5.87,0,1.18.39-.69,1.56-.87.58v-.58h0Z"/>
  <path class="cls-1" d="m176.95,145.69c.58.34-.15,1.35,1.17,2.04-.91.32-.77.14-1.46-.29-.51,1.39.17,1.29.29,2.62-1.31-.34-.31,1.63-1.75,1.16,1.51-1.79-.94-4.52,1.75-5.53h0Z"/>
  <path class="cls-1" d="m165.01,146.85c.7.48,1.37.78.87,1.75-1.42-.52-.98.23-2.04.58.07-1.1,1.1-1.23,1.16-2.33h0Z"/>
  <path class="cls-1" d="m199.09,147.44c.97,2.1-.21,7.36-.29,11.36-.08,3.73.7,7.56.58,10.78-.22,6.23-2.54,12.14-3.5,17.19-1.58-2.38-.87-5.68-.87-8.74,0-11.44,1.39-22.13,4.08-30.58h0Z"/>
  <path class="cls-1" d="m166.76,148.31c.9.01,1.04,1.55.58,2.04-.94.36-.22-.94-1.17-.58-.04-.72.46-.9.58-1.46h0Z"/>
  <path class="cls-1" d="m173.75,148.6c.03,1.1-.57,1.57-1.46,1.75.06-1.01.24-1.89,1.46-1.75h0Z"/>
  <path class="cls-1" d="m165.59,150.06c.11.98-1.26.49-1.75.87-.17-1.04.86-.89,1.75-.87h0Z"/>
  <path class="cls-1" d="m173.16,151.51h1.46c-.26.71-.26,1.68-1.16,1.75-.53-.76.13-.88-.29-1.75h0Z"/>
  <path class="cls-1" d="m858.83,166.66c.99.13.68,1.9-.58,1.46-.25-.93.26-1.11.58-1.46h0Z"/>
  <path class="cls-1" d="m859.99,168.7c.61-.12.77.2,1.17.29-.38.59-.96.99-1.75,1.16-.04-.72.46-.9.58-1.46h0Z"/>
  <path class="cls-1" d="m947.08,174.82c.61-.12.77.2,1.17.29-.07.51-.5.66-1.17.58v-.87h0Z"/>
  <path class="cls-1" d="m931.06,181.22h.87c.19.61.77,1.3.29,1.75-.55-.42-1.29-.65-1.17-1.75h0Z"/>
  <path class="cls-1" d="m938.05,182.1c1.11.21,1.04,1.79-.58,1.46-.25-.93.46-.9.58-1.46h0Z"/>
  <path class="cls-1" d="m265.5,185.88c.54,1.15.45,3.86-.29,4.66-1.08.47-3.05.42-3.79-.29-1.82-2.81.17-5.49,4.08-4.37h0Z"/>
  <path class="cls-1" d="m864.36,185.88c.9.55,1.61.43,2.33.58v1.16h-2.04c0-.69-.5-.86-.29-1.75h0Z"/>
  <path class="cls-1" d="m931.65,185.88c.47,1.54-1.82,1.45-1.75.29.34-.34,1.03-.33,1.75-.29h0Z"/>
  <path class="cls-1" d="m878.34,192.58c-3.36.68-2.51-5.21,0-2.91-.37.85-.37,2.07,0,2.91h0Z"/>
  <path class="cls-1" d="m931.65,189.09c.08.76-.11,1.25-.87,1.16-.15-.23-.3-.47-.29-.87.26-.23.66-.31,1.17-.29h0Z"/>
  <path class="cls-1" d="m660.47,191.13c.72-.04.9.46,1.46.58-.03.75-1.25.31-.88,1.46-.59-.28-.63-1.12-.58-2.04h0Z"/>
  <path class="cls-1" d="m669.79,191.42c.6.78.53.85,1.75.58.24.82-.41.75-.29,1.46-.72-.4-1.94-1.34-1.46-2.04h0Z"/>
  <path class="cls-1" d="m873.97,192c.11,1.46-.53,2.19-1.75,2.33-1.05-1.28.26-3.59,1.75-2.33h0Z"/>
  <path class="cls-1" d="m879.8,192.58c1.11-.22.63,1.89-.29,1.46-.24-.82.41-.75.29-1.46h0Z"/>
  <path class="cls-1" d="m927.57,196.08h-1.17c-.23-1.12,1.39-1.12,1.17,0h0Z"/>
  <path class="cls-1" d="m917.96,196.95c-.17,1.29-.62,2.29-2.33,2.04.05-1.41,1-1.92,2.33-2.04h0Z"/>
  <path class="cls-1" d="m923.49,198.12h1.45c-.03.52.36.62.29,1.17-.87.78-1.77-.17-1.75-1.17h0Z"/>
  <path class="cls-1" d="m894.36,198.41c.64.04.63.73.58,1.46-.68-.1-1.36-.19-1.16-1.16.34.05.52-.06.58-.29h0Z"/>
  <path class="cls-1" d="m886.5,199.87c-.03.74-1.08.69-1.46.29.27-.51,1.02-.75,1.46-.29h0Z"/>
  <path class="cls-1" d="m427.74,200.16c-.74,3.58.53,7.41.29,10.78-.23,3.29-2.8,6.05-3.5,8.74-1.55-.54-.85-2.79-.87-4.08-.13-6.08,1.47-11.94,4.08-15.44h0Z"/>
  <path class="cls-1" d="m861.74,200.74c-.03.74-1.09.69-1.46.29.03-.74,1.09-.69,1.46-.29h0Z"/>
  <path class="cls-1" d="m884.75,200.74c-.04.74-.42,1.13-1.16,1.16-.25-.24-.18-.8-.58-.87.17-.96,1.1-.42,1.75-.29h0Z"/>
  <path class="cls-1" d="m914.46,200.45h1.16c.23,1.12-1.39,1.12-1.16,0h0Z"/>
  <path class="cls-1" d="m916.5,202.2c1.05.11,1.86.47,2.04,1.46-.88.67-1.72-.65-2.04-1.46h0Z"/>
  <path class="cls-1" d="m915.62,203.36c.93-.08,1.06,1.28.58,1.75-1.1.25-1.03-1.31-.58-1.75h0Z"/>
  <path class="cls-1" d="m920,203.65c.57.48,1.92,1.14,1.17,2.04-.75-.02-.31-1.25-1.46-.87-.12-.61.2-.77.29-1.16h0Z"/>
  <path class="cls-1" d="m896.69,207.15c-.98,1.49-3.88,2.05-4.66,0,.02-3.97,4.52-3.78,4.66,0h0Z"/>
  <path class="cls-1" d="m913,203.94c.64.29-.26,1.46-.87,1.46-.37-1.15.85-.71.87-1.46h0Z"/>
  <path class="cls-1" d="m913,205.98c1.32.58,2.72-.63,2.91,1.17-.67.7-.94.44-2.04.29-.09.67.84.32.88.87-.07,1-.87,1.27-1.75,1.46.47-1.89-1.23-2.82,0-3.79h0Z"/>
  <path class="cls-1" d="m900.19,207.44c.12.61-.2.77-.29,1.17-.8.21-.59-.58-1.17-.58.04-.64.74-.63,1.45-.58h0Z"/>
  <path class="cls-1" d="m879.51,209.77c-.72.04-1.4.04-1.75-.29.23-.66,1.95-.96,1.75.29h0Z"/>
  <path class="cls-1" d="m896.98,208.89c.73.24.92,1.02,1.46,1.46-.39.78-.63,1.7-2.04,1.45-.95-1.25-.25-2.07.58-2.91h0Z"/>
  <path class="cls-1" d="m918.25,209.48c.87-.29.52.65.58,1.17h-.87c-.12-.61.2-.77.29-1.17h0Z"/>
  <path class="cls-1" d="m882.42,210.35c.88-.3.52.65.58,1.16h-.87c-.12-.61.2-.77.29-1.16h0Z"/>
  <path class="cls-1" d="m899.61,211.52c.61-.12.77.2,1.16.29-.07.51-.5.66-1.16.58v-.87h0Z"/>
  <path class="cls-1" d="m920.87,213.56c-.25.63-.72,1.03-1.75.87-1.23-1.89,1.34-2.65,1.75-.87h0Z"/>
  <path class="cls-1" d="m737.37,213.27c2.29,1.56,1.6,5.05,1.17,7.86-.48,3.08,1.22,7.03-.87,9.03.05-6.16-.81-10.93-.29-16.89h0Z"/>
  <path class="cls-1" d="m896.11,217.92c.61.36,1.09.85,1.45,1.46-.27,1.28-1.71,1.76-2.62.87-.31-1.48.54-1.79,1.17-2.33h0Z"/>
  <path class="cls-1" d="m895.82,222.59v.87c-.61.12-.77-.2-1.17-.29.07-.51.5-.67,1.17-.58h0Z"/>
  <path class="cls-1" d="m930.77,225.21h1.17c.26,1.36-1.54,1.49-1.17,0h0Z"/>
  <path class="cls-1" d="m886.21,229.87c-.92.14-1.14-.41-1.75-.58-.2-3.28,3.9-1.53,1.75.58h0Z"/>
  <path class="cls-1" d="m886.5,231.91c.77-.09.96.4.88,1.16h-.88v-1.16h0Z"/>
  <path class="cls-1" d="m920.58,233.95c.09.68-.05,1.12-.29,1.45-.8-.17-1.63-.31-1.46-1.45.37-.4,1.38-.4,1.75,0h0Z"/>
  <path class="cls-1" d="m891.74,233.95c1.73.53,2.98,2.67,2.33,4.66-.48.49-1.71.23-2.62.29-.86-1.46-.55-3.69.29-4.95h0Z"/>
  <path class="cls-1" d="m626.39,246.76c.34,1.45-2.13,4.03-3.79,3.5,1.14-1.28,3.13-1.72,3.79-3.5h0Z"/>
  <path class="cls-1" d="m915.62,251.71c-.92-.14-1.03.52-2.04.29-1.3-1.31-1.37-6.29,1.45-4.95.98,1.45,1.28,2.83.58,4.66h0Z"/>
  <path class="cls-1" d="m652.31,251.13c1.22.81-.86,2.88-.88.88.41.02.83.05.88-.29v-.58h0Z"/>
  <path class="cls-1" d="m636.29,251.71c.17,1.05-1.04,3.23-2.91,3.2-.13-.26-.26-.52-.58-.58-.24-.82.41-.75.29-1.46,1.17-.34,2.67.31,3.2-1.16h0Z"/>
  <path class="cls-1" d="m436.48,253.46c1.4,1.84,1.26,5.05-.29,6.7h-2.62c-2.08-2.13-1.49-8.63,2.91-6.7h0Z"/>
  <path class="cls-1" d="m674.74,263.65c.34.1,1.01,1.27.29,1.46h-.58c-.24-.82.41-.75.29-1.46h0Z"/>
  <path class="cls-1" d="m652.02,267.15c.69.25-.24,1.28-.29,1.75-.85-.41.08-1.44.29-1.75h0Z"/>
  <path class="cls-1" d="m902.52,269.77c.44.47.44,2.15,0,2.62-1.96.24-1.76-2.81,0-2.62h0Z"/>
  <path class="cls-1" d="m659.6,270.64c1.09-.12,1.71.23,1.75,1.16-.76-.08-1.25.11-1.17.87-.53-.34-.23-1.52-.58-2.04h0Z"/>
  <path class="cls-1" d="m845.43,275.01h.87c-.16.42.34,1.51-.29,1.46-.98.3-.45-.91-.58-1.46h0Z"/>
  <path class="cls-1" d="m663.09,279.68c.51.07.66.5.58,1.16-.93.25-.9-.46-1.46-.58.07-.42.87-.1.88-.58h0Z"/>
  <path class="cls-1" d="m324.34,291.62h.87c.12.61-.2.77-.29,1.17-.51-.07-.66-.5-.58-1.17h0Z"/>
  <path class="cls-1" d="m345.89,292.78c.05-.34.53-.25.87-.29.15.74.5,1.13-.58,1.16.03-.41.05-.82-.29-.87h0Z"/>
  <path class="cls-1" d="m332.49,298.61c1.06-.19,1.15.6,1.17,1.46-.37.4-1.38.4-1.75,0-.04-.72.15-1.21.58-1.46h0Z"/>
  <path class="cls-1" d="m341.23,299.48h1.46c.14.62-.42.55-.87.58.15.23.3.47.29.87-.88.11-.6-.95-.87-1.45h0Z"/>
  <path class="cls-1" d="m333.95,305.02c-.03.79.49.59,0,1.16-1.12.23-1.12-1.4,0-1.16h0Z"/>
  <path class="cls-1" d="m941.84,307.93c.61-.12.77.2,1.16.29-.1.38-.51.46-.58.87-.51-.07-.67-.5-.58-1.17h0Z"/>
  <path class="cls-1" d="m331.33,312.59c1,.07,1.27.87,1.46,1.75-.34.24-.78.38-1.46.29v-2.04h0Z"/>
  <path class="cls-1" d="m341.81,318.41c1.36.08,1.44,2.34,0,2.33-.43-.42-.43-1.91,0-2.33h0Z"/>
  <path class="cls-1" d="m329,325.11c-.18.6.47,2.02-.58,1.75-1.17.08-.66-2.38.58-1.75h0Z"/>
  <path class="cls-1" d="m336.28,328.9c.5.27.75,1.02.29,1.46-.74-.03-.69-1.08-.29-1.46h0Z"/>
  <path class="cls-1" d="m337.15,342.01c1.17.2,1.53,2.25.58,2.91-1.62.07-1.26-2.21-.58-2.91h0Z"/>
  <path class="cls-1" d="m130.35,353.08c.53,2.39.61,4.91,0,7.28-.79.57-2.54.17-3.79.29v-6.7c.86-.89,2.44-2.14,3.79-.87h0Z"/>
  <g>
    <path class="cls-1" d="m769.41,359.78c1.21,2.8,2.32,12.3-1.16,12.53-4.27.28-5.1-14.86,1.16-12.53h0Z"/>
    <path class="cls-1" d="m793.29,429.97c-3.42-6.07,7.11-5.96,3.79,0-1.24.48-2.66.83-3.79,0h0Z"/>
    <path class="cls-1" d="m675.03,260.45c-.29,0-.35.24-.58.29.22-1.11-1.07-.33-1.16,0,.79.28,1.09,1.05,1.75,1.46.41-.56.16-1.78,1.46-1.46.45-1.04-.99-.18-.87-.87v-.87h-1.17c-.42,1.1.8.56.58,1.45h0Zm-21.84-2.04c-.12-.5-.38.06-.87,0,.38-.72-.86-1.21,0-1.46.7-.11-.16,1.33.87.87v-2.04c-.73.04-1.42.05-1.46-.58.07-.51.5-.66,1.17-.58,0-.79-1.22-1.37,0-1.75-.02.5.22.75.58.87-.4-1.54-.36-3.53-.88-4.95-.4.18-.04,1.12-.58,1.16-.06-.23-.24-.34-.58-.29-.21-.79.58-.59.58-1.17-.71-.26-1.07-.87-2.33-.58.09-.69,1.01-.54.87-1.46-1.15-.85-2.46-.4-4.08-.29-1.79,7.52-7.45,22.5-.29,28.54,1.94-.39,2.18.92,3.5,1.16,1.68-.84,1.91-3.14,4.08-3.5.17-1.05-.34-1.41-.58-2.04.1-.06.58.3.58.29,1.05-3.58-1.66-7.26-.29-9.9-.67-.4-1.09.75-1.17,0,1.64-.68-.27-1.34.87-2.33h0Zm-444.2-101.07c-1.39,9.97-1.47,22.8-.88,33.79,1.83-1.34,2.14-4.35,2.33-6.99.59-8.15.02-19.47-.58-26.8h-.87Zm-15.73-22.43c-.56-.12-.23-1.13-1.16-.87-.38.9.83,1.65,1.16.87h0Zm-18.93-2.04c.21,2.64,2.47.48,0,0h0Zm30.29.29c.9.22.35-1,1.46-.58.2-.78-.6-.56-.87-.87.42,1.1-.8.56-.58,1.46h0Zm-27.67-.58c1.36.19,1.86-.47,2.62-.87-.82-.61-2.03.35-2.62.87h0Zm19.81-.87c-.05,1.02.71,1.24.87,2.04-.83.54-2.23-.35-2.91-.87-.83,1.11.32.7-.58,1.75,1.06-.58,1.42.51,2.33.87-.26-.94.95-.41,1.17-.87.21.31.26,2.22.58,1.46-.13-1.81-.15-3.74-1.46-4.37h0Zm-.87.29c.55-.45-.42-1.13.29-1.75-.9.22-.56-.8-1.46-.58.33.83.97,1.36,1.16,2.33h0Zm-1.75-1.46c.12-.7-.53-.63-.29-1.46h-.87c.02.85.67,1.08,1.17,1.46h0Zm-12.23-.29c1.01-.48.96-.34,1.75-1.17-.95.02-1.57.37-1.75,1.17h0Zm-12.23-.87c-.37,1.89,2.28,1.02,2.62.29-1.57.12-1.22-.81-2.62-.29h0Zm9.9,1.46c.62-.35.85-1.1,1.75-1.16.07.23,0,.57.29.58.04-.72.05-1.41-.58-1.46-.36.62-2.08,1.39-1.46,2.04h0Zm-8.16-2.33c.92.19,3.5,1.75,2.91,0-.14.52-.31-.13-.58-.29-.54.39-.98.06-1.75-.29,0,.38-.51.27-.58.58h0Zm26.8,0c.82.05.73-.82,1.17-1.17-.35-.08-1.1-1.17-1.46-.29,1.48.13.34.61.29,1.46h0Zm-29.71,0c.77.09.96-.4.87-1.17-.77-.09-.96.4-.87,1.17h0Zm27.09-1.17c.5-.02.75.22.87.58-.55.12-.53.83-1.46.58.24,1.86,1.59-.32,2.33-.58-1.3-.18.42-1.57-.87-1.75-.09.59-.79.57-.87,1.16h0Zm-27.96-2.04c1.99-.43,3.26,1.4,4.37.87-.42-.45-.97-.78-1.16-1.46-1.27-.01-2.63-.11-3.2.58h0Zm29.71-.29c.57.4,1.66.28,2.33.58v-.58c-.02-.18-.04-.35-.29-.29-.73.8-1.54-.01-.58-.58-.68.1-1.25.3-1.46.87h0Zm-32.04-1.16h1.16c.23-1.12-1.39-1.12-1.16,0h0Zm-1.17-1.75c.55.32,1.38.37,2.04.58-.2-.7-1.78-1.69-2.04-.58h0Zm-2.91-5.24c1.03-.5,2.57-.76,3.5-1.16-.63-.79-2.78.29-3.5,1.16h0Zm-4.95-1.46c.38.35,1.85.14,1.75-.87-.46-.45-2.15-2.33-2.04-1.46,1.08.74,1.34,1.54.29,2.33h0Zm.87-5.24c-.27,1.14,1.54.21,1.75.87v-1.16c-1.03.1-.72.8-1.75.29h0Zm165.15,4.95c-.26,1.18-2.57,3.15-1.46,3.79.05-.44-.1-1.07.29-1.16.04.54.99.18,1.17.58-.11-.88.95-.6,1.46-.87.4-.66-.75-1.09,0-1.16,2.85.01,8.19-6.96,3.5-8.45.6-1.04-1.26-1.96-1.75-.58.06-.94-.52-1.23-.29-2.33-1.23-.45-.05,1.51-.87,1.46-.14-.34-.31-.66-.58-.87-.49.58.02.37,0,1.17.42.16,1.5-.34,1.46.29-.24.61-1.54.8-2.04.29.31,1.09-.72.83-.58,1.75,1.14.12.9,1.62,1.17,2.62.82.39.73-1.54,1.16-.58-.43.34-.34,1.21-1.16,1.17-.22-.95-.94-2.93-2.04-2.04.69.16,1.21,1.13.58,1.75.39.96,2.74-.02,2.33,1.75-.51-1.17-2.41-.05-1.45.87.03-.71.96-.06.87.29-.55.03-.2.96-.87.87-.45-.81-1.08-1.44-1.46-2.33-.15.43-.43.73-.58,1.16.18.4,1.12.04,1.17.58h0Zm-164.57-9.61c-.18-.02-.34-.04-.29-.29.07-.41.48-.49.58-.87-.83.3-1.21.3-2.04,0-.06.37-.85,1.43-.29,1.46-.13-.47,1.09-.98,1.16-.29-1.83,1.01-1.1,2.26-.87,4.08-.61,0-1.51,1.17-.87,1.46.22-.63.71-1.63,1.46-.87.3-1.37-.48-1.66-.87-2.33.69,0,.86-.5,1.75-.29.09-1.62-1.35-.01-1.46-1.16.55-.63,1.35-.81,1.75-.87h0Zm164.57,0c.04-.72.99-.09,1.16,0,.09-.68.62-1.25-.29-1.46.28.89-2.04.64-.87,1.46h0Zm-38.16,19.22c-.69-1.05-1.11,1.11-1.75,0,.61-.75,1.37-1.35,1.46-2.62-1.09-.31-.83.72-1.75.58.61-.71.42-.62.29-1.75.42-.16,1.5.34,1.46-.29-.82,0-2.64-.43-2.04-1.75-1.01.56-1.05-.18-.58-.87-.72-.05-.9.46-1.46.58.19-1.05.11-1.21.87-2.04-.72-.38-1.21.85-1.46,0-.04-.39,1.18-.88.29-1.16-.05.43-.7.27-1.16.29.89-.51-.79-.9,0-1.17.37.02.4.37.87.29-.24-.82.41-.75.29-1.46-.57-.09-.58.39-.87.58.26-.85.26-.9,0-1.75.37.02.4.37.87.29-.28-1.47-1.5-1.99-1.75-3.5.4-.01.64.14.87.29.08-.95-1.13-.62-1.17-1.46.92.33.71-.46,1.17-.58-.16.68.47,2.01.87,1.16-.8,0-.69-1.37-.29-1.75-.6-.17-1.91.36-2.04-.29.39-.09.56-.41,1.17-.29-4.15-4.15-12.74-7.11-17.77-2.91-2.5,2.09-2.64,5.29-4.37,8.45-1.04,1.9-2.87,2.71-3.2,4.08-.45,1.84.36,4,0,5.24,1.44,4.49,3.07,7.57,5.53,11.07,1.76,2.5,8.43,5.05,12.23,4.66,1.28-.13,3.05-1.54,4.95-1.75.45-.05,1.02.12,1.45,0,2.8-.78,7.98-5.51,8.16-7.57,0,0-.28-.49.29-1.16-.52-.16-1.21-.15-1.45-.58.78-.69-.33-2.61,0-1.75v.87h0Zm-127-23.88c.84-.13,1.33-.61,1.46-1.46-.7.27-1.19.75-1.46,1.46h0Zm-.29-5.24c.92-.14.11,1.45,1.16,1.17-.45-.97,1.38-1.1.29-1.75-.07,1.22-1.08-.33-1.46.58h0Zm-3.2.58c.31.58.91,2.36,1.46,1.75-.97-.53.89-.63.87-1.16,1.01.51-.09,1.44.58,2.04.07-.75.5.4,1.16,0-.5-1.35-1.51-2.18-1.46-4.08-1.2.16-1.98.74-2.62,1.46h0Zm6.12-2.04c.09-.57-.39-.58-.58-.87.71-.03.06-.96-.29-.87-.01.89-.17,1.92.87,1.75h0Zm-1.75-2.04c.08-.76-.11-1.25-.87-1.17-.08.76.11,1.25.87,1.17h0Zm-3.5,1.46c.34.05.32.46.29.87,1,.22.37-1.18,1.46-.87-.14,1.04,1.81,1.66,2.04.58-.55-.32-1.34-.41-1.46-1.17.89.39,2.29.08,1.46-.87-.81.34-2.4.37-3.79,1.46h0Zm404.29-4.37c-2.06.76-4.94,1.49-6.99,2.04-4.22,1.13-8.92,4.26-12.23,4.66-5.81.71-11.65-1.46-13.69,2.62-1,1.99-1.4,8.55-.88,10.19,1.36,4.2,9.37,3.93,14.57,2.91,1.29-.25,2.56-1.4,4.08-1.75,6.62-1.54,15.54,1.92,19.52-1.75,1.79-5.53,2.69-15.94-1.46-19.52-1.43.06-2.35.37-2.91.58h0Zm-64.96-6.41c-2.03-3.07-5.64-2.97-6.41.87-.13.66.68,1.72.58,2.91-.11,1.44-1.88,2.83-2.04,4.08-.29,2.32,2.28,9.79-1.75,9.32-3.02-.35-.17-8.32-1.75-11.36-5.17,6.7-1.91,17.76-2.91,27.67-.26,2.56-1.15,5.08-1.17,7.57,0,2.23.6,4.29.29,6.41-.21,1.48-1.11,2.67-1.16,4.08-.12,2.92,1.25,5.16.87,7.28-.32,1.81-2.4,2.64-2.91,4.66-.75,2.97.01,5.87.88,7.86,3.32-2.6,3.84-7.41,5.24-11.65,1.42-4.3,3.12-8.7,4.37-12.82,4.91-9.76,9.33-19.99,11.95-32.04,1.32-2.02,3.43-3.02,3.79-4.95.43-2.35-2.13-3.76-3.5-6.41-.8-1.55-.62-3.27-2.04-4.08-.64,1.1-.83.15-2.33.58h0Zm80.39-.87c-2.11,4.82-3.01,11.78-2.62,18.64.1,1.81.89,3.67.87,5.53-.03,3.8-1.39,7.81-1.17,11.36.11,1.73.92,3.14.88,4.66-.04,1.17-.69,2.51-.88,4.08-.41,3.38.66,7.55.29,11.65-.26,2.94-2.53,10.14-4.37,10.49-1.7.32-4-1.7-5.83-1.46-1.81.24-3.58,2.45-5.24,3.2-5.57,2.52-12.12.45-19.22,1.46-8.73,1.24-14.66,6.77-25.34,4.95-1.55-.26-2.62-1.3-4.08-1.17-7.76.73-8,15.17-4.95,22.14,3.02,6.89,9.5,10.88,16.02,13.11,2.26-.91,3.48-1.69,5.24-1.75,4.29-.13,8.61,4.05,12.53,3.79,1.73-.12,3.82-1.76,5.53-2.91,1.86-1.26,4.03-2.22,5.24-3.5,1.89-1.98,3.13-7.16,3.79-10.49.3-1.49-.19-2.96.58-4.37,1.11-2.02,6.09-3.96,8.45-4.95,3.01-1.26,6.1-4.49,9.61-4.08,2.24.26,5.18,3.37,6.12,5.53.62,1.42.52,3.29,1.17,4.66.72,1.54,2.41,2.44,3.2,4.08.7,1.46.44,2.85.87,4.37.87,3.03,3.06,5.36,4.08,7.86-2.57-14.03,4.82-26.44,3.5-39.61-.37-3.7-3.44-7.43-3.5-11.07-.02-1.28.97-2.84,1.16-4.08.21-1.3.3-3.22.29-4.66-.02-9.8-.04-17.83-.87-27.38-.33-3.8-1.44-7.72-1.75-11.36-.12-1.39.21-2.82,0-4.08-.22-1.35-1.21-2.46-1.45-3.79-.55-2.96-.13-7.57-.58-9.03-2.52,2.82-5.96,4.48-7.57,8.16h0Zm101.66,33.79c.5-2.05-1.03-2.07-1.46-3.2.86-.08.9.66,1.75.58,1.77-3.84,4.05-7.46,3.5-12.82-4.41-1.44-9.1-9.21-1.17-7.86-1.67-2.12-2.15-5.42-2.04-9.32-4.07-.39-6.8-2.14-7.58-5.83-3.16-.5-4.67-3.75-6.41-5.53-1.56-1.6-3.94-2.94-5.83-4.66-7.73-7.08-17.01-16.79-28.83-12.53-.43,1.9-2.18,2.48-3.79,3.2-.08,6.39,4.85,7.77,4.66,14.27,6.76,7.12,14.95,12.82,22.13,19.52,1.8.92,4.76,2.22,4.95,3.79-3.02-1.83-6.14-3.98-9.03-6.12-3.11-2.3-5.6-5.33-8.74-6.7,3.73,3.94,7,9.9,10.78,12.82-3.24-1.48-5.89-3.48-7.28-6.41-2.98-6.26-8.29-11.29-13.11-15.44,1.18,9.64,1.5,19.97-.87,29.13.08,2.46,2.53,2.97,2.62,6.12-4.96,3.34-3.31,10.75-3.79,17.77-.36,5.34-1.21,10.6-2.04,16.02-.72,4.71-.72,9.21-1.75,13.69-.43,1.87-1.59,3.62-2.04,5.53-1.43,6.09-.39,13.56-1.75,20.1-.23,1.11-1.12,1.84-1.46,2.91-.71,2.23-1.31,5.25-2.04,6.7-2.53,5.04-2.67,8.85-2.04,14.56,2.01,2.16,4.33,4.02,6.12,6.41,1.9.33,3.36,1.1,4.95,1.75,6.81-1.65,13.97-.77,18.64-4.08.05-1.48-.98-.06-1.17-1.17.55-.58,1.38-.14,2.04,0,.89-1.55,2.77-2.95,2.04-5.24,1.17.54,1.86-.15.58-.58,1.06-.26,1.55.51,2.04,0-.03-1.25-1.32.42-.87-1.46.21-.13.5.69.58.58,2.23-2.92-6.51-5.81-5.83-9.32,2.88,1.78,4.17,5.16,6.7,7.28.64-1.48.81-.81,2.04-.29.27-.79.46-1.37-.29-1.75h1.17c-.81-1.36-.21-1.86.58-2.91-.56,1.77.17,2.1.88,3.2-.41-1.39.82-1.12,1.16-1.75-1.32.08-1.9.59-1.75-1.16,1.1.92.83.01,1.75-.58.67-.09.32.84.87.87.53-.83.74-1.97,1.45-2.62-.14.91.73.82,1.17,1.16-.27-2.14,1.18-1.11,1.75-2.04-.24,1.11.62,1.13,1.17,1.46.85-.22.7-1.44,1.45-1.75,1.09-.31.83.72,1.75.58.05-.43-.1-1.07.29-1.16.05.43-.1,1.07.29,1.16.68-3.96,1.32-8.98,6.7-9.03.66,1.06,1.77,4.57-.29,4.95-.12-1.44-.15-2.96-.88-3.79-4,.57-3.74,6.02-4.37,8.45.22-1.49.46-.93,1.17-.29-.14-1.11.12-1.82.87-2.04-.1,2.39,3.62,2.67,2.62,4.37,1.44.41,1.38-2.19,1.45-2.91.37.48.75,1.58.29,2.04.92.14.77-1,1.46-.29.12.7-.53.63-.29,1.46.93-.25,1.1.25,1.45.58-.43-1.06.87-1.74,0-2.91,2.55-9.46,3.03-18.24,3.2-28.84-2.96,1.7-1.7,7.63-5.83,8.16-.81-.16-.81-1.13-1.16-1.75,1.6-2.29,6.04-5.14,6.41-8.16.33-2.69-2.17-6.41-2.33-9.61-.07-1.48.67-2.95.87-4.66.65-5.36-.45-11.78.29-16.02-.18-.79-1.22-.72-1.17-1.75-.06-10.4-18.9-11.37-20.39-18.93-.3-1.52.73-2.4,1.75-2.62,4.7-1.01,9.96,6.71,15.15,6.12-5.03-7.49-13.61-11.44-19.8-17.77,8.8,5.27,15.46,12.69,23.88,18.35h0Zm-519.63-28.84c-.17-1.58-1.54-1.96-2.62-2.62,1.32,1.05,1.06,2.17,2.62,2.62h0Zm-2.91,13.98c-.19.76-.2.76-1.16,1.16.76.6,1.16,1.56,2.04,2.04-.17.61-.72.83-.58,1.75.9-.2.56-.2,1.46,0-.52-1.05-.88-2.59.29-2.33-1.29-.09.16-1.54-.58-1.75-.61,1.85-.65-1.08-1.46-.87h0Zm-1.75,9.9c-.5-1.36.26-1.42.87-.58,1.08-1.11-1.57-1.6-.58-2.62-.59-.09-.78-.58-1.16-.87-.72,1.15,1.39,2.55-.29,3.2.59.09.57.79,1.16.87h0Zm12.23,16.31c-.41,1.34-2,1.49-2.04,3.2,1.13.39,1.83-.47,2.04.58.9-.46,1.81-.85,2.33.29-.13.82-.39.57-.87,1.46,1.76-.18,3-.58,3.79-.29-.9-.97,1.01-.94,1.46-.29.05-1.02-1.02-.92-1.46-1.46-.53.64-1.06,1.27-2.33,1.16.17-.51-.35-1.71.29-1.75.68-.09,1.12.05,1.46.29-.22-1.23-.55-1.48-.58-2.33-1.81,1.07-2.73-.06-4.08-.87h0Zm2.91,9.03c-.25-1.22.57-1.38.58-2.33-.55-.12-.73-.63-1.46-.58-.2.74-.62,2.6.87,2.91h0Zm496.04,135.73c-.61-1.76-.7-2.44-.58-3.79-1.27,1.06-.21,3.05.58,3.79h0ZM486.29,30.05c.82-.29-.42-.78.29-1.16,1.02.23.34,1.02,0,1.46.62.97.85-.87,1.75-.58,1.08,1.63,2.88,1.65,5.53,1.75.08,1.28,1.23,1.49,1.46,2.62,1.06.09,1.89-.05,2.62-.29.57,2.17,2.29,2.61,2.62,5.53.79.21-.21-1.37.58-1.17.77.24.08.85.29,1.46.58.66.85.47,1.75,1.17-.03,1.3.34,2.37,1.45,1.75.04.52-.36.61-.29,1.17.27.8,1.02-.52,1.46.29.6,1.81-1.1,2.4-.58,3.2,1.11.43.06-1.3,1.17-.87-.11,1.36-.18.97-.29,2.33.56-.12.23-1.13,1.16-.87-.23.67-1.33,2.29.29,2.33-.56.99-.96,2.14-1.75,2.91.82.06,2.3.07,2.91-.87,3.53,1.07,4.98-.5,8.15.29,5.75,1.44,7.12,9.82,11.07,10.78,4.01.97,7.35-2.84,10.19-3.79,3.36-2.03,3.62-7.63,6.12-11.07,2.15-2.97,6.26-4.76,9.61-7.28,2.98-2.25,4.85-5.99,10.49-5.24,2.07,1.42,4.18,1.61,6.99,1.17,1.45-1.49,3.76-1.5,5.54-2.04.79.57,1.93.79,3.2.87,3.26,5,10.13,6.38,11.07,13.69,3.11-.69,4.98-4.81,8.74-4.66,4.67.19,10.32,2.56,13.4,5.53,2.13,2.06,3.87,5.55,6.12,7.57,1.8,1.62,3.55,2.42,4.66,4.66-.44-2.09-1.48-3.57-1.45-6.12,3.92-.16,4.32-3.84,7.57-4.66,17.72-.04,25.16,14.17,36.7,22.14,1.47.21,1.45-1.07,2.62-1.16,1.18.27,1.56,1.35,2.62,1.75.2,1.17-1.22.72-1.16,1.75.49,3.01,3.32,3.67,5.53,4.95-.43-1.87-.1-3.21,0-4.95.32-5.71-2.28-11.37-.29-16.02.58-1.36,1.69-2.78,2.33-4.37,1.05-2.61,1.6-4.84,3.5-6.41-1.82-1.43-3.41-6.26-1.75-8.45.76,2.11.38,5.68,1.75,7.86,2.85-.59,2.8-3.83,5.83-3.79,1.23.02,2.33,1.08,3.79,1.46.66.17,1.2-.22,1.75,0,3.44,1.41,5.93,5.41,8.16,9.03,1.62,2.64,4.44,4.93,5.83,7.28,1.15,1.96,1.78,4.27,3.78,5.53,2.43,12.31,2.2,26.03,1.46,36.7,3.57-1.34,6.63-3.19,9.32-4.66.1,1.73-2.3,2.08-3.79,2.91-1.78,1-3.66,2.4-5.24,3.2-1.14,5.49,4.17,6.84,6.41,9.9,1.14-.5,1.66-1.64,2.62-2.33,1.23.23,1.27,1.64,2.33,2.04,4.15-.33,8.61-1.16,12.23-2.33,2.55-.82,4.56-2.23,6.7-.58-2.15,2.58-7.92,2.17-11.94,2.91-4.32.8-7.62.81-11.36,2.62,1.48,6.06-1.66,11.46-4.37,15.15,6.42,6.2,12.78,12.46,18.93,18.93-.59,2.27.25,4.45-.29,6.99-2.4,2.06-7.35.33-7.86-2.91,2.16.07,3.33,1.13,4.95,1.75,4.04-1.91,1.04-7.98-2.33-8.45-3.13-6.68-9.46-10.15-13.98-15.44-.99.27-1.63.9-2.04,1.75.33,1.32,1.35,1.95,2.62,2.33-.39.49-1.3.45-1.75.87.26,3.04,2.9,3.7,3.79,6.12-3.07-.52-5.35-4.36-9.61-4.66-2.7,4.56,1.23,9.92,1.45,13.11.11,1.49-.46,3.77-.58,6.12-.38,7.36-2.95,15.61-3.79,24.18-.58,5.92-.11,12.11-.87,17.48-.23,1.6-1.14,2.87-1.46,4.37-.3,1.41-.01,3-.29,4.37-.99,4.84-3.47,8.9-4.08,13.98-.11.9-.15,4.03.29,4.66,1.62,2.32,5.08,7.56,6.41,8.45,3.97,2.65,11.58-.15,15.15-.87,8.03-1.63,15.84-.13,23.01,0,3.52,4.34,6.68,9.05,12.23,11.36,1.03,1.69,1.54,3.9,2.62,5.54.86,7.55-4.45,8.73-8.74,12.52-1.68,1.48-3.31,3.51-5.82,4.66-1.47.68-3.31.56-4.95,1.17-.85.31-1.45,1.13-2.33,1.46-3.23,1.21-6.85.99-9.9,1.75-1.13.28-2.21,1.01-3.21,1.16-12.66,1.98-18.16-9.92-32.04-6.99-3.79-3.05-9.74-6.56-14.85-6.41-.12-.7.53-.63.29-1.45-.57-.16-1.57.81-2.04,1.16-1.27-.05.35-1.39-.87-1.16-1.13-.1-.25,1.99-1.17.58-.36,2.23,1.28,1.85,1.75,2.62-.53.91-1.33.97-1.75-.29-.79-.21.21,1.37-.58,1.16,1.94.19,1.09,2.77,1.17,4.37-.52.04-.62-.36-1.17-.29-.19,2.46.47,4.3-.29,5.83.62.14.55-.42.58-.87,1.37,1.04-1.05,1.15-1.16,2.04-.05,1.11.24.1.87.29-1.2,2.47-1.1,6.11,0,8.45-.36-.13-.6-.37-.58-.87-1.19,10.28-.38,21.96-.29,30.58.01,1.42,1.17,3.49-1.17,4.08-2.82-.98-2.19-3.99-2.04-8.15.44-12.34-.24-28.11,0-39.32-1.7.58-.08,4.96-1.17,4.66-.92.2.57-1.6,0-2.91-.34,1.02-.88,1.83-1.75,2.33-1.31-1.02-1.67-3.25-2.62-4.66-.5-.75-1.94-1.09-1.45-2.04-.88.49-1.59.9-2.62,0-1.35,9.43-.68,18.01-1.17,26.8-3.1.72-3.01-5.37-2.91-8.16.09-2.65,1.26-5.29.29-6.99-.6-.08-1.35,1.13-.87,1.16-1.73-.56-2.61,3.25-4.37,2.62.45-1.88,2.27-2.39,2.33-4.66.72-.61-.21,1.04,0,1.75,2.86-.05,2.59-3.08,2.33-5.53-.45.44-.83,2.45-1.45,1.75-.24-1.78,1.98-2.37.87-4.08-1.71.42-2.45,1.82-3.5,2.91-1.26-.97-2.81-1.66-4.66-2.04-6.02-6.52-1.86-18.73,0-27.09-2.25-3.87-11.84-.73-17.48-2.62-5.27-1.76-9.31-5.06-16.31-5.53-4.04-.28-8.28-.4-9.9,2.62-2.28-.22-3.42-.11-4.95.87-.03,12.01-.81,23.26-.58,35.53-2.17,2.95-5.32-.48-5.53-3.5-.08-1.22.64-2.68.88-4.08,1.36-8.05,1.19-20.15,1.16-27.67-4.02-1.32-4.78-5.9-8.15-7.86-1.28-3.41-2.81-9.67-.29-13.69-8.22-4.81-9.95,6.74-10.48,14.56-.87,12.67,0,28.07,0,43.69s-1.18,31.01,0,43.69c.36,3.93,1.46,8.98-1.75,11.07-2.84-.66-3.5-3.49-5.24-5.24-.55-2.99,1.94-6.31,2.33-9.32,1.74-13.39-1.19-33.65.29-51.27.91-10.81.11-23.43.58-33.79.1-2.13.76-5.99.29-7.57-1.62-5.42-11.51-3.02-16.89-2.62-2.17,5.2-1.44,12.37-1.75,19.22-.2,4.44-.38,8.75-.58,12.82-6.2.72-3.2-6.97-3.2-10.78,0-1.86-1.1-4.34-1.45-6.7-.4-2.65-.1-5.38-.58-6.99-1.18-3.96-4.53-4.64-6.7-7.57-3.15,1.62-6.03-1.2-9.03-.87-2.09.23-3.55,2.98-6.7,3.5-3.29.54-7.57-1.06-9.9-.58-1.34.28-2.49,1.61-3.78,1.75-2.63.27-5.03-1.44-7.57-2.04-2.54,4.28-2.89,8.77-6.12,11.94-4.59,4.52-11.35,5.56-18.06,8.15,1.18,6.64-6.57,5.11-5.83,0-1.17.29-2.56.36-4.08.29-1.73,3.3,3.14,12.92-1.75,14.85-2.31-3.32-1.98-9.28-3.2-13.69-2.47-1.37-5.73-.12-6.7,1.75-.58,4.31.76,8.57,0,13.11-.2,1.16-1.26,2.23-1.46,3.5-.66,4.25.63,9.34.87,14.56.22,4.8.06,10.61.29,15.73.21,4.66.93,11.36-3.5,11.36-1.71,0-3.49-2.76-3.79-4.37-.63-3.49,1.83-7.24,2.04-8.74,1.27-9.05-.15-19.69.29-29.42.19-4.22.47-8.24.29-12.23-3.71-2.5-8.37-4.06-9.61-9.03-7.45,3.7-14.83-5.01-9.9-11.07-1.77-11.63,3.15-21.07,1.75-32.04-.27-2.13-2.3-6.23-3.5-9.03-1.39-3.26-4-6.45-5.53-9.61-1.06-2.19-1.09-4.5-3.2-5.53-.91-4.55-3.47-8.89-4.66-13.69-.43-1.75-.36-3.44-.88-4.95-1-2.94-3.12-4.91-3.79-8.45-.26-1.4.06-2.79-.29-4.08-.66-2.39-2.92-4.31-4.37-6.12-.78-3.53-2.95-6.79-6.41-8.45-2.04,1.93-2.43,5.09-3.49,7.86-1.12,2.91-1.52,5.89-2.33,9.03-1.63,6.35-4.11,12.85-4.66,18.93-.36,3.95.19,8.98,1.75,11.65,2.11,3.61,5.17,3.63,5.82,7.57,1.83,10.99-5.71,21.19,0,30,1.02,4.34.29,8.83.88,13.11.24,1.78,1.53,3.3,1.75,4.95.31,2.41-.87,4.73-.87,6.99,0,3.47,1.63,6.99,1.16,10.49-.32,2.43-2.07,5.81-3.2,9.03-1.12,3.17-3.45,5.87-4.37,8.74-.8,2.5-.65,5.13-1.46,6.99-1.46,3.38-4.93,5.94-6.7,8.45-2.64-1.68-5.56-1.29-8.74-1.75-3.51-.51-7.04-2.83-10.49-3.79-3-.83-5.69-.89-7.57-2.91-1.27-4.84-.63-13.43,0-19.23.37-3.46,2.43-6.73,2.62-11.36.18-4.31-1.69-8.81-2.04-13.4-.37-4.74-.66-10.58-.29-15.14.35-4.33,2.08-7.88,3.2-12.82.75-3.29-.03-6.38,0-9.32.07-6.95,1.45-14.18-2.04-18.93,1.67-4.26,1.75-10.09,2.04-15.73-.07-.8-1.08-.67-1.46-1.16-1.24.32-2.05,1.06-2.91,1.75-.3,4.17-3.51,7.97-4.95,12.23-1.32,3.9-1.31,7.71-4.66,9.61-.3,3.89.4,8.4,0,12.52-.26,2.68-1.8,4.31-1.46,7.28.28,2.45,3.11,5.48,4.37,9.32,1,3.04,2.34,7.31,2.91,10.49.44,2.4-.13,4.77.29,6.99.25,1.3,1.23,2.38,1.46,3.79,1.45,8.84-1.6,18.09-.29,26.8.26,1.75,1.5,2.82,1.16,5.54-.62,5.02-3.92,10.62-5.83,14.56-.03.94.45,1.89-.87,2.04.4.18.04,1.12.58,1.16-.46.99-1.32,1.59-2.04,2.33.25.86.44-.68,1.16-.29,0,1.5-1.4.93-2.04,1.16.27.33.54.09,1.46.29-.48.72-.89,2.61-2.04,1.75,1.53,1.06-1.11,1.16.29,2.04-.47.18-.95-.55-1.16.87-.43-1.64-3.14.56-3.2,2.04-.79-.09-.52-1.23-1.17-1.46.08.77.6.96-.58.87.29.39.78.58,1.17.87-.51.95-.76-.76-1.75-.29-.64.03-.12,1.23-.29,1.75.63-.2.72-1.03,2.33-.29.06,1.13-.46,1.67-1.46,1.75.12-.56,1.13-.23.87-1.16-3.9,1.33.4,7.63-.87,11.65.1.78.73,1.02.87,1.75.45,1.04-.99.18-.87.87,1.07,6.47-.77,14.05.29,20.39.25,1.48,1.7,2.93,1.75,4.37.04,1.18-.99,2.55-1.16,3.79-.74,5.12.88,10.93.29,16.31-1.12.84-2.22-.36-3.2-.58.83-5.78-1.07-13.75.87-20.1-3.24-10.25-.63-23.52-3.2-34.66.25-.94-.76-.61-.88-1.17.75-.81.79-3.2-.87-2.62.03-.55.96-.2.87-.87-.09-.89-1.24-1.59-1.75-1.16.09.86.9.06.58,1.75-.81-1.1-2.04-2.77-3.5-2.33.07-.32.58-.2.58-.58-1.32-.57-2.42-1.07-4.37,0,.2-.71,1.81-.78.87-1.75-.35.26-1.31-1.13-2.04-.29-.59.09.06-.84.29-.87-.42-.49-1.58.37-2.04-.58-.21-1.28.58.23.58-.58-.63-.7-1.43.88-2.04-.29.09-1.02.79.02.87-.58-1.41.52-1.9-2.76-3.2-1.46.52-.61-.8-2.36-1.46-2.33-.74-1.49-1.06-3.4-2.04-4.66,2-3.99-1.66-8.94-.87-14.27.15-1.02.81-1.54,1.16-2.62.64-1.96.44-4.45.87-6.41.87-3.89,1.84-7.24,2.04-11.36.17-3.58.63-6.69.87-9.9.46-5.95-.44-12,0-17.77.43-5.65,3.48-10.69,4.08-15.73.97-8.1-.21-16.56-.58-23.88-.32-6.3-1.51-11.98-4.37-16.6h-1.75c-2.08-2.07-2.31-6.63-3.5-8.74-3.84.05-6.07,1.7-8.74,2.91-.26,3.84-.64,10.26-.29,14.27.18,2.06,1.28,4.31,0,5.83-6.06-.84-1.57-10.8-2.91-16.6-6.44,6.46-.88,18.51-1.46,28.55-1.31,1.6-2.41,3.42-4.37,4.37-3.67-.99-5.39-6.38-1.75-8.45-.6-6.4-.71-14.48-.58-20.68-4.21.21-10.4,2.56-12.23,6.99-3.6,2.16-9.39,2.55-13.11,4.95-1.02.66-1.83,2.15-3.2,2.91-3.13,1.74-7.12,2.19-9.9,4.08-1.85,1.26-3.1,3.25-4.95,4.37-1.19,6,.48,11.25,2.91,14.56-1.57,11.2,3.83,15.98,4.37,26.22.94,17.83-4.7,33.85-19.22,37.28-.28,3.22.88,7.87-1.46,9.03-1.62-1.1-1.68-3.75-1.75-6.41-3.1,1.85-5.37,4.54-8.74,6.12.65,3.83-1.09,6.76-1.46,10.19-.85,7.97.47,17.5.87,26.22.38,8.23-.15,16.89.29,26.51.6,13.17,2.07,24.5-3.2,31.75-7.08-5.69-2.67-17.4-2.04-25.63,1.21-15.66-.44-33.96.29-50.1.26-5.76.41-11.23.29-16.6-1.35-.5-2.97-.72-3.79-1.75.05-.34-.06-.52-.29-.58.99-5.55-1.45-9.15-5.24-10.78-2.27-3.66-2.73-9.12-2.62-15.15,1.72-.32,3.06-1.02,3.79-2.33-.75-4.12-1.64-7.97-1.16-12.23.18-1.59,1.09-2.76.87-4.95-.74-7.37-3.1-15.28-5.24-21.26-1.53,7.4.17,18.04-.87,25.92-.84.49-2.16.82-3.2.29-2.13-4.42.15-8.82.58-13.69.61-6.85,0-15.47,0-23.89,0-9.17.04-18.87-.58-25.92-.38-4.32.7-8.98,0-12.82-.09-.51-.87-1.11-.87-1.46,0-.61.72-.16.87-.58.6-1.65.74-11.06.58-11.65-.2-.75-.62-1.25-1.17-1.46.25-.86.73.38,1.46,0,.01-2.23-.51-3.39.29-4.95-.54-.9-1.02,1.2-1.46.29-.46-1.69,1.25-1.2,1.46-1.46-.17-.83-2.63.13-2.04-1.46-.55.33-.62,1.13-1.17,1.46.22.76,1.66,1.17.87,2.04-1.96-.8-1.37-1.08-1.46-2.62-1.72-.4.09,1.13-1.16.87-.99-1.09.26-2.82-1.17-4.08-.08,1.88-.69,3.34-.29,6.41-.77,0-1.66.11-2.04-.29-.76.25.56,1.28-.29,1.75-.92-1.71-1.16.41-2.33-.29.76-.21.99-.96,1.75-1.17-.5-.99-2.03.12-2.62-1.16-.09-.77,1.63.27,1.17-.87-.44-.96-.71.61-1.46.29-.08,1.31.9,1.55.87,2.04-.4,1.07-1.62-.63-1.75,1.46.98,1.01.52-.71,1.46-.58-.52,1.4.41,1.05.29,2.62-.88.29-.52-.65-.58-1.17-1.13-.25-.48,1.27-1.75.87.2-.97.52-2.19-.58-2.91-.45-1.04.99-.18.87-.87.04-1.01-.57-1.37-.87-2.04-.26.23-.66.31-1.17.29.54.65,1.82,2.42.29,1.17-.95.5.76.76.29,1.75-1.67-.73-2.14.76-3.79,1.46,1.07-1.19.46-1.64.58-2.91.77-.09.96.4.87,1.17,1.42-2.16,1.44-4.26,4.66-4.08.85-.82-.87-.36-.58-1.46.77.29,1.48.3,2.04-.29-2.11-.92-3.85,1.66-5.83,3.2,1.19-1.57-1.13-1.79-.58-3.2-1.45.34-.47,2.25-2.04,2.91-.75-1.5-.25-2.07,0-3.79.75-.77.42.56,1.16.58-.12-1.28,1.4-.93.87-2.62h-1.46c-.11.7,1.33-.16.87.87-.86,0-1.1.61-2.33.87-.1,1.05-.45,1.4,0,2.33-1.27-.24-1.68,1.44-3.5,1.46.13,1.05.75,1.41.29,2.33,1.11-1.07,2.1-.35,2.91-.58-.57,2-2.08.6-2.91,1.46-.85.25.17.94,0,1.46-1.42.05-.36-1.02-.87-1.46-1.22.23-1.98.93-2.04,2.33,1.58,1.35,1.38-1.4,3.49-.29.4,1.57-1.11,1.22-.87,2.62-.87-.78-.34-1.45,0-2.33-1.64-.02-.99,1.69-1.46,2.33-1.29-.14.06-1.11-.58-1.75-.94-.36-.22.94-1.17.58-.06-1.06-.4-1.12,0-2.04-1.19-.34-2.79.54-3.79-.87.34-1.37,2.05-.75,2.33.29.97-.31.02-.88.58-1.75.74.03.69,1.09.29,1.46,1.4-.82,1.3-1.39,2.62-1.17.43-.25.42-.94.58-1.46.19-1.1-2.15-.43-1.16-1.46.65-.16.41.56.87.58.42-.45.97-.78,1.17-1.46-.59.09-2.29,1.04-1.46-1.16-1.02.35-.96.43-1.75.58-.02,1.03-.2,2.76.58,2.91-1.14,1.77-2.87-1.36-1.17-2.04-1.4,1.35-4.37,2.35-5.24-.29-.68.39-.88,1.26-1.75,1.46-.08-1.05,1.15-.79,1.16-1.75-.46-.78-1.04-.28-1.75-1.17.29,1.08.62.76.29,2.04-.56-.12-.03-1.33-1.16-.87-.34,2.09,2,1.5,2.04,3.2-1.16,1.06-1.58-1.56-3.5-.87.04-.72.99-.09,1.17,0-.16-.87-1.54-1.06-.29-1.75-.29-.39-.78-.58-1.16-.87-.72,1.18,1.01,4.64-1.16,4.95-1.19-.1.01-.76-.58-1.46-.53,1.02-1,.29-1.75,0-.05-1.12.24-.11.87-.29-.11-1.24-1.18-1.54-1.16-2.91.65-.16.41.56.87.58,0-1.26-1.28-1.24-1.46-2.33-.78-.09.77,1.13-.58.87.08-.52-.27-.6-.29-.29-.97-.26-.31-.7.29-.87-.66-.94-1.64-.04-2.33-.58.2-3.1,1.47-2.78,3.79-4.37.2,1.17,1.21,2.57,2.04,1.46-.16-.38-1.06-1.02-.87-2.33.62-.14.55.42.58.87.72-.64.72-2,1.75-2.33-.9-.21-3.59.83-2.91,2.33-1.29-2.39-2.45,1.16-4.08,1.16,1.41-1.15.13-.93-.29-2.33.47-1.09,1.36-1.75,1.75-2.91-.4-.86-1.01-.09-1.46-1.16-1.11-.43-.06,1.3-1.17.87,0-1.35,1.35-1.37,1.17-2.91-2.23-.12-.17.99-1.75.87-.03.5.59,3.73-2.04,3.2-.09-1,1.35.14,1.46-1.16-.4-.48-2.69,1.22-2.62-.58-.33,1.54-3.26,3.61-2.91.87.18-1.5.8.46,1.75,0-.58-1.66,1.72-1.98,1.75-4.08-.44-.96-.34.97-1.16.58.4-1.18-.63-.92-.58-1.75,2.1-.35,2.82.67,3.5,1.75,1.8-.06,2.21,0,4.08-.29-2.22-.71-4.27-.77-6.99-2.62-.17-.94.09-1.47.58-1.75-1.29.22-.66-1.48-2.33-.87-.1-.58.06-.91.58-.87-.58-.29-2.07.12-2.33-1.17-.77.47.7,2.01-.87,2.04.3-1.13-.15-1.2.29-2.04-1.14-.35-1.51.02-2.04-1.16-.31.35.6,1-.29,1.75-.69-.97-1.27-.71-2.33-.87.49-1.02,1.3-.85,2.04-.29-.2-1.42-.07-1.35-.58-2.33,1.26-.47,1.76-.31,2.04-2.04.78-.57,1.21,1.17,2.04,1.46-.35-1.93.91-6.62-2.91-6.41.03-.84,1.24-.51,1.16-1.46-.79.52-1.57-.21-2.91-.58.5-1.52,1.53-.01.87-2.33.31.34,1.34.11,1.75-.29-.17,1.27.84,4.56,2.91,3.5.09-1.19-.4.05-1.16-.29-.15-1.21.85-1.29.58-2.62-.87.04-.82,1.77-1.75.87,1.02-.33-.24-1.92.87-2.91.87.19-.28.62,0,1.16,1.15-.48.6-.78.29-1.75,1.65.74.59-.62,1.75-.87.28-1.06-1.26-.3-1.46-.87.57-.61,1.59-.57.87-1.75,1.06.48,1.01,1.62,2.04,1.46,1.45,0,.93-1.98,1.75-2.62,1.11.25,1.4,1.32,1.75,2.33.32-.55.73-1.02.87-1.75-1.02,1.52-1.33-1.44-2.91-1.17.26-.51.65-1.12,1.16-.58-1.1-2.21-3.42-.62-3.79.58-1.96-.52,2.8-3.18-.87-3.79-.39.56,1.69.98.29,2.04-1.1.13-.1-1.84-1.75-1.17.37-1.12.84-1.5.87-2.33-.25-.63-1.28-.47-1.75-.87-.64,1.72-1.42,1-3.2,1.46,0-1.06.86-1.28,2.04-1.17-5.03-2.69-13.51-1.1-15.73,3.2-3.88,1.37-7.86,2.63-9.9,5.83-6.21,3.79-12.74,7.26-16.6,13.4-1.94.97-2.82,3-4.95,3.79-2.13,3.65-4.5,6.93-7.28,10.19-1.1,1.28-2.85,2.1-3.79,3.5-1.58,2.36-1.63,5.49-4.37,6.99-.82,2.19-1.83,4.19-2.91,6.12v2.62c-2.03,2.02-5.94,5.8-2.91,9.32-2.04,10.79,3.55,16.45,8.16,21.55,3.94,3.27,8.74,5.55,13.4,8.45,5.32,3.31,9.53,7.48,17.19,8.16,3.8,5.41,11.91,5.16,17.77,7.28,2.02.73,3.97,2.38,6.12,3.2,6.62,2.55,12.98,5.41,19.22,8.74,3.92,2.09,7.58,4.94,11.36,7.28,3.94,2.44,7.72,5.02,11.36,7.28,2.79,1.74,5.47,6.63,7.57,9.32,1.19,1.52,3.11,2.64,4.08,4.37,3.28,5.89,5.42,13.16,7.86,20.1.39.88,1.46,1.06,2.33,1.45,1.32,3.33,1.45,8.62.29,12.23,1.68,3.99,3.05,7.75,1.75,11.94-.44,1.43-1.91,2.51-2.33,3.79-.32.99-.06,2.22-.29,3.2-1.16,5.03-4.62,8.84-6.41,12.53v18.93c-1.04.61-1.53,1.77-3.5,1.46,0-.28-.36-.23-.58-.29-1.16-3.4-.48-9.2-.29-13.11-2.06.95-3.45,2.91-5.53,4.66-2.69,2.27-7.11,3.89-7.57,8.45-.6,6.01-.27,12.83-.58,19.52-.38,8.07-.82,17.77,0,23.01.3,1.91,2.16,4.06,1.16,6.7-2.14,5.66-9.26,4-8.16-3.79.34-.43.73-.82,1.16-1.16.39-10.99,1.9-22.35,1.46-33.21-.04-1.12-1.18-1.15-1.46-2.04-.04-3.54-.09-7.08.58-9.9-7.35,2.36-13.06,6.36-20.97,8.16-1.08,6.07,1.44,16.46,0,21.84-.53,1.97-2.7,3.36-4.66,3.5-.29-.39-.78-.58-1.16-.87-.15-7.43.8-13.76.58-21.26-2.28.64-4.43,1.74-7.28,1.75-5.1.01-8.52,4.36-13.4,4.95-.13,2.49.31,5.55-.29,7.57-.78.51-2.75.97-3.79.29-.83-2.06.38-4.42,0-6.99-8.45-.29-18.58,1.1-23.88-2.33-1.77.46-2.58,1.89-4.08,2.62-1.72,12.27-.97,26.99-2.04,39.91-4.7,3.51-8.6-3.47-4.66-6.41.27-7.3.87-12.03.87-17.18,0-7.05-.94-14.1-5.24-17.48-1.84-1.44-5.51-3.34-8.16-4.37-3.6-1.41-9.52-1.94-8.74-7.57.52-3.76,4.65-6.12,6.99-8.45,4.07-4.05,8.47-10.7,18.35-10.19,4.84.25,10.89,1.38,14.85,2.62,3.38,1.06,6.21,3.35,9.32,4.08,5.61,1.3,11.15-.55,14.56-2.04,1.32-.58,1.95-1.86,3.2-2.62,2.45-1.47,5.73-1.98,8.45-3.2,2.72-1.23,4.5-3.33,7.28-4.37,4.16-5.07,10.4-8.05,15.44-12.23,2.5-7.24,4.98-21.47.58-28.25-.66-1.02-1.96-1.61-2.62-2.62-1.44-2.22-1.77-4.8-3.5-6.7-4.14-4.56-9.28-8.96-15.73-11.65-4.42.21-12.41-4.16-16.31-6.7-2.17-1.41-3.7-3.85-5.83-5.53-6.88-5.46-14.93-4.88-25.63-8.45-2.75-.91-7.36-3.01-10.49-4.66-5.74-3.03-10.56-7.95-16.02-8.74-6.67-.97-16.52-.49-19.81-6.99-1.47-2.91-2-6.29-3.2-9.03-2.51-5.71-5.84-9.91-9.61-14.85-2.46-3.22-5.4-6.34-5.53-11.36-.09-3.48-.12-8.66.58-11.94.59-2.76,2.77-5.12.29-7.57-1.26-14.75-1.98-29.72,1.75-40.49,2.45-7.07,7.25-13.15,8.45-19.52.1-.55-.19-1.27,0-1.75,1.85-4.75,8.24-6.88,9.03-11.94,8.67-8.06,17.73-16.3,29.71-22.14,7.01-3.42,14.48-7.46,21.85-8.16,6.62-.62,11.35-3.31,18.06-4.08,6.46-.74,12.47,1.68,18.93,1.16,2.57-.21,4.78-1.33,6.99-1.46,3.05-.18,6.08,1.2,9.32,1.46,6.27.49,11.24,3.45,17.19,3.2,1.99-.08,4.2-.93,6.7-.29,3.35,3.06,6.66,6.15,12.53,6.7,3.64,2.38,6.65,5.39,10.49,7.57.25,1.4,1.21,2.09,1.46,3.5.96.6,2.2.91,3.2,1.46,1.49,5.11,1.74,11.46,6.12,13.69,2.66-.63,5.11-.06,6.7,1.17,4.53-.33,8.7,1.55,13.4,1.46,7.12-.15,13.89-2.34,20.97-1.75,3.79.32,9.32,1.56,13.4,1.16,3.11-.3,6.19-1.41,9.32-1.16,4.29.33,7.99,2.66,12.23,4.37,1.29.52,2.79.36,4.08.87,1.77.7,2.98,2.4,4.66,3.5,2.42,1.57,5.08,1.97,6.7,3.49,2.1,1.98,2.99,5.05,5.54,6.99.2-3.04-2.09-5.23-2.04-8.16.06-3.93,4.35-10.89,7.28-13.69,2.06-1.97,5.69-4.58,8.74-6.12,6.68-3.37,13.89-4.59,20.39-.87,1.23,3.07,4.83,5.22,6.12,8.74.38,1.04.01,2.27.29,3.5.87,3.84,3.88,7.53,4.37,10.78.82,5.44-1.37,11.42-3.5,14.86-1.61,2.59-5.27,6.17-3.5,10.19.69,1.56,2.52,2.27,3.5,3.5,4.1,5.15,5.8,9.81,6.12,18.93,1.1-4.53,2.68-11.44,4.37-16.02.79-2.14,2.11-4,2.91-6.12.87-2.29,1.23-4.88,2.04-6.99.79-2.04,1.37-2.43,1.16-5.53-.56-8.5-.35-15.17.58-23.88.7-6.46,6.2-11.53,6.99-19.52,3.13-4.64,7.43-8.1,11.07-12.23,4.15-.54,6.36-2.88,11.94-2.33,6.39.62,13.16,4.17,16.31,7.86-.23,1.2.44,1.5.29,2.62,4.91,4.51,7.66,11.17,11.07,17.18,1.47,6.08,5.27,13.63,1.75,20.39,1.85,4.62,5.71,7.47,7.57,11.65,1.14,2.55,1.34,5.45,3.5,7.86.34-.05.52.06.58.29,2.04-.19,3.43.26,5.24.29,2.39-3.29-.51-11.55,1.46-14.56-.26-5.02,1.4-10.54-1.16-13.11-1.07-4.65.3-8.61-.29-13.11.75-1.1,1.41-2.28,2.62-2.91-.15-5.49,3.94-6.73,4.08-11.94.14-.62-.41-.55-.87-.58.72-1.11,2.48-4.22.87-4.95.44-.88,1.28.24,2.04,0-2.03-2.06,1.79-2.48.29-5.24.56.12.02,1.33,1.16.87.19-.85-.3-1.15-.58-2.33,1.95-.09,1.36-2.72,3.5-2.62-.2-1.5,2.48-2.44,1.46-2.91,7.37-2.51-1.58-12.43,2.91-18.35,4.75,1.66,2.16,10.65,6.41,12.82,1.24-1.44,3.33-1.36,5.54-2.33,1.08.04.73.42.58,1.16.69-.09.54-1.01,1.46-.87.04.52-.36.61-.29,1.16,1.01.23,1.12-.43,2.04-.29-1.13.99.95.03,2.91.87h0Z"/>
  </g>
  <path class="cls-1" d="m153.36,119.47c.7-.12.63.53,1.46.29.24.82-.41.75-.29,1.46-1.57-.18-2.02.28-3.79.29-.13-1.37-1.21-2.4-1.16-3.49,1.04.12.78,1.55,2.33,1.16-.69-1.49,1.02-2.25,1.46-3.49-.13-.43-.37.11-.87,0,.23-.84.59-1.55.87-2.33.68.1,1.37.19,1.17,1.16-.52.04-.61-.36-1.17-.29.29,2,.88,2.91.87,4.37-.68.09-1.12-.05-1.46-.29-1.23.46.64,1.04-.58,1.75.18.71,1.47.15,1.16-.58h0Z"/>
  <path class="cls-1" d="m908.05,198.41c.94.19.94-3.1,0-2.91.11,1.35.35,1.68,0,2.91h0Zm-8.74-1.75c.31,2.11-1.81-.02-1.46,2.04,1.92-.18,1.45-1.24,2.91,0-.25-1.99-2.12-3.9-3.79-3.5,1.09.67,1.08,1.5,2.33,1.46h0Zm17.77-3.5c.54.57,1.06.09,1.75,0v-.58c-.29,0-.35-.24-.58-.29-.08.6-1.08.27-1.17.87h0Zm5.24-2.04c1.14-.56,2.4.71,2.33-1.16-1.37.9-1.07-.61-2.04-.87.14.92-.53,1.03-.29,2.04h0Zm-40.78-.87c.77.09.75-.61.87-1.16-.78.02-1.4.67-.87,1.16h0Zm44.86-4.66c.09-.39.41-.56.29-1.16h-.88c-.08.67.07,1.09.58,1.16h0Zm-115.05-100.2c-.19-.98.37-2.71-.29-3.2-.27.48-.84,3.21.29,3.2h0Zm0-5.24c.04-1.02-.08-1.86-.58-2.33-.12.2-.38,2.32.58,2.33h0Zm-33.21,5.24c-.52-.45-.51-1.43-1.46-1.46-.83,1.3.87.57.87,1.75-.45.52-.8,1.14-1.17,1.75-.87-.98,1.23-1.21.29-2.04-1.73,1.15-2.73,1.84-5.24.58.56.73-.45,1.2.29,1.75.04-.54.19-.97.58-1.17,1.41.59,1.72,1.15,2.04,2.33-.73-1.01-1.61,1.08-2.04.29.09-.59.79-.57.88-1.16-1.27.17-1.67,1.44-2.33,0,.36,3.93-.3,4.58,1.17,7.86,5.54-.94,6.87,1.07,9.61,2.91,1.33.9,3.06,1.02,4.08,1.75,2.78,1.99,3.54,6.24,6.41,7.57-.38-10.01.76-21.54-.58-30.58-2.24,3.93-7.19,2.17-11.94,2.91,1.2.22-.9,2.53-1.16,2.33.83.36.68,2.43-.29,2.62h0Zm36.99-2.04c-1.09,2.92.56,12.51-3.78,7.57.56,7.77-1.75,14.22,0,20.68-.07.8-1.65.1-1.46,1.16.3,2.52.52,5.11,1.46,6.99,4.46-2.14,5.81-7.39,10.19-9.61.98-6.37,0-11.37,0-18.35,0-2.39.71-5.81-.87-6.7-2.16,2.95,1.62,10.06-1.75,11.65-3.29-.94-2.21-8.84-2.04-11.36-1.24-.9-.29-3.99-.58-5.83-.03-.75-1.14-.42-1.17-1.16-.14-.55,1.34-1.91.58-2.04-.06-.23-.24-.34-.58-.29-.46,1.41-1.08,5.23,0,7.28h0Zm-53.88,1.75c.23.06.34.24.29.58.74.22,1.37-1.11.88-1.16.21.79-1.37-.21-1.17.58h0Zm63.5-45.15c-.04.72.36.49.29,0,1.15-.47.1,1.26.87,1.17.19-.27.04-1.39,1.17-1.46.4.81.87,1.39,1.16,2.91,1.04-.76,1.46-.33,2.04-1.46-.2,1.54.96,1.39.58,2.33.44.96.34-.98,1.17-.58-.61.91-.42.94-.29,2.33.54-.04.18-.99.58-1.16.24.21.35.88,0,1.46.34-.24.78-.38,1.45-.29-.1.77-1.48.26-1.75.87.46.59,1.7-.36,3.2-.29-1.2-.69-.53-.26.29-.87.27.29-.32,2.19-1.17,2.33.92.35,1.1,1.62,2.33.87-.21.89.5.86.29,1.75-1.35.06.46-1.37-1.17-1.16-.06,1.39,1.83,3.39-.29,4.37.46.51,1.31.63,2.33.58-.17,1.35-1.44-.08-2.04.58-.12.8,1.09.27,1.17.87.05,1.12-.24.11-.88.29.86,1.07-1.26,6.19.88,7.57-2.73,3.1-4.39,7.82-6.12,11.07-.31-.07-.2-.58-.58-.58-2.16,2.4-2.61,6.51-4.66,9.03-.11,3.37.72,12.05-.87,14.86.05,3.16-.13,7.18-.29,10.49,10.47-6.37,28.03-9.93,45.73-7.86,3.93.46,6.31,2.45,10.78,2.91,3.86.4,8.01,1.81,11.36,3.2,4.05,1.68,6.78,3.69,11.65,4.66,3.96.79,9.56,5.02,12.82,7.28,4.35,3.03,8.39,5.64,11.94,7.86,2.58,5.14,9.52,8.16,10.78,14.56.26,1.33-.14,2.98.29,4.66.69,2.71,1.79,3.51,1.16,6.7-.48,2.44,1,4.96.58,7.57-.22,1.4-.32,4.11-.58,6.12-.56,4.3-3.13,7.15-4.37,11.36-1.51.53-3.1.98-3.2,2.91-4.38.47-5.04,4.67-7.58,6.99v-.88c-1.34.28.85,1.41-.29,2.33-1,.22-.37-1.18-1.45-.87.51,1.04.97,2.14,1.75,2.91-.06,1.39-1.35,1.56-.87,3.5h-1.16c-1.23-.81-1.85-2.23-2.91-3.2-.31.57-.09,1.37-.87,2.04,1.17-.26,1.55.88,2.91,1.16-.47,2.24-2.61,2.35-2.33,4.66-1.24.27-.02-1.92-1.17-1.75,1.25-.08,1.32-.99,1.75-2.91-.96.19-.51,1.35-1.75.58-.61.08-.08,1.28-.58,1.46-1.35-.79-2.37.03-2.62,1.16-.93.25-.91-.45-1.17-.87-.51.07-.66.5-.58,1.16-1.92-.64-2.96-1.5-4.37-2.04-.99.76-.26,2.03-.58,3.79.92-.34.61-1.91,1.46-2.33,1.47.09,1.26,1.85,3.5,1.17.85,2.58-1.16,4.09-3.2,4.66-.38-1.65,1.08-1.45,1.45-2.33-.8-.4-2.52.77-3.5,1.17-.5-.18.02-1.38-.58-1.46-.88.67-1.3,6.92.58,5.83-1.82,1.79-.07,4.37-.58,6.7.27,1.18,1.35,1.56,1.75,2.62-.6,6.58,1.38,10.22,2.91,13.98-.56.85-1.48.24-2.04.58,1.11,15.42.03,30.15,1.45,46.6-.71,1.91-1.96,3.29-2.33,5.53-.46.02-1.11-.14-1.17.29-1.09-2.04-2.61-3.88-3.2-6.41-.74-3.15.09-6.29,0-9.9-.03-1.34-.75-2.64-.87-4.08-.62-7.07-.48-16.02-.58-21.26-.03-1.24.64-2.53.58-3.79-.06-1.35-.57-2.43-.58-4.08-.03-5.62-.28-11.99-.87-17.18-.19-1.64-1.28-2.87-1.45-4.37-.21-1.81.59-3.67-.29-5.24-1.06-.26-1.55.51-2.04,0-.84-.65.79-2.09-.87-2.04.52-1.38,1.3.18,2.33,0,.39-1.15.25-2.53,0-4.08-1.6-.39-1.85-.06-3.2.29-1.5-.35-1.21-2.48-2.04-3.5-.47-.08-.5.27-.87.29-.86.25.68.44.29,1.17-1.29-.07-1.75-.97-2.91-1.17.12-.65,1.43-.12,2.04-.29-.08-2.16-4.12-.34-4.37-2.33-.51.54-.81,2.25-2.04,1.16.08-1.08,1.54-.79,1.46-2.04-.77-.2-1.87-.96-2.33-.58-.96.7,1.06.86.58,2.04-.68,0-.85.5-1.75.29v-2.04c-1.33-.91-2.67-.37-4.08,0-.55-.56-.03-.73,0-1.46-.36-.83-.85,1.27-1.45.29-.07-.9-.3-1.65-.58-2.33-.81-.13.23,1.59-.58,1.46-.64.05-.93-.24-.88-.87.3-1.07,2.18-.54,2.04-2.04-1.03-.99-.7,1.01-2.04.58-.33-1.21.62-1.13.58-2.04-2.22-.04-3.4,1.15-4.95,1.16-.37-1.15.8-.76,1.17-1.16-.76-.89-.88-.91-.29-2.04-.9.07-1.13.81-1.75,1.16-1.43-1.13-2.67-2.04-4.08-1.45.09-1.04,2-1.29.87-2.62-1.08-.31-.57.98-1.16,1.16-1.04.07-.3-1.64-1.46-1.46.9-.6,2.43.29,2.91-1.17-.59-.94-1.01.71-1.75.58,0-1.94-1.29-.21-1.75,0-.04-2.16-1.53-5.39-3.49-4.66-.78-.96-1.02-2.52-.29-3.49-.12-.73-1.13-.02-.87.58-.74-.52-2.09-.43-1.75-2.04.72-.04,1.41-.04,1.75.29-1.01-.84-.16-3.53-2.04-3.5-.2-.78.6-.56.87-.87-.94-1.12-.56-3.08-1.75-2.62,1.11-1.13.05-2-.87-2.62,1.22-1.27.22-1.41.29-3.49-3.39,1.09-7.49,2.04-11.94,3.2-3.61.95-6.63,2.61-11.07,3.5-7.04,1.41-14.82,3.32-15.14,10.49-.49.39-.45,1.3-.88,1.75-.63,9.42,3.77,14.26,7.57,19.51,3.24,4.47,6.09,9.35,10.19,12.53,5.49,8.53,15.54,15.04,22.43,23.01,6.74,7.8,12.01,17.24,15.44,27.38.5,1.48.35,3.44.58,4.95.83,5.29,3.25,12.27,1.46,18.93-.81,3.02-1.98,6.3-3.79,7.57.69,5.19-.08,9.56-2.62,12.82-1.72,2.21-4.34,3.27-6.12,4.95-2.4,2.28-3.72,4.97-6.12,6.7-3.47,2.5-11.67,4.55-17.19,4.37-16.4-.53-33.95-1.27-46.31,3.79.18,15.39,1.32,29.65.58,45.44-.36,7.7-.98,15.67-.58,22.43.25,4.2.09,8.46,2.33,11.07v4.08c-.76,1.16-2.43,2.64-4.95,1.46-4.65-2.19-.05-10.21-.58-15.15-.21-1.91-1.3-3.63-1.45-4.95-.43-3.48,1.15-6.1,1.45-8.16,1.22-8.34,0-18.39,0-27.38v-27.09c-4.96,2.69-17.7,3.61-22.72-.58-.09,3.67,3.54,20.65-3.79,16.89-1.97-6.29.57-13.77-.29-19.52-.76-5.02-7.37-5.74-8.45-10.19-.95-.02-1.11-.83-2.33-.58-6.45-5.2-1.41-15.86,4.08-19.52,2.25-1.5,5.67-2.39,8.45-4.08,6.67-4.04,16.52-4.85,22.72.29,2.57,2.13,3.27,5.46,5.53,8.16,3.79,4.51,16.74,6.68,27.09,5.53,2.69-.3,5.47-2.12,8.74-3.2,2.99-.99,6.15-1.19,8.45-2.62,2.5-1.55,5.23-5.26,6.99-7.86,5.27-7.77,2.05-19.52-2.04-28.25-.45-.42-1.14-.61-1.75-.87.15-.24.3-.47.29-.87-2.69-4.03-7.43-6.31-10.19-9.9-1.68-2.18-2.45-5.6-4.08-8.15-2.22-3.49-3.72-7.48-6.7-9.9-1.76-1.43-4.19-2.21-6.12-3.5-1.84-1.23-3.14-2.9-4.95-4.37-1.05-.85-2.68-1.16-3.79-2.04-2.96-2.34-3.72-7.89-6.7-10.78-3.6-3.48-9.92-5.13-12.82-9.32-2.23-3.23-.08-9.72-.58-14.85-.47-4.87-2.87-10.19-3.2-14.56-.44-5.82,3.46-13.86,7.28-15.73-.19-1.97-1.98-2.56-3.79-1.46-2.58,1.58-2.93,6.69-6.12,9.61-.8.73-2.04,1.19-2.91,1.75-1.95,1.23-3.16,2.5-5.83,3.2,1.09,4.82,2.02,9.28,2.62,13.69.8,5.8-1.42,10.95-.58,17.77.28,2.22,1.4,6.86.87,10.49-.95,6.47-6.18,15.98-10.19,19.52-3.43,3.02-13.79,3.22-17.19.29-1.48-1.28-3.41-3.72-4.37-6.7-.89-2.76-2.75-7.94-1.75-11.36,1.26-4.28,5.07-9.37,6.12-14.27.83-3.89.54-8.49.88-13.4.41-5.99,3.73-10.58,4.66-15.73.99-.38.96-1.76,2.04-2.04,1.59-5.65,1.7-14.82,2.33-22.14.22-2.6.75-5.08.58-7.28-.56-7.11-6.3-9.74-4.66-18.06.25-1.28,1.57-2.28.87-3.49,2.5-4.68,3.68-10.69,6.99-14.56,1.41-.54,2.44-1.45,3.5-2.33-.74-1.05-.35-4.4,0-6.12-.17-.71-1.88.14-1.75-.87-.17-1.08.78-1.8,1.46-1.17v-3.79c-.56.54-.23.53-1.17.29.07-.32.58-.2.58-.58-2.38-.95-5.05-.39-6.41-2.91-.3.19-.3.67-.87.58-.26-.94.96-.4.87-1.16-.15-.31-1.43.2-.58-.87-1.22.27-1.22.07-2.33.58-.18-.94,1.05-.4.29-1.16-3.81.48-7.89,5.42-12.82,6.7,2.21-3.13,8.17-5.04,10.49-9.03-.75.4-.92.94-.58-.29-.5-.11-.55.23-.58.58-.98-2.47-2.33-3.29-3.2-4.66.47-.08.5.28.87.29-.84-2.71-1.6-3.48-1.75-6.41,1.31.04.64-.98.29-2.33.94-.26.4.96,1.17.87-.3-1.45-.85-2.02.29-2.91.69.08-.33.78-.29,1.16,1.58-.47,1.12-1.87,1.17-2.62,2.35.32,1.12-1.71,3.79-2.62,0-.58-.79-.37-.58-1.17.33.55,1.98-.93,1.17-1.46.8-.47,1.35-.02,2.33.29,0-.78-.92-.63-.87-1.46,1.04,1.97,1.66-1.84,2.04-.29.43-.09,1.25-1.23.58-1.46,2.14-.38,3.47-1.09,5.53-2.33.52.86,2.6,1.16,3.2-.29,1.3.11.17,1.55,1.17,1.46,1.36-.04-.32-.42,0-1.16.96.75,2.51,2.14,3.49,1.16-.38,1.15,1.07.71.29,1.46.69.71.54-.43,1.46-.29.04.52-.36.61-.29,1.17,1.09.22.2-1.55,1.45-1.17.08.47-.28.5-.29.87,1-1.38.9,1.17,1.45-.29.65.21.14,1.66-.58,1.46,5.36-.01,14.56-.41,18.93,2.33,2.05,2.2,4.55,7.38.87,9.61-.56,15.25-.13,31.95.58,46.9,3.7-1.93,5.69-5.56,9.03-7.86.86.3,2.11.22,2.62.87,1.78-13.09-2.81-28.42.29-40.78-1.37-.38-.92-.36-2.04-1.46.13-.43.37.11.87,0-.04-1.59-1.07-.07-1.75-.58-.88-.67-.15-1.09-.58-2.04-.09-.2-1.33-.81-1.46-1.16-.05-.14.49-.57.29-.87-.65-.98-1.88-.95-1.75-2.33.38.1.46.51.87.58.37-.8-.85-1.42-.87-.87-.79-.26.61-.92.87-.29-.4-1.74-1.24.47-2.04-.87.83-.02.78-1.55,1.46-.87.46-1.01-1.09-2.24.29-2.33-.25-.85-.73.38-1.46,0,1.09-1.13.89-.82,2.33-1.75-.43-.98-1.46-.26-1.45-1.16,1.05-.61.88-.45,2.04-1.46-1.99.44.53-4.09,2.33-4.37.14-.62-.41-.55-.87-.58.92-1.22,2.26-1.49,2.62-3.79,1.03-.45.18.99.88.87.28-1.35,1.54-.89.87-2.62,1.66.06-.1,1.81,1.17,2.04.74-.39-.43-1.29-.29-2.04,3.78-.04,4.66-.22,6.99-1.16.85.25.33.44.29,1.16,1.23.45-.06-1.62,1.17-1.16-.27,2.01,3.24-1.15,2.62,1.75,1.43-.45.21-1.17.58-1.75.87,1.82,2.12.26,1.75,2.62.73.04,1.25-2.75.88-1.17h0Z"/>
  <path class="cls-1" d="m666.58,51.9c.75.32,1.4.74,1.75,1.46-.93,2.42-1.62,4.95-.29,7.57-.91-2.5-5.3-7.12-1.46-9.03h0Z"/>
  <path class="cls-1" d="m140.83,83.06c.56.99,1.53,1.57,2.04,2.62-.18-.09-1.12-.72-1.16,0-.3-.87-.71-1.62-.87-2.62h0Z"/>
  <path class="cls-1" d="m151.03,85.69c-.49,1.04-.6,1.28.29,2.04-.56,1-1.56-1.7-2.04,0-.29-1,.83-1.28,1.75-2.04h0Z"/>
  <path class="cls-1" d="m147.53,93.55c-.19,1.16.37,1.57.87,2.04.56-.12.23-1.13,1.17-.87-.44.34-.34,1.21-1.17,1.16-1.03-.12-.58-1.27-1.75-.58.31-1.52.18-2.2-.87-2.91.73-1.08.61,1.11,1.75.58.86-.25-.68-.44-.29-1.16.82-.24.75.41,1.46.29v1.16c-.26.23-.66.31-1.16.29h0Z"/>
  <path class="cls-1" d="m656.68,95.59c6.28,3.73,11.71,8.29,16.9,13.11-5.61-4.39-11.86-8.15-16.9-13.11h0Z"/>
  <path class="cls-1" d="m140.83,101.41c-1.02-.45-.07-1.08-.29-2.33,1.62.28,0,2.1,1.46,2.62-.73.22-.61.35-1.75.58.32.91.14.77-.29,1.46-.88-.81.62-1.7.87-2.33h0Z"/>
  <path class="cls-1" d="m150.74,114.23c.27-.32.54-.09,1.46-.29.09.77-.4.96-1.17.87.05-.34-.06-.52-.29-.58h0Z"/>
  <path class="cls-1" d="m142.29,119.76c-.85-.25.17-.94,0-1.46.66-.4,1.1.75,1.17,0,.71.39-1.27,1.44.87,1.17.16.65-.56.41-.58.87-.52,0-.84-1.63-1.46-.58h0Z"/>
  <path class="cls-1" d="m149.86,121.51c-.3.19-.3.67-.87.58-.46-.46.14-1.34.87-1.46-.12.61.2.77.29,1.17-.15.45-.3.02-.29-.29h0Z"/>
  <path class="cls-1" d="m141.71,122.09c1.13.18-.43.65.29,1.75-.68.09-1.12-.05-1.46-.29.05-.82,1.39-.36,1.17-1.46h0Z"/>
  <path class="cls-1" d="m158.6,127.92c-1.13-.25-.48,1.27-1.75.87-.14-.62.42-.55.87-.58-.06-.24-.29-.29-.29-.58-1.42-.15-.52,2-1.46,2.33-.34-.44-.84-.71-.87-1.46.6-.28.6-1.15,1.46-1.17.11-.99-1.29-.46-.87-1.75,1.14.89,1.94.12,1.46-1.16,1.14-.27.74,1.01,2.04.58-.05.82-.51,1.24-1.46,1.17v.87c.04.65.73-.38,1.46,0-.86,1.01.79,1.36.87,2.33-.55-.42-2.05-.78-1.46-1.46h0Z"/>
  <path class="cls-1" d="m155.4,126.76c.96.44-.61.71-.29,1.46h-.58c-.15-.23-.3-.47-.29-.87.24.06.29.29.58.29.27-.21.44-.53.58-.87h0Z"/>
  <path class="cls-1" d="m148.41,128.5c.05-.25-.11-.27-.29-.29.94-.95.29,1.09,0,1.46-.84-.05-.7-1.39.29-1.17h0Z"/>
  <path class="cls-1" d="m153.94,136.08c-.43.87-1.31.49-2.04.29.07-.37.58-.29.58,0,.51-.26.85-.92,1.46-.29h0Z"/>
  <path class="cls-1" d="m171.13,141.32c.14-.93.36-1.78,1.16-2.04.21-.79-.58-.59-.58-1.17-.73.24-1.14.8-2.04.87.8-1.67-.86-1.1-.87-2.62.67.18,1.76.58,1.17,1.16.94-.47,1.93-.24,2.62.29-.06,1.13-.01,2.15.29,2.91-.48-.96-1.83.78-.58.58-.19.87-.62-.28-1.16,0h0Z"/>
  <path class="cls-1" d="m184.82,141.61c.75-.61,1.02-1.69,2.33-1.75-.32.96-1.77,1.94-2.33,1.75h0Z"/>
  <path class="cls-1" d="m193.26,141.32c.26.23.66.31,1.17.29.11,1.27-1.74.59-1.46,2.04-.61-.51-.86-.66-1.75-.29.41-.66.26-1.88,1.46-1.75.08.47-.28.5-.29.87.97.29.95-.4.87-1.17h0Z"/>
  <path class="cls-1" d="m170.54,150.35c-.82.44-.56,1.96-1.75,2.04.17-1.1.68-1.84,1.75-2.04h0Z"/>
  <path class="cls-1" d="m928.15,187.92c-.7.37-.86,1.28-2.04,1.16.55-.49,1.33-1.73,2.04-1.16h0Z"/>
  <path class="cls-1" d="m619.4,197.83c2.81-1.86,6.59,2.41,9.32,3.5-2.72-.39-6.14-2.6-9.32-3.5h0Z"/>
</svg>