<svg width="252" height="312" viewBox="0 0 252 312" fill="none" xmlns="http://www.w3.org/2000/svg">
<path d="M174.34 125.6C174.34 138.5 169.215 150.872 160.093 159.994C150.971 169.115 138.6 174.24 125.7 174.24C112.799 174.24 100.428 169.115 91.3059 159.994C82.1841 150.872 77.0596 138.5 77.0596 125.6C77.0596 112.7 82.1841 100.328 91.3059 91.2063C100.428 82.0846 112.799 76.96 125.7 76.96C138.6 76.96 150.971 82.0846 160.093 91.2063C169.215 100.328 174.34 112.7 174.34 125.6Z" stroke="#B72F2F" stroke-width="7.48" stroke-linecap="round" stroke-linejoin="round"/>
<path d="M247.3 125.6C247.3 241.396 125.7 308 125.7 308C125.7 308 4.09961 241.396 4.09961 125.6C4.09961 93.3497 16.911 62.4202 39.7154 39.6158C62.5199 16.8114 93.4493 4 125.7 4C157.95 4 188.879 16.8114 211.684 39.6158C234.488 62.4202 247.3 93.3497 247.3 125.6Z" stroke="#B72F2F" stroke-width="7.48" stroke-linecap="round" stroke-linejoin="round"/>
</svg>
