<?xml version="1.0" encoding="UTF-8"?>
<svg width="20px" height="20px" viewBox="0 0 20 20" version="1.1" xmlns="http://www.w3.org/2000/svg" xmlns:xlink="http://www.w3.org/1999/xlink">
    <title>icon/pizza</title>
    <g id="icon/pizza" stroke="none" stroke-width="1" fill="none" fill-rule="evenodd" stroke-linecap="round" stroke-linejoin="round">
        <g id="Group" transform="translate(1.000000, 2.000000)" stroke="#FFFFFF" stroke-width="1.44584404">
            <path d="M0.106316314,3.69404184 C-0.0898049492,3.38961511 -0.00711591914,2.98479742 0.292788523,2.7811366 C5.48171101,-0.927045533 12.4627334,-0.927045533 17.6516559,2.7811366 C17.9515604,2.98479742 18.0342494,3.38961511 17.8381281,3.69404184 L9.54011486,16.6860358 C9.41776592,16.8813431 9.20314153,17 8.97222222,17 C8.74130291,17 8.52667853,16.8813431 8.40432959,16.6860358 L0.106316314,3.69404184 Z" id="Path"></path>
            <path d="M0.756481107,5.53797904 C5.56097553,1.17434268 12.4737258,1.17434268 17.2782202,5.53797904" id="Path"></path>
            <path d="M12.2961494,12.9075851 C11.3294084,12.6149161 10.6441539,11.7019763 10.5903174,10.6349671 C10.5364809,9.56795781 11.1259427,8.58233741 12.0576885,8.18142216 C12.9894344,7.7805069 14.0578547,8.05276728 14.7173507,8.85917099" id="Path"></path>
            <path d="M3.15213328,7.92277779 C3.62353772,6.77023141 4.9184397,6.13364063 6.17280587,6.43777555 C7.42717204,6.74191048 8.2485437,7.89161516 8.08885427,9.11974028 C7.92916483,10.3478654 6.838377,11.2701624 5.54432736,11.2712215 L5.37934846,11.2712215" id="Path"></path>
        </g>
    </g>
</svg>