<?xml version="1.0" encoding="UTF-8"?>
<svg width="20px" height="20px" viewBox="0 0 20 20" version="1.1" xmlns="http://www.w3.org/2000/svg" xmlns:xlink="http://www.w3.org/1999/xlink">
    <title>icon/shirt</title>
    <g id="icon/shirt" stroke="none" stroke-width="1" fill="none" fill-rule="evenodd" stroke-linecap="round" stroke-linejoin="round">
        <g id="Group-2" transform="translate(1.000000, 3.000000)" stroke="#FFFFFF" stroke-width="1.63636364">
            <g id="Group">
                <path d="M13.9045946,6.13636515 L15.9813838,6.13636515 C16.2122006,6.13687885 16.423227,6.00598208 16.5254873,5.79886364 L17.9355582,2.97613636 C18.0805339,2.68276802 17.9732714,2.32713511 17.6903285,2.16306818 L13.9045946,0" id="Path"></path>
                <path d="M4.09540544,6.13636515 L2.01861618,6.13636515 C1.78779935,6.13687885 1.57677302,6.00598208 1.47451272,5.79886364 L0.0644417821,2.97613636 C-0.0805339496,2.68276802 0.0267285955,2.32713511 0.30967151,2.16306818 L4.09540544,0" id="Path"></path>
                <path d="M11.4522973,0 C11.4522973,1.35560802 10.3543664,2.45454545 9,2.45454545 C7.64563361,2.45454545 6.54770272,1.35560802 6.54770272,0 L4.09540544,0 L4.09540544,12.8863636 C4.09540544,13.2252656 4.36988816,13.5 4.70847976,13.5 L13.2915202,13.5 C13.6301118,13.5 13.9045946,13.2252656 13.9045946,12.8863636 L13.9045946,0 L11.4522973,0 Z" id="Path"></path>
            </g>
        </g>
    </g>
</svg>