<?xml version="1.0" encoding="UTF-8"?>
<svg width="151px" height="59px" viewBox="0 0 151 59" version="1.1" xmlns="http://www.w3.org/2000/svg" xmlns:xlink="http://www.w3.org/1999/xlink">
    <title>Group 18</title>
    <g id="Symbols" stroke="none" stroke-width="1" fill="none" fill-rule="evenodd">
        <g id="header" transform="translate(-67.000000, -60.000000)" fill-rule="nonzero">
            <g id="Group-18" transform="translate(67.480000, 60.693049)">
                <g id="SPINELLI’S" transform="translate(0.000000, -0.000000)" fill="#B72F2F">
                    <path d="M7.88,28.64 C6.33333333,28.64 4.97333333,28.3333333 3.8,27.72 C2.62666667,27.1066667 1.72,26.2466667 1.08,25.14 C0.44,24.0333333 0.12,22.76 0.12,21.32 L0.12,20.16 C0.12,20.0266667 0.166666667,19.9133333 0.26,19.82 C0.353333333,19.7266667 0.466666667,19.68 0.6,19.68 L5.2,19.68 C5.33333333,19.68 5.44666667,19.7266667 5.54,19.82 C5.63333333,19.9133333 5.68,20.0266667 5.68,20.16 L5.68,21.04 C5.68,21.8666667 5.89333333,22.5333333 6.32,23.04 C6.74666667,23.5466667 7.28,23.8 7.92,23.8 C8.56,23.8 9.09333333,23.56 9.52,23.08 C9.94666667,22.6 10.16,21.9733333 10.16,21.2 C10.16,20.4 9.89333333,19.7133333 9.36,19.14 C8.82666667,18.5666667 7.78666667,17.72 6.24,16.6 C4.90666667,15.64 3.82666667,14.7866667 3,14.04 C2.17333333,13.2933333 1.46666667,12.3733333 0.88,11.28 C0.293333333,10.1866667 0,8.92 0,7.48 C0,5.21333333 0.706666667,3.4 2.12,2.04 C3.53333333,0.68 5.4,0 7.72,0 C10.0666667,0 11.9533333,0.706666667 13.38,2.12 C14.8066667,3.53333333 15.52,5.38666667 15.52,7.68 L15.52,8.64 C15.52,8.77333333 15.4733333,8.88666667 15.38,8.98 C15.2866667,9.07333333 15.1733333,9.12 15.04,9.12 L10.44,9.12 C10.3066667,9.12 10.1933333,9.07333333 10.1,8.98 C10.0066667,8.88666667 9.96,8.77333333 9.96,8.64 L9.96,7.56 C9.96,6.73333333 9.75333333,6.07333333 9.34,5.58 C8.92666667,5.08666667 8.38666667,4.84 7.72,4.84 C7.08,4.84 6.56,5.07333333 6.16,5.54 C5.76,6.00666667 5.56,6.65333333 5.56,7.48 C5.56,8.28 5.81333333,8.98666667 6.32,9.6 C6.82666667,10.2133333 7.82666667,11.0666667 9.32,12.16 C10.9733333,13.3866667 12.22,14.38 13.06,15.14 C13.9,15.9 14.5533333,16.74 15.02,17.66 C15.4866667,18.58 15.72,19.68 15.72,20.96 C15.72,23.3066667 15,25.1733333 13.56,26.56 C12.12,27.9466667 10.2266667,28.64 7.88,28.64 Z" id="Path"></path>
                    <path d="M26.96,0.28 C28.4266667,0.28 29.7333333,0.64 30.88,1.36 C32.0266667,2.08 32.9133333,3.08666667 33.54,4.38 C34.1666667,5.67333333 34.48,7.14666667 34.48,8.8 C34.48,11.28 33.8133333,13.2666667 32.48,14.76 C31.1466667,16.2533333 29.4,17 27.24,17 L24.24,17 C24.1066667,17 24.04,17.0666667 24.04,17.2 L24.04,27.84 C24.04,27.9733333 23.9933333,28.0866667 23.9,28.18 C23.8066667,28.2733333 23.6933333,28.32 23.56,28.32 L18.88,28.32 C18.7466667,28.32 18.6333333,28.2733333 18.54,28.18 C18.4466667,28.0866667 18.4,27.9733333 18.4,27.84 L18.4,0.76 C18.4,0.626666667 18.4466667,0.513333333 18.54,0.42 C18.6333333,0.326666667 18.7466667,0.28 18.88,0.28 L26.96,0.28 Z M26,12.6 C26.8533333,12.6 27.54,12.2733333 28.06,11.62 C28.58,10.9666667 28.84,10.0666667 28.84,8.92 C28.84,7.74666667 28.58,6.82666667 28.06,6.16 C27.54,5.49333333 26.8533333,5.16 26,5.16 L24.24,5.16 C24.1066667,5.16 24.04,5.22666667 24.04,5.36 L24.04,12.4 C24.04,12.5333333 24.1066667,12.6 24.24,12.6 L26,12.6 Z" id="Shape"></path>
                    <path d="M37.52,28.32 C37.3866667,28.32 37.2733333,28.2733333 37.18,28.18 C37.0866667,28.0866667 37.04,27.9733333 37.04,27.84 L37.04,0.8 C37.04,0.666666667 37.0866667,0.553333333 37.18,0.46 C37.2733333,0.366666667 37.3866667,0.32 37.52,0.32 L42.2,0.32 C42.3333333,0.32 42.4466667,0.366666667 42.54,0.46 C42.6333333,0.553333333 42.68,0.666666667 42.68,0.8 L42.68,27.84 C42.68,27.9733333 42.6333333,28.0866667 42.54,28.18 C42.4466667,28.2733333 42.3333333,28.32 42.2,28.32 L37.52,28.32 Z" id="Path"></path>
                    <path d="M57.68,0.8 C57.68,0.666666667 57.7266667,0.553333333 57.82,0.46 C57.9133333,0.366666667 58.0266667,0.32 58.16,0.32 L62.8,0.32 C62.9333333,0.32 63.0466667,0.366666667 63.14,0.46 C63.2333333,0.553333333 63.28,0.666666667 63.28,0.8 L63.28,27.84 C63.28,27.9733333 63.2333333,28.0866667 63.14,28.18 C63.0466667,28.2733333 62.9333333,28.32 62.8,28.32 L57.52,28.32 C57.2533333,28.32 57.08,28.1866667 57,27.92 L52.04,12.44 C52.0133333,12.36 51.9666667,12.3266667 51.9,12.34 C51.8333333,12.3533333 51.8,12.4 51.8,12.48 L51.84,27.84 C51.84,27.9733333 51.7933333,28.0866667 51.7,28.18 C51.6066667,28.2733333 51.4933333,28.32 51.36,28.32 L46.72,28.32 C46.5866667,28.32 46.4733333,28.2733333 46.38,28.18 C46.2866667,28.0866667 46.24,27.9733333 46.24,27.84 L46.24,0.8 C46.24,0.666666667 46.2866667,0.553333333 46.38,0.46 C46.4733333,0.366666667 46.5866667,0.32 46.72,0.32 L51.96,0.32 C52.2266667,0.32 52.4,0.453333333 52.48,0.72 L57.48,16.2 C57.5066667,16.28 57.5533333,16.3133333 57.62,16.3 C57.6866667,16.2866667 57.72,16.24 57.72,16.16 L57.68,0.8 Z" id="Path"></path>
                    <path d="M81.48,4.68 C81.48,4.81333333 81.4333333,4.92666667 81.34,5.02 C81.2466667,5.11333333 81.1333333,5.16 81,5.16 L72.64,5.16 C72.5066667,5.16 72.44,5.22666667 72.44,5.36 L72.44,11.68 C72.44,11.8133333 72.5066667,11.88 72.64,11.88 L77.44,11.88 C77.5733333,11.88 77.6866667,11.9266667 77.78,12.02 C77.8733333,12.1133333 77.92,12.2266667 77.92,12.36 L77.92,16.24 C77.92,16.3733333 77.8733333,16.4866667 77.78,16.58 C77.6866667,16.6733333 77.5733333,16.72 77.44,16.72 L72.64,16.72 C72.5066667,16.72 72.44,16.7866667 72.44,16.92 L72.44,23.28 C72.44,23.4133333 72.5066667,23.48 72.64,23.48 L81,23.48 C81.1333333,23.48 81.2466667,23.5266667 81.34,23.62 C81.4333333,23.7133333 81.48,23.8266667 81.48,23.96 L81.48,27.84 C81.48,27.9733333 81.4333333,28.0866667 81.34,28.18 C81.2466667,28.2733333 81.1333333,28.32 81,28.32 L67.28,28.32 C67.1466667,28.32 67.0333333,28.2733333 66.94,28.18 C66.8466667,28.0866667 66.8,27.9733333 66.8,27.84 L66.8,0.8 C66.8,0.666666667 66.8466667,0.553333333 66.94,0.46 C67.0333333,0.366666667 67.1466667,0.32 67.28,0.32 L81,0.32 C81.1333333,0.32 81.2466667,0.366666667 81.34,0.46 C81.4333333,0.553333333 81.48,0.666666667 81.48,0.8 L81.48,4.68 Z" id="Path"></path>
                    <path d="M84.8,28.32 C84.6666667,28.32 84.5533333,28.2733333 84.46,28.18 C84.3666667,28.0866667 84.32,27.9733333 84.32,27.84 L84.32,0.8 C84.32,0.666666667 84.3666667,0.553333333 84.46,0.46 C84.5533333,0.366666667 84.6666667,0.32 84.8,0.32 L89.48,0.32 C89.6133333,0.32 89.7266667,0.366666667 89.82,0.46 C89.9133333,0.553333333 89.96,0.666666667 89.96,0.8 L89.96,23.28 C89.96,23.4133333 90.0266667,23.48 90.16,23.48 L98.56,23.48 C98.6933333,23.48 98.8066667,23.5266667 98.9,23.62 C98.9933333,23.7133333 99.04,23.8266667 99.04,23.96 L99.04,27.84 C99.04,27.9733333 98.9933333,28.0866667 98.9,28.18 C98.8066667,28.2733333 98.6933333,28.32 98.56,28.32 L84.8,28.32 Z" id="Path"></path>
                    <path d="M101.84,28.32 C101.706667,28.32 101.593333,28.2733333 101.5,28.18 C101.406667,28.0866667 101.36,27.9733333 101.36,27.84 L101.36,0.8 C101.36,0.666666667 101.406667,0.553333333 101.5,0.46 C101.593333,0.366666667 101.706667,0.32 101.84,0.32 L106.52,0.32 C106.653333,0.32 106.766667,0.366666667 106.86,0.46 C106.953333,0.553333333 107,0.666666667 107,0.8 L107,23.28 C107,23.4133333 107.066667,23.48 107.2,23.48 L115.6,23.48 C115.733333,23.48 115.846667,23.5266667 115.94,23.62 C116.033333,23.7133333 116.08,23.8266667 116.08,23.96 L116.08,27.84 C116.08,27.9733333 116.033333,28.0866667 115.94,28.18 C115.846667,28.2733333 115.733333,28.32 115.6,28.32 L101.84,28.32 Z" id="Path"></path>
                    <path d="M118.88,28.32 C118.746667,28.32 118.633333,28.2733333 118.54,28.18 C118.446667,28.0866667 118.4,27.9733333 118.4,27.84 L118.4,0.8 C118.4,0.666666667 118.446667,0.553333333 118.54,0.46 C118.633333,0.366666667 118.746667,0.32 118.88,0.32 L123.56,0.32 C123.693333,0.32 123.806667,0.366666667 123.9,0.46 C123.993333,0.553333333 124.04,0.666666667 124.04,0.8 L124.04,27.84 C124.04,27.9733333 123.993333,28.0866667 123.9,28.18 C123.806667,28.2733333 123.693333,28.32 123.56,28.32 L118.88,28.32 Z" id="Path"></path>
                    <path d="M132.8,0.32 C132.96,0.32 133.073333,0.366666667 133.14,0.46 C133.206667,0.553333333 133.213333,0.693333333 133.16,0.88 L130.4,8.96 C130.32,9.22666667 130.146667,9.36 129.88,9.36 L126.36,9.36 C126.013333,9.36 125.88,9.18666667 125.96,8.84 L127.6,0.76 C127.653333,0.466666667 127.826667,0.32 128.12,0.32 L132.8,0.32 Z" id="Path"></path>
                    <path d="M142.32,28.64 C140.773333,28.64 139.413333,28.3333333 138.24,27.72 C137.066667,27.1066667 136.16,26.2466667 135.52,25.14 C134.88,24.0333333 134.56,22.76 134.56,21.32 L134.56,20.16 C134.56,20.0266667 134.606667,19.9133333 134.7,19.82 C134.793333,19.7266667 134.906667,19.68 135.04,19.68 L139.64,19.68 C139.773333,19.68 139.886667,19.7266667 139.98,19.82 C140.073333,19.9133333 140.12,20.0266667 140.12,20.16 L140.12,21.04 C140.12,21.8666667 140.333333,22.5333333 140.76,23.04 C141.186667,23.5466667 141.72,23.8 142.36,23.8 C143,23.8 143.533333,23.56 143.96,23.08 C144.386667,22.6 144.6,21.9733333 144.6,21.2 C144.6,20.4 144.333333,19.7133333 143.8,19.14 C143.266667,18.5666667 142.226667,17.72 140.68,16.6 C139.346667,15.64 138.266667,14.7866667 137.44,14.04 C136.613333,13.2933333 135.906667,12.3733333 135.32,11.28 C134.733333,10.1866667 134.44,8.92 134.44,7.48 C134.44,5.21333333 135.146667,3.4 136.56,2.04 C137.973333,0.68 139.84,0 142.16,0 C144.506667,0 146.393333,0.706666667 147.82,2.12 C149.246667,3.53333333 149.96,5.38666667 149.96,7.68 L149.96,8.64 C149.96,8.77333333 149.913333,8.88666667 149.82,8.98 C149.726667,9.07333333 149.613333,9.12 149.48,9.12 L144.88,9.12 C144.746667,9.12 144.633333,9.07333333 144.54,8.98 C144.446667,8.88666667 144.4,8.77333333 144.4,8.64 L144.4,7.56 C144.4,6.73333333 144.193333,6.07333333 143.78,5.58 C143.366667,5.08666667 142.826667,4.84 142.16,4.84 C141.52,4.84 141,5.07333333 140.6,5.54 C140.2,6.00666667 140,6.65333333 140,7.48 C140,8.28 140.253333,8.98666667 140.76,9.6 C141.266667,10.2133333 142.266667,11.0666667 143.76,12.16 C145.413333,13.3866667 146.66,14.38 147.5,15.14 C148.34,15.9 148.993333,16.74 149.46,17.66 C149.926667,18.58 150.16,19.68 150.16,20.96 C150.16,23.3066667 149.44,25.1733333 148,26.56 C146.56,27.9466667 144.666667,28.64 142.32,28.64 Z" id="Path"></path>
                </g>
                <g id="PIZZA" transform="translate(33.955681, 37.267381)" fill="#FFFFFF">
                    <path d="M6.42,0 C7.52,0 8.5,0.27 9.36,0.81 C10.22,1.35 10.885,2.105 11.355,3.075 C11.825,4.045 12.06,5.15 12.06,6.39 C12.06,8.25 11.56,9.74 10.56,10.86 C9.56,11.98 8.25,12.54 6.63,12.54 L4.38,12.54 C4.28,12.54 4.23,12.59 4.23,12.69 L4.23,20.67 C4.23,20.77 4.195,20.855 4.125,20.925 C4.055,20.995 3.97,21.03 3.87,21.03 L0.36,21.03 C0.26,21.03 0.175,20.995 0.105,20.925 C0.035,20.855 0,20.77 0,20.67 L0,0.36 C0,0.26 0.035,0.175 0.105,0.105 C0.175,0.035 0.26,0 0.36,0 L6.42,0 Z M5.7,9.24 C6.34,9.24 6.855,8.995 7.245,8.505 C7.635,8.015 7.83,7.34 7.83,6.48 C7.83,5.6 7.635,4.91 7.245,4.41 C6.855,3.91 6.34,3.66 5.7,3.66 L4.38,3.66 C4.28,3.66 4.23,3.71 4.23,3.81 L4.23,9.09 C4.23,9.19 4.28,9.24 4.38,9.24 L5.7,9.24 Z" id="Shape"></path>
                    <path d="M19.34,21.03 C19.24,21.03 19.155,20.995 19.085,20.925 C19.015,20.855 18.98,20.77 18.98,20.67 L18.98,0.39 C18.98,0.29 19.015,0.205 19.085,0.135 C19.155,0.065 19.24,0.03 19.34,0.03 L22.85,0.03 C22.95,0.03 23.035,0.065 23.105,0.135 C23.175,0.205 23.21,0.29 23.21,0.39 L23.21,20.67 C23.21,20.77 23.175,20.855 23.105,20.925 C23.035,20.995 22.95,21.03 22.85,21.03 L19.34,21.03 Z" id="Path"></path>
                    <path d="M30.52,21.03 C30.42,21.03 30.335,20.995 30.265,20.925 C30.195,20.855 30.16,20.77 30.16,20.67 L30.16,17.64 C30.16,17.48 30.19,17.33 30.25,17.19 L36.67,3.84 C36.69,3.78 36.69,3.735 36.67,3.705 C36.65,3.675 36.61,3.66 36.55,3.66 L30.52,3.66 C30.42,3.66 30.335,3.625 30.265,3.555 C30.195,3.485 30.16,3.4 30.16,3.3 L30.16,0.39 C30.16,0.29 30.195,0.205 30.265,0.135 C30.335,0.065 30.42,0.03 30.52,0.03 L40.84,0.03 C40.94,0.03 41.025,0.065 41.095,0.135 C41.165,0.205 41.2,0.29 41.2,0.39 L41.2,3.42 C41.2,3.56 41.17,3.71 41.11,3.87 L34.69,17.22 C34.67,17.28 34.67,17.325 34.69,17.355 C34.71,17.385 34.75,17.4 34.81,17.4 L40.84,17.4 C40.94,17.4 41.025,17.435 41.095,17.505 C41.165,17.575 41.2,17.66 41.2,17.76 L41.2,20.67 C41.2,20.77 41.165,20.855 41.095,20.925 C41.025,20.995 40.94,21.03 40.84,21.03 L30.52,21.03 Z" id="Path"></path>
                    <path d="M47.88,21.03 C47.78,21.03 47.695,20.995 47.625,20.925 C47.555,20.855 47.52,20.77 47.52,20.67 L47.52,17.64 C47.52,17.48 47.55,17.33 47.61,17.19 L54.03,3.84 C54.05,3.78 54.05,3.735 54.03,3.705 C54.01,3.675 53.97,3.66 53.91,3.66 L47.88,3.66 C47.78,3.66 47.695,3.625 47.625,3.555 C47.555,3.485 47.52,3.4 47.52,3.3 L47.52,0.39 C47.52,0.29 47.555,0.205 47.625,0.135 C47.695,0.065 47.78,0.03 47.88,0.03 L58.2,0.03 C58.3,0.03 58.385,0.065 58.455,0.135 C58.525,0.205 58.56,0.29 58.56,0.39 L58.56,3.42 C58.56,3.56 58.53,3.71 58.47,3.87 L52.05,17.22 C52.03,17.28 52.03,17.325 52.05,17.355 C52.07,17.385 52.11,17.4 52.17,17.4 L58.2,17.4 C58.3,17.4 58.385,17.435 58.455,17.505 C58.525,17.575 58.56,17.66 58.56,17.76 L58.56,20.67 C58.56,20.77 58.525,20.855 58.455,20.925 C58.385,20.995 58.3,21.03 58.2,21.03 L47.88,21.03 Z" id="Path"></path>
                    <path d="M74.42,21.03 C74.18,21.03 74.05,20.92 74.03,20.7 L73.55,17.82 C73.55,17.72 73.49,17.67 73.37,17.67 L69.56,17.67 C69.44,17.67 69.38,17.72 69.38,17.82 L68.9,20.7 C68.88,20.92 68.75,21.03 68.51,21.03 L65,21.03 C64.74,21.03 64.64,20.9 64.7,20.64 L69.11,0.36 C69.15,0.14 69.28,0.03 69.5,0.03 L73.55,0.03 C73.77,0.03 73.9,0.14 73.94,0.36 L78.32,20.64 L78.35,20.76 C78.35,20.94 78.24,21.03 78.02,21.03 L74.42,21.03 Z M69.98,14.25 C69.98,14.35 70.02,14.4 70.1,14.4 L72.8,14.4 C72.9,14.4 72.94,14.35 72.92,14.25 L71.51,6.06 C71.49,6 71.46,5.97 71.42,5.97 C71.38,5.97 71.35,6 71.33,6.06 L69.98,14.25 Z" id="Shape"></path>
                </g>
            </g>
        </g>
    </g>
</svg>