<svg width="151" height="54" viewBox="0 0 151 54" fill="none" xmlns="http://www.w3.org/2000/svg">
<path d="M7.90584 29.321C6.3541 29.321 4.98964 29.0134 3.81246 28.398C2.63528 27.7827 1.72564 26.9266 1.08354 25.8296C0.441443 24.706 0.120394 23.4218 0.120394 21.977V20.8132C0.120394 20.6795 0.160525 20.5725 0.240787 20.4922C0.347803 20.3852 0.468197 20.3317 0.601967 20.3317H5.21705C5.35082 20.3317 5.45784 20.3852 5.5381 20.4922C5.64512 20.5725 5.69862 20.6795 5.69862 20.8132V21.6961C5.69862 22.5255 5.91266 23.1944 6.34072 23.7027C6.76879 24.211 7.30387 24.4652 7.94597 24.4652C8.58807 24.4652 9.12315 24.2244 9.55121 23.7428C9.97928 23.2612 10.1933 22.6325 10.1933 21.8567C10.1933 21.054 9.92577 20.3718 9.39069 19.81C8.85561 19.2214 7.8122 18.3652 6.26046 17.2416C4.92275 16.2784 3.83921 15.4223 3.00984 14.6732C2.18046 13.9241 1.47148 13.001 0.882885 11.9041C0.294295 10.8072 0 9.53639 0 8.09167C0 5.81757 0.708984 3.99829 2.12695 2.63383C3.54492 1.26937 5.41771 0.587143 7.74531 0.587143C10.0997 0.587143 11.9858 1.29613 13.4038 2.71409C14.8485 4.13206 15.5709 5.99147 15.5709 8.29232V9.25547C15.5709 9.38924 15.5174 9.50964 15.4104 9.61665C15.3301 9.69691 15.2231 9.73704 15.0893 9.73704H10.4742C10.3405 9.73704 10.2201 9.69691 10.1131 9.61665C10.0328 9.50964 9.99266 9.38924 9.99266 9.25547V8.17193C9.99266 7.34255 9.77862 6.68708 9.35056 6.2055C8.94925 5.69718 8.41416 5.44301 7.74531 5.44301C7.10321 5.44301 6.58151 5.6838 6.1802 6.16537C5.77889 6.62019 5.57823 7.26229 5.57823 8.09167C5.57823 8.89429 5.83239 9.60327 6.34072 10.2186C6.84905 10.834 7.85233 11.6901 9.35056 12.787C11.0093 14.0177 12.2534 15.021 13.0828 15.7968C13.9389 16.546 14.5944 17.3887 15.0492 18.3251C15.5308 19.2348 15.7715 20.3317 15.7715 21.6159C15.7715 23.9702 15.0492 25.843 13.6045 27.2342C12.1597 28.6254 10.2602 29.321 7.90584 29.321Z" fill="#B72F2F"/>
<path d="M26.9443 0.86806C28.4158 0.86806 29.7267 1.22924 30.8772 1.9516C32.0276 2.67396 32.9105 3.69062 33.5258 5.00157C34.1679 6.28577 34.489 7.75724 34.489 9.416C34.489 11.9041 33.8201 13.8973 32.4824 15.3955C31.1447 16.8938 29.3923 17.6429 27.2252 17.6429H24.2154C24.0816 17.6429 24.0147 17.7098 24.0147 17.8435V28.5184C24.0147 28.6522 23.9612 28.7726 23.8542 28.8796C23.7739 28.9599 23.6669 29 23.5332 29H18.8378C18.704 29 18.5836 28.9599 18.4766 28.8796C18.3964 28.7726 18.3562 28.6522 18.3562 28.5184V1.34964C18.3562 1.21586 18.3964 1.10885 18.4766 1.02859C18.5836 0.921569 18.704 0.86806 18.8378 0.86806H26.9443ZM25.9812 13.2285C26.8373 13.2285 27.5195 12.9074 28.0278 12.2653C28.5629 11.5965 28.8305 10.6868 28.8305 9.53639C28.8305 8.35921 28.5629 7.43619 28.0278 6.76734C27.5195 6.09849 26.8373 5.76406 25.9812 5.76406H24.2154C24.0816 5.76406 24.0147 5.83094 24.0147 5.96472V13.0278C24.0147 13.1616 24.0816 13.2285 24.2154 13.2285H25.9812Z" fill="#B72F2F"/>
<path d="M37.5327 29C37.3989 29 37.2785 28.9599 37.1715 28.8796C37.0912 28.7726 37.0511 28.6522 37.0511 28.5184V1.38977C37.0511 1.256 37.0912 1.14898 37.1715 1.06872C37.2785 0.961699 37.3989 0.908191 37.5327 0.908191H42.228C42.3618 0.908191 42.4688 0.961699 42.549 1.06872C42.6561 1.14898 42.7096 1.256 42.7096 1.38977V28.5184C42.7096 28.6522 42.6561 28.7726 42.549 28.8796C42.4688 28.9599 42.3618 29 42.228 29H37.5327Z" fill="#B72F2F"/>
<path d="M57.7776 1.38977C57.7776 1.256 57.8177 1.14898 57.898 1.06872C58.005 0.961699 58.1254 0.908191 58.2591 0.908191H62.9144C63.0481 0.908191 63.1551 0.961699 63.2354 1.06872C63.3424 1.14898 63.3959 1.256 63.3959 1.38977V28.5184C63.3959 28.6522 63.3424 28.7726 63.2354 28.8796C63.1551 28.9599 63.0481 29 62.9144 29H57.617C57.3495 29 57.1756 28.8662 57.0953 28.5987L52.1191 13.0679C52.0923 12.9877 52.0388 12.9609 51.9585 12.9877C51.905 12.9877 51.8783 13.0278 51.8783 13.1081L51.9184 28.5184C51.9184 28.6522 51.8649 28.7726 51.7579 28.8796C51.6776 28.9599 51.5706 29 51.4368 29H46.7816C46.6479 29 46.5275 28.9599 46.4205 28.8796C46.3402 28.7726 46.3001 28.6522 46.3001 28.5184V1.38977C46.3001 1.256 46.3402 1.14898 46.4205 1.06872C46.5275 0.961699 46.6479 0.908191 46.7816 0.908191H52.0388C52.3064 0.908191 52.4803 1.04196 52.5605 1.3095L57.5769 16.8403C57.6037 16.9205 57.6438 16.9607 57.6973 16.9607C57.7776 16.9339 57.8177 16.8804 57.8177 16.8001L57.7776 1.38977Z" fill="#B72F2F"/>
<path d="M81.6424 5.28249C81.6424 5.41626 81.5889 5.53665 81.4819 5.64367C81.4016 5.72393 81.2946 5.76406 81.1609 5.76406H72.7734C72.6397 5.76406 72.5728 5.83094 72.5728 5.96472V12.3054C72.5728 12.4392 72.6397 12.5061 72.7734 12.5061H77.5892C77.723 12.5061 77.83 12.5596 77.9102 12.6666C78.0172 12.7469 78.0708 12.8539 78.0708 12.9877V16.8804C78.0708 17.0142 78.0172 17.1346 77.9102 17.2416C77.83 17.3218 77.723 17.362 77.5892 17.362H72.7734C72.6397 17.362 72.5728 17.4288 72.5728 17.5626V23.9435C72.5728 24.0772 72.6397 24.1441 72.7734 24.1441H81.1609C81.2946 24.1441 81.4016 24.1976 81.4819 24.3047C81.5889 24.3849 81.6424 24.4919 81.6424 24.6257V28.5184C81.6424 28.6522 81.5889 28.7726 81.4819 28.8796C81.4016 28.9599 81.2946 29 81.1609 29H67.3959C67.2621 29 67.1417 28.9599 67.0347 28.8796C66.9544 28.7726 66.9143 28.6522 66.9143 28.5184V1.38977C66.9143 1.256 66.9544 1.14898 67.0347 1.06872C67.1417 0.961699 67.2621 0.908191 67.3959 0.908191H81.1609C81.2946 0.908191 81.4016 0.961699 81.4819 1.06872C81.5889 1.14898 81.6424 1.256 81.6424 1.38977V5.28249Z" fill="#B72F2F"/>
<path d="M84.9924 29C84.8587 29 84.7383 28.9599 84.6313 28.8796C84.551 28.7726 84.5109 28.6522 84.5109 28.5184V1.38977C84.5109 1.256 84.551 1.14898 84.6313 1.06872C84.7383 0.961699 84.8587 0.908191 84.9924 0.908191H89.6878C89.8216 0.908191 89.9286 0.961699 90.0088 1.06872C90.1159 1.14898 90.1694 1.256 90.1694 1.38977V23.9435C90.1694 24.0772 90.2362 24.1441 90.37 24.1441H98.7976C98.9313 24.1441 99.0384 24.1976 99.1186 24.3047C99.2256 24.3849 99.2791 24.4919 99.2791 24.6257V28.5184C99.2791 28.6522 99.2256 28.7726 99.1186 28.8796C99.0384 28.9599 98.9313 29 98.7976 29H84.9924Z" fill="#B72F2F"/>
<path d="M102.08 29C101.946 29 101.825 28.9599 101.718 28.8796C101.638 28.7726 101.598 28.6522 101.598 28.5184V1.38977C101.598 1.256 101.638 1.14898 101.718 1.06872C101.825 0.961699 101.946 0.908191 102.08 0.908191H106.775C106.909 0.908191 107.016 0.961699 107.096 1.06872C107.203 1.14898 107.256 1.256 107.256 1.38977V23.9435C107.256 24.0772 107.323 24.1441 107.457 24.1441H115.885C116.018 24.1441 116.125 24.1976 116.206 24.3047C116.313 24.3849 116.366 24.4919 116.366 24.6257V28.5184C116.366 28.6522 116.313 28.7726 116.206 28.8796C116.125 28.9599 116.018 29 115.885 29H102.08Z" fill="#B72F2F"/>
<path d="M119.167 29C119.033 29 118.912 28.9599 118.805 28.8796C118.725 28.7726 118.685 28.6522 118.685 28.5184V1.38977C118.685 1.256 118.725 1.14898 118.805 1.06872C118.912 0.961699 119.033 0.908191 119.167 0.908191H123.862C123.996 0.908191 124.103 0.961699 124.183 1.06872C124.29 1.14898 124.344 1.256 124.344 1.38977V28.5184C124.344 28.6522 124.29 28.7726 124.183 28.8796C124.103 28.9599 123.996 29 123.862 29H119.167Z" fill="#B72F2F"/>
<path d="M133.151 0.908191C133.312 0.908191 133.419 0.961699 133.472 1.06872C133.552 1.14898 133.566 1.28275 133.512 1.47003L130.743 9.57652C130.663 9.84406 130.489 9.97783 130.222 9.97783H126.69C126.342 9.97783 126.208 9.80393 126.289 9.45613L127.934 1.34964C127.988 1.05534 128.161 0.908191 128.456 0.908191H133.151Z" fill="#B72F2F"/>
<path d="M142.721 29.321C141.17 29.321 139.805 29.0134 138.628 28.398C137.451 27.7827 136.541 26.9266 135.899 25.8296C135.257 24.706 134.936 23.4218 134.936 21.977V20.8132C134.936 20.6795 134.976 20.5725 135.056 20.4922C135.163 20.3852 135.284 20.3317 135.418 20.3317H140.033C140.166 20.3317 140.273 20.3852 140.354 20.4922C140.461 20.5725 140.514 20.6795 140.514 20.8132V21.6961C140.514 22.5255 140.728 23.1944 141.156 23.7027C141.584 24.211 142.119 24.4652 142.762 24.4652C143.404 24.4652 143.939 24.2244 144.367 23.7428C144.795 23.2612 145.009 22.6325 145.009 21.8567C145.009 21.054 144.741 20.3718 144.206 19.81C143.671 19.2214 142.628 18.3652 141.076 17.2416C139.738 16.2784 138.655 15.4223 137.825 14.6732C136.996 13.9241 136.287 13.001 135.698 11.9041C135.11 10.8072 134.816 9.53639 134.816 8.09167C134.816 5.81757 135.525 3.99829 136.943 2.63383C138.361 1.26937 140.233 0.587143 142.561 0.587143C144.915 0.587143 146.801 1.29613 148.219 2.71409C149.664 4.13206 150.386 5.99147 150.386 8.29232V9.25547C150.386 9.38924 150.333 9.50964 150.226 9.61665C150.146 9.69691 150.039 9.73704 149.905 9.73704H145.29C145.156 9.73704 145.036 9.69691 144.929 9.61665C144.848 9.50964 144.808 9.38924 144.808 9.25547V8.17193C144.808 7.34255 144.594 6.68708 144.166 6.2055C143.765 5.69718 143.23 5.44301 142.561 5.44301C141.919 5.44301 141.397 5.6838 140.996 6.16537C140.594 6.62019 140.394 7.26229 140.394 8.09167C140.394 8.89429 140.648 9.60327 141.156 10.2186C141.665 10.834 142.668 11.6901 144.166 12.787C145.825 14.0177 147.069 15.021 147.898 15.7968C148.754 16.546 149.41 17.3887 149.865 18.3251C150.346 19.2348 150.587 20.3317 150.587 21.6159C150.587 23.9702 149.865 25.843 148.42 27.2342C146.975 28.6254 145.076 29.321 142.721 29.321Z" fill="#B72F2F"/>
<path d="M7.15058 36.3162C8.22073 36.3162 9.16117 36.5351 9.97189 36.9729C10.7826 37.4107 11.4069 38.0349 11.8447 38.8456C12.2987 39.6402 12.5257 40.5563 12.5257 41.594C12.5257 42.6155 12.2906 43.5154 11.8203 44.2937C11.3663 45.072 10.7178 45.68 9.8746 46.1178C9.04767 46.5394 8.09101 46.7502 7.00465 46.7502H3.55097C3.46989 46.7502 3.42936 46.7907 3.42936 46.8718V53.0738C3.42936 53.1549 3.39693 53.2279 3.33207 53.2927C3.28343 53.3414 3.21857 53.3657 3.1375 53.3657H0.29186C0.210788 53.3657 0.137823 53.3414 0.0729651 53.2927C0.0243217 53.2279 0 53.1549 0 53.0738V36.6081C0 36.527 0.0243217 36.4621 0.0729651 36.4135C0.137823 36.3486 0.210788 36.3162 0.29186 36.3162H7.15058ZM6.63982 44.0018C7.38569 44.0018 7.98562 43.7911 8.43963 43.3695C8.89363 42.9317 9.12063 42.3642 9.12063 41.667C9.12063 40.9535 8.89363 40.3779 8.43963 39.9401C7.98562 39.5023 7.38569 39.2834 6.63982 39.2834H3.55097C3.46989 39.2834 3.42936 39.324 3.42936 39.405V43.8802C3.42936 43.9613 3.46989 44.0018 3.55097 44.0018H6.63982Z" fill="white"/>
<path d="M22.4654 53.3657C22.3844 53.3657 22.3114 53.3414 22.2466 53.2927C22.1979 53.2279 22.1736 53.1549 22.1736 53.0738V36.6324C22.1736 36.5513 22.1979 36.4864 22.2466 36.4378C22.3114 36.3729 22.3844 36.3405 22.4654 36.3405H25.3111C25.3922 36.3405 25.457 36.3729 25.5057 36.4378C25.5705 36.4864 25.6029 36.5513 25.6029 36.6324V53.0738C25.6029 53.1549 25.5705 53.2279 25.5057 53.2927C25.457 53.3414 25.3922 53.3657 25.3111 53.3657H22.4654Z" fill="white"/>
<path d="M35.689 53.3657C35.608 53.3657 35.535 53.3414 35.4701 53.2927C35.4215 53.2279 35.3972 53.1549 35.3972 53.0738V50.4471C35.3972 50.3174 35.4377 50.1958 35.5188 50.0823L43.3747 39.4294C43.4071 39.3969 43.4071 39.3645 43.3747 39.3321C43.3585 39.2997 43.326 39.2834 43.2774 39.2834H35.689C35.608 39.2834 35.535 39.2591 35.4701 39.2105C35.4215 39.1456 35.3972 39.0727 35.3972 38.9916V36.6324C35.3972 36.5513 35.4215 36.4864 35.4701 36.4378C35.535 36.3729 35.608 36.3405 35.689 36.3405H46.95C47.031 36.3405 47.0959 36.3729 47.1445 36.4378C47.2094 36.4864 47.2418 36.5513 47.2418 36.6324V39.2591C47.2418 39.3888 47.2013 39.5104 47.1202 39.6239L39.2643 50.2768C39.2481 50.3093 39.2481 50.3417 39.2643 50.3741C39.2805 50.4066 39.313 50.4228 39.3616 50.4228H46.95C47.031 50.4228 47.0959 50.4552 47.1445 50.5201C47.2094 50.5687 47.2418 50.6336 47.2418 50.7146V53.0738C47.2418 53.1549 47.2094 53.2279 47.1445 53.2927C47.0959 53.3414 47.031 53.3657 46.95 53.3657H35.689Z" fill="white"/>
<path d="M56.7672 53.3657C56.6861 53.3657 56.6132 53.3414 56.5483 53.2927C56.4997 53.2279 56.4753 53.1549 56.4753 53.0738V50.4471C56.4753 50.3174 56.5159 50.1958 56.5969 50.0823L64.4528 39.4294C64.4853 39.3969 64.4853 39.3645 64.4528 39.3321C64.4366 39.2997 64.4042 39.2834 64.3556 39.2834H56.7672C56.6861 39.2834 56.6132 39.2591 56.5483 39.2105C56.4997 39.1456 56.4753 39.0727 56.4753 38.9916V36.6324C56.4753 36.5513 56.4997 36.4864 56.5483 36.4378C56.6132 36.3729 56.6861 36.3405 56.7672 36.3405H68.0281C68.1092 36.3405 68.1741 36.3729 68.2227 36.4378C68.2876 36.4864 68.32 36.5513 68.32 36.6324V39.2591C68.32 39.3888 68.2795 39.5104 68.1984 39.6239L60.3425 50.2768C60.3263 50.3093 60.3263 50.3417 60.3425 50.3741C60.3587 50.4066 60.3911 50.4228 60.4398 50.4228H68.0281C68.1092 50.4228 68.1741 50.4552 68.2227 50.5201C68.2876 50.5687 68.32 50.6336 68.32 50.7146V53.0738C68.32 53.1549 68.2876 53.2279 68.2227 53.2927C68.1741 53.3414 68.1092 53.3657 68.0281 53.3657H56.7672Z" fill="white"/>
<path d="M90.0792 38.9916C90.0792 39.0727 90.0467 39.1456 89.9819 39.2105C89.9332 39.2591 89.8684 39.2834 89.7873 39.2834H81.8098C81.7287 39.2834 81.6882 39.324 81.6882 39.405V43.1749C81.6882 43.256 81.7287 43.2965 81.8098 43.2965H87.039C87.12 43.2965 87.1849 43.3289 87.2335 43.3938C87.2984 43.4424 87.3308 43.5073 87.3308 43.5884V45.9476C87.3308 46.0287 87.2984 46.1016 87.2335 46.1665C87.1849 46.2151 87.12 46.2394 87.039 46.2394H81.8098C81.7287 46.2394 81.6882 46.28 81.6882 46.361V50.3012C81.6882 50.3822 81.7287 50.4228 81.8098 50.4228H89.7873C89.8684 50.4228 89.9332 50.4552 89.9819 50.5201C90.0467 50.5687 90.0792 50.6336 90.0792 50.7146V53.0738C90.0792 53.1549 90.0467 53.2279 89.9819 53.2927C89.9332 53.3414 89.8684 53.3657 89.7873 53.3657H78.5507C78.4696 53.3657 78.3967 53.3414 78.3318 53.2927C78.2831 53.2279 78.2588 53.1549 78.2588 53.0738V36.6324C78.2588 36.5513 78.2831 36.4864 78.3318 36.4378C78.3967 36.3729 78.4696 36.3405 78.5507 36.3405H89.7873C89.8684 36.3405 89.9332 36.3729 89.9819 36.4378C90.0467 36.4864 90.0792 36.5513 90.0792 36.6324V38.9916Z" fill="white"/>
<path d="M109.342 53.3657C109.179 53.3657 109.066 53.2927 109.001 53.1468L105.961 46.4097C105.928 46.3448 105.88 46.3124 105.815 46.3124H103.553C103.472 46.3124 103.431 46.3529 103.431 46.434V53.0738C103.431 53.1549 103.399 53.2279 103.334 53.2927C103.285 53.3414 103.221 53.3657 103.14 53.3657H100.294C100.213 53.3657 100.14 53.3414 100.075 53.2927C100.026 53.2279 100.002 53.1549 100.002 53.0738V36.6324C100.002 36.5513 100.026 36.4864 100.075 36.4378C100.14 36.3729 100.213 36.3405 100.294 36.3405H107.25C108.288 36.3405 109.196 36.5513 109.974 36.9729C110.768 37.3945 111.376 37.9944 111.798 38.7727C112.236 39.551 112.455 40.4509 112.455 41.4724C112.455 42.575 112.179 43.5235 111.628 44.318C111.077 45.0963 110.306 45.6476 109.317 45.9719C109.236 46.0043 109.212 46.0611 109.244 46.1422L112.552 53.0252C112.584 53.0901 112.601 53.1387 112.601 53.1711C112.601 53.3008 112.511 53.3657 112.333 53.3657H109.342ZM103.553 39.2834C103.472 39.2834 103.431 39.324 103.431 39.405V43.5641C103.431 43.6451 103.472 43.6857 103.553 43.6857H106.739C107.42 43.6857 107.971 43.483 108.393 43.0776C108.831 42.6723 109.05 42.1453 109.05 41.4967C109.05 40.8481 108.831 40.3212 108.393 39.9158C107.971 39.4942 107.42 39.2834 106.739 39.2834H103.553Z" fill="white"/>
<path d="M122.773 53.3657C122.692 53.3657 122.619 53.3414 122.555 53.2927C122.506 53.2279 122.482 53.1549 122.482 53.0738V36.6324C122.482 36.5513 122.506 36.4864 122.555 36.4378C122.619 36.3729 122.692 36.3405 122.773 36.3405H125.619C125.7 36.3405 125.765 36.3729 125.814 36.4378C125.878 36.4864 125.911 36.5513 125.911 36.6324V53.0738C125.911 53.1549 125.878 53.2279 125.814 53.2927C125.765 53.3414 125.7 53.3657 125.619 53.3657H122.773Z" fill="white"/>
<path d="M147.234 53.3657C147.071 53.3657 146.966 53.2846 146.917 53.1225L146.188 50.739C146.155 50.6741 146.115 50.6417 146.066 50.6417H140.083C140.034 50.6417 139.994 50.6741 139.961 50.739L139.256 53.1225C139.207 53.2846 139.102 53.3657 138.94 53.3657H135.851C135.754 53.3657 135.681 53.3414 135.632 53.2927C135.584 53.2279 135.575 53.1387 135.608 53.0252L140.861 36.5837C140.91 36.4216 141.015 36.3405 141.178 36.3405H144.996C145.158 36.3405 145.264 36.4216 145.312 36.5837L150.566 53.0252C150.582 53.0576 150.59 53.0982 150.59 53.1468C150.59 53.2927 150.501 53.3657 150.322 53.3657H147.234ZM140.837 47.8447C140.821 47.942 140.853 47.9906 140.934 47.9906H145.215C145.312 47.9906 145.345 47.942 145.312 47.8447L143.123 40.6211C143.107 40.5563 143.083 40.532 143.05 40.5482C143.018 40.5482 142.994 40.5725 142.977 40.6211L140.837 47.8447Z" fill="white"/>
</svg>
