<?xml version="1.0" encoding="UTF-8"?>
<svg width="312px" height="312px" viewBox="0 0 312 312" version="1.1" xmlns="http://www.w3.org/2000/svg" xmlns:xlink="http://www.w3.org/1999/xlink">
    <title>Path</title>
    <g id="Page-1" stroke="none" stroke-width="1" fill="none" fill-rule="evenodd" stroke-linecap="round" stroke-linejoin="round">
        <g id="Contact-Us" transform="translate(-588.000000, -183.000000)" stroke="#B72F2F" stroke-width="7.481258">
            <g id="Phone" transform="translate(547.000000, 187.000000)">
                <path d="M131.852384,153.082124 C145.586819,181.161136 168.347466,203.818369 196.488731,217.424793 C200.677701,219.40981 205.603219,219.037151 209.445845,216.444474 L250.881847,188.814029 C254.604972,186.331375 259.330196,185.897288 263.44333,187.660059 L340.962247,220.882451 C346.37202,223.180404 349.609991,228.779106 348.903876,234.614141 C343.834834,274.279381 310.078518,304 270.090689,304 C145.776534,304 45,203.223468 45,78.9093149 C45,38.9214862 74.7206192,5.16517067 114.38586,0.0961286536 C120.220838,-0.609997644 125.819507,2.62788788 128.117517,8.03757628 L161.36889,85.6241342 C163.115758,89.7001627 162.70612,94.3800586 160.277681,98.0906163 L132.743148,140.162267 C130.193833,144.012231 129.855554,148.918724 131.852384,153.082124 Z" id="Path"></path>
            </g>
        </g>
    </g>
</svg>