<?xml version="1.0" encoding="UTF-8"?><svg id="Layer_2" xmlns="http://www.w3.org/2000/svg" viewBox="0 0 288 115.01"><defs><style>.cls-1{fill-rule:evenodd;}</style></defs><g id="Skyline2_Image"><g><path class="cls-1" d="M111.38,.05c.74,6.38-.64,11.96,.87,19.23,13.49-3.14,26.41-6.36,41.09-5.07,1.02,.09,2.2,.15,3.32,.35,.89,.16,1.96,.71,2.8,.7,.93-.02,2.12-1.27,3.5-1.22,7.99,11.21,16.46,22.79,16.26,41.62,2.4-.8,3.96-2.45,6.29-3.32-2.85-10.76-4.25-22.87-9.27-32.17-.56-1.04-1.85-3.37-1.75-4.02,.24-1.57,3.42-2.28,4.72-1.22,.79,.65,2.77,1.88,3.15,2.62,1.08,2.1,1.96,4.61,3.32,6.99,1.81,3.17,2.5,6.79,4.02,10.32,2.57,5.95,4.24,14.45,5.42,21.16,2.38-1.12,4.23-2.76,6.82-3.67-.3-2.16-.44-4.59-.87-6.82-.58-2.99-1.48-6.34-3.15-7.69-.23-.76-.19-1.8-.35-2.62,.66-.78,1.57-1.49,2.45-1.57-2.3-2.03-7.81-4.26-9.44-7.52-1.46-2.91,1.04-4.86,3.32-6.12-.16-5.45-.86-11.33-1.92-16.79,.68-.01,1.14,.26,2.1,.52,.48,.75,.91,1.54,1.05,2.62,.49,.03-.15-1.08,.35-1.05,1.37,.32,1.07,2.31,2.27,2.8,.78,.24-.04-1.59,.7-.87,1.43,2.47,2.22,5.59,3.15,8.57,7.91-2.66,16.68-3.18,24.31,.18,.71,.05,.39-.06,.35-.52,3.76,1.29,6.35,4.56,9.44,5.95,.01-1.35-.35-2.61-.87-4.02-.38-1.02-1.64-2.59-1.4-3.5,.38-1.45,5.66-3.91,7.34-4.02,.44-.03,1.39,.28,1.75,.35,1.77,5.61,1.99,15.05,3.67,20.63,.16,.54,.92,1.59,.87,2.1-.16,1.6-3.01,2.11-4.55,2.97-1.55,.87-2.37,2.42-4.02,1.57-1.44-4.28-5.04-8.72-8.22-11.89-6.2-6.17-15.82-10.83-28.33-7.52,.75,3.41,1.95,7.23,2.97,9.79,3.23,1.96,6.61,3.76,10.49,5.07,.28,.3,4.57,2.34,4.9,2.59,3.72,1.47,6.56,3.2,10.08,4.64,7.62,2.87,12.96,6.08,20.32,9.76,4.45,3.23,8.72,4.21,11.91,8.71,4.4,6.2-3.21,10.72-7.34,13.11-3.65,2.12-8.54,3.93-13.81,4.37-6.63,.56-11.41-1.01-16.26-2.62-.64,1.16-1.14,2.47-1.75,3.67,.57,1.08,2.5,1.17,2.62,2.45,.15,1.55-3.07,3.43-4.55,4.02-15.36,6.22-39.84,8.06-60.67,8.57,5.33,8.65,10.87,18.47,22.38,20.63-3.08,1.36-7.46,2.76-10.49,1.92-4.84-1.34-8.53-4.81-11.72-7.69-3.32-4.78-6.79-9.41-9.27-15.04-12.12-.98-25.69-1.59-28.68-12.24-8.32,1.14-16.25,3.54-24.13,5.42-3.97,.95-9.16,1.21-11.37,3.85-.67-.09-1.03-.49-1.57-.7-7.87,1.46-19.15,6.1-29.38,6.12-2.62,0-7.37-.87-7.69-3.67-.28-2.45,2-3.45,2.62-5.42,7.95-7.26,17.28-13.15,28.5-17.14-2.05-2.33-2.81-5.93-3.85-9.27-4.87,4.69-9.69,9.16-18.01,10.84-4.05,.82-8.51,1.17-13.11,1.05,1.8,3.31,4.6,9.58,2.1,13.81-.49,.82-1.6,1.61-2.27,2.45-.74,.92-1.24,2.4-2.45,2.1,.45-6.4-1.93-11.92-4.72-16.61-.61-1.03-1.58-2.95-2.27-3.5-.69-.54-1.72-.54-2.45-.87-4.39-2.03-8.03-5.43-10.49-10.14-.71-1.35-2.16-4.02-1.92-5.77,.28-2.11,2.93-2.98,4.72-4.02,1.9,.34,2.53,2.79,4.02,2.97,.46,1.47,1.99,1.86,2.45,3.32,.67,.46,.77,.06,1.22,.17,2.35,2.84,4.91,5.47,6.99,8.57,9.45,1.94,22.96,1.83,31.3-2.8,.68-2.5-.84-4.66-2.62-6.29-2.6-2.39-7.3-4.5-10.32-5.6-10.44-3.78-24.8-4.33-37.77-4.9-1.95-.09-3.9-.12-5.77-.35-1.67-.2-4.4-.11-5.74-.38-1.7-.33-4.37-.39-6.08-.8-1.92-.46-1.72-1.9-3.04-3.02,1.29-6.36,10.83-11.41,16.25-13.24,5.39-1.82,11.27-2.22,16.9-1.51,2.56,.33,10.91,1.05,12.13,3.91-1.26-2.95-4.57-6.74-6.82-10.32-.73-1.16-2.27-2.49-2.27-3.5,0-1.35,2.18-2.7,3.32-3.5,1.47-1.03,2.98-1.79,4.37-1.92,1.6,1.55,1.93,3.61,2.97,5.42,2.22,3.84,6.06,6.66,7.17,11.54,6.87-4.2,16.59-8.04,25.53-9.97,3.44-.74,8.08-.86,11.19-.35,1.31,.22,3.36,.48,3.32,2.45-.67,.28-1.46,1.28-2.45,1.75-1.34,.64-4.58,1.72-5.77,1.4-1-.28-1.28-1.81-1.92-2.27-1.26-.89-3.69-.93-5.77-.7-9.04,1-17.72,5.72-22.73,11.02,.82,1.86,1.66,3.7,2.62,5.42,15.83-1.58,28.04-7.87,42.32-11.89,2.02-6.69,2.29-14.34,1.75-20.98,3.03-.89,5.9-2.24,9.27-1.92Zm27.8,27.1c6.36-.46,13.82-2.72,17.14-5.42,1.47-1.19,1.3-2.5,.35-3.67-5.17-2.66-12.41-2.73-18.71-2.27-8.65,.63-17.31,3.18-25.18,4.9,.95,4.65,4.22,6.97,6.82,9.97-.58,1.79-3.5,1.52-5.42,1.75-.89,.11-1.61,.48-2.45,.35-2-.32-3.02-2.46-4.2-3.15-1.81,2.64-6.08,2.86-9.09,3.85-1.2-.55-2.19-.62-2.27-1.92-.1-1.57,1.54-1.67,2.62-3.15,.9-1.22,.78-2.42,1.22-3.67-13.49,3.82-26.36,9.19-39.69,12.59-.06,.76,.97,.43,.87,1.22-.32,1.02-1.21,1.47-1.4,2.62,2.47,.73,4.88,1.53,7.17,2.45,2.06-1.51,4.33-4.75,6.99-4.02,.09,.77,1.01,1.95,1.75,2.62,1.49,2.77,3.39,6.05,5.6,7.52-.13-8.05,3.79-11.94,8.74-14.69,.73-.41,1.8-.95,2.62-1.05,1.14-.13,2.22,.6,3.32,.7,.5,.05,.85-.27,1.22-.17,2.77,.72,4.43,3.67,6.47,5.25,2.62-1.81,5.53-4.27,8.92-3.85,.61,1.8,.91,3.02,1.05,5.42,1.13-2.64,4.66-4.2,8.22-4.55,1.24,1.56,1.3,4.3,2.45,5.95,1.32-3,4.36-5.88,7.87-7.52,1.31-.61,4.38-2.02,6.12-1.92,2.24,.12,2.72,4.52,3.32,6.64,.71,2.49,1.22,4.45,2.1,6.29,1.68-5.57,7.11-10.15,12.59-12.59,2.5-1.11,5.94-2.21,8.57-1.22-1.17-3.32-2.63-6.34-4.72-8.74-3.92,1.45-8.78,2.87-12.76,3.85-1.31,.32-2,.45-3.24,.82-.43,.13-1.72,.33-2.18,.41-.84,.15-1.95,0-2.97,.17-3.95,.65-10.63,1.53-14.34,0-.76-.31-1.29-1.39-1.75-1.75-.74-.59-2.16-.51-1.75-1.92,1.08-.03,1.18,.92,2.1,1.05-.22-.54-.56-.96,0-1.4,1.96-.14,2.82,.1,4.55,.35,3.24,1.22,7.31,2.22,11.37,1.92Zm-116.45,2.1c-4.27,0-12.47,.59-15.06,4.6,2.91,1.05,6.37,1.34,9.41,2.24,3.17,.94,6.67,1.22,9.96,1.67,3.41,.46,3.14,.48,6.56,.8,3.26,.31,8.96,1.12,13.85,.96-5.05-10.4-17.02-10.27-24.72-10.27Zm135.86,25.35c3.95-2.28,8.76-11.66,4.9-16.44-1.46-1.81-4.67-2.92-8.04-2.1-2.87,2.68-4.39,6.11-4.37,11.37,.37,.39,1.57-.06,1.57,.7-.03,4.17,1.48,6.8,5.95,6.47Zm55.6,12.41c-1.4,1.02-2.72,1.2-4.37,.35-.46,.13-.54,.63-1.05,.7-.24-.46-.55-.84-1.05-1.05-.1,.25,.2,.9-.17,.87-.82-.27-.89-1.12-1.75-.52-1.87-3.73-2.75-8.44-3.5-13.29-3.43,1.58-6.02,4.34-6.29,8.57-2.62,1.63-5.25,3.4-8.04,4.37-.41-.52-1.02-.85-1.05-1.75,.89-3.08-.28-7.92-.87-11.19-2.25,1.11-5.13,3.21-6.29,5.42-.41,.79-.23,1.82-.7,2.62-.81,1.38-3.24,2.22-4.37,3.15-.35,.29-.64,.61-1.05,.87-3.43,2.23-4.5-.34-2.8-3.67-1.11,.52-1.39,1.04-2.97,1.92-2.78,1.31-6.65,3.63-11.19,3.32-2.62-.18-4.56-1.35-6.64-2.27,.59,2.79,1.64,5.12,2.45,7.69,21.66-2.49,45.33-1.38,65.05,2.45,.75-1.92,.82-5.3,.87-7.34-4.4-4.75-5.14-13.16-5.95-21.51,2.18-1.2,4.14-2.51,6.64-2.27,.27,1.44,1.25,2.05,1.75,2.97,2.89,5.36,3.54,12.58,5.25,18.71,1.19,.65,2.73,1.61,4.15,2.33,1.18,.6,2.2,1.17,3.72,1.69,2.02,.69,3.9,1.49,5.95,1.75,7.26,.91,17.9,.46,15.56-7.69-1.28-4.48-6.92-7.41-11.02-9.62-11.1-5.98-25.42-11.95-35.67-16.96h-.35c2.19,9.85,2.61,20.85,5.77,29.38Zm-126.42-28.15c-1.83,2.43-2.37,6.14-2.27,10.49,.91,3.65,.84,15.29,4.72,16.26,2.05,.51,3.66-1.36,6.12-1.05,5.19-8.52,2.04-26.57-8.57-25.7Zm52.81,26.23c-3.02-8.61-5.57-17.21-8.57-25.7h-.52c-3.95,5.13-5.12,13.45-3.67,22.21-1.4,1.93-4.04,2.61-5.95,4.02,3.68,.57,6.8,3.11,9.97,2.62-.16,.55-.53,.77-.17,1.4,2.86,.22,3.5,4.33,6.12,4.9,1.67,.36,3.47-.63,5.77-.52-.72-3.66-1.94-5.98-2.97-8.92Zm-21.68-1.4c-.93-8.1-1.68-16.39-5.07-22.03,.98,8.06,1.23,16.84,5.07,22.03Zm38.29-5.25c-.64-.06-.97,.19-1.4,.35,2.71,4.36,11.26,6.81,11.72-.35,.07-1.06-.35-1.83-.18-3.15,.09-.64,.71-.65,.35-1.57,.74,.12,1.76-1.01,1.92-1.57,.69,.04,.84,.23,1.22,.87-.38-1.24,.39-3.72-.7-5.25-2.53,5.34-8.3,7.44-12.94,10.67Zm-56.65,5.94c3.59,0,6.21,0,9.27,.35-.08-1.56-1.36-2.88-1.92-4.72-1.02-3.32-1.11-7.34-1.75-10.67-.07,6.15-2.47,11.37-5.6,15.04Zm-3.67,2.97c-1.71,1.56-3.58,2.95-5.77,4.02,1.21,3.52,2.26,8.85,2.8,11.89,9.56-2.27,19.24-4.42,29.03-6.47,.4-1.35,.78-2.71,1.4-3.85-5.6-5.21-16.69-6.71-27.45-5.6Zm-13.81,6.12c-.3-1.14-1.03-3.57-2.27-3.32-7.16,1.41-16.6,6.82-21.16,10.84-1.47,1.29-3.56,3.87-3.5,5.6,.04,1.05,1.43,1.94,1.92,2.45,9.21,1.49,19.27-1.64,27.63-3.67-1.2-3.56-1.81-8.8-2.62-11.89Zm70.29,2.1c1.83,4.53,3.51,9.2,5.77,13.29,12.81,.69,23.15-.11,36.02-1.05,8.35-.61,17.1-1.5,22.21-5.77-1.4-.14-1.79,1.35-3.15,.7-.11-1.69,1.37-1.78,1.4-3.32-20.26-5.22-40.21-5.23-62.25-3.85Zm-21.33,3.67c2.88,5.74,10.07,7.18,17.31,8.57-1.26-3.42-3.16-7.22-4.55-11.37-4.9,.46-9.58,1.04-12.76,2.8Z"/><path class="cls-1" d="M277.85,59.85c-2.59,4.93-5.7,9.34-8.39,14.16-.97-.23-.62,.84-1.4,.35-.17,1.18-.92,1.76-1.22,2.8-.77,.12-2.1,.22-2.27,1.4-.72-.42-1.24-1.26-2.1-1.05,.31-1.36-1.77-.33-1.4-1.75-.73,.42-.95,1.93-2.27,1.22,1.77-8.07,7.75-13.63,9.27-20.81,.26-.15,.55-.26,.52-.7,3.84,.03,6.69,2.5,9.27,4.37Z"/><path class="cls-1" d="M269.28,75.24c.23,.45-.41,1.27-1.05,1.4,.47-.35,.37-1.26,1.05-1.4Z"/><path class="cls-1" d="M274.35,76.28c-1.61,1.13-2.51,2.97-3.67,4.55-.25-1.19,1.51-1.87,1.57-3.32-.11-.18-.4-.18-.35-.52-.8,.48-1.22,1.34-1.75,2.1,.97-1.74,1.71-4.14,3.5-5.6,.43,.44-.69,.82-.35,1.75,1.06-.28,1.1-1.58,1.57-2.45-.02-.33-.68,.11-.7,.35-.26-.45,.73-1.13,.87-1.75-.82,0-.46,1.17-1.4,1.05,1.15-1.76,2.05-3.78,3.32-5.42-.04-.22-.35-.18-.35,0,.59-2.32,1.27-5.56,2.8-7.17,3.03,1.54,6.03,1.62,8.57,3.85,.26,2.91-3.75,6.15-5.42,8.39-2.49,3.36-4.5,7.17-6.99,9.62-.9-.84-1.24,.81-2.1,1.05-.46-.27-.48-.99-1.22-.52-.39-2.88,1.25-3.78,2.1-5.94Z"/><path class="cls-1" d="M272.95,72.26c-1.88,2.5-3.3,5.45-5.42,7.69,1.23-3.49,3.37-5.29,5.42-7.69Z"/><path class="cls-1" d="M37.07,83.8c-.77,3.35-4.18,4.13-6.47,2.45-.53,.22,.19,.6,0,1.05-.64-.4-.86-1.24-1.57-1.57,.25,.62,.52,1.23,.52,2.1-1.61-.45-2.27-2.19-3.32-3.5-2.12-2.63-4.42-5.23-6.64-7.69-1.33-2.11-2.45-4.43-4.9-5.42-.17-.47-.49-.79-.87-1.05,1.74,6.88,6.65,11.81,9.97,17.66-.31,.02-.37-.21-.7-.17-.04,.74,.66,.73,.7,1.4-.39,.1-.25-.33-.52-.35-.41,2.59-1.34,1.88-3.67,1.57-.34-.04-.95,.19-1.05,.17-.46-.08-.52-.55-.87-.7-.18-.07-.6,.29-1.05,0-1.31-.85-2.91-2.73-3.32-4.02-.53,.13-.64-.18-1.05-.17-2.15-2.47-4.4-6.48-6.47-9.09-1.67-2.1,.05-2.68,1.57-4.2,.12-.12-.1-.56,0-.7,.1-.14,1.21-.61,1.75-1.05,.11-.09,.09-.46,.17-.52,.16-.11,1.1,.32,.87-.7,1.61-.16,1.62-.71,2.97-.52,.13,.45,.17,.99,.52,1.22,.45-.24,.04-1.07,0-1.4,2.85-1.62,5.8-4.25,9.27-4.2,3.71,7.48,9.68,12.7,14.16,19.41Z"/></g></g></svg>