<?xml version="1.0" encoding="utf-8"?>
<!-- Generator: Adobe Illustrator 26.3.1, SVG Export Plug-In . SVG Version: 6.00 Build 0)  -->
<svg version="1.1" id="Layer_2_00000150102426214325258300000006583909176669165458_"
	 xmlns="http://www.w3.org/2000/svg" xmlns:xlink="http://www.w3.org/1999/xlink" x="0px" y="0px" viewBox="0 0 288 52.3"
	 style="enable-background:new 0 0 288 52.3;" xml:space="preserve">
<style type="text/css">
	.st0{clip-path:url(#SVGID_00000063612386447648147160000012228810706204534702_);}
	.st1{fill-rule:evenodd;clip-rule:evenodd;}
</style>
<g>
	<g>
		<defs>
			<rect id="SVGID_1_" width="288" height="52.3"/>
		</defs>
		<clipPath id="SVGID_00000011752539747946661560000004210531760294969224_">
			<use xlink:href="#SVGID_1_"  style="overflow:visible;"/>
		</clipPath>
		<g id="Skyline2_Image" style="clip-path:url(#SVGID_00000011752539747946661560000004210531760294969224_);">
			<g>
				<path class="st1" d="M129.7,0.4c0.8,7-0.7,13.1,1,21c14.7-3.4,28.8-7,44.8-5.6c1.1,0.1,2.4,0.1,3.6,0.4c1,0.2,2.2,0.8,3.1,0.8
					c1,0,2.3-1.4,3.8-1.3c8.7,12.2,18,24.9,17.8,45.4c2.6-0.9,4.4-2.7,6.9-3.6c-3.2-11.8-4.6-25-10.1-35.1c-0.7-1.1-2.1-3.7-2-4.4
					c0.2-1.7,3.7-2.5,5.1-1.3c0.9,0.7,3.1,2.1,3.4,2.8c1.2,2.3,2.2,5,3.6,7.6c2,3.5,2.7,7.4,4.4,11.2c2.8,6.5,4.6,15.8,5.9,23.1
					c2.6-1.2,4.6-3.1,7.4-4c-0.3-2.4-0.4-5-1-7.4c-0.7-3.3-1.6-6.9-3.4-8.4c-0.2-0.9-0.2-2-0.4-2.8c0.8-0.9,1.7-1.6,2.6-1.7
					c-2.5-2.2-8.5-4.7-10.3-8.2c-1.6-3.2,1.1-5.3,3.6-6.7c-0.2-5.9-1-12.3-2.1-18.3c0.8,0,1.2,0.3,2.3,0.5c0.5,0.9,1,1.6,1.2,2.8
					c0.5,0-0.1-1.2,0.4-1.1c1.5,0.3,1.2,2.5,2.5,3.1c0.9,0.2,0-1.7,0.8-1c1.5,2.7,2.4,6.1,3.4,9.4c8.6-2.9,18.2-3.5,26.5,0.2
					c0.8,0,0.4-0.1,0.4-0.5c4.1,1.4,7,5,10.3,6.5c0-1.5-0.4-2.8-1-4.4c-0.4-1.1-1.7-2.8-1.5-3.8c0.4-1.5,6.2-4.3,8-4.4
					c0.4,0,1.5,0.3,2,0.4c2,6.1,2.2,16.5,4,22.5c0.2,0.5,1,1.7,1,2.3c-0.2,1.7-3.3,2.3-5,3.3c-1.7,1-2.6,2.6-4.4,1.7
					c-1.5-4.7-5.5-9.5-8.9-13c-6.8-6.8-17.2-11.8-30.9-8.2c0.9,3.7,2.1,7.9,3.3,10.7c3.5,2.2,7.2,4.1,11.5,5.6
					c0.3,0.3,5,2.5,5.3,2.8c4,1.6,7.2,3.5,11,5c8.3,3.2,14.2,6.7,22.2,10.7c4.8,3.5,9.5,4.6,13,9.5c4.8,6.8-3.5,11.7-8,14.3
					c-3.9,2.3-9.3,4.3-15.1,4.8c-7.2,0.7-12.4-1.1-17.8-2.8c-0.7,1.3-1.2,2.7-2,4c0.7,1.2,2.7,1.3,2.8,2.6c0.1,1.7-3.4,3.7-5,4.4
					c-16.8,6.8-43.4,8.8-66.2,9.4c5.8,9.5,11.9,20.2,24.4,22.5c-3.4,1.5-8.2,3.1-11.5,2.1c-5.2-1.4-9.3-5.2-12.8-8.4
					c-3.6-5.2-7.4-10.3-10.1-16.4c-13.2-1.1-28-1.7-31.3-13.3c-9.1,1.2-17.8,3.8-26.3,5.9c-4.4,1-10,1.3-12.4,4.1
					c-0.8-0.1-1.1-0.5-1.7-0.8c-8.6,1.6-21,6.7-32.1,6.7c-2.8,0-8.1-1-8.4-4c-0.3-2.6,2.2-3.7,2.8-5.9c8.7-8,18.9-14.4,31.1-18.7
					c-2.3-2.5-3.1-6.4-4.1-10.1c-5.3,5.1-10.6,10-19.6,11.8c-4.4,0.9-9.3,1.3-14.3,1.2c2,3.6,5,10.5,2.3,15.1
					c-0.5,0.9-1.7,1.7-2.5,2.6c-0.8,1-1.3,2.6-2.7,2.3c0.5-7-2.1-13-5.1-18.1c-0.7-1.1-1.7-3.2-2.5-3.8c-0.8-0.5-1.9-0.5-2.7-1
					c-4.8-2.2-8.7-5.9-11.5-11c-0.8-1.4-2.4-4.4-2.1-6.3c0.3-2.3,3.2-3.3,5.1-4.4c2.1,0.3,2.7,3.1,4.4,3.3c0.5,1.6,2.2,2.1,2.7,3.6
					c0.8,0.5,0.9,0.1,1.3,0.2c2.5,3.1,5.3,6,7.6,9.4c10.4,2.1,25.1,2,34.2-3.1c0.8-2.7-0.9-5.1-2.8-6.9c-2.8-2.6-8-4.9-11.2-6.1
					c-11.3-4.1-27.1-4.7-41.2-5.3c-2.2-0.1-4.3-0.1-6.3-0.3c-1.9-0.2-4.8-0.1-6.2-0.4c-1.9-0.3-4.8-0.4-6.7-0.9
					c-2.1-0.5-1.9-2.1-3.3-3.3c1.4-7,11.8-12.4,17.7-14.4c5.9-2,12.3-2.4,18.4-1.6c2.8,0.3,11.9,1.1,13.2,4.3
					c-1.4-3.3-5-7.3-7.4-11.2c-0.8-1.3-2.5-2.7-2.5-3.8c0-1.5,2.4-2.9,3.6-3.8c1.6-1.1,3.3-2,4.8-2.1c1.7,1.7,2.1,3.9,3.3,5.9
					c2.4,4.1,6.7,7.3,7.9,12.5c7.5-4.6,18.1-8.7,27.8-10.9c3.7-0.8,8.8-1,12.2-0.4c1.4,0.2,3.7,0.5,3.6,2.7c-0.8,0.3-1.6,1.4-2.6,2
					c-1.4,0.7-5,1.9-6.3,1.5c-1.1-0.3-1.4-2-2.1-2.5c-1.4-1-4-1-6.3-0.8c-9.8,1.1-19.3,6.2-24.8,12c0.9,2.1,1.9,4,2.8,5.9
					c17.2-1.7,30.6-8.6,46.2-13c2.2-7.3,2.5-15.6,2-22.9C123,1.6,126,0.1,129.7,0.4L129.7,0.4z M160.1,30c7-0.5,15.1-2.9,18.7-5.9
					c1.6-1.3,1.4-2.7,0.4-4c-5.7-2.9-13.5-2.9-20.4-2.5c-9.4,0.7-18.9,3.5-27.5,5.3c1,5,4.6,7.6,7.4,10.9c-0.7,2-3.8,1.6-5.9,2
					c-1,0.1-1.7,0.5-2.6,0.3c-2.2-0.3-3.3-2.7-4.6-3.5c-2,2.8-6.7,3.2-9.9,4.3c-1.3-0.5-2.4-0.7-2.5-2.1c-0.1-1.7,1.6-1.9,2.8-3.4
					c1-1.3,0.9-2.6,1.3-4c-14.6,4.1-28.7,10-43.2,13.7c-0.1,0.9,1.1,0.4,1,1.3c-0.3,1.1-1.3,1.6-1.5,2.8c2.7,0.8,5.3,1.6,7.9,2.7
					c2.3-1.6,4.7-5.2,7.6-4.4c0.1,0.9,1.1,2.2,2,2.8c1.6,3.1,3.7,6.5,6.1,8.2c-0.1-8.7,4.1-13,9.5-16c0.8-0.4,2-1.1,2.8-1.1
					c1.2-0.1,2.4,0.7,3.6,0.8c0.5,0,0.9-0.3,1.3-0.2c3.1,0.8,4.8,4,7.1,5.7c2.8-2,6-4.7,9.7-4.1c0.7,2,1,3.3,1.2,5.9
					c1.2-2.8,5.1-4.6,8.9-4.9c1.3,1.7,1.4,4.7,2.6,6.5c1.4-3.3,4.8-6.4,8.6-8.2c1.4-0.7,4.8-2.2,6.7-2.1c2.4,0.1,2.9,4.9,3.6,7.2
					c0.8,2.7,1.3,4.9,2.3,6.9c1.9-6.1,7.7-11,13.7-13.7c2.7-1.2,6.4-2.4,9.4-1.3c-1.3-3.6-2.8-6.9-5.1-9.5c-4.3,1.6-9.6,3.2-14,4.3
					c-1.4,0.3-2.2,0.5-3.5,0.9c-0.4,0.1-1.9,0.3-2.4,0.4c-0.9,0.1-2.1,0-3.3,0.2c-4.3,0.7-11.6,1.6-15.6,0c-0.9-0.3-1.4-1.5-2-2
					c-0.8-0.7-2.4-0.5-2-2.1c1.2,0,1.3,1,2.3,1.1c-0.2-0.5-0.7-1.1,0-1.5c2.2-0.1,3.1,0.1,5,0.4C151.2,29.2,155.7,30.3,160.1,30
					L160.1,30z M33,32.3c-4.7,0-13.6,0.7-16.5,5c3.2,1.1,7,1.4,10.3,2.4c3.5,1,7.3,1.3,10.9,1.9c3.7,0.5,3.4,0.5,7.2,0.9
					c3.6,0.3,9.8,1.2,15.2,1.1C54.5,32.2,41.4,32.3,33,32.3z M181.3,60c4.3-2.5,9.6-12.8,5.3-17.9c-1.6-2-5.1-3.2-8.7-2.3
					c-3.2,2.9-4.8,6.7-4.8,12.4c0.4,0.4,1.7-0.1,1.7,0.8C174.8,57.5,176.4,60.3,181.3,60L181.3,60z M242,73.5
					c-1.5,1.1-2.9,1.3-4.8,0.3c-0.5,0.1-0.5,0.7-1.2,0.8c-0.2-0.5-0.7-0.9-1.2-1.2c-0.1,0.2,0.2,1-0.2,1c-0.9-0.3-1-1.2-2-0.5
					c-2.1-4-3.1-9.2-3.8-14.5c-3.7,1.7-6.5,4.7-6.9,9.4c-2.8,1.7-5.7,3.7-8.7,4.8c-0.4-0.5-1.1-0.9-1.2-2c1-3.4-0.3-8.6-1-12.2
					c-2.4,1.2-5.6,3.5-6.9,5.9c-0.4,0.9-0.2,2-0.8,2.8c-0.9,1.5-3.5,2.4-4.8,3.4c-0.4,0.3-0.7,0.7-1.2,1c-3.7,2.4-4.9-0.3-3.1-4
					c-1.2,0.5-1.5,1.1-3.3,2.1c-3.1,1.4-7.2,3.9-12.2,3.6c-2.8-0.2-5-1.4-7.2-2.5c0.7,3.1,1.7,5.6,2.6,8.4c23.7-2.7,49.4-1.5,71,2.6
					c0.9-2.1,0.9-5.8,1-8c-4.8-5.2-5.6-14.4-6.4-23.5c2.4-1.3,4.5-2.7,7.2-2.5c0.3,1.5,1.3,2.2,2,3.3c3.2,5.9,3.8,13.7,5.7,20.4
					c1.3,0.8,2.9,1.7,4.5,2.5c1.3,0.7,2.4,1.3,4,1.9c2.2,0.8,4.3,1.6,6.4,2c8,1,19.5,0.5,17-8.4c-1.4-4.9-7.5-8.1-12-10.5
					c-12.1-6.5-27.7-13.1-39-18.6h-0.4C238.1,52.3,238.5,64.3,242,73.5L242,73.5z M104,42.8c-2,2.6-2.6,6.7-2.5,11.5
					c1,4,0.9,16.7,5.1,17.8c2.3,0.5,4-1.5,6.7-1.2C119,61.5,115.5,41.9,104,42.8z M161.6,71.5c-3.3-9.4-6.1-18.8-9.4-28h-0.5
					c-4.3,5.6-5.6,14.7-4,24.2c-1.5,2.1-4.4,2.8-6.4,4.4c4,0.7,7.4,3.4,10.9,2.8c-0.2,0.7-0.5,0.9-0.2,1.5c3.2,0.2,3.8,4.7,6.7,5.3
					c1.9,0.4,3.8-0.7,6.3-0.5C164.1,77.1,162.8,74.6,161.6,71.5L161.6,71.5z M138,69.9c-1-8.8-1.9-17.9-5.6-24
					C133.5,54.7,133.8,64.3,138,69.9z M179.8,64.1c-0.7-0.1-1.1,0.2-1.5,0.3c2.9,4.8,12.3,7.4,12.8-0.3c0.1-1.2-0.4-2-0.2-3.5
					c0.1-0.7,0.8-0.8,0.4-1.7c0.8,0.1,2-1.1,2.1-1.7c0.8,0,0.9,0.2,1.3,1c-0.4-1.3,0.4-4-0.8-5.7C191.2,58.4,184.8,60.7,179.8,64.1
					L179.8,64.1z M117.9,70.7c3.9,0,6.8,0,10.1,0.3c-0.1-1.7-1.5-3.2-2.1-5.1c-1.1-3.6-1.2-8-2-11.7C123.9,61,121.3,66.7,117.9,70.7
					z M113.9,73.9c-1.9,1.7-3.9,3.2-6.3,4.4c1.3,3.8,2.5,9.6,3.1,13c10.5-2.5,21-4.8,31.6-7.1c0.4-1.4,0.9-2.9,1.5-4.1
					C137.8,74.3,125.7,72.7,113.9,73.9L113.9,73.9z M98.8,80.5c-0.3-1.2-1.1-3.9-2.5-3.6c-7.9,1.5-18.1,7.4-23.1,11.8
					c-1.6,1.4-3.9,4.3-3.8,6.1c0,1.2,1.5,2.1,2.1,2.6c10,1.6,21.1-1.7,30.1-4C100.4,89.7,99.7,83.9,98.8,80.5L98.8,80.5z
					 M175.6,82.8c2,4.9,3.8,10,6.3,14.5c14,0.8,25.2-0.1,39.3-1.2c9.2-0.7,18.7-1.6,24.2-6.3c-1.5-0.1-2,1.4-3.4,0.8
					c-0.1-1.9,1.5-2,1.5-3.6C221.4,81.4,199.7,81.4,175.6,82.8z M152.3,86.8c3.2,6.2,11,7.9,18.9,9.4c-1.4-3.7-3.5-7.9-5-12.4
					C160.8,84.3,155.8,85,152.3,86.8z"/>
				<path class="st1" d="M311.4,65.7c-2.8,5.3-6.2,10.1-9.2,15.5c-1.1-0.2-0.7,0.9-1.5,0.3c-0.2,1.3-1,2-1.3,3.1
					c-0.9,0.1-2.3,0.2-2.5,1.5c-0.8-0.4-1.3-1.4-2.3-1.2c0.3-1.5-2-0.3-1.5-2c-0.8,0.4-1.1,2.1-2.5,1.3c2-8.8,8.5-14.8,10.1-22.7
					c0.3-0.2,0.5-0.3,0.5-0.8C305.5,61,308.6,63.6,311.4,65.7L311.4,65.7z"/>
				<path class="st1" d="M302,82.5c0.2,0.4-0.4,1.4-1.1,1.5C301.5,83.7,301.4,82.7,302,82.5z"/>
				<path class="st1" d="M307.6,83.7c-1.7,1.2-2.7,3.3-4,5c-0.2-1.3,1.6-2.1,1.7-3.6c-0.1-0.2-0.4-0.2-0.4-0.5
					c-0.9,0.5-1.3,1.4-2,2.3c1.1-1.9,1.9-4.5,3.8-6.1c0.4,0.4-0.8,0.9-0.4,2c1.2-0.3,1.2-1.7,1.7-2.6c0-0.3-0.8,0.1-0.8,0.3
					c-0.3-0.4,0.8-1.2,1-2c-0.9,0-0.5,1.3-1.5,1.2c1.2-2,2.2-4.1,3.6-5.9c0-0.2-0.4-0.2-0.4,0c0.7-2.5,1.4-6.1,3.1-7.9
					c3.3,1.6,6.5,1.7,9.4,4.1c0.3,3.2-4.1,6.8-5.9,9.2c-2.7,3.7-4.9,7.9-7.6,10.5c-1-0.9-1.3,0.9-2.3,1.2c-0.5-0.3-0.5-1.1-1.3-0.5
					C304.9,87,306.7,86,307.6,83.7L307.6,83.7z"/>
				<path class="st1" d="M306.1,79.2c-2.1,2.7-3.6,5.9-5.9,8.4C301.5,83.8,303.9,81.8,306.1,79.2z"/>
				<path class="st1" d="M48.6,91.9c-0.9,3.6-4.6,4.5-7.1,2.6c-0.5,0.2,0.2,0.7,0,1.2c-0.7-0.4-1-1.3-1.7-1.7
					c0.2,0.7,0.5,1.3,0.5,2.3c-1.7-0.4-2.5-2.4-3.6-3.8c-2.3-2.8-4.8-5.7-7.2-8.4c-1.4-2.3-2.7-4.8-5.3-5.9c-0.2-0.5-0.5-0.9-1-1.2
					c1.9,7.5,7.3,12.9,10.9,19.3c-0.3,0-0.4-0.2-0.8-0.2c0,0.8,0.8,0.8,0.8,1.5c-0.4,0.1-0.2-0.3-0.5-0.3c-0.4,2.8-1.4,2.1-4,1.7
					c-0.3,0-1.1,0.2-1.1,0.2c-0.5-0.1-0.5-0.7-1-0.8c-0.2-0.1-0.7,0.3-1.1,0c-1.4-0.9-3.2-2.9-3.6-4.4c-0.5,0.1-0.7-0.2-1.2-0.2
					c-2.3-2.7-4.8-7.1-7.1-9.9c-1.9-2.3,0.1-2.9,1.7-4.6c0.1-0.1-0.1-0.7,0-0.8c0.1-0.1,1.3-0.7,2-1.2c0.1-0.1,0.1-0.5,0.2-0.5
					c0.2-0.1,1.2,0.3,1-0.8c1.7-0.2,1.7-0.8,3.3-0.5c0.1,0.4,0.2,1.1,0.5,1.3c0.4-0.2,0-1.2,0-1.5c3.2-1.7,6.3-4.6,10.1-4.6
					C37.3,78.9,43.8,84.6,48.6,91.9L48.6,91.9z"/>
			</g>
		</g>
	</g>
</g>
</svg>
