<?xml version="1.0" encoding="utf-8"?>
<!-- Generator: Adobe Illustrator 26.3.1, SVG Export Plug-In . SVG Version: 6.00 Build 0)  -->
<svg version="1.1" id="Layer_2_00000150102426214325258300000006583909176669165458_"
	 xmlns="http://www.w3.org/2000/svg" xmlns:xlink="http://www.w3.org/1999/xlink" x="0px" y="0px" viewBox="0 0 288 52.3"
	 style="enable-background:new 0 0 288 52.3;" xml:space="preserve">
<style type="text/css">
	.st0{clip-path:url(#SVGID_00000131343439655895456780000012219733554141712563_);}
	.st1{fill-rule:evenodd;clip-rule:evenodd;}
</style>
<g>
	<defs>
		<rect id="SVGID_1_" x="9" y="1.1" width="288" height="52.3"/>
	</defs>
	<clipPath id="SVGID_00000103970796070508120570000006217657711943447946_">
		<use xlink:href="#SVGID_1_"  style="overflow:visible;"/>
	</clipPath>
	<g id="Skyline2_Image" style="clip-path:url(#SVGID_00000103970796070508120570000006217657711943447946_);">
		<g>
			<path class="st1" d="M120.3,1.1c0.7,6.4-0.6,12,0.9,19.2c13.5-3.1,26.4-6.4,41.1-5.1c1,0.1,2.2,0.1,3.3,0.4
				c0.9,0.2,2,0.7,2.8,0.7c0.9,0,2.1-1.3,3.5-1.2c8,11.2,16.5,22.8,16.3,41.6c2.4-0.8,4-2.5,6.3-3.3c-2.9-10.8-4.2-22.9-9.3-32.2
				c-0.6-1-1.9-3.4-1.8-4c0.2-1.6,3.4-2.3,4.7-1.2c0.8,0.6,2.8,1.9,3.1,2.6c1.1,2.1,2,4.6,3.3,7c1.8,3.2,2.5,6.8,4,10.3
				c2.6,6,4.2,14.5,5.4,21.2c2.4-1.1,4.2-2.8,6.8-3.7c-0.3-2.2-0.4-4.6-0.9-6.8c-0.6-3-1.5-6.3-3.1-7.7c-0.2-0.8-0.2-1.8-0.4-2.6
				c0.7-0.8,1.6-1.5,2.4-1.6c-2.3-2-7.8-4.3-9.4-7.5c-1.5-2.9,1-4.9,3.3-6.1c-0.2-5.4-0.9-11.3-1.9-16.8c0.7,0,1.1,0.3,2.1,0.5
				c0.5,0.8,0.9,1.5,1.1,2.6c0.5,0-0.1-1.1,0.4-1c1.4,0.3,1.1,2.3,2.3,2.8c0.8,0.2,0-1.6,0.7-0.9c1.4,2.5,2.2,5.6,3.1,8.6
				c7.9-2.7,16.7-3.2,24.3,0.2c0.7,0,0.4-0.1,0.4-0.5c3.8,1.3,6.4,4.6,9.4,6c0-1.4-0.4-2.6-0.9-4c-0.4-1-1.6-2.6-1.4-3.5
				c0.4-1.4,5.7-3.9,7.3-4c0.4,0,1.4,0.3,1.8,0.4c1.8,5.6,2,15.1,3.7,20.6c0.2,0.5,0.9,1.6,0.9,2.1c-0.2,1.6-3,2.1-4.6,3
				c-1.6,0.9-2.4,2.4-4,1.6c-1.4-4.3-5-8.7-8.2-11.9c-6.2-6.2-15.8-10.8-28.3-7.5c0.8,3.4,1.9,7.2,3,9.8c3.2,2,6.6,3.8,10.5,5.1
				c0.3,0.3,4.6,2.3,4.9,2.6c3.7,1.5,6.6,3.2,10.1,4.6c7.6,2.9,13,6.1,20.3,9.8c4.4,3.2,8.7,4.2,11.9,8.7c4.4,6.2-3.2,10.7-7.3,13.1
				c-3.6,2.1-8.5,3.9-13.8,4.4c-6.6,0.6-11.4-1-16.3-2.6c-0.6,1.2-1.1,2.5-1.8,3.7c0.6,1.1,2.5,1.2,2.6,2.4c0.1,1.6-3.1,3.4-4.6,4
				c-15.4,6.2-39.8,8.1-60.7,8.6c5.3,8.7,10.9,18.5,22.4,20.6c-3.1,1.4-7.5,2.8-10.5,1.9c-4.8-1.3-8.5-4.8-11.7-7.7
				c-3.3-4.8-6.8-9.4-9.3-15c-12.1-1-25.7-1.6-28.7-12.2c-8.3,1.1-16.3,3.5-24.1,5.4c-4,0.9-9.2,1.2-11.4,3.8
				c-0.7-0.1-1-0.5-1.6-0.7c-7.9,1.5-19.2,6.1-29.4,6.1c-2.6,0-7.4-0.9-7.7-3.7c-0.3-2.4,2-3.4,2.6-5.4c8-7.3,17.3-13.2,28.5-17.1
				c-2.1-2.3-2.8-5.9-3.8-9.3c-4.9,4.7-9.7,9.2-18,10.8c-4,0.8-8.5,1.2-13.1,1.1c1.8,3.3,4.6,9.6,2.1,13.8c-0.5,0.8-1.6,1.6-2.3,2.4
				c-0.7,0.9-1.2,2.4-2.5,2.1c0.5-6.4-1.9-11.9-4.7-16.6c-0.6-1-1.6-2.9-2.3-3.5c-0.7-0.5-1.7-0.5-2.5-0.9c-4.4-2-8-5.4-10.5-10.1
				c-0.7-1.3-2.2-4-1.9-5.8c0.3-2.1,2.9-3,4.7-4c1.9,0.3,2.5,2.8,4,3c0.5,1.5,2,1.9,2.5,3.3c0.7,0.5,0.8,0.1,1.2,0.2
				c2.3,2.8,4.9,5.5,7,8.6c9.5,1.9,23,1.8,31.3-2.8c0.7-2.5-0.8-4.7-2.6-6.3c-2.6-2.4-7.3-4.5-10.3-5.6c-10.4-3.8-24.8-4.3-37.8-4.9
				c-2-0.1-3.9-0.1-5.8-0.3c-1.7-0.2-4.4-0.1-5.7-0.4c-1.7-0.3-4.4-0.4-6.1-0.8c-1.9-0.5-1.7-1.9-3-3c1.3-6.4,10.8-11.4,16.2-13.2
				c5.4-1.8,11.3-2.2,16.9-1.5c2.6,0.3,10.9,1,12.1,3.9c-1.3-3-4.6-6.7-6.8-10.3c-0.7-1.2-2.3-2.5-2.3-3.5c0-1.4,2.2-2.7,3.3-3.5
				c1.5-1,3-1.8,4.4-1.9c1.6,1.6,1.9,3.6,3,5.4c2.2,3.8,6.1,6.7,7.2,11.5c6.9-4.2,16.6-8,25.5-10c3.4-0.7,8.1-0.9,11.2-0.4
				c1.3,0.2,3.4,0.5,3.3,2.5c-0.7,0.3-1.5,1.3-2.4,1.8c-1.3,0.6-4.6,1.7-5.8,1.4c-1-0.3-1.3-1.8-1.9-2.3c-1.3-0.9-3.7-0.9-5.8-0.7
				c-9,1-17.7,5.7-22.7,11c0.8,1.9,1.7,3.7,2.6,5.4c15.8-1.6,28-7.9,42.3-11.9c2-6.7,2.3-14.3,1.8-21C114.1,2.2,116.9,0.8,120.3,1.1
				L120.3,1.1z M148.1,28.2c6.4-0.5,13.8-2.7,17.1-5.4c1.5-1.2,1.3-2.5,0.4-3.7c-5.2-2.7-12.4-2.7-18.7-2.3
				c-8.6,0.6-17.3,3.2-25.2,4.9c0.9,4.6,4.2,7,6.8,10c-0.6,1.8-3.5,1.5-5.4,1.8c-0.9,0.1-1.6,0.5-2.4,0.3c-2-0.3-3-2.5-4.2-3.2
				c-1.8,2.6-6.1,2.9-9.1,3.9c-1.2-0.5-2.2-0.6-2.3-1.9c-0.1-1.6,1.5-1.7,2.6-3.1c0.9-1.2,0.8-2.4,1.2-3.7
				C95.5,29.6,82.6,35,69.3,38.4c-0.1,0.8,1,0.4,0.9,1.2c-0.3,1-1.2,1.5-1.4,2.6c2.5,0.7,4.9,1.5,7.2,2.5c2.1-1.5,4.3-4.8,7-4
				c0.1,0.8,1,2,1.8,2.6c1.5,2.8,3.4,6,5.6,7.5c-0.1-8,3.8-11.9,8.7-14.7c0.7-0.4,1.8-1,2.6-1c1.1-0.1,2.2,0.6,3.3,0.7
				c0.5,0,0.8-0.3,1.2-0.2c2.8,0.7,4.4,3.7,6.5,5.2c2.6-1.8,5.5-4.3,8.9-3.8c0.6,1.8,0.9,3,1.1,5.4c1.1-2.6,4.7-4.2,8.2-4.5
				c1.2,1.6,1.3,4.3,2.4,6c1.3-3,4.4-5.9,7.9-7.5c1.3-0.6,4.4-2,6.1-1.9c2.2,0.1,2.7,4.5,3.3,6.6c0.7,2.5,1.2,4.5,2.1,6.3
				c1.7-5.6,7.1-10.1,12.6-12.6c2.5-1.1,5.9-2.2,8.6-1.2c-1.2-3.3-2.6-6.3-4.7-8.7c-3.9,1.5-8.8,2.9-12.8,3.9
				c-1.3,0.3-2,0.5-3.2,0.8c-0.4,0.1-1.7,0.3-2.2,0.4c-0.8,0.1-1.9,0-3,0.2c-3.9,0.6-10.6,1.5-14.3,0c-0.8-0.3-1.3-1.4-1.8-1.8
				c-0.7-0.6-2.2-0.5-1.8-1.9c1.1,0,1.2,0.9,2.1,1c-0.2-0.5-0.6-1,0-1.4c2-0.1,2.8,0.1,4.6,0.4C140,27.5,144.1,28.5,148.1,28.2
				L148.1,28.2z M31.7,30.3c-4.3,0-12.5,0.6-15.1,4.6c2.9,1,6.4,1.3,9.4,2.2c3.2,0.9,6.7,1.2,10,1.7c3.4,0.5,3.1,0.5,6.6,0.8
				c3.3,0.3,9,1.1,13.9,1C51.4,30.2,39.4,30.3,31.7,30.3z M167.6,55.7c3.9-2.3,8.8-11.7,4.9-16.4c-1.5-1.8-4.7-2.9-8-2.1
				c-2.9,2.7-4.4,6.1-4.4,11.4c0.4,0.4,1.6-0.1,1.6,0.7C161.6,53.4,163.1,56,167.6,55.7L167.6,55.7z M223.2,68.1
				c-1.4,1-2.7,1.2-4.4,0.3c-0.5,0.1-0.5,0.6-1.1,0.7c-0.2-0.5-0.6-0.8-1.1-1.1c-0.1,0.2,0.2,0.9-0.2,0.9c-0.8-0.3-0.9-1.1-1.8-0.5
				c-1.9-3.7-2.8-8.4-3.5-13.3c-3.4,1.6-6,4.3-6.3,8.6c-2.6,1.6-5.2,3.4-8,4.4c-0.4-0.5-1-0.8-1.1-1.8c0.9-3.1-0.3-7.9-0.9-11.2
				c-2.2,1.1-5.1,3.2-6.3,5.4c-0.4,0.8-0.2,1.8-0.7,2.6c-0.8,1.4-3.2,2.2-4.4,3.1c-0.4,0.3-0.6,0.6-1.1,0.9
				c-3.4,2.2-4.5-0.3-2.8-3.7c-1.1,0.5-1.4,1-3,1.9c-2.8,1.3-6.6,3.6-11.2,3.3c-2.6-0.2-4.6-1.3-6.6-2.3c0.6,2.8,1.6,5.1,2.4,7.7
				c21.7-2.5,45.3-1.4,65.1,2.4c0.8-1.9,0.8-5.3,0.9-7.3c-4.4-4.8-5.1-13.2-5.9-21.5c2.2-1.2,4.1-2.5,6.6-2.3c0.3,1.4,1.2,2,1.8,3
				c2.9,5.4,3.5,12.6,5.2,18.7c1.2,0.7,2.7,1.6,4.1,2.3c1.2,0.6,2.2,1.2,3.7,1.7c2,0.7,3.9,1.5,5.9,1.8c7.3,0.9,17.9,0.5,15.6-7.7
				c-1.3-4.5-6.9-7.4-11-9.6c-11.1-6-25.4-12-35.7-17h-0.4C219.6,48.6,220,59.6,223.2,68.1L223.2,68.1z M96.7,39.9
				c-1.8,2.4-2.4,6.1-2.3,10.5c0.9,3.7,0.8,15.3,4.7,16.3c2.1,0.5,3.7-1.4,6.1-1.1C110.5,57.1,107.3,39.1,96.7,39.9z M149.5,66.2
				c-3-8.6-5.6-17.2-8.6-25.7h-0.5c-3.9,5.1-5.1,13.5-3.7,22.2c-1.4,1.9-4,2.6-5.9,4c3.7,0.6,6.8,3.1,10,2.6
				c-0.2,0.6-0.5,0.8-0.2,1.4c2.9,0.2,3.5,4.3,6.1,4.9c1.7,0.4,3.5-0.6,5.8-0.5C151.8,71.4,150.6,69.1,149.5,66.2L149.5,66.2z
				 M127.9,64.8c-0.9-8.1-1.7-16.4-5.1-22C123.8,50.8,124,59.6,127.9,64.8z M166.2,59.5c-0.6-0.1-1,0.2-1.4,0.3
				c2.7,4.4,11.3,6.8,11.7-0.3c0.1-1.1-0.4-1.8-0.2-3.2c0.1-0.6,0.7-0.7,0.4-1.6c0.7,0.1,1.8-1,1.9-1.6c0.7,0,0.8,0.2,1.2,0.9
				c-0.4-1.2,0.4-3.7-0.7-5.2C176.6,54.2,170.8,56.3,166.2,59.5L166.2,59.5z M109.5,65.5c3.6,0,6.2,0,9.3,0.3
				c-0.1-1.6-1.4-2.9-1.9-4.7c-1-3.3-1.1-7.3-1.8-10.7C115,56.6,112.6,61.8,109.5,65.5z M105.8,68.4c-1.7,1.6-3.6,2.9-5.8,4
				c1.2,3.5,2.3,8.8,2.8,11.9c9.6-2.3,19.2-4.4,29-6.5c0.4-1.3,0.8-2.7,1.4-3.8C127.7,68.8,116.6,67.3,105.8,68.4L105.8,68.4z
				 M92,74.5c-0.3-1.1-1-3.6-2.3-3.3c-7.2,1.4-16.6,6.8-21.2,10.8c-1.5,1.3-3.6,3.9-3.5,5.6c0,1.1,1.4,1.9,1.9,2.4
				c9.2,1.5,19.3-1.6,27.6-3.7C93.4,82.9,92.8,77.6,92,74.5L92,74.5z M162.3,76.6c1.8,4.5,3.5,9.2,5.8,13.3
				c12.8,0.7,23.1-0.1,36-1.1c8.4-0.6,17.1-1.5,22.2-5.8c-1.4-0.1-1.8,1.3-3.1,0.7c-0.1-1.7,1.4-1.8,1.4-3.3
				C204.3,75.3,184.4,75.3,162.3,76.6z M141,80.3c2.9,5.7,10.1,7.2,17.3,8.6c-1.3-3.4-3.2-7.2-4.6-11.4
				C148.8,78,144.2,78.6,141,80.3z"/>
			<path class="st1" d="M286.8,60.9c-2.6,4.9-5.7,9.3-8.4,14.2c-1-0.2-0.6,0.8-1.4,0.3c-0.2,1.2-0.9,1.8-1.2,2.8
				c-0.8,0.1-2.1,0.2-2.3,1.4c-0.7-0.4-1.2-1.3-2.1-1.1c0.3-1.4-1.8-0.3-1.4-1.8c-0.7,0.4-1,1.9-2.3,1.2c1.8-8.1,7.8-13.6,9.3-20.8
				c0.3-0.2,0.5-0.3,0.5-0.7C281.4,56.6,284.2,59,286.8,60.9L286.8,60.9z"/>
			<path class="st1" d="M278.2,76.3c0.2,0.4-0.4,1.3-1,1.4C277.7,77.4,277.6,76.5,278.2,76.3z"/>
			<path class="st1" d="M283.3,77.4c-1.6,1.1-2.5,3-3.7,4.6c-0.2-1.2,1.5-1.9,1.6-3.3c-0.1-0.2-0.4-0.2-0.4-0.5
				c-0.8,0.5-1.2,1.3-1.8,2.1c1-1.7,1.7-4.1,3.5-5.6c0.4,0.4-0.7,0.8-0.4,1.8c1.1-0.3,1.1-1.6,1.6-2.4c0-0.3-0.7,0.1-0.7,0.3
				c-0.3-0.4,0.7-1.1,0.9-1.8c-0.8,0-0.5,1.2-1.4,1.1c1.1-1.8,2-3.8,3.3-5.4c0-0.2-0.4-0.2-0.4,0c0.6-2.3,1.3-5.6,2.8-7.2
				c3,1.5,6,1.6,8.6,3.8c0.3,2.9-3.8,6.2-5.4,8.4c-2.5,3.4-4.5,7.2-7,9.6c-0.9-0.8-1.2,0.8-2.1,1.1c-0.5-0.3-0.5-1-1.2-0.5
				C280.8,80.4,282.5,79.5,283.3,77.4L283.3,77.4z"/>
			<path class="st1" d="M281.9,73.3c-1.9,2.5-3.3,5.4-5.4,7.7C277.7,77.5,279.9,75.7,281.9,73.3z"/>
			<path class="st1" d="M46,84.9c-0.8,3.3-4.2,4.1-6.5,2.4c-0.5,0.2,0.2,0.6,0,1.1c-0.6-0.4-0.9-1.2-1.6-1.6
				c0.2,0.6,0.5,1.2,0.5,2.1c-1.6-0.4-2.3-2.2-3.3-3.5c-2.1-2.6-4.4-5.2-6.6-7.7c-1.3-2.1-2.5-4.4-4.9-5.4c-0.2-0.5-0.5-0.8-0.9-1.1
				c1.7,6.9,6.7,11.8,10,17.7c-0.3,0-0.4-0.2-0.7-0.2c0,0.7,0.7,0.7,0.7,1.4c-0.4,0.1-0.2-0.3-0.5-0.3c-0.4,2.6-1.3,1.9-3.7,1.6
				c-0.3,0-1,0.2-1,0.2c-0.5-0.1-0.5-0.6-0.9-0.7c-0.2-0.1-0.6,0.3-1,0c-1.3-0.8-2.9-2.7-3.3-4c-0.5,0.1-0.6-0.2-1.1-0.2
				c-2.1-2.5-4.4-6.5-6.5-9.1c-1.7-2.1,0.1-2.7,1.6-4.2c0.1-0.1-0.1-0.6,0-0.7c0.1-0.1,1.2-0.6,1.8-1.1c0.1-0.1,0.1-0.5,0.2-0.5
				c0.2-0.1,1.1,0.3,0.9-0.7c1.6-0.2,1.6-0.7,3-0.5c0.1,0.4,0.2,1,0.5,1.2c0.4-0.2,0-1.1,0-1.4c2.9-1.6,5.8-4.2,9.3-4.2
				C35.6,73,41.6,78.2,46,84.9L46,84.9z"/>
		</g>
	</g>
</g>
</svg>
