<?xml version="1.0" standalone="no"?>
<!DOCTYPE svg PUBLIC "-//W3C//DTD SVG 20010904//EN"
 "http://www.w3.org/TR/2001/REC-SVG-20010904/DTD/svg10.dtd">
<svg version="1.0" xmlns="http://www.w3.org/2000/svg"
 width="718.000000pt" height="718.000000pt" viewBox="0 0 718.000000 718.000000"
 preserveAspectRatio="xMidYMid meet">
<metadata>
Created by potrace 1.14, written by Peter Selinger 2001-2017
</metadata>
<g transform="translate(0.000000,718.000000) scale(0.100000,-0.100000)"
fill="#000000" stroke="none">
<path d="M67 7033 c-13 -13 -7 -31 12 -36 20 -5 31 9 24 31 -5 13 -25 16 -36
5z"/>
<path d="M3846 6942 c-4 -3 -43 -12 -76 -17 -64 -10 -176 -85 -166 -112 3 -8
2 -12 -2 -9 -5 3 -16 -4 -25 -14 -23 -28 -68 -100 -62 -100 3 0 -1 -13 -10
-30 -9 -17 -11 -30 -5 -30 5 0 10 -4 10 -10 0 -5 -7 -6 -17 -3 -10 4 -14 2
-10 -4 3 -5 0 -31 -8 -56 -15 -52 -29 -163 -29 -244 0 -42 4 -56 23 -72 13
-11 27 -18 32 -16 4 3 10 1 13 -3 9 -15 52 -2 67 20 8 11 22 29 31 40 10 11
15 25 11 31 -3 6 -1 7 6 3 6 -4 14 0 17 8 3 9 12 16 18 16 7 0 23 11 36 25 13
14 25 23 28 21 2 -3 15 5 28 17 13 11 34 22 46 24 12 2 25 7 28 11 4 7 34 7
91 0 9 -1 15 -7 13 -13 -2 -5 8 -16 23 -22 16 -7 43 -26 62 -42 19 -16 55 -40
80 -53 25 -13 52 -29 60 -36 7 -7 31 -22 52 -33 21 -10 39 -24 39 -29 0 -6 7
-10 15 -10 8 0 22 -8 32 -19 28 -28 192 -151 203 -151 6 0 12 1 15 3 2 1 10
-7 18 -17 8 -11 21 -17 30 -13 9 3 18 -1 21 -10 4 -9 9 -13 13 -10 3 4 14 2
25 -4 10 -6 34 -12 52 -13 18 -2 48 -10 67 -19 19 -8 49 -20 67 -27 17 -7 32
-16 32 -21 0 -5 9 -9 21 -9 11 0 18 -4 15 -9 -3 -4 5 -22 17 -39 12 -16 29
-41 37 -54 38 -58 128 -138 195 -171 101 -49 132 -60 152 -53 10 4 14 4 10 0
-3 -4 11 -15 33 -26 36 -18 89 -74 94 -101 2 -7 6 -20 9 -29 4 -10 10 -26 14
-35 3 -10 7 -22 9 -28 14 -48 59 -161 66 -163 4 -2 5 -8 2 -14 -4 -6 0 -14 7
-19 8 -4 14 -12 15 -16 2 -23 40 -87 72 -121 6 -7 12 -16 12 -20 0 -4 20 -29
45 -57 62 -69 65 -73 65 -85 0 -5 5 -10 11 -10 5 0 7 5 3 12 -5 7 -3 8 5 3 9
-5 9 -11 3 -17 -7 -7 -7 -19 -2 -33 5 -14 4 -27 -3 -34 -6 -6 -7 -11 -3 -11 5
0 2 -10 -7 -23 -8 -12 -13 -39 -12 -59 1 -20 -2 -35 -6 -33 -10 7 -20 -50 -25
-143 -3 -72 -2 -84 16 -102 26 -26 64 -28 172 -11 14 2 81 77 103 116 25 45
51 135 59 208 3 26 7 51 10 55 3 5 6 36 7 70 1 34 5 62 9 62 3 0 7 8 8 18 2
20 10 56 12 60 2 1 4 7 5 12 1 6 4 13 5 18 1 4 2 10 1 15 0 4 3 7 9 7 5 0 10
7 10 15 0 9 7 18 15 21 8 4 15 12 15 20 0 8 6 14 14 14 8 0 16 7 20 15 3 8 14
15 25 15 11 0 21 4 23 9 4 14 83 17 100 5 7 -6 23 -9 36 -8 12 0 22 -3 22 -7
0 -5 6 -9 14 -9 20 0 116 -93 116 -113 0 -9 -6 -20 -13 -24 -8 -4 -17 -24 -20
-45 -5 -33 -3 -38 25 -51 27 -13 33 -13 45 -1 8 8 18 12 23 9 5 -3 21 10 37
29 33 42 51 28 25 -19 -28 -50 -112 -155 -112 -139 0 4 -12 -4 -27 -17 -16
-14 -61 -45 -100 -70 -40 -24 -73 -47 -73 -51 0 -5 -5 -8 -11 -8 -5 0 -42 -21
-81 -47 -39 -27 -78 -52 -87 -58 -8 -5 -23 -17 -31 -25 -8 -8 -32 -24 -53 -35
-21 -11 -35 -25 -33 -32 3 -7 2 -12 -2 -11 -14 5 -72 -27 -72 -39 0 -7 -4 -13
-10 -13 -16 0 -61 -51 -54 -62 4 -6 2 -8 -4 -4 -16 10 -42 -81 -42 -149 0 -72
3 -100 28 -230 32 -164 20 -253 -35 -242 -12 2 -24 -1 -26 -7 -3 -7 -9 -6 -18
3 -11 11 -11 12 -1 6 11 -6 11 -3 0 14 -7 12 -16 21 -21 21 -4 0 -6 4 -2 9 3
5 -2 17 -11 25 -8 9 -12 16 -8 16 5 0 3 5 -3 11 -6 6 -9 17 -7 24 13 34 -99
215 -133 215 -7 0 -13 4 -13 9 0 20 -123 31 -184 17 -16 -4 -44 -20 -62 -36
-18 -15 -39 -32 -47 -37 -8 -4 -28 -34 -45 -66 -29 -54 -31 -64 -28 -145 4
-98 48 -242 75 -242 11 0 12 -3 4 -11 -8 -8 -4 -25 16 -62 27 -52 78 -205 74
-219 -2 -5 1 -8 7 -8 5 0 6 -7 3 -17 -5 -12 -3 -14 8 -8 12 8 12 6 1 -8 -10
-11 -11 -27 -6 -49 4 -18 7 -75 6 -126 0 -51 3 -90 8 -87 4 3 0 -13 -11 -34
-10 -22 -19 -44 -19 -48 0 -5 -12 -23 -27 -41 -47 -55 -111 -49 -173 18 -15
16 -25 30 -22 30 4 0 1 4 -6 9 -17 11 -60 138 -66 198 -7 64 -18 277 -21 383
-1 47 -7 94 -12 105 -11 20 -13 27 -13 45 0 5 -7 7 -15 4 -8 -4 -15 -1 -15 5
0 6 4 10 9 8 5 -1 10 0 11 3 3 9 -23 60 -31 60 -5 0 -18 10 -31 23 -23 23 -57
42 -70 39 -5 -1 -8 2 -8 7 0 4 -12 7 -27 7 -16 -1 -36 2 -45 7 -10 4 -18 4
-18 -1 0 -5 -11 -8 -25 -7 -14 2 -25 -1 -25 -6 0 -6 -4 -8 -9 -4 -5 3 -12 1
-16 -5 -4 -6 -11 -8 -16 -5 -5 4 -9 1 -9 -4 0 -6 -5 -11 -10 -11 -11 0 -61
-49 -100 -98 -22 -28 -53 -44 -48 -24 4 16 -45 83 -58 78 -8 -3 -11 0 -8 8 11
28 -106 85 -186 92 -19 1 -46 5 -60 9 -34 7 -269 7 -282 -1 -5 -4 -31 -8 -57
-9 -25 -2 -57 -7 -71 -13 -14 -5 -33 -8 -42 -7 -10 2 -18 0 -18 -4 0 -4 -20
-13 -45 -20 -24 -7 -54 -22 -66 -32 -12 -10 -26 -19 -30 -19 -4 0 -36 -30 -71
-66 -35 -37 -71 -74 -80 -83 -10 -8 -18 -22 -18 -30 0 -8 -3 -12 -6 -8 -3 3
-21 -10 -40 -29 -19 -19 -41 -34 -49 -34 -8 0 -15 -7 -15 -15 0 -8 -6 -14 -12
-12 -7 1 -13 -5 -12 -14 1 -9 -5 -16 -12 -16 -7 0 -10 5 -7 11 3 6 -10 -7 -31
-29 -20 -22 -36 -44 -36 -48 0 -5 -4 -5 -10 -2 -5 3 -10 1 -10 -5 0 -6 -9 -21
-20 -32 -11 -12 -25 -40 -31 -63 -6 -22 -14 -44 -17 -49 -9 -16 -8 -66 2 -66
5 0 7 -3 4 -6 -9 -8 20 -72 43 -97 10 -11 19 -27 19 -34 0 -14 67 -47 88 -44
6 1 12 -3 12 -10 0 -14 93 -7 135 11 17 7 32 14 35 15 30 8 60 21 82 36 14 11
31 19 38 19 6 0 18 7 27 15 8 8 19 13 24 10 5 -4 9 -1 9 5 0 6 10 10 23 8 13
-2 21 2 20 9 -2 7 0 12 5 11 13 -3 61 25 57 33 -3 4 4 11 16 14 12 4 35 20 50
36 16 17 29 27 29 23 0 -4 11 5 25 20 14 15 25 25 25 22 0 -2 13 8 28 22 81
76 237 186 252 177 5 -3 10 -2 10 3 0 6 13 15 29 20 27 10 32 8 50 -21 18 -29
18 -32 3 -44 -9 -7 -25 -13 -35 -13 -10 0 -20 -7 -23 -15 -4 -8 -10 -15 -15
-15 -5 0 -41 -19 -79 -42 -52 -31 -70 -47 -67 -60 3 -11 0 -15 -9 -11 -8 3
-11 10 -7 17 3 6 -4 2 -17 -9 -13 -11 -29 -23 -35 -27 -17 -13 -87 -72 -116
-98 -15 -14 -65 -59 -110 -100 -46 -41 -101 -91 -121 -111 -21 -20 -38 -34
-38 -32 0 3 -7 0 -15 -7 -9 -7 -13 -20 -10 -28 4 -11 2 -12 -7 -4 -18 15 -30
15 -38 3 -3 -6 -16 -13 -27 -15 -12 -3 -35 -12 -52 -20 -16 -9 -37 -16 -46
-16 -8 0 -15 -4 -15 -9 0 -4 -8 -8 -17 -7 -19 1 -117 -29 -145 -45 -10 -5 -25
-9 -33 -9 -8 0 -15 -4 -15 -10 0 -5 -6 -10 -13 -10 -17 0 -94 -71 -99 -90 -2
-8 -11 -21 -20 -28 -10 -7 -18 -20 -18 -28 0 -8 -3 -14 -8 -14 -4 0 -8 -15 -9
-32 -5 -99 -5 -127 0 -163 3 -22 8 -62 12 -89 3 -27 8 -52 10 -56 3 -5 6 -27
7 -50 1 -22 5 -43 10 -46 4 -3 6 -8 4 -12 -2 -4 0 -41 5 -82 28 -231 20 -293
-41 -352 -17 -15 -30 -26 -30 -23 0 3 -9 1 -19 -5 -12 -6 -22 -6 -25 -1 -3 5
-15 7 -26 4 -34 -9 -77 19 -109 72 -17 28 -31 56 -31 63 0 7 -3 12 -7 12 -11
0 -7 208 4 223 10 12 10 69 -1 140 -6 43 -54 137 -69 137 -6 0 -19 8 -29 17
-66 60 -260 34 -345 -47 -13 -11 -23 -18 -23 -15 0 5 -29 -17 -57 -44 -7 -7
-17 -11 -20 -8 -3 3 -11 1 -19 -6 -32 -29 -44 -37 -44 -32 0 4 -13 -3 -29 -14
-16 -12 -33 -21 -38 -21 -5 0 -19 -9 -31 -21 -12 -11 -27 -17 -32 -14 -6 3
-10 2 -10 -4 0 -6 -11 -13 -25 -17 -14 -3 -25 -10 -25 -15 0 -5 -3 -8 -7 -7
-5 2 -33 -11 -63 -28 -30 -17 -57 -31 -60 -30 -3 0 -18 -9 -34 -21 -16 -13
-33 -23 -37 -23 -9 0 -50 -34 -94 -77 -13 -12 -26 -19 -29 -16 -3 4 -6 1 -6
-6 0 -11 -8 -23 -40 -59 -25 -29 -47 -81 -52 -125 -1 -9 -5 -17 -8 -17 -8 0
-4 -183 6 -227 11 -53 13 -63 18 -105 3 -20 7 -54 11 -76 19 -131 27 -319 14
-364 -4 -17 -4 -28 2 -28 6 0 5 -10 -2 -22 -7 -13 -12 -24 -11 -25 1 -2 2 -4
2 -5 -1 -2 -3 -25 -5 -53 -2 -27 -7 -61 -10 -75 -3 -14 -7 -29 -8 -35 -2 -5
-5 -14 -9 -20 -3 -5 -9 -25 -13 -43 -3 -17 -11 -32 -16 -32 -5 0 -9 -7 -9 -15
0 -8 -4 -15 -10 -15 -5 0 -10 -6 -10 -14 0 -18 -73 -56 -109 -56 -45 0 -88 19
-125 56 -19 19 -35 37 -34 40 0 3 -11 32 -27 65 -15 33 -25 66 -21 74 3 8 1
17 -5 21 -6 3 -8 12 -5 20 3 8 2 14 -2 14 -4 0 -7 37 -5 83 4 120 4 121 44
215 10 23 15 42 11 42 -4 0 -1 4 6 9 28 17 61 208 41 236 -4 6 -9 29 -13 52
-3 23 -12 58 -21 79 -8 20 -15 46 -15 58 0 12 -5 27 -10 32 -6 6 -11 38 -11
72 -1 58 1 65 34 101 19 21 38 48 41 59 4 11 24 38 44 59 34 35 61 68 110 133
18 24 46 94 47 115 0 6 5 13 10 17 6 4 10 11 11 15 2 28 17 73 25 73 5 0 8 3
6 8 -1 4 13 27 31 52 17 24 32 41 32 37 0 -22 65 70 66 94 1 33 -2 39 -43 67
-33 24 -59 29 -47 10 5 -7 3 -8 -5 -3 -14 8 -91 -61 -91 -82 0 -7 -5 -13 -11
-13 -5 0 -8 -4 -5 -9 4 -5 2 -11 -3 -13 -9 -3 -102 -181 -105 -201 -5 -30 -71
-137 -111 -179 -25 -27 -42 -48 -39 -48 6 0 -25 -28 -69 -61 -22 -16 -28 -28
-24 -46 2 -14 -2 -38 -10 -54 -8 -17 -16 -38 -18 -47 -2 -9 -4 -17 -5 -17 -11
0 -15 -117 -6 -170 4 -22 9 -50 10 -62 2 -11 14 -49 26 -82 37 -105 34 -140
-25 -296 -40 -109 -45 -125 -52 -200 -7 -85 -7 -140 2 -180 3 -16 8 -43 10
-60 1 -16 4 -32 5 -35 1 -3 2 -8 1 -12 0 -5 4 -8 9 -8 6 0 10 -8 10 -18 0 -22
56 -112 70 -112 5 0 10 -6 10 -14 0 -15 90 -86 109 -86 6 0 11 -4 11 -9 0 -5
12 -11 27 -14 16 -3 40 -8 56 -11 18 -4 27 -2 27 6 0 10 2 10 9 0 9 -15 44
-12 99 8 28 11 31 14 20 29 -12 14 -11 15 5 2 15 -12 22 -12 42 -1 34 18 111
101 119 128 4 12 12 22 18 22 6 0 9 3 5 6 -3 4 1 23 9 43 9 20 17 50 18 67 1
16 6 35 9 41 4 7 9 33 12 60 3 26 8 62 11 78 11 49 5 450 -6 450 -1 0 -3 18
-5 40 -1 22 -5 51 -9 65 -4 14 -8 41 -10 62 -2 20 -7 41 -10 47 -4 6 -7 50 -8
98 0 86 10 134 32 148 5 3 8 10 5 14 -2 5 18 28 46 52 28 24 56 49 63 55 6 6
17 9 25 6 8 -3 11 0 7 7 -4 6 -2 11 4 11 7 0 25 9 41 21 16 11 29 17 29 13 0
-4 10 2 23 14 13 12 27 19 30 15 4 -3 7 -2 7 4 0 6 11 14 25 17 14 4 25 11 25
16 0 6 7 10 17 10 9 0 31 11 48 25 18 13 35 21 39 18 3 -4 6 -1 6 6 0 7 4 10
9 7 5 -3 14 1 21 9 7 8 16 12 21 9 5 -3 9 -1 9 4 0 9 50 37 63 34 4 -1 7 3 7
8 0 6 5 10 11 10 11 0 88 57 101 75 4 6 8 6 8 2 0 -5 7 -1 16 7 8 9 20 14 25
11 5 -4 9 -2 9 3 0 14 81 36 120 33 53 -3 61 -28 45 -139 -29 -207 16 -388
122 -489 42 -40 146 -76 195 -68 70 12 106 26 132 50 15 14 30 25 34 25 10 1
66 81 68 98 2 7 6 21 10 30 15 33 19 137 10 232 -12 117 -12 123 -19 155 -15
66 -38 278 -39 355 -1 70 6 100 23 100 9 0 24 9 34 20 10 12 24 19 31 16 7 -3
14 0 16 5 2 6 10 11 18 13 8 1 68 20 133 41 106 35 117 40 111 59 -6 19 -5 19
10 4 15 -16 19 -16 49 0 17 9 35 22 39 27 4 6 8 6 8 2 0 -20 114 72 243 196
44 42 84 77 89 77 5 0 6 5 3 10 -3 6 -1 10 4 10 10 0 44 26 83 63 10 9 18 14
18 10 0 -5 4 -3 8 2 12 17 80 65 91 65 6 0 11 5 11 10 0 6 6 10 14 10 7 0 19
7 26 15 7 8 16 12 21 9 5 -3 9 2 9 11 0 9 4 14 9 10 5 -3 33 8 61 25 28 16 57
30 65 30 8 0 15 4 15 9 0 5 24 19 53 31 38 17 67 40 109 89 32 36 73 84 93
106 19 22 35 45 35 51 0 18 70 94 101 110 16 8 29 21 29 30 0 8 5 12 10 9 6
-4 8 -11 5 -16 -3 -5 1 -6 9 -3 9 3 16 1 16 -6 0 -6 3 -9 8 -6 19 11 70 -64
57 -85 -4 -5 -3 -9 2 -9 4 0 8 -82 9 -183 0 -100 3 -204 7 -232 3 -27 8 -74
11 -103 6 -61 37 -172 48 -172 4 0 8 -6 8 -14 0 -8 7 -22 16 -30 8 -9 13 -16
9 -16 -4 0 0 -6 7 -13 7 -8 27 -30 44 -49 27 -30 64 -53 84 -50 3 0 11 -5 19
-11 8 -7 30 -12 50 -13 20 0 42 -4 49 -8 7 -4 12 -3 12 2 0 5 13 9 29 10 50 1
161 84 161 120 0 6 5 12 12 12 6 0 9 3 5 6 -3 4 0 22 8 40 8 19 14 35 13 37 0
1 3 27 7 57 10 63 10 144 2 157 -4 5 -9 45 -12 87 -3 43 -9 85 -14 94 -5 9 -7
25 -6 34 2 9 -3 22 -11 29 -8 7 -12 20 -9 30 4 11 2 19 -4 19 -6 0 -11 9 -11
20 0 11 -4 28 -9 38 -5 9 -13 28 -19 42 -5 14 -19 45 -30 70 -45 100 -51 117
-57 150 -7 38 -9 106 -3 130 5 26 60 76 86 78 13 1 29 5 35 9 19 12 51 10 65
-4 7 -7 25 -48 39 -90 14 -43 31 -81 37 -85 6 -4 8 -8 3 -8 -4 0 -1 -13 8 -29
32 -62 103 -118 156 -124 19 -2 41 -7 48 -12 10 -5 12 -4 7 3 -5 8 0 11 16 8
24 -4 69 17 99 46 38 36 52 81 52 163 0 74 -3 109 -20 190 -10 51 -13 77 -17
161 l-4 82 41 39 c23 22 64 57 92 79 27 21 57 47 67 57 10 9 24 17 32 17 8 0
16 3 18 8 4 9 86 64 111 74 9 4 17 12 17 18 0 6 5 8 10 5 6 -3 10 -1 10 5 0 6
10 14 23 19 38 15 206 131 222 154 8 12 15 18 15 14 0 -12 34 26 66 75 17 26
34 45 38 41 3 -3 7 5 8 18 1 13 2 31 3 39 0 9 7 30 14 48 15 36 9 109 -15 181
-14 41 -42 99 -54 111 -3 3 -14 22 -24 43 -17 34 -27 41 -48 38 -4 0 -5 5 -2
12 2 7 -8 26 -23 43 -16 16 -43 48 -61 69 -21 25 -35 35 -38 28 -3 -7 -11 -13
-17 -13 -8 0 -7 4 1 12 18 18 16 22 -33 74 -25 26 -45 51 -45 56 0 5 -4 6 -10
3 -6 -3 -10 -1 -10 6 0 6 -17 28 -37 48 -21 21 -48 50 -61 65 -12 15 -28 24
-34 20 -6 -4 -8 -3 -5 3 7 11 -108 124 -117 116 -3 -4 -6 1 -6 10 0 9 -4 17
-8 17 -4 0 -25 16 -45 35 -20 19 -39 35 -42 35 -2 0 -19 15 -37 33 -42 40
-128 107 -140 107 -4 0 -8 7 -8 15 0 9 -6 12 -17 8 -11 -4 -14 -3 -9 5 4 7 1
12 -8 12 -9 0 -16 5 -16 10 0 6 -5 10 -11 10 -7 0 -20 9 -30 21 -9 11 -21 19
-24 18 -8 -2 -39 18 -61 39 -8 7 -14 10 -14 5 0 -4 -5 0 -11 10 -5 9 -17 17
-24 17 -8 0 -15 3 -15 8 0 4 -9 12 -20 17 -51 26 -180 110 -180 118 0 5 -7 4
-16 -3 -8 -8 -14 -9 -13 -4 1 5 1 15 0 23 -1 11 -4 11 -18 0 -14 -12 -15 -12
-9 0 12 19 -44 67 -56 49 -6 -9 -8 -7 -6 6 2 13 -6 25 -22 33 -14 7 -20 13
-15 13 6 0 -26 34 -69 75 -44 41 -81 73 -84 70 -3 -3 -11 3 -18 13 -8 10 -13
12 -14 5 0 -7 -5 -13 -10 -13 -6 0 -10 6 -8 13 2 7 0 14 -4 15 -4 2 -23 9 -43
18 -19 8 -35 12 -35 9 0 -3 -8 -2 -17 4 -10 5 -56 12 -103 15 -97 7 -113 10
-155 26 -16 6 -32 12 -35 12 -3 1 -21 8 -40 16 -19 9 -37 16 -40 17 -19 6 -49
19 -72 31 -15 8 -30 15 -33 14 -15 -2 -55 13 -55 21 0 5 -8 9 -17 9 -14 0 -54
11 -103 28 -8 3 -24 6 -35 7 -11 1 -38 6 -60 10 -22 5 -44 8 -49 7 -5 -2 -16
0 -25 4 -9 4 -32 8 -51 10 -51 5 -231 10 -234 6z m264 -147 c52 -4 92 -11 98
-15 1 -2 11 -3 21 -4 11 0 23 -4 27 -8 4 -4 13 0 21 10 9 12 12 13 8 2 -4 -10
6 -19 32 -28 62 -20 77 -24 100 -26 11 0 19 -4 17 -8 -2 -3 19 -14 46 -24 28
-10 50 -22 50 -26 0 -4 3 -7 8 -6 4 1 25 -6 47 -16 21 -9 46 -18 55 -20 8 -2
22 -6 30 -9 44 -18 206 -35 197 -20 -3 5 0 10 8 10 8 0 12 -4 10 -7 -3 -4 14
-11 37 -14 68 -11 98 -31 201 -131 54 -52 102 -95 108 -95 6 0 7 5 3 12 -4 6
-3 8 4 5 5 -4 8 -15 5 -26 -3 -14 4 -22 26 -32 17 -8 31 -17 31 -20 0 -4 23
-22 51 -40 28 -18 57 -39 65 -47 8 -8 22 -11 31 -7 10 3 14 3 10 -1 -4 -4 3
-14 15 -22 15 -11 23 -12 26 -4 2 6 10 8 18 5 13 -5 13 -7 2 -14 -10 -6 -9
-11 7 -23 11 -9 26 -16 33 -16 6 0 12 -4 12 -10 0 -5 6 -10 13 -10 8 0 22 -9
32 -20 10 -11 20 -18 23 -16 2 3 13 -4 25 -15 11 -10 27 -19 34 -19 7 0 13 -6
13 -14 0 -9 9 -13 25 -11 14 1 28 -2 32 -8 3 -6 1 -7 -5 -3 -24 14 -11 -10 15
-29 14 -11 32 -26 39 -32 7 -7 18 -13 24 -13 6 0 8 -4 5 -10 -3 -5 1 -10 9
-10 9 0 21 -9 28 -20 7 -11 18 -20 25 -20 7 0 13 -5 13 -10 0 -6 6 -9 13 -8 6
2 11 -3 9 -9 -1 -7 2 -13 7 -13 19 0 297 -271 406 -396 28 -31 71 -79 96 -105
25 -27 45 -50 43 -52 -1 -1 13 -20 31 -41 19 -22 32 -43 29 -48 -6 -9 -64 22
-64 34 0 4 -11 8 -25 8 -14 0 -25 4 -25 10 0 5 -7 7 -15 4 -8 -4 -15 -1 -15 6
0 6 -4 9 -9 5 -5 -3 -12 -2 -15 3 -5 9 -139 6 -197 -4 -27 -4 -55 -23 -103
-68 -36 -35 -66 -68 -66 -74 0 -7 -4 -12 -8 -12 -6 0 -29 -49 -33 -70 -1 -3
-6 -14 -12 -25 -6 -11 -12 -26 -13 -34 -2 -7 -8 -34 -14 -60 -6 -25 -12 -59
-14 -76 -4 -31 -9 -59 -26 -154 -5 -30 -15 -61 -22 -69 -10 -13 -10 -14 0 -8
17 10 15 2 -8 -24 -24 -28 -33 -21 -32 20 1 29 27 124 41 145 6 10 5 78 -2
105 -9 36 -36 87 -55 104 -12 10 -19 23 -16 27 3 5 -2 9 -10 9 -9 0 -16 3 -16
8 0 4 -10 18 -23 32 -69 76 -97 124 -148 248 -5 12 -13 32 -18 45 -5 12 -17
45 -26 74 -9 28 -19 53 -23 55 -4 2 -18 24 -31 51 -13 26 -28 47 -33 47 -4 0
-8 7 -8 16 0 8 -4 12 -10 9 -5 -3 -10 0 -10 8 0 25 -129 107 -170 107 -11 0
-20 5 -20 10 0 6 -10 10 -23 10 -13 0 -27 3 -31 7 -3 4 -15 8 -26 10 -35 5
-87 46 -120 95 -18 26 -37 48 -42 48 -4 0 -8 6 -8 14 0 19 -117 136 -136 136
-8 0 -14 4 -14 8 0 8 -86 47 -105 47 -5 0 -16 5 -24 9 -8 5 -24 10 -35 11 -40
4 -86 18 -92 26 -3 5 -14 9 -25 9 -11 0 -18 3 -15 8 2 4 -7 12 -20 19 -14 6
-26 7 -30 2 -7 -12 -24 -11 -24 2 0 5 5 7 10 4 6 -3 10 -2 10 3 0 10 -79 79
-121 104 -15 9 -30 21 -33 27 -4 6 -16 11 -27 11 -11 0 -17 5 -14 10 3 6 1 10
-5 10 -6 0 -17 6 -25 13 -30 29 -52 43 -84 56 -18 8 -42 24 -52 35 -11 11 -19
17 -19 13 0 -3 -12 5 -26 18 -15 14 -33 25 -40 25 -7 0 -14 4 -16 9 -1 4 -14
12 -28 16 -23 7 -24 7 -10 -11 14 -17 13 -18 -1 -7 -9 7 -20 9 -25 5 -5 -4 0
4 11 17 14 17 16 23 5 19 -8 -2 -25 1 -37 7 -13 7 -34 11 -48 9 -14 -1 -25 3
-25 9 0 5 -3 8 -6 5 -3 -4 -18 -2 -34 2 -16 5 -30 4 -32 0 -2 -5 -18 -12 -37
-15 -19 -3 -39 -9 -45 -13 -6 -3 -17 -7 -24 -8 -8 -2 -21 -8 -30 -16 -20 -15
-59 -38 -67 -38 -10 0 -5 79 6 86 8 4 8 9 0 17 -14 14 -14 27 0 27 5 0 7 -6 4
-12 -4 -7 1 -4 9 6 9 11 16 28 16 38 0 10 5 18 12 18 6 0 8 3 5 6 -4 4 3 20
14 35 11 16 18 33 15 38 -3 4 10 17 29 27 19 10 35 22 35 27 0 4 4 5 10 2 5
-3 18 -1 27 5 17 10 178 8 313 -5z m-470 -435 c-8 -5 -19 -10 -25 -10 -5 0 -3
5 5 10 8 5 20 10 25 10 6 0 3 -5 -5 -10z m-67 -95 c-3 -9 -8 -14 -10 -11 -3 3
-2 9 2 15 9 16 15 13 8 -4z m772 -85 c3 -5 1 -10 -4 -10 -6 0 -11 5 -11 10 0
6 2 10 4 10 3 0 8 -4 11 -10z m440 -130 c3 -5 1 -10 -4 -10 -6 0 -11 5 -11 10
0 6 2 10 4 10 3 0 8 -4 11 -10z m1470 -468 c-3 -3 -11 0 -18 7 -9 10 -8 11 6
5 10 -3 15 -9 12 -12z m332 -372 c-1 -12 -5 -16 -10 -11 -5 5 -6 14 -3 20 11
16 15 13 13 -9z m-400 4 c-3 -3 -12 -4 -19 -1 -8 3 -5 6 6 6 11 1 17 -2 13 -5z
m370 -310 c-3 -3 -12 -4 -19 -1 -8 3 -5 6 6 6 11 1 17 -2 13 -5z m-777 -344
c0 -5 -5 -10 -11 -10 -5 0 -7 5 -4 10 3 6 8 10 11 10 2 0 4 -4 4 -10z m-853
-867 c0 -9 -4 -10 -14 -2 -7 6 -13 12 -13 14 0 1 6 2 13 2 8 0 14 -6 14 -14z
m-7 -38 c0 -7 -30 -13 -34 -7 -3 4 4 9 15 9 10 1 19 0 19 -2z m-642 -28 c35
-2 67 -8 70 -13 4 -5 14 -10 22 -12 27 -6 62 -51 55 -72 -5 -17 -10 -18 -28
-8 -12 6 -27 17 -34 24 -24 23 -93 7 -223 -54 -33 -15 -90 -55 -134 -94 -11
-10 -24 -18 -28 -18 -5 0 -6 -5 -2 -11 4 -7 1 -10 -7 -7 -8 3 -19 0 -25 -6 -7
-6 -29 -25 -50 -43 -72 -58 -84 -70 -76 -78 4 -5 2 -5 -4 -2 -6 3 -20 -3 -32
-13 -12 -11 -24 -20 -27 -20 -19 0 -63 -45 -60 -62 2 -10 0 -16 -6 -13 -5 4
-6 11 -3 17 4 6 1 8 -7 4 -8 -3 -22 -9 -32 -12 -12 -5 -16 -13 -12 -28 5 -15
4 -17 -3 -7 -9 12 -16 11 -49 -4 -21 -10 -39 -17 -41 -16 -1 1 -10 -5 -18 -13
-8 -9 -37 -23 -64 -33 -28 -10 -50 -21 -50 -25 0 -5 -15 -8 -34 -8 -46 0 -81
36 -89 92 -6 35 44 107 108 155 56 42 112 90 118 100 4 7 15 13 22 13 8 0 15
5 15 11 0 6 20 32 44 58 117 123 136 143 136 151 0 4 10 6 23 6 12 -1 27 1 32
5 6 4 27 10 49 13 21 4 43 9 49 13 6 3 39 7 73 7 34 1 65 4 68 7 6 5 116 3
254 -4z m12 -101 c0 -3 -4 -8 -10 -11 -5 -3 -10 -1 -10 4 0 6 5 11 10 11 6 0
10 -2 10 -4z m160 -71 c14 1 29 -13 30 -25 0 -3 -10 -6 -21 -7 -12 -1 -29 -9
-38 -17 -26 -23 -34 -19 -26 11 8 33 26 57 34 46 3 -5 13 -8 21 -8z m-692
-290 c-3 -3 -9 2 -12 12 -6 14 -5 15 5 6 7 -7 10 -15 7 -18z m-2228 -885 c0
-5 -5 -10 -11 -10 -5 0 -7 5 -4 10 3 6 8 10 11 10 2 0 4 -4 4 -10z"/>
<path d="M3534 6088 c-3 -5 -10 -6 -15 -3 -5 4 -9 2 -9 -2 0 -5 -22 -9 -49
-10 -42 -1 -81 -13 -141 -42 -44 -22 -126 -67 -130 -71 -3 -3 -27 -23 -53 -44
-35 -29 -45 -42 -35 -48 10 -7 10 -8 -2 -7 -27 3 -40 -1 -40 -10 0 -6 -16 -27
-35 -48 -19 -21 -35 -46 -35 -56 0 -10 -4 -15 -10 -12 -5 3 -10 2 -10 -4 0 -5
-5 -22 -12 -38 -15 -36 -20 -68 -20 -118 0 -35 7 -85 13 -92 1 -2 2 -8 3 -13
0 -6 13 -26 29 -44 15 -19 27 -38 27 -42 0 -4 7 -15 15 -24 9 -10 17 -27 20
-39 4 -24 28 -51 45 -51 6 0 9 -4 6 -8 -3 -5 4 -14 14 -22 10 -8 16 -18 13
-24 -3 -6 3 -2 14 9 11 11 19 22 17 24 -2 2 3 12 11 22 15 16 22 66 13 99 -5
19 -39 73 -52 82 -6 4 -14 4 -20 1 -5 -3 -6 -1 -2 5 4 6 -5 29 -20 51 -16 25
-24 49 -21 61 3 11 0 20 -6 20 -7 0 -5 5 3 10 8 5 11 10 7 10 -12 0 35 80 47
80 5 0 7 3 3 6 -8 8 47 68 134 147 10 9 19 14 19 10 0 -5 4 -3 8 3 8 12 96 54
134 63 4 1 22 7 40 12 41 13 73 17 172 24 44 3 84 9 89 12 6 3 7 1 3 -5 -4 -7
0 -12 11 -13 10 -1 33 -2 51 -3 21 -1 37 4 43 14 7 11 8 9 6 -10 -1 -17 3 -24
12 -22 7 1 19 -2 27 -9 8 -6 20 -9 29 -5 8 3 14 0 12 -6 -1 -7 8 -13 21 -14
26 -2 64 -33 59 -48 -2 -6 3 -18 12 -26 30 -29 94 -148 86 -161 -3 -4 0 -9 6
-11 33 -11 0 -237 -39 -266 -9 -7 -15 -14 -12 -16 7 -5 -38 -62 -80 -103 -19
-19 -57 -45 -83 -59 -26 -14 -45 -29 -42 -34 3 -5 -7 -5 -25 0 -18 5 -30 5
-30 -1 0 -5 -3 -8 -7 -8 -5 1 -10 0 -13 -1 -16 -7 -120 -7 -145 0 -16 5 -45
11 -63 14 -18 2 -40 10 -49 18 -9 7 -18 12 -20 10 -8 -7 -63 10 -63 20 0 6 -6
8 -14 5 -8 -3 -20 1 -27 9 -7 8 -19 13 -28 11 -9 -2 -27 2 -41 8 -14 6 -34 11
-45 11 -25 -1 -81 -41 -83 -58 0 -7 -3 -28 -6 -45 -2 -18 -1 -33 2 -33 4 0 13
-14 21 -31 17 -40 33 -45 67 -22 28 18 94 26 104 13 6 -7 117 -44 140 -46 8
-1 20 -2 25 -4 6 -1 15 -3 20 -5 6 -1 12 -3 15 -5 13 -7 100 -5 100 3 0 4 4 5
10 2 21 -13 86 -13 111 0 15 8 29 12 32 8 4 -3 24 2 45 10 22 9 43 13 47 9 5
-4 5 -1 1 6 -5 8 0 12 14 12 30 0 200 143 200 169 0 5 6 16 14 24 28 28 74
144 81 202 9 91 9 116 0 160 -4 22 -9 47 -10 55 -3 23 -47 122 -70 155 -28 41
-127 139 -145 143 -8 2 -18 8 -21 13 -8 14 -58 39 -75 39 -8 0 -14 5 -14 11 0
5 -4 8 -8 5 -5 -3 -20 1 -33 8 -27 14 -27 14 -119 22 -115 9 -191 10 -196 2z
m-400 -674 c5 -14 4 -15 -9 -4 -17 14 -19 20 -6 20 5 0 12 -7 15 -16z"/>
<path d="M4555 5235 c-24 -8 -40 -18 -39 -27 1 -8 -5 -15 -12 -15 -7 0 -11 4
-8 9 10 16 -18 8 -49 -14 -41 -29 -117 -101 -117 -111 0 -5 -6 -15 -12 -22
-30 -33 -38 -45 -38 -55 0 -5 -6 -10 -13 -10 -7 0 -21 -11 -31 -25 -10 -14
-38 -37 -62 -52 -24 -16 -44 -31 -44 -36 0 -4 -11 -5 -25 -1 -18 4 -27 1 -32
-12 -3 -10 -23 -35 -44 -56 -38 -39 -73 -104 -85 -155 -13 -58 -12 -277 1
-308 7 -16 16 -29 19 -27 3 1 9 1 14 1 4 -1 14 -2 22 -3 15 -1 15 -6 6 -73
l-4 -32 56 1 c31 1 64 6 72 12 13 10 13 9 1 -6 -12 -16 -11 -18 5 -20 34 -2
39 -3 51 -11 7 -5 21 -10 30 -12 10 -2 37 -8 60 -13 51 -12 203 -8 229 6 17 8
282 10 309 3 6 -2 12 -2 15 -1 3 1 25 4 50 6 25 3 47 10 51 15 3 6 10 9 15 8
11 -3 60 17 77 31 74 60 152 154 141 171 -3 5 -1 8 4 7 6 -2 25 17 44 42 40
52 102 160 93 160 -3 0 3 13 14 29 11 15 18 31 15 34 -3 3 -2 12 2 19 14 22
18 50 17 136 0 49 -5 88 -11 94 -7 7 -12 20 -12 30 0 10 -7 30 -16 43 -9 14
-14 25 -11 25 7 0 -42 57 -76 89 -16 14 -32 26 -36 26 -4 0 -15 8 -25 18 -10
9 -24 17 -32 17 -8 0 -22 4 -32 9 -37 20 -108 35 -217 47 -22 2 -60 7 -85 10
-82 11 -204 11 -245 -1z m195 -130 c25 -4 68 -9 95 -10 40 -1 135 -16 190 -30
39 -9 93 -42 129 -79 50 -50 72 -119 62 -194 -3 -26 -7 -58 -8 -72 -2 -14 -6
-27 -9 -30 -3 -3 -20 -32 -38 -65 -18 -33 -48 -79 -67 -102 -19 -23 -34 -46
-34 -52 0 -6 -4 -11 -9 -11 -5 0 -12 -8 -15 -17 -9 -28 -86 -103 -125 -122
-31 -15 -63 -17 -208 -16 -103 1 -173 -2 -173 -8 0 -6 -17 -7 -39 -3 -26 4
-44 2 -53 -6 -7 -7 -26 -15 -42 -16 -47 -6 -160 28 -178 53 -4 5 -8 6 -8 2 0
-4 -10 -2 -22 5 -13 7 -50 13 -83 13 -48 0 -59 3 -56 15 4 16 9 109 12 233 2
72 4 79 35 112 18 19 39 35 47 35 7 0 24 11 37 25 13 14 30 23 36 21 12 -5 29
21 25 38 -1 5 5 6 14 3 8 -4 15 -2 15 3 0 6 5 10 10 10 11 0 90 78 90 89 0 4
9 14 20 24 12 10 18 22 15 27 -3 6 1 10 9 10 9 0 16 5 16 10 0 19 84 96 114
107 34 11 129 10 196 -2z m-705 -715 c3 -5 2 -10 -4 -10 -5 0 -13 5 -16 10 -3
6 -2 10 4 10 5 0 13 -4 16 -10z m-60 -40 c3 -6 -1 -7 -9 -4 -18 7 -21 14 -7
14 6 0 13 -4 16 -10z"/>
<path d="M2997 4954 c-1 -1 -24 -4 -52 -7 -27 -3 -60 -8 -72 -11 -59 -15 -69
-18 -83 -18 -8 0 -22 -7 -31 -14 -8 -8 -25 -12 -37 -9 -12 2 -22 0 -22 -6 0
-5 -6 -9 -14 -9 -33 0 -226 -113 -226 -133 0 -6 -3 -8 -6 -4 -8 8 -91 -77
-129 -133 -33 -49 -75 -131 -80 -158 -2 -9 -4 -17 -5 -17 -7 0 -13 -145 -9
-195 2 -16 21 -94 38 -150 14 -44 14 -60 0 -60 -14 0 -39 -26 -39 -40 0 -9 33
-44 72 -75 18 -15 88 -15 85 -1 -1 6 6 10 15 8 9 -1 19 6 23 18 3 11 10 20 14
20 9 0 8 66 -2 76 -4 4 -7 18 -7 31 0 13 -9 42 -20 63 -11 22 -18 40 -14 40 4
0 1 6 -5 13 -6 8 -8 17 -4 20 3 4 2 7 -4 7 -9 0 -15 44 -15 115 0 53 12 98 41
152 53 99 112 164 188 204 26 14 74 40 106 57 31 18 57 29 57 26 0 -4 11 1 25
10 14 10 34 16 43 15 21 -3 73 11 89 23 13 10 196 14 212 4 5 -4 12 -2 16 4 4
6 16 5 35 -5 16 -8 37 -15 47 -15 31 0 128 -71 179 -132 25 -29 68 -119 82
-170 5 -20 9 -65 8 -100 -2 -64 -31 -158 -48 -158 -5 0 -6 -5 -3 -10 3 -6 -1
-13 -9 -16 -9 -3 -13 -10 -10 -15 3 -5 -2 -12 -10 -15 -9 -3 -16 -10 -16 -15
0 -11 -90 -101 -90 -91 0 4 -5 -1 -11 -11 -6 -9 -14 -15 -20 -12 -5 4 -9 1 -9
-5 0 -5 -16 -18 -35 -27 -19 -9 -35 -21 -35 -25 0 -5 -4 -7 -9 -3 -5 3 -15 0
-23 -7 -7 -7 -18 -14 -23 -15 -20 -4 -110 -38 -115 -44 -6 -7 -53 -19 -102
-24 -20 -3 -47 -9 -60 -14 -14 -5 -69 -7 -124 -5 -139 7 -152 7 -214 1 -62 -6
-105 -20 -115 -37 -3 -5 -11 -8 -16 -5 -5 4 -9 -1 -9 -9 0 -9 -5 -16 -11 -16
-12 0 -48 -40 -49 -53 0 -16 30 -38 41 -31 8 4 9 3 5 -4 -4 -8 0 -12 11 -12
11 0 24 -5 31 -12 9 -9 12 -8 12 7 0 16 2 17 9 6 8 -12 11 -12 25 0 8 8 21 19
28 24 14 11 110 11 193 1 80 -10 191 -1 214 18 12 9 13 8 6 -4 -6 -12 -5 -13
6 -2 7 6 25 12 40 12 15 0 44 7 65 16 22 9 52 18 68 21 15 2 43 13 62 24 19
10 38 18 42 17 4 -1 27 9 51 22 24 14 55 31 70 39 38 20 111 80 151 125 19 21
42 46 51 56 20 22 92 150 83 150 -3 0 -2 6 3 13 6 6 14 30 19 52 11 55 13 225
2 231 -4 3 -8 16 -8 30 0 13 -4 24 -10 24 -5 0 -10 9 -10 19 0 11 -4 23 -10
26 -5 3 -10 12 -10 20 0 16 -52 96 -74 114 -8 7 -19 10 -25 7 -5 -3 -7 3 -4
14 3 11 1 20 -3 20 -5 0 -27 16 -49 35 -22 19 -45 35 -52 35 -6 0 -19 7 -27
16 -9 8 -24 17 -33 19 -10 2 -34 9 -53 16 -27 10 -246 29 -253 23z"/>
<path d="M2399 3305 c-3 -3 -30 -8 -60 -10 -125 -11 -165 -18 -180 -31 -9 -8
-20 -14 -25 -12 -12 4 -122 -51 -153 -76 -47 -38 -151 -146 -151 -156 0 -6 5
-10 11 -10 5 0 7 5 3 12 -4 7 -3 8 5 4 15 -10 3 -29 -14 -22 -18 6 -66 -71
-90 -144 -10 -30 -17 -55 -15 -55 2 0 -2 -11 -9 -24 -7 -13 -14 -33 -16 -45
-2 -11 -6 -40 -10 -63 -6 -38 -4 -44 25 -70 18 -15 39 -28 48 -29 28 -1 72 26
73 44 0 22 7 80 13 112 6 37 37 124 47 135 5 5 9 17 9 27 0 10 10 29 23 44 12
14 21 29 20 32 -1 4 7 10 18 14 11 4 18 12 14 17 -3 5 4 12 15 16 11 3 20 13
20 21 0 8 5 14 11 14 6 0 29 13 52 29 23 15 59 34 80 42 20 7 37 16 37 20 0 4
8 6 18 5 9 -2 33 2 52 8 21 7 84 11 155 9 137 -3 145 -4 145 -13 0 -4 6 -7 13
-8 27 -2 102 -24 112 -32 7 -6 16 -5 24 3 10 9 11 8 6 -5 -5 -14 -2 -18 13
-18 11 0 23 -6 25 -12 4 -10 8 -9 16 2 9 13 11 13 11 -3 0 -9 10 -22 23 -28
25 -11 80 -84 80 -105 0 -8 4 -14 8 -14 16 0 -1 -46 -24 -65 -60 -50 -72 -58
-101 -70 -17 -7 -42 -22 -56 -33 -14 -10 -38 -26 -55 -35 -16 -8 -43 -27 -60
-41 -16 -14 -34 -26 -38 -26 -5 0 -5 -5 -1 -12 4 -6 3 -8 -4 -4 -9 5 -102 -75
-102 -88 0 -3 -10 -16 -22 -29 -45 -46 -76 -85 -72 -89 7 -8 -120 -132 -153
-151 -18 -10 -33 -15 -33 -11 0 3 -6 1 -14 -5 -14 -12 -50 -10 -62 2 -4 4 -16
7 -26 7 -10 0 -18 4 -18 8 0 5 -7 9 -15 9 -8 0 -15 -4 -15 -8 0 -14 -62 10
-82 31 -10 11 -23 20 -28 20 -6 0 -10 5 -10 10 0 6 -9 19 -20 30 -11 11 -20
28 -20 38 0 10 9 24 20 32 25 18 26 36 3 49 -10 6 -14 11 -10 11 4 0 0 8 -10
19 -19 19 -63 34 -63 21 0 -4 -7 -11 -16 -14 -10 -4 -13 -2 -8 6 4 6 -5 3 -19
-8 -15 -10 -27 -24 -27 -31 0 -6 -5 -13 -12 -15 -23 -8 -29 -125 -7 -139 8 -5
10 -9 5 -9 -14 0 65 -74 113 -106 128 -84 178 -102 277 -100 81 2 125 14 158
44 10 9 20 15 23 13 9 -6 131 92 144 116 7 12 16 23 21 23 4 0 8 5 8 10 0 11
33 51 93 113 20 21 37 43 37 48 0 5 3 9 8 9 4 0 21 13 39 30 31 29 74 58 123
82 14 7 31 18 38 25 7 7 20 13 28 13 8 0 17 7 20 15 4 8 10 12 15 9 5 -3 9 2
9 11 0 9 4 14 9 10 11 -6 81 57 81 74 0 6 4 11 9 11 13 0 42 85 36 102 -4 9
-2 19 4 22 6 4 6 17 1 34 -23 72 -41 113 -57 130 -10 10 -27 30 -38 43 -11 14
-36 36 -55 50 -40 27 -130 71 -130 62 0 -3 -10 1 -22 9 -13 8 -30 14 -38 13
-8 0 -17 3 -20 7 -3 4 -17 9 -30 11 -14 3 -38 9 -55 13 -16 4 -49 7 -72 8 -24
0 -43 3 -43 8 0 4 -11 3 -24 -2 -16 -6 -26 -5 -28 1 -2 6 -6 8 -9 4z m-429
-305 c0 -5 -5 -10 -11 -10 -5 0 -7 5 -4 10 3 6 8 10 11 10 2 0 4 -4 4 -10z
m1035 -70 c3 -6 -1 -7 -9 -4 -18 7 -21 14 -7 14 6 0 13 -4 16 -10z"/>
<path d="M5327 2996 c-3 -8 -2 -18 3 -21 13 -8 20 9 11 24 -6 10 -10 9 -14 -3z"/>
<path d="M4880 2880 c0 -5 5 -10 11 -10 5 0 7 5 4 10 -3 6 -8 10 -11 10 -2 0
-4 -4 -4 -10z"/>
<path d="M296 2862 c-3 -6 -1 -14 5 -17 14 -9 20 -2 10 14 -6 8 -11 9 -15 3z"/>
<path d="M2198 2852 c-32 -4 -41 -31 -28 -86 10 -44 29 -71 31 -43 1 9 3 22 4
27 1 6 3 14 4 20 0 5 7 7 15 4 8 -3 13 -13 11 -22 -4 -27 4 -33 28 -21 21 12
21 11 4 -8 -14 -16 -14 -20 -2 -20 8 0 12 4 10 8 -3 3 5 9 16 12 18 5 19 9 9
27 -7 13 -17 19 -26 16 -11 -4 -12 -2 -4 13 5 11 18 18 27 16 10 -2 21 -4 26
-4 4 -1 7 -7 7 -15 0 -8 6 -16 13 -19 8 -3 12 4 11 22 -1 21 -6 25 -23 23 -18
-2 -21 2 -16 18 5 16 3 19 -11 13 -12 -4 -15 -3 -10 5 4 8 0 12 -11 13 -10 0
-27 1 -38 2 -11 1 -32 1 -47 -1z"/>
<path d="M580 2835 c0 -16 16 -20 24 -6 3 5 -1 11 -9 15 -9 3 -15 0 -15 -9z"/>
<path d="M1130 2811 c0 -5 5 -13 10 -16 6 -3 10 -2 10 4 0 5 -4 13 -10 16 -5
3 -10 2 -10 -4z"/>
<path d="M2355 1673 c2 -10 4 -19 5 -20 3 -4 7 -20 9 -33 0 -5 6 -10 11 -10 6
0 9 5 8 12 -2 7 15 17 39 23 23 5 45 14 50 19 4 5 3 6 -4 2 -8 -4 -13 -1 -13
8 0 13 -12 16 -54 16 -46 0 -54 -3 -51 -17z"/>
<path d="M2524 1408 c-4 -6 -3 -8 4 -4 6 3 13 2 17 -4 4 -6 11 -7 17 -4 6 4 5
10 -3 15 -19 12 -27 11 -35 -3z"/>
<path d="M6980 680 c-9 -6 -10 -10 -3 -10 6 0 15 5 18 10 8 12 4 12 -15 0z"/>
<path d="M2715 640 c3 -5 11 -10 16 -10 6 0 7 5 4 10 -3 6 -11 10 -16 10 -6 0
-7 -4 -4 -10z"/>
<path d="M1409 168 c4 -37 5 -39 11 -18 6 20 -3 60 -13 60 -1 0 -1 -19 2 -42z"/>
</g>
</svg>
